<?xml version="1.0" standalone="no"?>
<!DOCTYPE svg PUBLIC "-//W3C//DTD SVG 1.1//EN" "http://www.w3.org/Graphics/SVG/1.1/DTD/svg11.dtd" >
<svg xmlns="http://www.w3.org/2000/svg" xmlns:xlink="http://www.w3.org/1999/xlink" version="1.1">
<metadata>
Created by FontForge 20170910 at Thu Jul  3 05:56:15 2014
 By Jimmy Wärting
Copyright (c) 1992 Adobe Systems Incorporated.  All Rights Reserved.Myriad is a trademark of Adobe Systems Incorporated.
</metadata>
<defs>
<font id="MyriadSetPro-Ultralight" horiz-adv-x="300" >
  <font-face 
    font-family="Myriad Set Pro"
    font-weight="300"
    font-stretch="normal"
    units-per-em="1000"
    panose-1="2 0 1 3 5 0 0 2 0 4"
    ascent="800"
    descent="-200"
    x-height="483"
    cap-height="674"
    bbox="-434 -250 1058 963"
    underline-thickness="50"
    underline-position="-100"
    unicode-range="U+000A-FB06"
  />
<missing-glyph horiz-adv-x="500" 
d="M72 0v754h356v-754h-356zM97 25h306v704h-306v-704z" />
    <glyph glyph-name="ff" unicode="ff" horiz-adv-x="441" 
d="M301 0v467h-202v-467h-21v467h-62v16h62v24q0 103 29 152t95 49q34 0 57 -12l-6 -18q-11 5 -23 8.5t-28 3.5q-56 0 -79.5 -43.5t-23.5 -139.5v-24h202v24q0 103 29 158t95 55q33 0 56 -12l-5 -18q-11 5 -23 8.5t-28 3.5q-56 0 -79.5 -49.5t-23.5 -145.5v-24h112v-16h-112
v-467h-21z" />
    <glyph glyph-name="ffi" unicode="ffi" horiz-adv-x="627" 
d="M533 680q-17 10 -37.5 16t-44.5 6q-70 0 -99.5 -49.5t-29.5 -145.5v-24h225v-483h-21v467h-204v-467h-21v467h-202v-467h-21v467h-62v16h62v24q0 103 29 152t95 49q34 0 57 -12l-6 -18q-11 5 -23 8.5t-28 3.5q-56 0 -79.5 -43.5t-23.5 -139.5v-24h202v24q0 103 34.5 158
t115.5 55q27 0 49 -6t40 -16z" />
    <glyph glyph-name="ffl" unicode="ffl" horiz-adv-x="627" 
d="M253 678q-11 5 -23 8.5t-28 3.5q-56 0 -79.5 -43.5t-23.5 -139.5v-24h202v24q0 103 34.5 158t115.5 55q53 0 96 -26v-694h-21v684q-15 8 -34 13t-41 5q-70 0 -99.5 -49.5t-29.5 -145.5v-24h112v-16h-112v-467h-21v467h-202v-467h-21v467h-62v16h62v24q0 103 29 152t95 49
q34 0 57 -12z" />
    <glyph glyph-name="fi" unicode="fi" horiz-adv-x="404" 
d="M78 0v467h-62v16h62v24q0 103 34.5 158t115.5 55q27 0 49 -6t40 -16l-7 -18q-17 10 -37.5 16t-44.5 6q-70 0 -99.5 -49.5t-29.5 -145.5v-24h225v-483h-21v467h-204v-467h-21z" />
    <glyph glyph-name="fl" unicode="fl" horiz-adv-x="404" 
d="M78 0v467h-62v16h62v24q0 103 34.5 158t115.5 55q53 0 96 -26v-694h-21v684q-15 8 -34 13t-41 5q-70 0 -99.5 -49.5t-29.5 -145.5v-24h112v-16h-112v-467h-21z" />
    <glyph glyph-name=".notdef" horiz-adv-x="500" 
d="M72 0v754h356v-754h-356zM97 25h306v704h-306v-704z" />
    <glyph glyph-name="space" unicode=" " horiz-adv-x="219" 
 />
    <glyph glyph-name="exclam" unicode="!" horiz-adv-x="174" 
d="M101 674l-7 -485h-15l-7 485h29zM111 19q0 -25 -24 -25q-11 0 -17.5 7t-6.5 18t6.5 18.5t17.5 7.5t17.5 -7.5t6.5 -18.5z" />
    <glyph glyph-name="quotedbl" unicode="&#x22;" horiz-adv-x="255" 
d="M82 691l-7 -224h-13l-7 224h27zM200 691l-7 -224h-13l-7 224h27z" />
    <glyph glyph-name="numbersign" unicode="#" horiz-adv-x="447" 
d="M150 439l28 211h20l-28 -211h138l28 211h20l-28 -211h83v-18h-85l-25 -186h88v-18h-90l-29 -217h-20l29 217h-139l-29 -217h-20l29 217h-84v18h86l26 186h-89v18h91zM142 235h139l25 186h-138z" />
    <glyph glyph-name="dollar" unicode="$" horiz-adv-x="444" 
d="M368 178q0 -29 -9.5 -56.5t-27.5 -49.5t-45 -37t-62 -19v-101h-18v100h-6q-40 0 -76 11t-59 26l7 18q20 -15 55.5 -26t70.5 -11q36 0 63.5 11.5t46.5 31.5t28.5 46t9.5 55q0 31 -11 54t-29 40t-42 30t-50 25q-27 13 -52 26.5t-44.5 31.5t-31 42t-11.5 56q0 31 10 58
t29 47.5t44.5 34t57.5 16.5v97h19v-96h2q35 0 63 -8.5t42 -19.5l-7 -17q-13 10 -37.5 18t-59.5 9q-26 0 -51.5 -8.5t-45.5 -26t-32 -43t-12 -59.5q0 -29 10.5 -50t28.5 -37t42 -29t51 -26t52 -27.5t44.5 -33.5t31 -44t11.5 -59z" />
    <glyph glyph-name="percent" unicode="%" horiz-adv-x="761" 
d="M177 661q57 0 91.5 -49.5t34.5 -144.5q0 -52 -10.5 -90.5t-28 -64t-41 -38t-49.5 -12.5q-25 0 -48 12t-40.5 36.5t-28 61t-10.5 86.5q0 49 10.5 87t28.5 64t41.5 39t49.5 13zM177 646q-46 0 -78 -48.5t-32 -139.5q0 -90 31.5 -135.5t75.5 -45.5q46 0 77.5 47.5
t31.5 141.5q0 87 -28.5 133.5t-77.5 46.5zM588 391q57 0 91.5 -49.5t34.5 -143.5q0 -52 -10.5 -90.5t-28.5 -64t-41.5 -38t-49.5 -12.5q-24 0 -47 12t-40.5 36.5t-28 61.5t-10.5 86t10.5 87t28.5 63.5t41.5 38.5t49.5 13zM588 376q-46 0 -78 -48t-32 -139q0 -90 31.5 -135.5
t74.5 -45.5q47 0 78.5 47.5t31.5 141.5q0 86 -28.5 132.5t-77.5 46.5zM181 -11l379 672h19l-379 -672h-19z" />
    <glyph glyph-name="ampersand" unicode="&#x26;" horiz-adv-x="527" 
d="M512 364q-10 -69 -29 -138.5t-57 -123.5l89 -102h-26l-76 86q-35 -44 -84.5 -70.5t-118.5 -26.5q-39 0 -72 11.5t-57 34t-37.5 55t-13.5 74.5q0 40 11.5 71.5t30.5 56t44 43.5t52 35q-31 40 -47.5 78t-16.5 80q0 33 10.5 62t30 50t46 33t58.5 12q54 0 84 -35t30 -87
q0 -36 -14.5 -64.5t-38.5 -52t-54 -42.5t-61 -37l219 -251q34 51 51 116.5t26 131.5h21zM212 6q65 0 111 26t78 68l-223 257q-25 -15 -48 -33t-40 -41t-27.5 -52t-10.5 -65q0 -39 13 -68.5t34.5 -50t50.5 -31t62 -10.5zM126 529q0 -38 14.5 -74t44.5 -75q29 17 57.5 35.5
t50.5 40t35.5 48t13.5 59.5q0 45 -24.5 75t-68.5 30q-28 0 -50.5 -10.5t-38.5 -29.5t-25 -44t-9 -55z" />
    <glyph glyph-name="quotesingle" unicode="'" horiz-adv-x="137" 
d="M82 691l-7 -224h-13l-7 224h27z" />
    <glyph glyph-name="parenleft" unicode="(" horiz-adv-x="236" 
d="M218 695q-24 -32 -48 -73t-42.5 -92t-30 -112t-11.5 -133t11.5 -132.5t30 -110.5t42.5 -90.5t48 -72.5h-22q-24 31 -47.5 70.5t-42 89.5t-30 111t-11.5 135t11.5 135.5t30 111.5t42 90.5t47.5 72.5h22z" />
    <glyph glyph-name="parenright" unicode=")" horiz-adv-x="236" 
d="M18 -121q24 32 48 73t42.5 92t30 112t11.5 133t-11.5 132t-30 110.5t-42.5 91t-48 72.5h22q24 -31 47.5 -70.5t42 -89.5t30 -111t11.5 -135t-11.5 -135.5t-30 -111.5t-42 -90.5t-47.5 -72.5h-22z" />
    <glyph glyph-name="asterisk" unicode="*" horiz-adv-x="373" 
d="M277 647l-82 -125v-2l148 8v-26l-148 9v-2l82 -125l-23 -13l-67 133h-2l-74 -133l-23 13l89 125v2l-147 -9v26l147 -8v2l-89 125l23 13l74 -135h2l67 135z" />
    <glyph glyph-name="plus" unicode="+" horiz-adv-x="555" 
d="M287 532v-253h223v-18h-223v-261h-20v261h-222v18h222v253h20z" />
    <glyph glyph-name="comma" unicode="," horiz-adv-x="137" 
d="M104 78q-17 -63 -35 -118.5t-36 -87.5l-15 -5q15 42 29.5 95t22.5 106z" />
    <glyph glyph-name="hyphen" unicode="-" horiz-adv-x="251" 
d="M221 285v-19h-191v19h191z" />
    <glyph glyph-name="period" unicode="." horiz-adv-x="137" 
d="M100 19q0 -25 -24 -25q-11 0 -17.5 7t-6.5 18t6.5 18.5t17.5 7.5t17.5 -7.5t6.5 -18.5z" />
    <glyph glyph-name="slash" unicode="/" horiz-adv-x="306" 
d="M0 -40l285 725h21l-285 -725h-21z" />
    <glyph glyph-name="zero" unicode="0" horiz-adv-x="444" 
d="M227 661q85 0 132.5 -84.5t47.5 -244.5q0 -170 -50 -256.5t-140 -86.5q-38 0 -71 21t-57 63t-38 104.5t-14 145.5q0 84 14.5 147t40 105.5t60 64t75.5 21.5zM226 643q-36 0 -66.5 -20t-53 -60.5t-35 -100.5t-12.5 -139q0 -157 45 -236.5t114 -79.5q79 0 123 82.5
t44 241.5q0 151 -42 231.5t-117 80.5z" />
    <glyph glyph-name="one" unicode="1" horiz-adv-x="444" 
d="M252 0h-21v629q-3 -1 -16 -8q-12 -6 -36.5 -20t-69.5 -39l-4 17l128 71h19v-650z" />
    <glyph glyph-name="two" unicode="2" horiz-adv-x="444" 
d="M388 0h-344v14l77 90q53 60 96 111t74 97t47.5 89.5t16.5 89.5q0 30 -8 57.5t-25 48.5t-44 33.5t-66 12.5q-42 0 -77.5 -18t-59.5 -44l-8 15q27 28 64.5 46.5t82.5 18.5q43 0 74 -14t50.5 -37.5t29 -54t9.5 -63.5q0 -47 -17.5 -92t-49 -92t-74 -98.5t-93.5 -110.5
l-70 -80v-2h315v-17z" />
    <glyph glyph-name="three" unicode="3" horiz-adv-x="444" 
d="M375 184q0 -40 -13 -75.5t-38.5 -62t-63 -42t-86.5 -15.5q-43 0 -77.5 13t-54.5 28l8 18q18 -15 51.5 -28t72.5 -13q45 0 78.5 13.5t56 37.5t33.5 56.5t11 69.5q0 34 -13.5 63.5t-38 51.5t-58 34.5t-73.5 12.5h-29v17h29q30 0 58.5 12t51 32.5t36 48.5t13.5 60
q0 24 -8 47t-23.5 41t-40 28.5t-57.5 10.5q-39 0 -73 -15t-54 -32l-6 18q22 17 57.5 32t77.5 15q38 0 66 -12.5t46.5 -33t27.5 -46t9 -51.5q0 -27 -9.5 -52.5t-26 -46.5t-40 -37t-50.5 -25v-2q28 -5 55 -19t48 -36t34 -51.5t13 -64.5z" />
    <glyph glyph-name="four" unicode="4" horiz-adv-x="444" 
d="M316 0v202h-299v14l291 434h29v-431h87v-17h-87v-202h-21zM316 630h-2q-17 -27 -32.5 -52t-32.5 -51l-206 -306v-2h273v411z" />
    <glyph glyph-name="five" unicode="5" horiz-adv-x="444" 
d="M365 633h-227l-36 -243q33 3 66 3q46 0 85 -13.5t68 -38.5t45.5 -60.5t16.5 -80.5q0 -51 -16 -90t-44.5 -66t-66.5 -41t-81 -14q-45 0 -76 11t-55 25l6 17q22 -14 52.5 -25t72.5 -11q39 0 73 12.5t59.5 37t40 60t14.5 82.5q0 41 -14.5 74t-41 56t-63 35.5t-80.5 12.5
q-20 0 -41.5 -1.5t-41.5 -4.5l41 280h244v-17z" />
    <glyph glyph-name="six" unicode="6" horiz-adv-x="444" 
d="M410 217q0 -45 -12.5 -86.5t-37 -73t-59.5 -50t-80 -18.5q-41 0 -75 19t-59 54t-39 86t-14 116q0 83 20.5 154.5t59.5 125t96.5 84.5t131.5 33q0 -5 0.5 -9.5t0.5 -9.5q-122 -3 -197 -88.5t-89 -239.5h2q23 45 70.5 73.5t103.5 28.5q40 0 73 -14t56 -40t35.5 -62.5
t12.5 -82.5zM388 216q0 85 -43 133.5t-115 48.5q-32 0 -63 -12.5t-55.5 -33.5t-40 -48.5t-15.5 -58.5q0 -51 12.5 -94.5t34.5 -75.5t52 -50t66 -18q40 0 71 17t52.5 45.5t32.5 66.5t11 80z" />
    <glyph glyph-name="seven" unicode="7" horiz-adv-x="444" 
d="M107 0h-23l296 633h-330v17h354v-14z" />
    <glyph glyph-name="eight" unicode="8" horiz-adv-x="444" 
d="M221 -11q-42 0 -75.5 13.5t-57.5 36.5t-36.5 53t-12.5 64q0 66 41 114t115 74v3q-60 18 -95 60.5t-35 96.5q0 34 12.5 63t34 50t52 32.5t66.5 11.5q39 0 68 -12t47.5 -31.5t28 -45t9.5 -52.5q0 -54 -30 -97.5t-99 -73.5v-3q32 -10 59.5 -27.5t48 -41t32 -51.5t11.5 -58
q0 -41 -14 -74t-39 -56.5t-58.5 -36t-72.5 -12.5zM220 338q-86 -32 -122.5 -77.5t-36.5 -103.5q0 -31 11 -58t32 -47.5t50.5 -32.5t66.5 -12q35 0 64.5 11t51.5 32t34 50.5t12 66.5q0 30 -12.5 57.5t-34 50t-51.5 39t-65 24.5zM230 355q66 25 98.5 66.5t32.5 96.5
q0 23 -7.5 45.5t-24 40t-41.5 28.5t-59 11q-32 0 -58 -10t-44.5 -28.5t-29 -43.5t-10.5 -55q0 -54 36 -94.5t107 -56.5z" />
    <glyph glyph-name="nine" unicode="9" horiz-adv-x="444" 
d="M384 410q0 51 -12.5 93.5t-34.5 73.5t-51.5 48.5t-63.5 17.5q-39 0 -69.5 -17t-51 -45.5t-31.5 -66.5t-11 -80q0 -85 43 -131t115 -46q30 0 59.5 12.5t53.5 33.5t39 48.5t15 58.5zM406 391q0 -83 -20.5 -155.5t-59.5 -126.5t-96.5 -86t-131.5 -34q0 5 -0.5 9.5t-0.5 9.5
q61 1 110.5 25t86.5 66.5t60 103.5t30 138h-2q-22 -45 -68.5 -73.5t-99.5 -28.5q-81 0 -129 51t-48 143q0 45 12.5 86.5t36 73t58 50t78.5 18.5q39 0 72.5 -18t58.5 -52.5t39 -85t14 -114.5z" />
    <glyph glyph-name="colon" unicode=":" horiz-adv-x="137" 
d="M100 407q0 -11 -6.5 -18t-17.5 -7t-17.5 7t-6.5 18t6.5 18.5t17.5 7.5t17.5 -7.5t6.5 -18.5zM100 19q0 -11 -6.5 -18t-17.5 -7t-17.5 7t-6.5 18t6.5 18.5t17.5 7.5t17.5 -7.5t6.5 -18.5z" />
    <glyph glyph-name="semicolon" unicode=";" horiz-adv-x="137" 
d="M106 407q0 -11 -6.5 -18t-17.5 -7t-17.5 7t-6.5 18t6.5 18.5t17.5 7.5t17.5 -7.5t6.5 -18.5zM104 78q-17 -63 -35 -118.5t-36 -87.5l-15 -5q15 42 29.5 95t22.5 106z" />
    <glyph glyph-name="less" unicode="&#x3c;" horiz-adv-x="555" 
d="M72 275l411 221v-21l-391 -209v-2l391 -209v-21l-411 221v20z" />
    <glyph glyph-name="equal" unicode="=" horiz-adv-x="555" 
d="M510 376v-18h-465v18h465zM510 181v-18h-465v18h465z" />
    <glyph glyph-name="greater" unicode="&#x3e;" horiz-adv-x="555" 
d="M483 255l-411 -221v21l391 209v2l-391 209v21l411 -221v-20z" />
    <glyph glyph-name="question" unicode="?" horiz-adv-x="335" 
d="M290 551q0 -51 -26 -97t-59 -88q-30 -37 -43 -67t-13 -71v-21t2 -21h-21q-2 12 -2.5 22t-0.5 21q0 44 14.5 76.5t44.5 69.5q32 40 56.5 84t24.5 91q0 48 -28 83t-85 35q-25 0 -50 -8.5t-43 -24.5l-10 14q20 17 48.5 27t57.5 10q33 0 58 -11t41.5 -29.5t25 -43t8.5 -51.5z
M166 19q0 -25 -24 -25q-11 0 -17.5 7t-6.5 18t6.5 18.5t17.5 7.5t17.5 -7.5t6.5 -18.5z" />
    <glyph glyph-name="at" unicode="@" horiz-adv-x="690" 
d="M472 401q-12 6 -29 8.5t-36 2.5q-42 0 -78 -18.5t-62 -49t-40.5 -71t-14.5 -84.5q0 -22 4.5 -41.5t14 -34.5t25 -23.5t37.5 -8.5q23 0 45.5 10.5t42 33.5t36 61t28.5 92zM477 -66q-37 -23 -74.5 -30.5t-80.5 -7.5q-57 0 -108 21t-89.5 61t-61 97.5t-22.5 130.5
q0 79 24 149t68.5 122.5t107.5 83.5t141 31q60 0 109.5 -21t85 -59t55.5 -90t20 -115q0 -59 -13 -104t-35 -75.5t-50.5 -46.5t-58.5 -16q-45 0 -60 28.5t-9 72.5h-3q-20 -45 -55 -73t-76 -28q-46 0 -72.5 31.5t-26.5 92.5q0 48 16 91t45 76t68.5 52.5t86.5 19.5q24 0 46 -4
t38 -14l-46 -214q-14 -66 0.5 -91.5t49.5 -25.5q26 0 50.5 15t43.5 44t30.5 71t11.5 97q0 60 -18.5 109.5t-51.5 85t-79.5 55.5t-102.5 20q-72 0 -131.5 -29t-101.5 -79t-65 -117.5t-23 -143.5q0 -70 21 -124.5t56.5 -92.5t83.5 -58t102 -20q40 0 77.5 7.5t72.5 29.5z" />
    <glyph glyph-name="A" unicode="A" horiz-adv-x="553" 
d="M293 674l229 -674h-23l-81 239h-281l-81 -239h-22l229 674h30zM412 257q-19 56 -38 111t-37 112q-14 44 -29 87t-29 87h-2q-15 -43 -29 -87t-29 -87q-19 -56 -38 -111.5t-38 -111.5h269z" />
    <glyph glyph-name="B" unicode="B" horiz-adv-x="482" 
d="M85 665q23 5 53 9.5t73 4.5q44 0 81 -8t64 -26t42 -48.5t15 -75.5q0 -63 -43.5 -105t-112.5 -56v-2q36 -6 68.5 -17.5t57.5 -31.5t39.5 -49.5t14.5 -71.5q0 -53 -22 -90t-59 -60t-85 -33.5t-100 -10.5q-51 0 -86 8v663zM106 366h77q45 0 83 10.5t65.5 30.5t43.5 49t16 65
q0 39 -13 66t-36.5 43.5t-57 23.5t-73.5 7q-33 0 -61 -3.5t-44 -7.5v-284zM106 18q14 -2 31 -4t37 -2q47 0 90.5 9.5t76.5 30.5t53 54.5t20 81.5q0 46 -19 77t-52 49.5t-77 26.5t-93 8h-67v-331z" />
    <glyph glyph-name="C" unicode="C" horiz-adv-x="549" 
d="M513 17q-24 -8 -64 -17.5t-97 -9.5q-69 0 -126.5 22t-99 65t-64.5 106.5t-23 147.5q0 79 22.5 144t65 111.5t104.5 72t141 25.5q51 0 85 -9.5t56 -19.5l-6 -18q-21 9 -54 19t-81 10q-74 0 -131.5 -24t-97 -68t-60.5 -106t-21 -137q0 -79 21 -139t59.5 -101t92.5 -62
t119 -21q50 0 90 9t64 17z" />
    <glyph glyph-name="D" unicode="D" horiz-adv-x="621" 
d="M85 664q35 6 76 10.5t82 4.5q75 0 137 -19.5t107 -59.5t69.5 -101t24.5 -145q0 -178 -95.5 -269t-267.5 -91q-35 0 -69 1.5t-64 6.5v662zM106 17q24 -3 54.5 -4t59.5 -1q162 0 250 86t88 255q0 78 -22.5 136t-64 96.5t-99.5 57t-129 18.5q-37 0 -72 -3.5t-65 -8.5v-632z
" />
    <glyph glyph-name="E" unicode="E" horiz-adv-x="429" 
d="M363 346h-257v-327h287v-19h-308v674h293v-19h-272v-290h257v-19z" />
    <glyph glyph-name="F" unicode="F" horiz-adv-x="418" 
d="M373 674v-19h-267v-302h246v-19h-246v-334h-21v674h288z" />
    <glyph glyph-name="G" unicode="G" horiz-adv-x="578" 
d="M517 30q-23 -11 -68 -24t-103 -13q-72 0 -128.5 24t-96.5 68t-61 107t-21 141q0 74 22.5 138t65 110.5t103 73t135.5 26.5q45 0 79.5 -10t50.5 -19l-6 -18q-17 10 -50 19.5t-74 9.5q-70 0 -126 -25t-95.5 -69t-60.5 -104t-21 -131q0 -75 19.5 -134.5t56.5 -101.5
t90 -64.5t119 -22.5q49 0 88.5 11t61.5 21v256h-142v17h162v-286z" />
    <glyph glyph-name="H" unicode="H" horiz-adv-x="597" 
d="M106 674v-309h385v309h21v-674h-21v346h-385v-346h-21v674h21z" />
    <glyph glyph-name="I" unicode="I" horiz-adv-x="197" 
d="M109 674v-674h-21v674h21z" />
    <glyph glyph-name="J" unicode="J" horiz-adv-x="311" 
d="M235 674v-457q0 -66 -11 -110t-29.5 -70t-44 -37t-54.5 -11q-24 0 -47 4.5t-38 10.5l5 17q15 -5 35.5 -9.5t43.5 -4.5q25 0 47 10t38 34.5t25 65t9 101.5v456h21z" />
    <glyph glyph-name="K" unicode="K" horiz-adv-x="485" 
d="M106 674v-350h2q17 20 34 38.5t34 38.5l247 273h28l-259 -285l282 -389h-27l-270 374l-71 -77v-297h-21v674h21z" />
    <glyph glyph-name="L" unicode="L" horiz-adv-x="405" 
d="M106 674v-655h280v-19h-301v674h21z" />
    <glyph glyph-name="M" unicode="M" horiz-adv-x="746" 
d="M148 674l119 -341q26 -74 49.5 -149.5t49.5 -155.5h2q27 75 54.5 150.5t56.5 153.5l125 342h34l43 -674h-22l-22 327q-5 81 -9 163t-9 162h-2q-29 -77 -56.5 -155t-56.5 -157l-125 -337h-25l-111 330q-27 80 -54.5 159t-55.5 160h-2q-6 -88 -11 -176.5t-11 -180.5
l-21 -295h-22l47 674h35z" />
    <glyph glyph-name="N" unicode="N" horiz-adv-x="607" 
d="M110 674l221 -360q44 -71 85.5 -140t83.5 -138h2q-1 80 -1 158v159v321h21v-674h-23l-219 355q-45 72 -87 143t-86 143h-2q1 -80 1 -159v-161v-321h-21v674h25z" />
    <glyph glyph-name="O" unicode="O" horiz-adv-x="619" 
d="M580 344q0 -87 -23 -153.5t-62 -111t-90.5 -67.5t-109.5 -23q-59 0 -109.5 24.5t-87.5 69.5t-58 108t-21 140q0 80 22 145.5t60.5 112t90.5 71.5t112 25q62 0 113 -25t87 -70t56 -108t20 -138zM557 343q0 70 -18 129t-51.5 102.5t-80 68t-103.5 24.5t-105 -24.5t-83 -69
t-54.5 -106t-19.5 -136.5q0 -71 19 -130.5t52.5 -102.5t80 -67t102.5 -24q55 0 102.5 22.5t82.5 65.5t55.5 105.5t20.5 142.5z" />
    <glyph glyph-name="P" unicode="P" horiz-adv-x="474" 
d="M85 665q21 4 53 9t78 5q48 0 87 -10t67 -32t43.5 -57.5t15.5 -87.5q0 -45 -15.5 -82.5t-45 -64t-72.5 -41t-97 -14.5q-24 0 -47.5 1.5t-45.5 5.5v-297h-21v665zM106 315q22 -4 45.5 -5.5t46.5 -1.5q103 0 156.5 50.5t53.5 132.5q0 47 -14 79.5t-39 52.5t-60.5 29t-78.5 9
q-39 0 -66 -4t-44 -7v-335z" />
    <glyph glyph-name="Q" unicode="Q" horiz-adv-x="639" 
d="M352 -9q20 -6 48.5 -14.5t60 -16.5t62.5 -15.5t55 -13.5l-7 -18q-63 15 -120 32t-108 32q-14 4 -24.5 6.5t-21 4.5t-21.5 4t-24 6q-47 12 -86 41t-67.5 71.5t-44 98.5t-15.5 122q0 80 22 145.5t60.5 112t90.5 71.5t112 25q62 0 113 -25t87 -70t56 -108t20 -138
q0 -80 -19.5 -142t-53 -106.5t-79 -70t-96.5 -32.5v-2zM577 343q0 70 -18 129t-51.5 102.5t-80 68t-103.5 24.5t-105 -24.5t-83 -69t-54.5 -106t-19.5 -136.5q0 -71 19 -130.5t52.5 -102.5t80 -67t102.5 -24q55 0 102.5 22.5t82.5 65.5t55.5 105.5t20.5 142.5z" />
    <glyph glyph-name="R" unicode="R" horiz-adv-x="478" 
d="M427 0q-7 14 -17 58t-27 110q-12 46 -26.5 76t-35 47t-49 23.5t-68.5 6.5h-98v-321h-21v664q60 15 131 15q103 0 156 -44t53 -127q0 -63 -37 -109.5t-106 -66.5v-2q51 -11 78 -49.5t44 -107.5q17 -70 28 -115t18 -58h-23zM404 507q0 77 -48.5 115.5t-138.5 38.5
q-31 0 -59 -2.5t-52 -8.5v-312h94q99 0 150.5 47t53.5 122z" />
    <glyph glyph-name="S" unicode="S" horiz-adv-x="427" 
d="M342 636q-14 11 -42 20.5t-63 9.5q-36 0 -65.5 -11t-50.5 -31t-32.5 -47t-11.5 -60q0 -32 12 -56t32.5 -42.5t47 -33t55.5 -28.5q30 -14 57.5 -31t49 -38.5t34 -49t12.5 -63.5q0 -38 -12.5 -71.5t-37.5 -59t-62.5 -40t-86.5 -14.5q-38 0 -75 11.5t-60 28.5l7 20
q20 -18 57 -29.5t72 -11.5q43 0 76 13t55.5 35.5t33.5 52.5t11 64q0 33 -12 58t-32 45t-46.5 35t-55.5 29q-30 14 -57.5 29.5t-48.5 35.5t-34 46.5t-13 62.5q0 38 13 69t37 53.5t57 34.5t74 12q38 0 67.5 -9.5t45.5 -20.5z" />
    <glyph glyph-name="T" unicode="T" horiz-adv-x="421" 
d="M425 655h-205v-655h-21v655h-203v19h429v-19z" />
    <glyph glyph-name="U" unicode="U" horiz-adv-x="593" 
d="M106 674v-403q0 -71 14.5 -121t39.5 -81.5t58.5 -46t71.5 -14.5q41 0 77 15t62.5 47.5t42 83t15.5 121.5v399h21v-399q0 -76 -17 -130t-47 -88.5t-69.5 -51t-84.5 -16.5q-42 0 -79.5 15.5t-65 49t-44 87t-16.5 129.5v404h21z" />
    <glyph glyph-name="V" unicode="V" horiz-adv-x="498" 
d="M494 674l-240 -674h-24l-218 674h24l105 -330q26 -81 51 -159t50 -157h2q26 77 52.5 153t54.5 154l119 339h24z" />
    <glyph glyph-name="W" unicode="W" horiz-adv-x="773" 
d="M764 674l-190 -674h-21l-91 363q-18 72 -35 139.5t-34 137.5h-2q-19 -69 -39 -138t-40 -139l-105 -363h-21l-170 674h23l86 -350q18 -73 36.5 -145.5t35.5 -144.5h2q18 68 37.5 137t39.5 139l107 364h21l92 -364q17 -69 33.5 -138t33.5 -138h2q20 72 40 144.5t40 146.5
l96 349h23z" />
    <glyph glyph-name="X" unicode="X" horiz-adv-x="509" 
d="M69 674l97 -164q22 -36 43 -72t44 -75h2q23 35 44.5 72.5t44.5 74.5l100 164h26l-201 -327l205 -347h-26l-110 186q-22 37 -42.5 72t-40.5 70h-2q-20 -35 -40.5 -70t-42.5 -72l-109 -186h-26l205 346l-197 328h26z" />
    <glyph glyph-name="Y" unicode="Y" horiz-adv-x="468" 
d="M459 674l-214 -369v-305h-21v305l-210 369h25l107 -189q23 -41 44.5 -81t43.5 -80h2q20 41 43.5 80t46.5 81l108 189h25z" />
    <glyph glyph-name="Z" unicode="Z" horiz-adv-x="493" 
d="M453 674v-13l-386 -641v-1h391v-19h-421v13l386 641v1h-354v19h384z" />
    <glyph glyph-name="bracketleft" unicode="[" horiz-adv-x="229" 
d="M213 -112h-130v797h130v-16h-111v-765h111v-16z" />
    <glyph glyph-name="backslash" unicode="\" horiz-adv-x="306" 
d="M24 685l279 -725h-21l-279 725h21z" />
    <glyph glyph-name="bracketright" unicode="]" horiz-adv-x="229" 
d="M16 -96h111v765h-111v16h130v-797h-130v16z" />
    <glyph glyph-name="asciicircum" unicode="^" horiz-adv-x="555" 
d="M494 191h-21l-194 439h-2l-195 -439h-21l206 459h22z" />
    <glyph glyph-name="underscore" unicode="_" horiz-adv-x="500" 
d="M500 -75v-20h-500v20h500z" />
    <glyph glyph-name="grave" unicode="`" 
d="M89 686l93 -136h-16l-113 136h36z" />
    <glyph glyph-name="a" unicode="a" horiz-adv-x="433" 
d="M340 0q-2 17 -3 39t-1 45h-3q-23 -38 -61 -66.5t-95 -28.5q-32 0 -57.5 10t-43.5 27.5t-28 40.5t-10 50q0 40 20 71t58.5 52.5t93 33t123.5 11.5v13q0 31 -5 63t-19.5 57.5t-39.5 41.5t-65 16q-29 0 -61.5 -9.5t-55.5 -27.5l-7 17q23 17 58.5 27t66.5 10q46 0 74.5 -17
t45 -45t22.5 -63.5t6 -71.5v-127q0 -20 0.5 -46.5t1.5 -51.5t2 -44.5t3 -26.5h-20zM333 268q-62 0 -112.5 -9.5t-86 -28.5t-55 -46.5t-19.5 -64.5q0 -27 9.5 -48t25.5 -35.5t38 -22t46 -7.5q42 0 75.5 20.5t59.5 57.5q13 18 16 39.5t3 53.5v91z" />
    <glyph glyph-name="b" unicode="b" horiz-adv-x="511" 
d="M468 248q0 -62 -15 -110.5t-42.5 -81.5t-65.5 -50t-83 -17q-22 0 -45.5 5.5t-45 17.5t-39.5 30.5t-29 44.5h-2l-4 -87h-19q2 27 3 62.5t1 76.5v570h21v-324h2q11 22 28 41.5t38.5 34.5t46.5 23.5t53 8.5q43 0 79 -17.5t62.5 -49.5t41 -77.5t14.5 -100.5zM446 248
q0 51 -12.5 93t-36 72t-56.5 46.5t-73 16.5q-37 0 -67.5 -16t-52 -39.5t-33.5 -51t-12 -50.5v-164q0 -32 12.5 -59t34 -47t49.5 -31.5t59 -11.5q85 0 136.5 63t51.5 179z" />
    <glyph glyph-name="c" unicode="c" horiz-adv-x="423" 
d="M383 451q-14 8 -39 16.5t-63 8.5q-49 0 -88.5 -17.5t-68 -49.5t-44 -76t-15.5 -96q0 -53 15 -95.5t42 -72.5t65 -46t84 -16q38 0 68 9.5t46 18.5l5 -17q-16 -8 -46.5 -18t-74.5 -10q-51 0 -92.5 17t-71.5 49t-46 77.5t-16 102.5t17 104.5t48.5 81t75.5 52.5t97 19
q42 0 68 -8t42 -17z" />
    <glyph glyph-name="d" unicode="d" horiz-adv-x="515" 
d="M418 0l-4 94h-2q-13 -29 -32 -49t-41.5 -32.5t-46.5 -18t-46 -5.5q-45 0 -82 17t-64 50t-42 81.5t-15 110.5q0 55 15.5 100.5t42.5 77.5t64 49.5t80 17.5q57 0 100 -26t65 -62h2v304h21v-570q0 -41 1 -76.5t3 -62.5h-19zM412 342q0 20 -11.5 43.5t-33 43.5t-52 33.5
t-67.5 13.5q-41 0 -74.5 -16.5t-57.5 -46.5t-37.5 -72t-13.5 -93q0 -116 50.5 -179t134.5 -63q32 0 61 12.5t51.5 34t36 51t13.5 63.5v175z" />
    <glyph glyph-name="e" unicode="e" horiz-adv-x="465" 
d="M397 20q-20 -9 -54 -19.5t-88 -10.5q-101 0 -156.5 67t-55.5 193q0 48 14 92t40.5 77.5t64 53.5t84.5 20q54 0 88.5 -20.5t54 -51t27 -65.5t7.5 -63v-22t-2 -20h-356q0 -54 11.5 -98.5t34.5 -77t59 -50.5t86 -18t83 9.5t54 19.5zM402 268q1 6 1 14v17q0 25 -7 56t-25 58
t-48.5 45t-77.5 18q-39 0 -71 -16t-55 -44t-36.5 -66t-16.5 -82h336z" />
    <glyph glyph-name="f" unicode="f" horiz-adv-x="222" 
d="M80 0v467h-62v16h62v24q0 103 29 158t95 55q33 0 56 -12l-5 -18q-11 5 -23 8.5t-28 3.5q-56 0 -79.5 -49.5t-23.5 -145.5v-24h112v-16h-112v-467h-21z" />
    <glyph glyph-name="g" unicode="g" horiz-adv-x="514" 
d="M436 483q-2 -27 -3 -62.5t-1 -76.5v-274q0 -63 -11.5 -114.5t-36.5 -88t-65 -56t-97 -19.5q-37 0 -74.5 10t-61.5 30l10 15q22 -18 57 -28t69 -10q50 0 85.5 17.5t58.5 50.5t34 80.5t11 106.5v26h-2q-29 -48 -75 -68.5t-94 -20.5q-41 0 -77 16.5t-62.5 48t-42 78
t-15.5 106.5q0 55 15.5 100t42.5 77t64 49t80 17q27 0 52.5 -8.5t47.5 -23t39 -34t27 -41.5h2l4 97h19zM411 322q0 23 -12.5 50t-34.5 50t-52 38.5t-64 15.5q-41 0 -74.5 -16t-57.5 -46t-37.5 -71.5t-13.5 -92.5q0 -56 14 -99t38 -72.5t56.5 -45t70.5 -15.5q32 0 62 10.5
t53.5 29.5t37.5 46.5t14 60.5v157z" />
    <glyph glyph-name="h" unicode="h" horiz-adv-x="500" 
d="M103 382h2q25 52 63 81.5t95 29.5q42 0 72.5 -15.5t49.5 -43.5t28 -68t9 -89v-277h-21v276q0 57 -11 95t-30.5 61.5t-45 33.5t-53.5 10q-30 0 -55 -11.5t-44 -29t-31.5 -39t-18.5 -42.5t-7.5 -37.5t-1.5 -49.5v-267h-21v709h21v-327z" />
    <glyph glyph-name="i" unicode="i" horiz-adv-x="185" 
d="M114 622q0 -9 -6 -15t-15 -6t-15.5 6t-6.5 15t6.5 15t15.5 6t15 -6t6 -15zM103 0h-21v483h21v-483z" />
    <glyph glyph-name="j" unicode="j" horiz-adv-x="194" 
d="M123 622q0 -9 -6 -15t-15 -6t-15.5 6t-6.5 15t6.5 15t15.5 6t15 -6t6 -15zM112 39q0 -42 -2.5 -74t-7.5 -55t-12.5 -39t-17.5 -28q-17 -20 -44.5 -34.5t-57.5 -16.5l-3 18q29 3 52 15t37 30q8 10 14.5 24.5t11 36.5t7 53t2.5 75v439h21v-444z" />
    <glyph glyph-name="k" unicode="k" horiz-adv-x="402" 
d="M103 208h2q24 27 47.5 53t46.5 53l150 169h28l-181 -201l212 -282h-27l-199 269l-79 -86v-183h-21v709h21v-501z" />
    <glyph glyph-name="l" unicode="l" horiz-adv-x="185" 
d="M103 0h-21v709h21v-709z" />
    <glyph glyph-name="m" unicode="m" horiz-adv-x="777" 
d="M699 0h-21v313q0 35 -9 65t-25.5 51.5t-41.5 34t-56 12.5q-28 0 -51 -11t-40 -29t-29 -39.5t-18 -42.5q-5 -15 -6 -34.5t-1 -52.5v-267h-21v323q0 26 -9 53.5t-25.5 49.5t-40 36t-53.5 14t-53 -11t-40.5 -29t-29 -39.5t-17.5 -42.5q-3 -10 -5 -18.5t-2.5 -18.5t-1 -22
t-0.5 -28v-267h-21v312q0 20 -0.5 43.5l-1 47t-1 44.5t-1.5 36h19l4 -103h2q25 52 59.5 82.5t91.5 30.5q51 0 88.5 -33.5t51.5 -87.5h2q23 59 61 90t95 31q31 0 58 -12t46.5 -33.5t31 -53t11.5 -70.5v-324z" />
    <glyph glyph-name="n" unicode="n" horiz-adv-x="500" 
d="M422 0h-21v276q0 57 -11 95t-30.5 61.5t-45 33.5t-53.5 10q-30 0 -55 -11.5t-44 -29t-31.5 -39t-18.5 -42.5t-7.5 -37.5t-1.5 -49.5v-267h-21v312q0 20 -0.5 43.5l-1 47t-1 44.5t-1.5 36h19l4 -103h2q25 52 64 82.5t96 30.5q42 0 72.5 -15.5t49.5 -43.5t28 -68t9 -89
v-277z" />
    <glyph glyph-name="o" unicode="o" horiz-adv-x="507" 
d="M464 246q0 -68 -19 -116.5t-49.5 -80t-69 -46t-76.5 -14.5q-44 0 -82 17t-65.5 49.5t-43.5 78.5t-16 104q0 61 17 108.5t46 80t67.5 49.5t82.5 17q46 0 84.5 -18t66 -50t42.5 -78t15 -101zM442 246q0 50 -13 92t-37.5 73t-59 48t-76.5 17q-41 0 -76 -16.5t-60.5 -47
t-40 -75t-14.5 -99.5q0 -53 14.5 -96t39.5 -73t59.5 -46.5t75.5 -16.5q34 0 67.5 14.5t60.5 44t43.5 74.5t16.5 107z" />
    <glyph glyph-name="p" unicode="p" horiz-adv-x="511" 
d="M468 248q0 -62 -15 -110.5t-42.5 -81.5t-65.5 -50t-83 -17q-22 0 -45 4.5t-44 15t-38.5 27.5t-29.5 41h-2v-275h-21v542q0 41 -1 76.5t-3 62.5h19l4 -100h2q11 22 28 42t39 35t47.5 24t53.5 9q43 0 79 -17.5t62.5 -49.5t41 -77.5t14.5 -100.5zM446 248q0 51 -12.5 93
t-36 72t-56.5 46.5t-73 16.5q-37 0 -67.5 -16t-52 -39.5t-33.5 -51t-12 -50.5v-167q0 -33 12.5 -60t34 -46t49.5 -29.5t59 -10.5q85 0 136.5 63t51.5 179z" />
    <glyph glyph-name="q" unicode="q" horiz-adv-x="514" 
d="M43 248q0 55 15.5 100.5t42.5 77.5t64 49.5t80 17.5q27 0 52.5 -8.5t47.5 -23t39 -34t27 -41.5h2l4 97h19q-2 -27 -3 -62.5t-1 -76.5v-542h-21v278h-2q-29 -48 -75 -69.5t-94 -21.5q-41 0 -77 17t-62.5 50t-42 81.5t-15.5 110.5zM65 248q0 -58 14 -103t38 -76t56.5 -47
t70.5 -16q32 0 62 11t53.5 30.5t37.5 47t14 60.5v167q0 23 -12.5 50t-34.5 50t-52 38.5t-64 15.5q-41 0 -74.5 -16.5t-57.5 -46.5t-37.5 -72t-13.5 -93z" />
    <glyph glyph-name="r" unicode="r" horiz-adv-x="268" 
d="M97 483l4 -113h2q9 25 22.5 47.5t31 39.5t37 26.5t39.5 9.5q6 0 10.5 -0.5t9.5 -1.5v-20q-5 1 -10.5 1.5t-10.5 0.5q-33 0 -66 -30t-52 -89q-7 -21 -9 -42t-2 -50v-262h-21v345q0 36 -1.5 70.5t-2.5 67.5h19z" />
    <glyph glyph-name="s" unicode="s" horiz-adv-x="335" 
d="M292 124q0 -60 -39 -97t-107 -37q-29 0 -55.5 7.5t-46.5 22.5l8 16q17 -14 43 -21.5t51 -7.5q58 0 91.5 32.5t33.5 83.5q0 24 -6 41t-18.5 31t-31.5 26t-45 24q-53 24 -83 53t-30 77q0 57 35 87.5t95 30.5q28 0 50 -6.5t37 -17.5l-7 -16q-13 10 -33 16.5t-49 6.5
q-22 0 -41.5 -5.5t-34 -17.5t-23 -31t-8.5 -45q0 -43 27 -67.5t75 -47.5q28 -14 49 -26.5t35 -28.5t21 -36t7 -47z" />
    <glyph glyph-name="t" unicode="t" horiz-adv-x="260" 
d="M112 587v-104h119v-16h-119v-310q0 -36 3 -63.5t11 -46.5t21.5 -29t35.5 -10q14 0 23.5 3.5t17.5 8.5l2 -18q-8 -5 -20 -8.5t-26 -3.5q-53 0 -71 44t-18 123v310h-70v16h70v97z" />
    <glyph glyph-name="u" unicode="u" horiz-adv-x="498" 
d="M78 483h21v-276q0 -57 11 -95t30 -61.5t44 -33.5t54 -10q30 0 55 11.5t43.5 29t31 39t18.5 42.5t7.5 37.5t1.5 49.5v267h21v-312q0 -20 0.5 -44t1 -47t1 -44t1.5 -36h-19l-4 103h-2q-25 -52 -63.5 -82.5t-95.5 -30.5q-42 0 -72 15.5t-49 43.5t-28 68t-9 89v277z" />
    <glyph glyph-name="v" unicode="v" horiz-adv-x="414" 
d="M39 483l107 -297q14 -40 28.5 -80t30.5 -82h2q17 45 31.5 84.5t30.5 81.5l109 293h24l-185 -483h-23l-179 483h24z" />
    <glyph glyph-name="w" unicode="w" horiz-adv-x="675" 
d="M654 483l-152 -483h-26l-78 258q-15 51 -29 101.5t-29 101.5h-2q-9 -24 -18 -52.5t-18.5 -57.5t-18.5 -57.5t-17 -53.5l-79 -240h-26l-137 483h23l80 -288q12 -45 23.5 -87t23.5 -86h2q17 52 33 104.5t33 104.5l84 252h26l77 -252q16 -53 30 -104.5t30 -104.5h2
q15 52 30.5 102t32.5 107l77 252h23z" />
    <glyph glyph-name="x" unicode="x" horiz-adv-x="392" 
d="M376 0h-25l-89 131q-17 26 -33 50.5t-33 49.5q-17 -22 -35 -49t-35 -51l-90 -131h-25l171 246l-161 237h25l86 -127q16 -23 31.5 -46.5t31.5 -48.5q16 21 33.5 47t32.5 48l86 127h25l-163 -237z" />
    <glyph glyph-name="y" unicode="y" horiz-adv-x="409" 
d="M395 483l-124 -347q-21 -60 -38.5 -106.5t-34.5 -82.5t-34.5 -63t-38.5 -47q-31 -29 -55.5 -41.5t-38.5 -15.5l-7 18q67 22 107 76t68 126q2 8 2.5 12t-2.5 12l-184 459h24l134 -337q11 -27 21 -54.5t20 -54.5h1l156 446h24z" />
    <glyph glyph-name="z" unicode="z" horiz-adv-x="346" 
d="M331 0h-314v11q72 114 141.5 226.5t141.5 226.5v2h-263v17h291v-12q-72 -114 -141.5 -226.5t-140.5 -225.5v-2h285v-17z" />
    <glyph glyph-name="braceleft" unicode="{" horiz-adv-x="223" 
d="M199 669h-18q-34 0 -55 -26t-21 -89q0 -41 8.5 -81.5t8.5 -85.5q0 -32 -11.5 -60t-43.5 -39v-2q17 -6 27.5 -16.5t16.5 -24t8.5 -28.5t2.5 -29q0 -41 -8.5 -80.5t-8.5 -83.5q0 -34 5.5 -57t16 -37t24 -20t30.5 -6h18v-16h-18q-20 0 -37 7t-30 22.5t-20.5 41.5t-7.5 65
q0 44 8.5 82.5t8.5 82.5q0 13 -2.5 29t-11 29.5t-23 22.5t-38.5 9v17q24 0 39 8t23 20.5t10.5 28.5t2.5 33q0 42 -8.5 83t-8.5 86q0 70 27.5 100t67.5 30h18v-16z" />
    <glyph glyph-name="bar" unicode="|" horiz-adv-x="190" 
d="M105 750v-1000h-20v1000h20z" />
    <glyph glyph-name="braceright" unicode="}" horiz-adv-x="223" 
d="M24 -96h18q34 0 55 26t21 89q0 41 -8.5 81.5t-8.5 85.5q0 32 11.5 60t43.5 39v2q-17 6 -27.5 16.5t-16.5 24t-8.5 28.5t-2.5 29q0 41 8.5 80.5t8.5 83.5q0 67 -21.5 93.5t-54.5 26.5h-18v16h18q19 0 36.5 -7t30.5 -22.5t20.5 -41.5t7.5 -65q0 -44 -8.5 -82.5t-8.5 -82.5
q0 -14 2.5 -29.5t11 -29t23 -22.5t38.5 -9v-17q-24 0 -39 -8t-23 -20.5t-10.5 -29t-2.5 -32.5q0 -42 8.5 -83t8.5 -86q0 -35 -7.5 -60t-20 -40.5t-30 -22.5t-37.5 -7h-18v16z" />
    <glyph glyph-name="asciitilde" unicode="~" horiz-adv-x="555" 
d="M46 230q0 28 8 48t22 33t33 19.5t41 6.5q35 0 69 -13.5t66.5 -29t64 -29t60.5 -13.5q35 0 58.5 21t22.5 74h18q0 -32 -7.5 -53.5t-21 -35t-32 -19.5t-38.5 -6q-31 0 -63.5 13.5t-65.5 29t-66 29t-65 13.5q-37 0 -62.5 -21t-23.5 -67h-18z" />
    <glyph glyph-name="Adieresis" unicode="&#xc4;" horiz-adv-x="551" 
d="M292 674l229 -674h-23l-81 239h-281l-81 -239h-22l229 674h30zM411 257q-19 56 -38 111t-37 112q-14 44 -29 87t-29 87h-2q-15 -43 -29 -87t-29 -87q-19 -56 -38 -111.5t-38 -111.5h269zM200 730q-10 0 -16 6.5t-6 16.5t6.5 16t15.5 6q22 0 22 -22q0 -10 -6 -16.5
t-16 -6.5zM354 730q-10 0 -16 6.5t-6 16.5t6.5 16t15.5 6q22 0 22 -22q0 -10 -6 -16.5t-16 -6.5z" />
    <glyph glyph-name="Amacron" unicode="&#x100;" horiz-adv-x="551" 
d="M380 757v-18h-205v18h205zM292 674l229 -674h-23l-81 239h-281l-81 -239h-22l229 674h30zM411 257q-19 56 -38 111t-37 112q-14 44 -29 87t-29 87h-2q-15 -43 -29 -87t-29 -87q-19 -56 -38 -111.5t-38 -111.5h269z" />
    <glyph glyph-name="amacron" unicode="&#x101;" horiz-adv-x="417" 
d="M331 0q-2 17 -3 39t-1 45h-3q-23 -38 -61 -66.5t-95 -28.5q-32 0 -57.5 10t-43.5 27.5t-28 40.5t-10 50q0 40 20 71t58.5 52.5t93 33t123.5 11.5v13q0 31 -5 63t-19.5 57.5t-39.5 41.5t-65 16q-29 0 -61.5 -9.5t-55.5 -27.5l-7 17q23 17 58.5 27t66.5 10q46 0 74.5 -17
t45 -45t22.5 -63.5t6 -71.5v-127q0 -20 0.5 -46.5t1.5 -51.5t2 -44.5t3 -26.5h-20zM324 268q-62 0 -112.5 -9.5t-86 -28.5t-55 -46.5t-19.5 -64.5q0 -27 9.5 -48t25.5 -35.5t38 -22t46 -7.5q42 0 75.5 20.5t59.5 57.5q13 18 16 39.5t3 53.5v91zM301 611v-17h-185v17h185z
" />
    <glyph glyph-name="Eacute" unicode="&#xc9;" horiz-adv-x="427" 
d="M362 346h-257v-327h287v-19h-308v674h293v-19h-272v-290h257v-19zM343 825l-122 -115h-18l99 115h41z" />
    <glyph glyph-name="Aogonek" unicode="&#x104;" horiz-adv-x="551" 
d="M292 674l229 -674h-11q-9 -9 -20.5 -22.5t-22.5 -29.5t-18.5 -34t-7.5 -37q0 -26 14 -40.5t33 -14.5q21 0 41 13l4 -15q-11 -8 -23 -11.5t-23 -3.5q-26 0 -46 17.5t-20 54.5q0 21 8.5 40t20.5 35.5t25 29.5l22 22l-80 235h-281l-81 -239h-22l229 674h30zM411 257
q-19 56 -38 111t-37 112q-14 44 -29 87t-29 87h-2q-15 -43 -29 -87t-29 -87l-76 -223h269z" />
    <glyph glyph-name="Odieresis" unicode="&#xd6;" horiz-adv-x="613" 
d="M242 730q-10 0 -16 6.5t-6 16.5t6.5 16t15.5 6q22 0 22 -22q0 -10 -6 -16.5t-16 -6.5zM396 730q-10 0 -16 6.5t-6 16.5t6.5 16t15.5 6q22 0 22 -22q0 -10 -6 -16.5t-16 -6.5zM587 344q0 -87 -23 -153.5t-62 -111t-90.5 -67.5t-109.5 -23q-59 0 -109.5 24.5t-87.5 69.5
t-58 108t-21 140q0 80 22 145.5t60.5 112t90.5 71.5t112 25q62 0 113 -25t87 -70t56 -108t20 -138zM564 343q0 70 -18 129t-51.5 102.5t-80 68t-103.5 24.5t-105 -24.5t-83 -69t-54.5 -106t-19.5 -136.5q0 -71 19 -130.5t52.5 -102.5t80 -67t102.5 -24q55 0 102.5 22.5
t82.5 65.5t55.5 105.5t20.5 142.5z" />
    <glyph glyph-name="Udieresis" unicode="&#xdc;" horiz-adv-x="591" 
d="M219 730q-10 0 -16 6.5t-6 16.5t6.5 16t15.5 6q22 0 22 -22q0 -10 -6 -16.5t-16 -6.5zM373 730q-10 0 -16 6.5t-6 16.5t6.5 16t15.5 6q22 0 22 -22q0 -10 -6 -16.5t-16 -6.5zM105 674v-403q0 -71 14.5 -121t39.5 -81.5t58.5 -46t71.5 -14.5q41 0 77 15t62.5 47.5t42 83
t15.5 121.5v399h21v-399q0 -76 -17 -130t-47 -88.5t-69.5 -51t-84.5 -16.5q-42 0 -79.5 15.5t-65 49t-44 87t-16.5 129.5v404h21z" />
    <glyph glyph-name="aacute" unicode="&#xe1;" horiz-adv-x="417" 
d="M331 0q-2 17 -3 39t-1 45h-3q-23 -38 -61 -66.5t-95 -28.5q-32 0 -57.5 10t-43.5 27.5t-28 40.5t-10 50q0 40 20 71t58.5 52.5t93 33t123.5 11.5v13q0 31 -5 63t-19.5 57.5t-39.5 41.5t-65 16q-29 0 -61.5 -9.5t-55.5 -27.5l-7 17q23 17 58.5 27t66.5 10q46 0 74.5 -17
t45 -45t22.5 -63.5t6 -71.5v-127q0 -20 0.5 -46.5t1.5 -51.5t2 -44.5t3 -26.5h-20zM324 268q-62 0 -112.5 -9.5t-86 -28.5t-55 -46.5t-19.5 -64.5q0 -27 9.5 -48t25.5 -35.5t38 -22t46 -7.5q42 0 75.5 20.5t59.5 57.5q13 18 16 39.5t3 53.5v91zM319 686l-113 -136h-16
l93 136h36z" />
    <glyph glyph-name="aogonek" unicode="&#x105;" horiz-adv-x="417" 
d="M339 0q-9 -9 -20.5 -22.5t-22.5 -29.5t-18.5 -34t-7.5 -37q0 -26 14 -40.5t33 -14.5q21 0 41 13l4 -15q-11 -8 -23 -11.5t-23 -3.5q-26 0 -46 17.5t-20 54.5q0 21 8.5 40t20 35.5t24.5 29.5l22 22q-2 17 -2.5 37.5t-0.5 42.5h-3q-11 -19 -25.5 -36t-33 -30t-41.5 -21
t-51 -8q-32 0 -56.5 10t-42 27.5t-26.5 40.5t-9 50q0 80 73 124t212 44v13q0 31 -4.5 63t-17.5 57.5t-37.5 41.5t-64.5 16q-28 0 -58.5 -9t-53.5 -29l-6 16q23 19 56.5 29t62.5 10q46 0 74 -17t43.5 -45t20.5 -63.5t5 -71.5v-127q0 -20 0.5 -46.5t1.5 -51.5t2 -44.5t3 -26.5
h-7zM319 268q-125 0 -194 -37.5t-69 -111.5q0 -54 32.5 -83.5t81.5 -29.5q42 0 73 20.5t57 57.5q13 18 16 39.5t3 53.5v91z" />
    <glyph glyph-name="Ccaron" unicode="&#x10c;" horiz-adv-x="507" 
d="M492 17q-24 -8 -64 -17.5t-97 -9.5q-69 0 -126.5 22t-99 65t-64.5 106.5t-23 147.5q0 79 22.5 144t65 111.5t104.5 72t141 25.5q51 0 85 -9.5t56 -19.5l-6 -18q-21 9 -54 19t-81 10q-74 0 -131.5 -24t-97 -68t-60.5 -106t-21 -137q0 -79 21 -139t59.5 -101t92.5 -62
t119 -21q50 0 90 9t64 17zM306 710l-93 111h20l86 -92h2l85 92h20l-91 -111h-29z" />
    <glyph glyph-name="adieresis" unicode="&#xe4;" horiz-adv-x="417" 
d="M331 0q-2 17 -3 39t-1 45h-3q-23 -38 -61 -66.5t-95 -28.5q-32 0 -57.5 10t-43.5 27.5t-28 40.5t-10 50q0 40 20 71t58.5 52.5t93 33t123.5 11.5v13q0 31 -5 63t-19.5 57.5t-39.5 41.5t-65 16q-29 0 -61.5 -9.5t-55.5 -27.5l-7 17q23 17 58.5 27t66.5 10q46 0 74.5 -17
t45 -45t22.5 -63.5t6 -71.5v-127q0 -20 0.5 -46.5t1.5 -51.5t2 -44.5t3 -26.5h-20zM324 268q-62 0 -112.5 -9.5t-86 -28.5t-55 -46.5t-19.5 -64.5q0 -27 9.5 -48t25.5 -35.5t38 -22t46 -7.5q42 0 75.5 20.5t59.5 57.5q13 18 16 39.5t3 53.5v91zM128 584q-10 0 -16 7t-6 16
q0 10 6.5 16.5t15.5 6.5q22 0 22 -23q0 -9 -6 -16t-16 -7zM281 584q-10 0 -16 7t-6 16q0 10 6.5 16.5t15.5 6.5q22 0 22 -23q0 -9 -6 -16t-16 -7z" />
    <glyph glyph-name="ccaron" unicode="&#x10d;" horiz-adv-x="384" 
d="M381 451q-14 8 -39 16.5t-63 8.5q-49 0 -88.5 -17.5t-68 -49.5t-44 -76t-15.5 -96q0 -53 15 -95.5t42 -72.5t65 -46t84 -16q38 0 68 9.5t46 18.5l5 -17q-16 -8 -46.5 -18t-74.5 -10q-51 0 -92.5 17t-71.5 49t-46 77.5t-16 102.5t17 104.5t48.5 81t75.5 52.5t97 19
q42 0 68 -8t42 -17zM237 550l-92 131h20l85 -112h2l84 112h19l-89 -131h-29z" />
    <glyph glyph-name="Cacute" unicode="&#x106;" horiz-adv-x="507" 
d="M492 17q-24 -8 -64 -17.5t-97 -9.5q-69 0 -126.5 22t-99 65t-64.5 106.5t-23 147.5q0 79 22.5 144t65 111.5t104.5 72t141 25.5q51 0 85 -9.5t56 -19.5l-6 -18q-21 9 -54 19t-81 10q-74 0 -131.5 -24t-97 -68t-60.5 -106t-21 -137q0 -79 21 -139t59.5 -101t92.5 -62
t119 -21q50 0 90 9t64 17zM443 825l-122 -115h-18l99 115h41z" />
    <glyph glyph-name="cacute" unicode="&#x107;" horiz-adv-x="384" 
d="M381 451q-14 8 -39 16.5t-63 8.5q-49 0 -88.5 -17.5t-68 -49.5t-44 -76t-15.5 -96q0 -53 15 -95.5t42 -72.5t65 -46t84 -16q38 0 68 9.5t46 18.5l5 -17q-16 -8 -46.5 -18t-74.5 -10q-51 0 -92.5 17t-71.5 49t-46 77.5t-16 102.5t17 104.5t48.5 81t75.5 52.5t97 19
q42 0 68 -8t42 -17zM352 686l-113 -136h-16l93 136h36z" />
    <glyph glyph-name="eacute" unicode="&#xe9;" horiz-adv-x="451" 
d="M390 20q-20 -9 -54 -19.5t-88 -10.5q-101 0 -156.5 67t-55.5 193q0 48 14 92t40.5 77.5t64 53.5t84.5 20q54 0 88.5 -20.5t54 -51t27 -65.5t7.5 -63v-22t-2 -20h-356q0 -54 11.5 -98.5t34.5 -77t59 -50.5t86 -18t83 9.5t54 19.5zM395 268q1 6 1 14v17q0 25 -7 56t-25 58
t-48.5 45t-77.5 18q-39 0 -71 -16t-55 -44t-36.5 -66t-16.5 -82h336zM352 686l-113 -136h-16l93 136h36z" />
    <glyph glyph-name="Zacute" unicode="&#x179;" horiz-adv-x="491" 
d="M452 674v-13l-386 -641v-1h391v-19h-421v13l386 641v1h-354v19h384zM373 825l-122 -115h-18l99 115h41z" />
    <glyph glyph-name="zacute" unicode="&#x17a;" horiz-adv-x="342" 
d="M329 0h-314v11q72 114 141.5 226.5t141.5 226.5v2h-263v17h291v-12q-72 -114 -141.5 -226.5t-140.5 -225.5v-2h285v-17zM282 686l-113 -136h-16l93 136h36z" />
    <glyph glyph-name="Dcaron" unicode="&#x10e;" horiz-adv-x="601" 
d="M75 664q35 6 76 10.5t82 4.5q75 0 137 -19.5t107 -59.5t69.5 -101t24.5 -145q0 -178 -95.5 -269t-267.5 -91q-35 0 -69 1.5t-64 6.5v662zM96 17q24 -3 54.5 -4t59.5 -1q162 0 250 86t88 255q0 78 -22.5 136t-64 96.5t-99.5 57t-129 18.5q-37 0 -72 -3.5t-65 -8.5v-632z
M271 710l-93 111h20l86 -92h2l85 92h20l-91 -111h-29z" />
    <glyph glyph-name="iacute" unicode="&#xed;" horiz-adv-x="181" 
d="M101 0h-21v483h21v-483zM202 686l-113 -136h-16l93 136h36z" />
    <glyph glyph-name="dcaron" unicode="&#x10f;" horiz-adv-x="511" 
d="M411 0l-4 94h-2q-13 -29 -32 -49t-41.5 -32.5t-46.5 -18t-46 -5.5q-45 0 -82 17t-64 50t-42 81.5t-15 110.5q0 55 15.5 100.5t42.5 77.5t64 49.5t80 17.5q57 0 100 -26t65 -62h2v304h21v-570q0 -41 1 -76.5t3 -62.5h-19zM405 342q0 20 -11.5 43.5t-33 43.5t-52 33.5
t-67.5 13.5q-41 0 -74.5 -16.5t-57.5 -46.5t-37.5 -72t-13.5 -93q0 -116 50.5 -179t134.5 -63q32 0 61 12.5t51.5 34t36 51t13.5 63.5v175zM537 639q0 -36 -17.5 -63t-36.5 -41l-11 8q17 14 31.5 37t14.5 59q0 25 -10.5 41.5t-23.5 27.5l17 4q14 -12 25 -30.5t11 -42.5z" />
    <glyph glyph-name="Emacron" unicode="&#x112;" horiz-adv-x="427" 
d="M362 346h-257v-327h287v-19h-308v674h293v-19h-272v-290h257v-19zM338 757v-18h-205v18h205z" />
    <glyph glyph-name="emacron" unicode="&#x113;" horiz-adv-x="451" 
d="M390 20q-20 -9 -54 -19.5t-88 -10.5q-101 0 -156.5 67t-55.5 193q0 48 14 92t40.5 77.5t64 53.5t84.5 20q54 0 88.5 -20.5t54 -51t27 -65.5t7.5 -63v-22t-2 -20h-356q0 -54 11.5 -98.5t34.5 -77t59 -50.5t86 -18t83 9.5t54 19.5zM395 268q1 6 1 14v17q0 25 -7 56t-25 58
t-48.5 45t-77.5 18q-39 0 -71 -16t-55 -44t-36.5 -66t-16.5 -82h336zM335 611v-17h-185v17h185z" />
    <glyph glyph-name="Edotaccent" unicode="&#x116;" horiz-adv-x="427" 
d="M362 346h-257v-327h287v-19h-308v674h293v-19h-272v-290h257v-19zM241 730q-10 0 -16.5 7t-6.5 16t6.5 16t16.5 7q9 0 15.5 -7t6.5 -16t-6.5 -16t-15.5 -7z" />
    <glyph glyph-name="oacute" unicode="&#xf3;" horiz-adv-x="483" 
d="M452 246q0 -68 -19 -116.5t-49.5 -80t-69 -46t-76.5 -14.5q-44 0 -82 17t-65.5 49.5t-43.5 78.5t-16 104q0 61 17 108.5t46 80t67.5 49.5t82.5 17q46 0 84.5 -18t66 -50t42.5 -78t15 -101zM430 246q0 50 -13 92t-37.5 73t-59 48t-76.5 17q-41 0 -76 -16.5t-60.5 -47
t-40 -75t-14.5 -99.5q0 -53 14.5 -96t39.5 -73t59.5 -46.5t75.5 -16.5q34 0 67.5 14.5t60.5 44t43.5 74.5t16.5 107zM354 686l-113 -136h-16l93 136h36z" />
    <glyph glyph-name="edotaccent" unicode="&#x117;" horiz-adv-x="451" 
d="M390 20q-20 -9 -54 -19.5t-88 -10.5q-101 0 -156.5 67t-55.5 193q0 48 14 92t40.5 77.5t64 53.5t84.5 20q54 0 88.5 -20.5t54 -51t27 -65.5t7.5 -63v-22t-2 -20h-356q0 -54 11.5 -98.5t34.5 -77t59 -50.5t86 -18t83 9.5t54 19.5zM395 268q1 6 1 14v17q0 25 -7 56t-25 58
t-48.5 45t-77.5 18q-39 0 -71 -16t-55 -44t-36.5 -66t-16.5 -82h336zM244 584q-10 0 -16.5 7t-6.5 16t6.5 16t16.5 7q9 0 15.5 -7t6.5 -16t-6 -16t-16 -7z" />
    <glyph glyph-name="ocircumflex" unicode="&#xf4;" horiz-adv-x="483" 
d="M264 681l92 -131h-20l-85 112h-2l-84 -112h-19l89 131h29zM452 246q0 -68 -19 -116.5t-49.5 -80t-69 -46t-76.5 -14.5q-44 0 -82 17t-65.5 49.5t-43.5 78.5t-16 104q0 61 17 108.5t46 80t67.5 49.5t82.5 17q46 0 84.5 -18t66 -50t42.5 -78t15 -101zM430 246q0 50 -13 92
t-37.5 73t-59 48t-76.5 17q-41 0 -76 -16.5t-60.5 -47t-40 -75t-14.5 -99.5q0 -53 14.5 -96t39.5 -73t59.5 -46.5t75.5 -16.5q34 0 67.5 14.5t60.5 44t43.5 74.5t16.5 107z" />
    <glyph glyph-name="odieresis" unicode="&#xf6;" horiz-adv-x="483" 
d="M170 584q-10 0 -16 7t-6 16q0 10 6.5 16.5t15.5 6.5q22 0 22 -23q0 -9 -6 -16t-16 -7zM323 584q-10 0 -16 7t-6 16q0 10 6.5 16.5t15.5 6.5q22 0 22 -23q0 -9 -6 -16t-16 -7zM452 246q0 -68 -19 -116.5t-49.5 -80t-69 -46t-76.5 -14.5q-44 0 -82 17t-65.5 49.5
t-43.5 78.5t-16 104q0 61 17 108.5t46 80t67.5 49.5t82.5 17q46 0 84.5 -18t66 -50t42.5 -78t15 -101zM430 246q0 50 -13 92t-37.5 73t-59 48t-76.5 17q-41 0 -76 -16.5t-60.5 -47t-40 -75t-14.5 -99.5q0 -53 14.5 -96t39.5 -73t59.5 -46.5t75.5 -16.5q34 0 67.5 14.5
t60.5 44t43.5 74.5t16.5 107z" />
    <glyph glyph-name="otilde" unicode="&#xf5;" horiz-adv-x="483" 
d="M147 568q-1 36 13 57.5t40 21.5q18 0 32.5 -9t27 -20t24.5 -20t25 -9q14 0 22 11.5t10 49.5h16q-2 -46 -14.5 -62.5t-33.5 -16.5q-17 0 -30.5 9t-25.5 20t-24.5 20t-28.5 9q-18 0 -28 -16t-9 -45h-16zM452 246q0 -68 -19 -116.5t-49.5 -80t-69 -46t-76.5 -14.5
q-44 0 -82 17t-65.5 49.5t-43.5 78.5t-16 104q0 61 17 108.5t46 80t67.5 49.5t82.5 17q46 0 84.5 -18t66 -50t42.5 -78t15 -101zM430 246q0 50 -13 92t-37.5 73t-59 48t-76.5 17q-41 0 -76 -16.5t-60.5 -47t-40 -75t-14.5 -99.5q0 -53 14.5 -96t39.5 -73t59.5 -46.5
t75.5 -16.5q34 0 67.5 14.5t60.5 44t43.5 74.5t16.5 107z" />
    <glyph glyph-name="uacute" unicode="&#xfa;" horiz-adv-x="494" 
d="M350 686l-113 -136h-16l93 136h36zM76 483h21v-276q0 -57 11 -95t30 -61.5t44 -33.5t54 -10q30 0 55 11.5t43.5 29t31 39t18.5 42.5t7.5 37.5t1.5 49.5v267h21v-312q0 -20 0.5 -44t1 -47t1 -44t1.5 -36h-19l-4 103h-2q-25 -52 -63.5 -82.5t-95.5 -30.5q-42 0 -72 15.5
t-49 43.5t-28 68t-9 89v277z" />
    <glyph glyph-name="Ecaron" unicode="&#x11a;" horiz-adv-x="427" 
d="M362 346h-257v-327h287v-19h-308v674h293v-19h-272v-290h257v-19zM226 710l-93 111h20l86 -92h2l85 92h20l-91 -111h-29z" />
    <glyph glyph-name="ecaron" unicode="&#x11b;" horiz-adv-x="451" 
d="M390 20q-20 -9 -54 -19.5t-88 -10.5q-101 0 -156.5 67t-55.5 193q0 48 14 92t40.5 77.5t64 53.5t84.5 20q54 0 88.5 -20.5t54 -51t27 -65.5t7.5 -63v-22t-2 -20h-356q0 -54 11.5 -98.5t34.5 -77t59 -50.5t86 -18t83 9.5t54 19.5zM395 268q1 6 1 14v17q0 25 -7 56t-25 58
t-48.5 45t-77.5 18q-39 0 -71 -16t-55 -44t-36.5 -66t-16.5 -82h336zM229 550l-92 131h20l85 -112h2l84 112h19l-89 -131h-29z" />
    <glyph glyph-name="udieresis" unicode="&#xfc;" horiz-adv-x="494" 
d="M76 483h21v-276q0 -57 11 -95t30 -61.5t44 -33.5t54 -10q30 0 55 11.5t43.5 29t31 39t18.5 42.5t7.5 37.5t1.5 49.5v267h21v-312q0 -20 0.5 -44t1 -47t1 -44t1.5 -36h-19l-4 103h-2q-25 -52 -63.5 -82.5t-95.5 -30.5q-42 0 -72 15.5t-49 43.5t-28 68t-9 89v277zM177 584
q-10 0 -16 7t-6 16q0 10 6.5 16.5t15.5 6.5q22 0 22 -23q0 -9 -6 -16t-16 -7zM330 584q-10 0 -16 7t-6 16q0 10 6.5 16.5t15.5 6.5q22 0 22 -23q0 -9 -6 -16t-16 -7z" />
    <glyph glyph-name="dagger" unicode="&#x2020;" horiz-adv-x="444" 
d="M236 674l-6 -231l170 6v-25l-170 6l6 -480h-28l6 480l-170 -6v25l170 -6l-6 231h28z" />
    <glyph glyph-name="degree" unicode="&#xb0;" horiz-adv-x="281" 
d="M145 686q27 0 48 -9.5t35.5 -25.5t22.5 -36.5t8 -42.5q0 -26 -10 -47.5t-26 -37t-37 -24t-43 -8.5q-26 0 -47 9t-36 24.5t-23 36t-8 43.5q0 25 9 46.5t24.5 37.5t37 25t45.5 9zM145 672q-43 0 -71 -30.5t-28 -73.5q0 -40 27 -69.5t70 -29.5q19 0 37 7.5t31.5 21t22 32.5
t8.5 42q0 19 -6.5 37t-19 32t-30.5 22.5t-41 8.5z" />
    <glyph glyph-name="Eogonek" unicode="&#x118;" horiz-adv-x="427" 
d="M362 346h-257v-327h287v-19h-6q-9 -9 -20.5 -22.5t-22.5 -29.5t-18.5 -34t-7.5 -37q0 -26 14 -40.5t33 -14.5q21 0 41 13l4 -15q-11 -8 -23 -11.5t-23 -3.5q-26 0 -46 17.5t-20 54.5q0 19 7.5 37t18.5 34t23 29t22 23h-284v674h293v-19h-272v-290h257v-19z" />
    <glyph glyph-name="sterling" unicode="&#xa3;" horiz-adv-x="444" 
d="M322 323h-141q4 -26 6.5 -52t1.5 -52q0 -28 -7 -57t-20 -55t-31 -49t-40 -39v-2h311v-17h-345v13q25 15 45.5 38t35 51.5t22.5 60t8 61.5q0 25 -3 49.5t-7 49.5h-83v15h81l-10 64t-5 66q0 45 12 81t33 61t50.5 38t64.5 13q29 0 46.5 -4t31.5 -11l-6 -17q-11 5 -28.5 9.5
t-40.5 4.5q-64 0 -102 -46.5t-38 -128.5q0 -33 5 -65.5t10 -64.5h143v-15z" />
    <glyph glyph-name="section" unicode="&#xa7;" horiz-adv-x="456" 
d="M348 638q-18 13 -46.5 20.5t-60.5 7.5q-57 0 -92.5 -27t-35.5 -74q0 -40 21 -63.5t53 -39.5t68.5 -29t68.5 -31t53 -45.5t21 -72.5q0 -39 -18 -69t-47 -53q19 -17 29 -39.5t10 -48.5q0 -33 -13 -58t-34.5 -41.5t-50.5 -25t-60 -8.5q-38 0 -72.5 12.5t-57.5 29.5l7 17
q20 -17 53 -29.5t71 -12.5q26 0 50.5 7t43.5 21t30.5 35t11.5 50q0 39 -21.5 63.5t-54 41.5t-70.5 30.5t-70.5 32.5t-54 46.5t-21.5 71.5q0 28 16 58.5t57 59.5q-18 16 -29 38t-11 51q0 27 11.5 49t31.5 37.5t47.5 24t59.5 8.5q35 0 64.5 -7.5t47.5 -21.5zM80 358
q0 -29 12.5 -50t32.5 -37t45.5 -28t52 -23t52 -22.5t44.5 -25.5q27 21 42.5 48t15.5 63q0 31 -11.5 52.5t-31 36.5t-44 26t-50.5 21t-50.5 20.5t-44.5 25.5q-36 -25 -50.5 -53t-14.5 -54z" />
    <glyph glyph-name="bullet" unicode="&#x2022;" horiz-adv-x="251" 
d="M201 344q0 -32 -22.5 -53.5t-54.5 -21.5t-53 21.5t-21 53.5q0 31 22 53t53 22q32 0 54 -22t22 -53z" />
    <glyph glyph-name="paragraph" unicode="&#xb6;" horiz-adv-x="441" 
d="M356 -50h-20v704h-71v-704h-20v316q-39 0 -76.5 11.5t-67.5 36t-48.5 63t-18.5 93.5q0 39 12 76.5t41 66t77.5 46t121.5 17.5q23 0 42.5 -2t27.5 -4v-720z" />
    <glyph glyph-name="germandbls" unicode="&#xdf;" horiz-adv-x="481" 
d="M80 0v455q0 55 9 103.5t30 84.5t55.5 56.5t85.5 20.5q28 0 54 -10t45.5 -30t31 -49.5t11.5 -68.5q0 -33 -7.5 -58t-16.5 -37q-33 -13 -52 -31t-19 -47q0 -17 8.5 -32t21 -30.5t27.5 -31.5t29 -35q18 -26 32.5 -54t14.5 -65q0 -34 -10 -62t-29 -48.5t-45 -31.5t-58 -11
q-47 0 -79 21l6 18q14 -10 33.5 -16t39.5 -6q54 0 87 37.5t33 95.5q0 39 -15.5 68t-37.5 56q-13 16 -27 31t-26 30t-19.5 31t-7.5 34q0 33 21 54t57 37q8 11 13.5 32t5.5 50q0 35 -10 61.5t-27 44.5t-39 27t-47 9q-44 0 -74 -19t-49 -52t-27 -78.5t-8 -98.5v-455h-21z" />
    <glyph glyph-name="registered" unicode="&#xae;" horiz-adv-x="510" 
d="M325 327q-5 13 -8 32.5t-10 39.5q-6 19 -19.5 32.5t-48.5 13.5h-36v-118h-17v250q20 4 33.5 5.5t26.5 1.5q88 0 88 -67q0 -25 -14 -40.5t-38 -23.5v-2q19 -3 29.5 -20t16.5 -38t9 -40t7 -26h-19zM317 517q0 54 -72 54q-8 0 -19.5 -1t-22.5 -3v-109h36q31 0 54.5 13.5
t23.5 45.5zM471 458q0 -45 -16.5 -85.5t-45.5 -71t-68.5 -48t-84.5 -17.5t-84 17.5t-68.5 47.5t-46.5 70.5t-17 86.5t17 86t46.5 70t69 47.5t84.5 17.5t84 -17.5t68 -48t45.5 -70.5t16.5 -85zM454 458q0 42 -15 79.5t-41.5 65.5t-62.5 44.5t-78 16.5t-78.5 -16t-63.5 -44
t-42.5 -65.5t-15.5 -80.5t15.5 -80.5t42.5 -65.5t63 -44.5t78 -16.5t78 16.5t62.5 44.5t42 66t15.5 80z" />
    <glyph glyph-name="copyright" unicode="&#xa9;" horiz-adv-x="677" 
d="M449 478q-9 9 -31.5 17t-53.5 8q-33 0 -61.5 -11.5t-49.5 -33t-33 -53t-12 -71.5q0 -36 9.5 -66t28 -51.5t46.5 -34t65 -12.5q26 0 51.5 6.5t45.5 22.5l5 -15q-23 -17 -48.5 -24t-54.5 -7q-41 0 -72 13.5t-53 38t-33 57.5t-11 72q0 44 14.5 78.5t38.5 58.5t56 36.5
t68 12.5q34 0 57.5 -9t32.5 -17zM340 632q-60 0 -112 -23t-91 -62.5t-61 -92.5t-22 -114q0 -62 22 -115.5t61 -93t91 -62.5t112 -23t111.5 23t89.5 62.5t60 93t22 115.5q0 61 -22 114t-60 92.5t-89.5 62.5t-111.5 23zM641 340q0 -63 -23 -119t-63.5 -98.5t-95.5 -67.5
t-119 -25t-119.5 24.5t-96.5 66.5t-64.5 98.5t-23.5 120.5t23.5 120t65 98t97 66t119.5 24q63 0 118 -24.5t95.5 -66.5t63.5 -98t23 -119z" />
    <glyph glyph-name="trademark" unicode="&#x2122;" horiz-adv-x="755" 
d="M287 659h-116v-383h-18v383h-117v15h251v-15zM727 276h-18q-9 96 -17 189t-16 191h-2q-25 -74 -47 -138l-85 -237h-22q-33 94 -65 185t-63 190h-2q-6 -66 -12 -138l-20 -242h-18l35 398h27q32 -94 64 -184t65 -188h2q13 35 24.5 69.5t22.5 66.5l84 236h28z" />
    <glyph glyph-name="eogonek" unicode="&#x119;" horiz-adv-x="451" 
d="M385 20q-9 -5 -22.5 -10t-30.5 -10l-20 -22.5t-23 -29.5t-18.5 -34t-7.5 -37q0 -26 14 -40.5t33 -14.5q21 0 41 13l4 -15q-11 -8 -23 -11.5t-23 -3.5q-26 0 -46 17.5t-20 54.5q0 18 6.5 35t16.5 32t21.5 28t21.5 23q-14 -2 -29 -3.5t-32 -1.5q-97 0 -152 67t-55 193
q0 48 14 92t40 77.5t62.5 53.5t81.5 20q52 0 85 -20.5t52.5 -51t27 -65.5t7.5 -63v-22t-2 -20h-346q0 -54 11.5 -98.5t34.5 -77t58 -50.5t82 -18q46 0 79 9.5t53 19.5zM390 268q1 6 1 14v17q0 25 -7.5 56t-24.5 58t-46.5 45t-74.5 18q-37 0 -68 -16t-53.5 -44t-36 -66
t-16.5 -82h326z" />
    <glyph glyph-name="dieresis" unicode="&#xa8;" 
d="M73 584q-10 0 -16 7t-6 16q0 10 6.5 16.5t15.5 6.5q22 0 22 -23q0 -9 -6 -16t-16 -7zM226 584q-10 0 -16 7t-6 16q0 10 6.5 16.5t15.5 6.5q22 0 22 -23q0 -9 -6 -16t-16 -7z" />
    <glyph glyph-name="Dcroat" unicode="&#x110;" horiz-adv-x="606" 
d="M89 664q33 5 72 10t77 5q73 0 133.5 -19.5t104 -59.5t67.5 -101t24 -145q0 -89 -24 -156.5t-69.5 -112.5t-111 -68t-149.5 -23q-32 0 -64 1.5t-60 6.5v337h-73v17h73v308zM110 356h182v-17h-182v-322q22 -3 50 -4t55 -1q158 0 243.5 86t85.5 255q0 78 -22 136t-62 96.5
t-96.5 57t-125.5 18.5q-34 0 -67 -3.5t-61 -8.5v-293z" />
    <glyph glyph-name="Iogonek" unicode="&#x12e;" horiz-adv-x="195" 
d="M108 674v-674h-4q-9 -9 -20.5 -22.5t-22.5 -29.5t-18.5 -34t-7.5 -37q0 -26 14 -40.5t33 -14.5q21 0 41 13l4 -15q-11 -8 -23 -11.5t-23 -3.5q-26 0 -46 17.5t-20 54.5q0 20 7.5 38t19 34t24 29t21.5 23v673h21z" />
    <glyph glyph-name="iogonek" unicode="&#x12f;" horiz-adv-x="181" 
d="M80 483h21v-483h-8q-9 -9 -20.5 -22.5t-22.5 -29.5t-18.5 -34t-7.5 -37q0 -26 14 -40.5t33 -14.5q21 0 41 13l4 -15q-11 -8 -23 -11.5t-23 -3.5q-26 0 -46 17.5t-20 54.5q0 21 8.5 40t20.5 35.5t25 30t22 22.5v478zM112 622q0 -9 -6 -15t-15 -6t-15.5 6t-6.5 15t6.5 15
t15.5 6t15 -6t6 -15z" />
    <glyph glyph-name="Imacron" unicode="&#x12a;" horiz-adv-x="195" 
d="M108 674v-674h-21v674h21zM200 757v-18h-205v18h205z" />
    <glyph glyph-name="imacron" unicode="&#x12b;" horiz-adv-x="181" 
d="M101 0h-21v483h21v-483zM183 611v-17h-185v17h185z" />
    <glyph glyph-name="lslash" unicode="&#x142;" horiz-adv-x="189" 
d="M105 355v-355h-21v337l-66 -55v22l66 55v350h21v-332l75 63v-22z" />
    <glyph glyph-name="Lcaron" unicode="&#x13d;" horiz-adv-x="403" 
d="M105 674v-655h280v-19h-301v674h21zM356 610q0 -22 -9.5 -38t-24.5 -27t-34.5 -16.5t-39.5 -6.5l-5 13q18 2 35 7t30 14t21 22t8 32q0 21 -12 37.5t-26 26.5l20 4q15 -12 26 -29t11 -39z" />
    <glyph glyph-name="lcaron" unicode="&#x13e;" horiz-adv-x="191" 
d="M101 0h-21v709h21v-709zM217 639q0 -36 -17.5 -63t-36.5 -41l-11 8q17 14 31.5 37t14.5 59q0 25 -10.5 41.5t-23.5 27.5l17 4q14 -12 25 -30.5t11 -42.5z" />
    <glyph glyph-name="Lacute" unicode="&#x139;" horiz-adv-x="403" 
d="M105 674v-655h280v-19h-301v674h21zM213 825l-122 -115h-18l99 115h41z" />
    <glyph glyph-name="lacute" unicode="&#x13a;" horiz-adv-x="181" 
d="M187 836l-110 -96h-19l92 96h37zM101 0h-21v709h21v-709z" />
    <glyph glyph-name="Nacute" unicode="&#x143;" horiz-adv-x="605" 
d="M109 674l221 -360q44 -71 85.5 -140t83.5 -138h2q-1 80 -1 158v159v321h21v-674h-23l-219 355q-45 72 -87 143t-86 143h-2q1 -80 1 -159v-161v-321h-21v674h25zM438 825l-122 -115h-18l99 115h41z" />
    <glyph glyph-name="logicalnot" unicode="&#xac;" horiz-adv-x="555" 
d="M510 376v-250h-20v232h-445v18h465z" />
    <glyph glyph-name="nacute" unicode="&#x144;" horiz-adv-x="496" 
d="M420 0h-21v276q0 57 -11 95t-30.5 61.5t-45 33.5t-53.5 10q-30 0 -55 -11.5t-44 -29t-31.5 -39t-18.5 -42.5t-7.5 -37.5t-1.5 -49.5v-267h-21v312q0 20 -0.5 43.5l-1 47t-1 44.5t-1.5 36h19l4 -103h2q25 52 64 82.5t96 30.5q42 0 72.5 -15.5t49.5 -43.5t28 -68t9 -89
v-277zM347 686l-113 -136h-16l93 136h36z" />
    <glyph glyph-name="Ncaron" unicode="&#x147;" horiz-adv-x="605" 
d="M109 674l221 -360q44 -71 85.5 -140t83.5 -138h2q-1 80 -1 158v159v321h21v-674h-23l-219 355q-45 72 -87 143t-86 143h-2q1 -80 1 -159v-161v-321h-21v674h25zM304 710l-93 111h20l86 -92h2l85 92h20l-91 -111h-29z" />
    <glyph glyph-name="guillemotleft" unicode="&#xab;" horiz-adv-x="357" 
d="M50 252l135 -182h-23l-133 182l133 182h23zM199 252l135 -182h-23l-133 182l133 182h23z" />
    <glyph glyph-name="guillemotright" unicode="&#xbb;" horiz-adv-x="357" 
d="M172 434h23l133 -182l-133 -182h-23l135 182zM23 434h23l133 -182l-133 -182h-23l135 182z" />
    <glyph glyph-name="ellipsis" unicode="&#x2026;" horiz-adv-x="1000" 
d="M532 19q0 -25 -24 -25q-11 0 -17.5 7t-6.5 18t6.5 18.5t17.5 7.5t17.5 -7.5t6.5 -18.5zM248 19q0 -25 -24 -25q-11 0 -17.5 7t-6.5 18t6.5 18.5t17.5 7.5t17.5 -7.5t6.5 -18.5zM816 18q0 -25 -24 -25q-11 0 -17.5 7t-6.5 18t6.5 18.5t17.5 7.5t17.5 -7.5t6.5 -18.5z" />
    <glyph glyph-name="uni0A00" unicode="&#xa00;" horiz-adv-x="500" 
 />
    <glyph glyph-name="ncaron" unicode="&#x148;" horiz-adv-x="496" 
d="M420 0h-21v276q0 57 -11 95t-30.5 61.5t-45 33.5t-53.5 10q-30 0 -55 -11.5t-44 -29t-31.5 -39t-18.5 -42.5t-7.5 -37.5t-1.5 -49.5v-267h-21v312q0 20 -0.5 43.5l-1 47t-1 44.5t-1.5 36h19l4 -103h2q25 52 64 82.5t96 30.5q42 0 72.5 -15.5t49.5 -43.5t28 -68t9 -89
v-277zM237 550l-92 131h20l85 -112h2l84 112h19l-89 -131h-29z" />
    <glyph glyph-name="Ohungarumlaut" unicode="&#x150;" horiz-adv-x="613" 
d="M587 344q0 -87 -23 -153.5t-62 -111t-90.5 -67.5t-109.5 -23q-59 0 -109.5 24.5t-87.5 69.5t-58 108t-21 140q0 80 22 145.5t60.5 112t90.5 71.5t112 25q62 0 113 -25t87 -70t56 -108t20 -138zM564 343q0 70 -18 129t-51.5 102.5t-80 68t-103.5 24.5t-105 -24.5t-83 -69
t-54.5 -106t-19.5 -136.5q0 -71 19 -130.5t52.5 -102.5t80 -67t102.5 -24q55 0 102.5 22.5t82.5 65.5t55.5 105.5t20.5 142.5zM355 825l-108 -110h-13l82 110h39zM473 825l-108 -110h-13l82 110h39z" />
    <glyph glyph-name="Otilde" unicode="&#xd5;" horiz-adv-x="613" 
d="M215 718q-1 36 13 57.5t40 21.5q18 0 32.5 -9t27 -20t24.5 -20t25 -9q14 0 22 11.5t10 49.5h16q-2 -46 -14.5 -62.5t-33.5 -16.5q-17 0 -30.5 9t-25.5 20t-24.5 20t-28.5 9q-18 0 -28 -16t-9 -45h-16zM587 344q0 -87 -23 -153.5t-62 -111t-90.5 -67.5t-109.5 -23
q-59 0 -109.5 24.5t-87.5 69.5t-58 108t-21 140q0 80 22 145.5t60.5 112t90.5 71.5t112 25q62 0 113 -25t87 -70t56 -108t20 -138zM564 343q0 70 -18 129t-51.5 102.5t-80 68t-103.5 24.5t-105 -24.5t-83 -69t-54.5 -106t-19.5 -136.5q0 -71 19 -130.5t52.5 -102.5t80 -67
t102.5 -24q55 0 102.5 22.5t82.5 65.5t55.5 105.5t20.5 142.5z" />
    <glyph glyph-name="ohungarumlaut" unicode="&#x151;" horiz-adv-x="483" 
d="M452 246q0 -68 -19 -116.5t-49.5 -80t-69 -46t-76.5 -14.5q-44 0 -82 17t-65.5 49.5t-43.5 78.5t-16 104q0 61 17 108.5t46 80t67.5 49.5t82.5 17q46 0 84.5 -18t66 -50t42.5 -78t15 -101zM430 246q0 50 -13 92t-37.5 73t-59 48t-76.5 17q-41 0 -76 -16.5t-60.5 -47
t-40 -75t-14.5 -99.5q0 -53 14.5 -96t39.5 -73t59.5 -46.5t75.5 -16.5q34 0 67.5 14.5t60.5 44t43.5 74.5t16.5 107zM289 686l-107 -136h-13l82 136h38zM407 686l-107 -136h-13l82 136h38z" />
    <glyph glyph-name="Omacron" unicode="&#x14c;" horiz-adv-x="613" 
d="M422 757v-18h-205v18h205zM587 344q0 -87 -23 -153.5t-62 -111t-90.5 -67.5t-109.5 -23q-59 0 -109.5 24.5t-87.5 69.5t-58 108t-21 140q0 80 22 145.5t60.5 112t90.5 71.5t112 25q62 0 113 -25t87 -70t56 -108t20 -138zM564 343q0 70 -18 129t-51.5 102.5t-80 68
t-103.5 24.5t-105 -24.5t-83 -69t-54.5 -106t-19.5 -136.5q0 -71 19 -130.5t52.5 -102.5t80 -67t102.5 -24q55 0 102.5 22.5t82.5 65.5t55.5 105.5t20.5 142.5z" />
    <glyph glyph-name="endash" unicode="&#x2013;" horiz-adv-x="500" 
d="M470 266v-17h-440v17h440z" />
    <glyph glyph-name="emdash" unicode="&#x2014;" horiz-adv-x="1000" 
d="M970 266v-17h-940v17h940z" />
    <glyph glyph-name="quotedblleft" unicode="&#x201c;" horiz-adv-x="269" 
d="M160 471q8 31 17 63t18 60.5t18 52.5t18 40l15 4q-15 -42 -30 -100t-23 -111zM40 471q8 31 17 63t18 60.5t18 52.5t18 40l15 4q-15 -42 -30 -100t-23 -111z" />
    <glyph glyph-name="quotedblright" unicode="&#x201d;" horiz-adv-x="269" 
d="M126 691q-8 -31 -17 -63t-18 -60.5t-18 -52.5t-18 -40l-15 -4q15 42 30 100t23 111zM246 691q-8 -31 -17 -63t-18 -60.5t-18 -52.5t-18 -40l-15 -4q15 42 30 100t23 111z" />
    <glyph glyph-name="quoteleft" unicode="&#x2018;" horiz-adv-x="149" 
d="M126 691q-15 -42 -30 -100t-23 -111l-33 -9q8 31 17 63t18 60.5t18 52.5t18 40z" />
    <glyph glyph-name="quoteright" unicode="&#x2019;" horiz-adv-x="149" 
d="M126 691q-8 -31 -17 -63t-18 -60.5t-18 -52.5t-18 -40l-15 -4q15 42 30 100t23 111z" />
    <glyph glyph-name="divide" unicode="&#xf7;" horiz-adv-x="555" 
d="M277 401q-10 0 -16 7t-6 17q0 11 6 17.5t16 6.5t16.5 -6.5t6.5 -17.5q0 -10 -6.5 -17t-16.5 -7zM277 85q-10 0 -16 7t-6 17q0 11 6 17.5t16 6.5t16.5 -6.5t6.5 -17.5q0 -10 -6.5 -17t-16.5 -7zM510 279v-18h-465v18h465z" />
    <glyph glyph-name="omacron" unicode="&#x14d;" horiz-adv-x="483" 
d="M342 611v-17h-185v17h185zM452 246q0 -68 -19 -116.5t-49.5 -80t-69 -46t-76.5 -14.5q-44 0 -82 17t-65.5 49.5t-43.5 78.5t-16 104q0 61 17 108.5t46 80t67.5 49.5t82.5 17q46 0 84.5 -18t66 -50t42.5 -78t15 -101zM430 246q0 50 -13 92t-37.5 73t-59 48t-76.5 17
q-41 0 -76 -16.5t-60.5 -47t-40 -75t-14.5 -99.5q0 -53 14.5 -96t39.5 -73t59.5 -46.5t75.5 -16.5q34 0 67.5 14.5t60.5 44t43.5 74.5t16.5 107z" />
    <glyph glyph-name="Racute" unicode="&#x154;" horiz-adv-x="476" 
d="M426 0q-7 14 -17 58t-27 110q-12 46 -26.5 76t-35 47t-49 23.5t-68.5 6.5h-98v-321h-21v664q60 15 131 15q103 0 156 -44t53 -127q0 -63 -37 -109.5t-106 -66.5v-2q51 -11 78 -49.5t44 -107.5q17 -70 28 -115t18 -58h-23zM403 507q0 77 -48.5 115.5t-138.5 38.5
q-31 0 -59 -2.5t-52 -8.5v-312h94q99 0 150.5 47t53.5 122zM353 825l-122 -115h-18l99 115h41z" />
    <glyph glyph-name="racute" unicode="&#x155;" horiz-adv-x="264" 
d="M95 483l4 -113h2q9 25 22.5 47.5t31 39.5t37 26.5t39.5 9.5q6 0 10.5 -0.5t9.5 -1.5v-20q-5 1 -10.5 1.5t-10.5 0.5q-33 0 -66 -30t-52 -89q-7 -21 -9 -42t-2 -50v-262h-21v345q0 36 -1.5 70.5t-2.5 67.5h19zM252 686l-113 -136h-16l93 136h36z" />
    <glyph glyph-name="Rcaron" unicode="&#x158;" horiz-adv-x="476" 
d="M426 0q-7 14 -17 58t-27 110q-12 46 -26.5 76t-35 47t-49 23.5t-68.5 6.5h-98v-321h-21v664q60 15 131 15q103 0 156 -44t53 -127q0 -63 -37 -109.5t-106 -66.5v-2q51 -11 78 -49.5t44 -107.5q17 -70 28 -115t18 -58h-23zM403 507q0 77 -48.5 115.5t-138.5 38.5
q-31 0 -59 -2.5t-52 -8.5v-312h94q99 0 150.5 47t53.5 122zM231 710l-93 111h20l86 -92h2l85 92h20l-91 -111h-29z" />
    <glyph glyph-name="guilsinglleft" unicode="&#x2039;" horiz-adv-x="208" 
d="M50 252l135 -182h-23l-133 182l133 182h23z" />
    <glyph glyph-name="guilsinglright" unicode="&#x203a;" horiz-adv-x="208" 
d="M179 252l-133 -182h-23l135 182l-135 182h23z" />
    <glyph glyph-name="rcaron" unicode="&#x159;" horiz-adv-x="264" 
d="M95 483l4 -113h2q9 25 22.5 47.5t31 39.5t37 26.5t39.5 9.5q6 0 10.5 -0.5t9.5 -1.5v-20q-5 1 -10.5 1.5t-10.5 0.5q-33 0 -66 -30t-52 -89q-7 -21 -9 -42t-2 -50v-262h-21v345q0 36 -1.5 70.5t-2.5 67.5h19zM147 550l-92 131h20l85 -112h2l84 112h19l-89 -131h-29z" />
    <glyph glyph-name="Scaron" unicode="&#x160;" horiz-adv-x="425" 
d="M341 636q-14 11 -42 20.5t-63 9.5q-36 0 -65.5 -11t-50.5 -31t-32.5 -47t-11.5 -60q0 -32 12 -56t32.5 -42.5t47 -33t55.5 -28.5q30 -14 57.5 -31t49 -38.5t34 -49t12.5 -63.5q0 -38 -12.5 -71.5t-37.5 -59t-62.5 -40t-86.5 -14.5q-38 0 -75 11.5t-60 28.5l7 20
q20 -18 57 -29.5t72 -11.5q43 0 76 13t55.5 35.5t33.5 52.5t11 64q0 33 -12 58t-32 45t-46.5 35t-55.5 29q-30 14 -57.5 29.5t-48.5 35.5t-34 46.5t-13 62.5q0 38 13 69t37 53.5t57 34.5t74 12q38 0 67.5 -9.5t45.5 -20.5zM211 710l-93 111h20l86 -92h2l85 92h20l-91 -111
h-29z" />
    <glyph glyph-name="quotesinglbase" unicode="&#x201a;" horiz-adv-x="137" 
d="M104 82q-8 -31 -17 -63t-18 -60.5t-18 -52.5t-18 -40l-15 -4q15 42 30 100t23 111z" />
    <glyph glyph-name="quotedblbase" unicode="&#x201e;" horiz-adv-x="257" 
d="M104 82q-8 -31 -17 -63t-18 -60.5t-18 -52.5t-18 -40l-15 -4q15 42 30 100t23 111zM224 82q-8 -31 -17 -63t-18 -60.5t-18 -52.5t-18 -40l-15 -4q15 42 30 100t23 111z" />
    <glyph glyph-name="scaron" unicode="&#x161;" horiz-adv-x="331" 
d="M290 124q0 -60 -39 -97t-107 -37q-29 0 -55.5 7.5t-46.5 22.5l8 16q17 -14 43 -21.5t51 -7.5q58 0 91.5 32.5t33.5 83.5q0 24 -6 41t-18.5 31t-31.5 26t-45 24q-53 24 -83 53t-30 77q0 57 35 87.5t95 30.5q28 0 50 -6.5t37 -17.5l-7 -16q-13 10 -33 16.5t-49 6.5
q-22 0 -41.5 -5.5t-34 -17.5t-23 -31t-8.5 -45q0 -43 27 -67.5t75 -47.5q28 -14 49 -26.5t35 -28.5t21 -36t7 -47zM166 550l-92 131h20l85 -112h2l84 112h19l-89 -131h-29z" />
    <glyph glyph-name="Sacute" unicode="&#x15a;" horiz-adv-x="425" 
d="M341 636q-14 11 -42 20.5t-63 9.5q-36 0 -65.5 -11t-50.5 -31t-32.5 -47t-11.5 -60q0 -32 12 -56t32.5 -42.5t47 -33t55.5 -28.5q30 -14 57.5 -31t49 -38.5t34 -49t12.5 -63.5q0 -38 -12.5 -71.5t-37.5 -59t-62.5 -40t-86.5 -14.5q-38 0 -75 11.5t-60 28.5l7 20
q20 -18 57 -29.5t72 -11.5q43 0 76 13t55.5 35.5t33.5 52.5t11 64q0 33 -12 58t-32 45t-46.5 35t-55.5 29q-30 14 -57.5 29.5t-48.5 35.5t-34 46.5t-13 62.5q0 38 13 69t37 53.5t57 34.5t74 12q38 0 67.5 -9.5t45.5 -20.5zM323 825l-122 -115h-18l99 115h41z" />
    <glyph glyph-name="sacute" unicode="&#x15b;" horiz-adv-x="331" 
d="M290 124q0 -60 -39 -97t-107 -37q-29 0 -55.5 7.5t-46.5 22.5l8 16q17 -14 43 -21.5t51 -7.5q58 0 91.5 32.5t33.5 83.5q0 24 -6 41t-18.5 31t-31.5 26t-45 24q-53 24 -83 53t-30 77q0 57 35 87.5t95 30.5q28 0 50 -6.5t37 -17.5l-7 -16q-13 10 -33 16.5t-49 6.5
q-22 0 -41.5 -5.5t-34 -17.5t-23 -31t-8.5 -45q0 -43 27 -67.5t75 -47.5q28 -14 49 -26.5t35 -28.5t21 -36t7 -47zM267 686l-113 -136h-16l93 136h36z" />
    <glyph glyph-name="Aacute" unicode="&#xc1;" horiz-adv-x="551" 
d="M292 674l229 -674h-23l-81 239h-281l-81 -239h-22l229 674h30zM411 257q-19 56 -38 111t-37 112q-14 44 -29 87t-29 87h-2q-15 -43 -29 -87t-29 -87q-19 -56 -38 -111.5t-38 -111.5h269zM393 825l-122 -115h-18l99 115h41z" />
    <glyph glyph-name="Tcaron" unicode="&#x164;" horiz-adv-x="419" 
d="M196 710l-93 111h20l86 -92h2l85 92h20l-91 -111h-29zM424 655h-205v-655h-21v655h-203v19h429v-19z" />
    <glyph glyph-name="tcaron" unicode="&#x165;" horiz-adv-x="261" 
d="M110 587v-104h119v-16h-119v-310q0 -36 3 -63.5t11 -46.5t21.5 -29t35.5 -10q14 0 23.5 3.5t17.5 8.5l2 -18q-8 -5 -20 -8.5t-26 -3.5q-53 0 -71 44t-18 123v310h-70v16h70v97zM242 639q0 -36 -17.5 -63t-36.5 -41l-11 8q17 14 31.5 37t14.5 59q0 25 -10.5 41.5
t-23.5 27.5l17 4q14 -12 25 -30.5t11 -42.5z" />
    <glyph glyph-name="Iacute" unicode="&#xcd;" horiz-adv-x="195" 
d="M108 674v-674h-21v674h21zM213 825l-122 -115h-18l99 115h41z" />
    <glyph glyph-name="Zcaron" unicode="&#x17d;" horiz-adv-x="491" 
d="M452 674v-13l-386 -641v-1h391v-19h-421v13l386 641v1h-354v19h384zM246 710l-93 111h20l86 -92h2l85 92h20l-91 -111h-29z" />
    <glyph glyph-name="zcaron" unicode="&#x17e;" horiz-adv-x="342" 
d="M329 0h-314v11q72 114 141.5 226.5t141.5 226.5v2h-263v17h291v-12q-72 -114 -141.5 -226.5t-140.5 -225.5v-2h285v-17zM167 550l-92 131h20l85 -112h2l84 112h19l-89 -131h-29z" />
    <glyph glyph-name="Umacron" unicode="&#x16a;" horiz-adv-x="591" 
d="M398 757v-18h-205v18h205zM105 674v-403q0 -71 14.5 -121t39.5 -81.5t58.5 -46t71.5 -14.5q41 0 77 15t62.5 47.5t42 83t15.5 121.5v399h21v-399q0 -76 -17 -130t-47 -88.5t-69.5 -51t-84.5 -16.5q-42 0 -79.5 15.5t-65 49t-44 87t-16.5 129.5v404h21z" />
    <glyph glyph-name="Oacute" unicode="&#xd3;" horiz-adv-x="613" 
d="M587 344q0 -87 -23 -153.5t-62 -111t-90.5 -67.5t-109.5 -23q-59 0 -109.5 24.5t-87.5 69.5t-58 108t-21 140q0 80 22 145.5t60.5 112t90.5 71.5t112 25q62 0 113 -25t87 -70t56 -108t20 -138zM564 343q0 70 -18 129t-51.5 102.5t-80 68t-103.5 24.5t-105 -24.5t-83 -69
t-54.5 -106t-19.5 -136.5q0 -71 19 -130.5t52.5 -102.5t80 -67t102.5 -24q55 0 102.5 22.5t82.5 65.5t55.5 105.5t20.5 142.5zM433 825l-122 -115h-18l99 115h41z" />
    <glyph glyph-name="Ocircumflex" unicode="&#xd4;" horiz-adv-x="613" 
d="M334 821l92 -111h-20l-86 92h-2l-85 -92h-20l91 111h30zM587 344q0 -87 -23 -153.5t-62 -111t-90.5 -67.5t-109.5 -23q-59 0 -109.5 24.5t-87.5 69.5t-58 108t-21 140q0 80 22 145.5t60.5 112t90.5 71.5t112 25q62 0 113 -25t87 -70t56 -108t20 -138zM564 343
q0 70 -18 129t-51.5 102.5t-80 68t-103.5 24.5t-105 -24.5t-83 -69t-54.5 -106t-19.5 -136.5q0 -71 19 -130.5t52.5 -102.5t80 -67t102.5 -24q55 0 102.5 22.5t82.5 65.5t55.5 105.5t20.5 142.5z" />
    <glyph glyph-name="umacron" unicode="&#x16b;" horiz-adv-x="494" 
d="M339 611v-17h-185v17h185zM76 483h21v-276q0 -57 11 -95t30 -61.5t44 -33.5t54 -10q30 0 55 11.5t43.5 29t31 39t18.5 42.5t7.5 37.5t1.5 49.5v267h21v-312q0 -20 0.5 -44t1 -47t1 -44t1.5 -36h-19l-4 103h-2q-25 -52 -63.5 -82.5t-95.5 -30.5q-42 0 -72 15.5t-49 43.5
t-28 68t-9 89v277z" />
    <glyph glyph-name="Uring" unicode="&#x16e;" horiz-adv-x="591" 
d="M298 855q36 0 61 -21.5t25 -57.5t-26 -57.5t-61 -21.5q-38 0 -63.5 21.5t-25.5 56.5q0 36 25 58t65 22zM298 839q-32 0 -51.5 -17t-19.5 -47q0 -29 20.5 -45.5t49.5 -16.5t48.5 16.5t19.5 46.5t-19 46.5t-48 16.5zM105 674v-403q0 -71 14.5 -121t39.5 -81.5t58.5 -46
t71.5 -14.5q41 0 77 15t62.5 47.5t42 83t15.5 121.5v399h21v-399q0 -76 -17 -130t-47 -88.5t-69.5 -51t-84.5 -16.5q-42 0 -79.5 15.5t-65 49t-44 87t-16.5 129.5v404h21z" />
    <glyph glyph-name="Uacute" unicode="&#xda;" horiz-adv-x="591" 
d="M105 674v-403q0 -71 14.5 -121t39.5 -81.5t58.5 -46t71.5 -14.5q41 0 77 15t62.5 47.5t42 83t15.5 121.5v399h21v-399q0 -76 -17 -130t-47 -88.5t-69.5 -51t-84.5 -16.5q-42 0 -79.5 15.5t-65 49t-44 87t-16.5 129.5v404h21zM413 825l-122 -115h-18l99 115h41z" />
    <glyph glyph-name="uring" unicode="&#x16f;" horiz-adv-x="494" 
d="M248 535q-38 0 -63 22.5t-25 58.5q0 38 23.5 61t65.5 23q36 0 60.5 -22.5t24.5 -60.5q0 -37 -25.5 -59.5t-60.5 -22.5zM248 551q29 0 48 18t19 48q0 31 -18.5 49t-47.5 18q-32 0 -51 -18.5t-19 -49.5q0 -29 19.5 -47t49.5 -18zM76 483h21v-276q0 -57 11 -95t30 -61.5
t44 -33.5t54 -10q30 0 55 11.5t43.5 29t31 39t18.5 42.5t7.5 37.5t1.5 49.5v267h21v-312q0 -20 0.5 -44t1 -47t1 -44t1.5 -36h-19l-4 103h-2q-25 -52 -63.5 -82.5t-95.5 -30.5q-42 0 -72 15.5t-49 43.5t-28 68t-9 89v277z" />
    <glyph glyph-name="Uhungarumlaut" unicode="&#x170;" horiz-adv-x="591" 
d="M105 674v-403q0 -71 14.5 -121t39.5 -81.5t58.5 -46t71.5 -14.5q41 0 77 15t62.5 47.5t42 83t15.5 121.5v399h21v-399q0 -76 -17 -130t-47 -88.5t-69.5 -51t-84.5 -16.5q-42 0 -79.5 15.5t-65 49t-44 87t-16.5 129.5v404h21zM332 825l-108 -110h-13l82 110h39zM450 825
l-108 -110h-13l82 110h39z" />
    <glyph glyph-name="uhungarumlaut" unicode="&#x171;" horiz-adv-x="494" 
d="M76 483h21v-276q0 -57 11 -95t30 -61.5t44 -33.5t54 -10q30 0 55 11.5t43.5 29t31 39t18.5 42.5t7.5 37.5t1.5 49.5v267h21v-312q0 -20 0.5 -44t1 -47t1 -44t1.5 -36h-19l-4 103h-2q-25 -52 -63.5 -82.5t-95.5 -30.5q-42 0 -72 15.5t-49 43.5t-28 68t-9 89v277zM284 686
l-107 -136h-13l82 136h38zM402 686l-107 -136h-13l82 136h38z" />
    <glyph glyph-name="Uogonek" unicode="&#x172;" horiz-adv-x="591" 
d="M105 674v-403q0 -71 14.5 -121t39.5 -81.5t58.5 -46t71.5 -14.5q41 0 77 15t62.5 47.5t42 83t15.5 121.5v399h21v-399q0 -122 -42.5 -189t-109.5 -87q-8 -10 -20 -23.5t-22.5 -29t-18 -33.5t-7.5 -36q0 -26 14 -40.5t33 -14.5q21 0 41 13l4 -15q-11 -8 -23 -11.5
t-23 -3.5q-26 0 -46 17.5t-20 54.5q0 18 6.5 34.5t16 31t20.5 27.5t21 23q-10 -2 -20.5 -3t-21.5 -1q-42 0 -79.5 15.5t-65 49t-44 87t-16.5 129.5v404h21z" />
    <glyph glyph-name="uogonek" unicode="&#x173;" horiz-adv-x="494" 
d="M395 103h-2q-25 -52 -63.5 -82.5t-95.5 -30.5q-42 0 -72 15.5t-49 43.5t-28 68t-9 89v277h21v-276q0 -57 11 -95t30 -61.5t44 -33.5t54 -10q30 0 55 11.5t43.5 29t31 39t18.5 42.5t7.5 37.5t1.5 49.5v267h21v-312q0 -20 0.5 -44t1 -47t1 -44t1.5 -36h-6
q-9 -9 -20.5 -22.5t-22.5 -29.5t-18.5 -34t-7.5 -37q0 -26 14 -40.5t33 -14.5q21 0 41 13l4 -15q-11 -8 -23 -11.5t-23 -3.5q-26 0 -46 17.5t-20 54.5q0 21 8.5 40t20.5 35.5t25 30t22 22.5z" />
    <glyph glyph-name="Yacute" unicode="&#xdd;" horiz-adv-x="466" 
d="M458 674l-214 -369v-305h-21v305l-210 369h25l107 -189q23 -41 44.5 -81t43.5 -80h2q20 41 43.5 80t46.5 81l108 189h25zM353 825l-122 -115h-18l99 115h41z" />
    <glyph glyph-name="yacute" unicode="&#xfd;" horiz-adv-x="405" 
d="M393 483l-124 -347q-21 -60 -38.5 -106.5t-34.5 -82.5t-34.5 -63t-38.5 -47q-31 -29 -55.5 -41.5t-38.5 -15.5l-7 18q67 22 107 76t68 126q2 8 2.5 12t-2.5 12l-184 459h24l134 -337q11 -27 21 -54.5t20 -54.5h1l156 446h24zM315 686l-113 -136h-16l93 136h36z" />
    <glyph glyph-name="Zdotaccent" unicode="&#x17b;" horiz-adv-x="491" 
d="M452 674v-13l-386 -641v-1h391v-19h-421v13l386 641v1h-354v19h384zM266 730q-10 0 -16.5 7t-6.5 16t6.5 16t16.5 7q9 0 15.5 -7t6.5 -16t-6.5 -16t-15.5 -7z" />
    <glyph glyph-name="Lslash" unicode="&#x141;" horiz-adv-x="408" 
d="M110 674v-326l139 102v-21l-139 -102v-308h280v-19h-301v312l-83 -61v21l83 61v341h21z" />
    <glyph glyph-name="zdotaccent" unicode="&#x17c;" horiz-adv-x="342" 
d="M177 584q-10 0 -16.5 7t-6.5 16t6.5 16t16.5 7q9 0 15.5 -7t6.5 -16t-6 -16t-16 -7zM329 0h-314v11q72 114 141.5 226.5t141.5 226.5v2h-263v17h291v-12q-72 -114 -141.5 -226.5t-140.5 -225.5v-2h285v-17z" />
    <glyph glyph-name="caron" unicode="&#x2c7;" 
d="M137 550l-92 131h20l85 -112h2l84 112h19l-89 -131h-29z" />
    <glyph glyph-name="nonmarkingreturn" unicode="&#xd;" horiz-adv-x="0" 
 />
    <glyph glyph-name="Eth" unicode="&#xd0;" horiz-adv-x="606" 
d="M89 664q33 5 72 10t77 5q73 0 133.5 -19.5t104 -59.5t67.5 -101t24 -145q0 -89 -24 -156.5t-69.5 -112.5t-111 -68t-149.5 -23q-32 0 -64 1.5t-60 6.5v337h-73v17h73v308zM110 356h182v-17h-182v-322q22 -3 50 -4t55 -1q158 0 243.5 86t85.5 255q0 78 -22 136t-62 96.5
t-96.5 57t-125.5 18.5q-34 0 -67 -3.5t-61 -8.5v-293z" />
    <glyph glyph-name="eth" unicode="&#xf0;" horiz-adv-x="472" 
d="M431 247q0 -67 -17 -115.5t-44.5 -80t-62.5 -47t-71 -15.5q-41 0 -77 17t-62 49.5t-41 78.5t-15 104t16 104t43 78t63.5 49t78.5 17q48 0 86 -24t61 -66l2 1q-23 65 -61 115.5t-83 90.5l-148 -71l-7 14l142 68q-31 26 -63.5 47.5t-64.5 38.5l10 14q37 -20 71.5 -42.5
t65.5 -48.5l114 55l7 -14l-109 -52q75 -67 120.5 -156t45.5 -209zM409 245q0 49 -11.5 90.5t-33.5 71t-52.5 46t-69.5 16.5q-38 0 -70.5 -15.5t-56.5 -45.5t-38 -73t-14 -97q0 -53 13 -96t36.5 -73t55 -46.5t68.5 -16.5q32 0 63 14.5t55.5 43.5t39.5 74t15 107z" />
    <glyph glyph-name="Thorn" unicode="&#xde;" horiz-adv-x="471" 
d="M84 674h21v-155q20 3 43 5t47 2q46 0 88 -9t74 -28.5t51 -50t19 -73.5q0 -46 -18.5 -81t-52 -59t-80 -36t-101.5 -12q-18 0 -36.5 1t-33.5 3v-181h-21v674zM105 199q16 -3 34.5 -3.5t35.5 -0.5q51 0 93.5 11t73 32.5t47.5 53t17 72.5q0 39 -17 66t-46 44.5t-67.5 25.5
t-81.5 8q-24 0 -46.5 -2.5t-42.5 -4.5v-302z" />
    <glyph glyph-name="thorn" unicode="&#xfe;" horiz-adv-x="507" 
d="M466 248q0 -62 -15 -110.5t-42.5 -81.5t-65.5 -50t-83 -17q-22 0 -45 4.5t-44 15t-38.5 27.5t-29.5 41h-2v-275h-21v866h21v-285h1q10 22 27 42t39 35t47.5 24t53.5 9q43 0 79 -17.5t62.5 -49.5t41 -77.5t14.5 -100.5zM444 248q0 51 -12.5 93t-35.5 72t-55 46.5t-71 16.5
q-38 0 -69.5 -16t-53.5 -39.5t-34 -51t-12 -50.5v-167q0 -33 12.5 -60t34 -46t49.5 -29.5t59 -10.5q85 0 136.5 63t51.5 179z" />
    <glyph glyph-name="onehalf" unicode="&#xbd;" horiz-adv-x="738" 
d="M124 -11l379 672h19l-379 -672h-19zM136 266v370h-2l-79 -45l-4 16l89 49h15v-390h-19zM672 0h-211v11l62 67q57 60 92 114.5t35 99.5q0 36 -19 61.5t-67 25.5q-23 0 -45 -9t-37 -23l-7 12q16 14 39 25t55 11q28 0 47 -8.5t31 -22.5t17.5 -32.5t5.5 -37.5
q0 -25 -10.5 -52t-28.5 -55.5t-42 -58t-52 -58.5l-48 -52v-2h183v-16z" />
    <glyph glyph-name="onequarter" unicode="&#xbc;" horiz-adv-x="738" 
d="M601 0v119h-183v14l178 259h24v-257h50v-16h-50v-119h-19zM601 278v90h-2q-39 -57 -78.5 -115.5t-78.5 -115.5l1 -2h158v143zM144 -11l379 672h19l-379 -672h-19zM136 266v370h-2l-79 -45l-4 16l89 49h15v-390h-19z" />
    <glyph glyph-name="onesuperior" unicode="&#xb9;" horiz-adv-x="233" 
d="M127 266v370h-2l-79 -45l-4 16l89 49h15v-390h-19z" />
    <glyph glyph-name="threequarters" unicode="&#xbe;" horiz-adv-x="738" 
d="M611 0v119h-183v14l178 259h24v-257h50v-16h-50v-119h-19zM611 278v90h-2q-39 -57 -78.5 -115.5t-78.5 -115.5l1 -2h158v143zM184 -11l379 672h19l-379 -672h-19zM142 485q18 0 36 6.5t32.5 18.5t23 28t8.5 35q0 29 -20.5 50.5t-58.5 21.5q-26 0 -48.5 -8t-35.5 -18
l-5 14q14 10 37.5 19t54.5 9q24 0 42 -7.5t30 -19.5t18 -27.5t6 -31.5q0 -33 -22 -59t-60 -36v-2q40 -6 69 -33t29 -69q0 -23 -8 -44t-24.5 -37t-41.5 -25.5t-59 -9.5q-29 0 -51 8t-36 16l6 15q12 -9 33.5 -16t47.5 -7q52 0 82.5 28.5t30.5 71.5q0 41 -32 67.5t-84 26.5h-19
v15h19z" />
    <glyph glyph-name="threesuperior" unicode="&#xb3;" horiz-adv-x="291" 
d="M112 485q18 0 36 6.5t32.5 18.5t23 28t8.5 35q0 29 -20.5 50.5t-58.5 21.5q-26 0 -48.5 -8t-35.5 -18l-5 14q14 10 37.5 19t54.5 9q24 0 42 -7.5t30 -19.5t18 -27.5t6 -31.5q0 -33 -22 -59t-60 -36v-2q40 -6 69 -33t29 -69q0 -23 -8 -44t-24.5 -37t-41.5 -25.5t-59 -9.5
q-29 0 -51 8t-36 16l6 15q12 -9 33.5 -16t47.5 -7q52 0 82.5 28.5t30.5 71.5q0 41 -32 67.5t-84 26.5h-19v15h19z" />
    <glyph glyph-name="twosuperior" unicode="&#xb2;" horiz-adv-x="291" 
d="M242 266h-211v11l62 67q57 60 92 114.5t35 99.5q0 36 -19 61.5t-67 25.5q-23 0 -45 -9t-37 -23l-7 12q16 14 39 25t55 11q28 0 47 -8.5t31 -22.5t17.5 -32.5t5.5 -37.5q0 -25 -10.5 -52t-28.5 -55.5t-42 -58t-52 -58.5l-48 -52v-2h183v-16z" />
    <glyph glyph-name="brokenbar" unicode="&#xa6;" horiz-adv-x="190" 
d="M105 675v-350h-20v350h20zM105 175v-350h-20v350h20z" />
    <glyph glyph-name="multiply" unicode="&#xd7;" horiz-adv-x="555" 
d="M278 278l214 219l14 -14l-215 -219l215 -219l-14 -13l-214 218l-214 -218l-14 13l214 219l-214 219l14 14z" />
    <glyph glyph-name="Aring" unicode="&#xc5;" horiz-adv-x="551" 
d="M292 674l229 -674h-23l-81 239h-281l-81 -239h-22l229 674h30zM411 257q-19 56 -38 111t-37 112q-14 44 -29 87t-29 87h-2q-15 -43 -29 -87t-29 -87q-19 -56 -38 -111.5t-38 -111.5h269zM279 855q36 0 61 -21.5t25 -57.5t-26 -57.5t-61 -21.5q-38 0 -63.5 21.5
t-25.5 56.5q0 36 25 58t65 22zM279 839q-32 0 -51.5 -17t-19.5 -47q0 -29 20.5 -45.5t49.5 -16.5t48.5 16.5t19.5 46.5t-19 46.5t-48 16.5z" />
    <glyph glyph-name="Ccedilla" unicode="&#xc7;" horiz-adv-x="507" 
d="M472 11q-20 -8 -56 -14.5t-85 -6.5h-4l-32 -54q29 -2 51.5 -18t22.5 -47q0 -17 -6.5 -29t-17 -19.5t-23.5 -11t-26 -3.5q-18 0 -33.5 5t-25.5 13l6 16q20 -17 53 -17q19 0 36.5 10t17.5 36q0 15 -7 25t-18 16t-25 9t-29 3l39 67q-127 6 -199.5 92.5t-72.5 247.5
q0 79 20 144t59.5 111.5t98 72t135.5 25.5q45 0 74.5 -8.5t46.5 -16.5l-6 -18q-17 8 -45 16.5t-70 8.5q-72 0 -126.5 -24t-90.5 -68t-54.5 -106t-18.5 -137q0 -158 71 -240.5t201 -82.5q44 0 79 6t55 14z" />
    <glyph glyph-name="Ntilde" unicode="&#xd1;" horiz-adv-x="605" 
d="M213 718q-1 36 13 57.5t40 21.5q18 0 32.5 -9t27 -20t24.5 -20t25 -9q14 0 22 11.5t10 49.5h16q-2 -46 -14.5 -62.5t-33.5 -16.5q-17 0 -30.5 9t-25.5 20t-24.5 20t-28.5 9q-18 0 -28 -16t-9 -45h-16zM109 674l221 -360q44 -71 85.5 -140t83.5 -138h2q-1 80 -1 158v159
v321h21v-674h-23l-219 355q-45 72 -87 143t-86 143h-2q1 -80 1 -159v-161v-321h-21v674h25z" />
    <glyph glyph-name="agrave" unicode="&#xe0;" horiz-adv-x="417" 
d="M331 0q-2 17 -3 39t-1 45h-3q-23 -38 -61 -66.5t-95 -28.5q-32 0 -57.5 10t-43.5 27.5t-28 40.5t-10 50q0 40 20 71t58.5 52.5t93 33t123.5 11.5v13q0 31 -5 63t-19.5 57.5t-39.5 41.5t-65 16q-29 0 -61.5 -9.5t-55.5 -27.5l-7 17q23 17 58.5 27t66.5 10q46 0 74.5 -17
t45 -45t22.5 -63.5t6 -71.5v-127q0 -20 0.5 -46.5t1.5 -51.5t2 -44.5t3 -26.5h-20zM324 268q-62 0 -112.5 -9.5t-86 -28.5t-55 -46.5t-19.5 -64.5q0 -27 9.5 -48t25.5 -35.5t38 -22t46 -7.5q42 0 75.5 20.5t59.5 57.5q13 18 16 39.5t3 53.5v91zM139 686l93 -136h-16
l-113 136h36z" />
    <glyph glyph-name="acircumflex" unicode="&#xe2;" horiz-adv-x="417" 
d="M331 0q-2 17 -3 39t-1 45h-3q-23 -38 -61 -66.5t-95 -28.5q-32 0 -57.5 10t-43.5 27.5t-28 40.5t-10 50q0 40 20 71t58.5 52.5t93 33t123.5 11.5v13q0 31 -5 63t-19.5 57.5t-39.5 41.5t-65 16q-29 0 -61.5 -9.5t-55.5 -27.5l-7 17q23 17 58.5 27t66.5 10q46 0 74.5 -17
t45 -45t22.5 -63.5t6 -71.5v-127q0 -20 0.5 -46.5t1.5 -51.5t2 -44.5t3 -26.5h-20zM324 268q-62 0 -112.5 -9.5t-86 -28.5t-55 -46.5t-19.5 -64.5q0 -27 9.5 -48t25.5 -35.5t38 -22t46 -7.5q42 0 75.5 20.5t59.5 57.5q13 18 16 39.5t3 53.5v91zM218 681l92 -131h-20l-85 112
h-2l-84 -112h-19l89 131h29z" />
    <glyph glyph-name="atilde" unicode="&#xe3;" horiz-adv-x="417" 
d="M331 0q-2 17 -3 39t-1 45h-3q-23 -38 -61 -66.5t-95 -28.5q-32 0 -57.5 10t-43.5 27.5t-28 40.5t-10 50q0 40 20 71t58.5 52.5t93 33t123.5 11.5v13q0 31 -5 63t-19.5 57.5t-39.5 41.5t-65 16q-29 0 -61.5 -9.5t-55.5 -27.5l-7 17q23 17 58.5 27t66.5 10q46 0 74.5 -17
t45 -45t22.5 -63.5t6 -71.5v-127q0 -20 0.5 -46.5t1.5 -51.5t2 -44.5t3 -26.5h-20zM324 268q-62 0 -112.5 -9.5t-86 -28.5t-55 -46.5t-19.5 -64.5q0 -27 9.5 -48t25.5 -35.5t38 -22t46 -7.5q42 0 75.5 20.5t59.5 57.5q13 18 16 39.5t3 53.5v91zM100 568q-1 36 13 57.5
t40 21.5q18 0 32.5 -9t27 -20t24.5 -20t25 -9q14 0 22 11.5t10 49.5h16q-2 -46 -14.5 -62.5t-33.5 -16.5q-17 0 -30.5 9t-25.5 20t-24.5 20t-28.5 9q-18 0 -28 -16t-9 -45h-16z" />
    <glyph glyph-name="aring" unicode="&#xe5;" horiz-adv-x="417" 
d="M331 0q-2 17 -3 39t-1 45h-3q-23 -38 -61 -66.5t-95 -28.5q-32 0 -57.5 10t-43.5 27.5t-28 40.5t-10 50q0 40 20 71t58.5 52.5t93 33t123.5 11.5v13q0 31 -5 63t-19.5 57.5t-39.5 41.5t-65 16q-29 0 -61.5 -9.5t-55.5 -27.5l-7 17q23 17 58.5 27t66.5 10q46 0 74.5 -17
t45 -45t22.5 -63.5t6 -71.5v-127q0 -20 0.5 -46.5t1.5 -51.5t2 -44.5t3 -26.5h-20zM324 268q-62 0 -112.5 -9.5t-86 -28.5t-55 -46.5t-19.5 -64.5q0 -27 9.5 -48t25.5 -35.5t38 -22t46 -7.5q42 0 75.5 20.5t59.5 57.5q13 18 16 39.5t3 53.5v91zM206 535q-38 0 -63 22.5
t-25 58.5q0 38 23.5 61t65.5 23q36 0 60.5 -22.5t24.5 -60.5q0 -37 -25.5 -59.5t-60.5 -22.5zM206 551q29 0 48 18t19 48q0 31 -18.5 49t-47.5 18q-32 0 -51 -18.5t-19 -49.5q0 -29 19.5 -47t49.5 -18z" />
    <glyph glyph-name="ccedilla" unicode="&#xe7;" horiz-adv-x="384" 
d="M346 451q-11 8 -33.5 16.5t-53.5 8.5q-44 0 -80.5 -17.5t-62 -49.5t-39.5 -76t-14 -96q0 -53 13.5 -95.5t38 -72.5t58.5 -46t76 -16q32 0 58 9.5t39 18.5l5 -17q-13 -8 -39.5 -17.5t-61.5 -10.5l-32 -54q29 -2 51.5 -18t22.5 -47q0 -17 -6.5 -29t-17 -19.5t-23.5 -11
t-26 -3.5q-18 0 -33.5 5t-25.5 13l6 16q20 -17 53 -17q19 0 36.5 10t17.5 36q0 15 -7 25t-18 16t-25 9t-29 3l39 67q-44 2 -79 20.5t-60.5 50t-39 76t-13.5 98.5q0 57 16 104.5t44.5 81t68.5 52.5t89 19q34 0 58 -8t37 -17z" />
    <glyph glyph-name="egrave" unicode="&#xe8;" horiz-adv-x="451" 
d="M390 20q-20 -9 -54 -19.5t-88 -10.5q-101 0 -156.5 67t-55.5 193q0 48 14 92t40.5 77.5t64 53.5t84.5 20q54 0 88.5 -20.5t54 -51t27 -65.5t7.5 -63v-22t-2 -20h-356q0 -54 11.5 -98.5t34.5 -77t59 -50.5t86 -18t83 9.5t54 19.5zM395 268q1 6 1 14v17q0 25 -7 56t-25 58
t-48.5 45t-77.5 18q-39 0 -71 -16t-55 -44t-36.5 -66t-16.5 -82h336zM189 686l93 -136h-16l-113 136h36z" />
    <glyph glyph-name="ecircumflex" unicode="&#xea;" horiz-adv-x="451" 
d="M260 681l92 -131h-20l-85 112h-2l-84 -112h-19l89 131h29zM390 20q-20 -9 -54 -19.5t-88 -10.5q-101 0 -156.5 67t-55.5 193q0 48 14 92t40.5 77.5t64 53.5t84.5 20q54 0 88.5 -20.5t54 -51t27 -65.5t7.5 -63v-22t-2 -20h-356q0 -54 11.5 -98.5t34.5 -77t59 -50.5t86 -18
t83 9.5t54 19.5zM395 268q1 6 1 14v17q0 25 -7 56t-25 58t-48.5 45t-77.5 18q-39 0 -71 -16t-55 -44t-36.5 -66t-16.5 -82h336z" />
    <glyph glyph-name="edieresis" unicode="&#xeb;" horiz-adv-x="451" 
d="M390 20q-20 -9 -54 -19.5t-88 -10.5q-101 0 -156.5 67t-55.5 193q0 48 14 92t40.5 77.5t64 53.5t84.5 20q54 0 88.5 -20.5t54 -51t27 -65.5t7.5 -63v-22t-2 -20h-356q0 -54 11.5 -98.5t34.5 -77t59 -50.5t86 -18t83 9.5t54 19.5zM395 268q1 6 1 14v17q0 25 -7 56t-25 58
t-48.5 45t-77.5 18q-39 0 -71 -16t-55 -44t-36.5 -66t-16.5 -82h336zM169 584q-10 0 -16 7t-6 16q0 10 6.5 16.5t15.5 6.5q22 0 22 -23q0 -9 -6 -16t-16 -7zM322 584q-10 0 -16 7t-6 16q0 10 6.5 16.5t15.5 6.5q22 0 22 -23q0 -9 -6 -16t-16 -7z" />
    <glyph glyph-name="igrave" unicode="&#xec;" horiz-adv-x="181" 
d="M101 0h-21v483h21v-483zM20 686l93 -136h-16l-113 136h36z" />
    <glyph glyph-name="icircumflex" unicode="&#xee;" horiz-adv-x="181" 
d="M101 0h-21v483h21v-483zM104 681l92 -131h-20l-85 112h-2l-84 -112h-19l89 131h29z" />
    <glyph glyph-name="idieresis" unicode="&#xef;" horiz-adv-x="181" 
d="M101 0h-21v483h21v-483zM14 584q-10 0 -16 7t-6 16q0 10 6.5 16.5t15.5 6.5q22 0 22 -23q0 -9 -6 -16t-16 -7zM167 584q-10 0 -16 7t-6 16q0 10 6.5 16.5t15.5 6.5q22 0 22 -23q0 -9 -6 -16t-16 -7z" />
    <glyph glyph-name="ntilde" unicode="&#xf1;" horiz-adv-x="496" 
d="M148 568q-1 36 13 57.5t40 21.5q18 0 32.5 -9t27 -20t24.5 -20t25 -9q14 0 22 11.5t10 49.5h16q-2 -46 -14.5 -62.5t-33.5 -16.5q-17 0 -30.5 9t-25.5 20t-24.5 20t-28.5 9q-18 0 -28 -16t-9 -45h-16zM420 0h-21v276q0 57 -11 95t-30.5 61.5t-45 33.5t-53.5 10
q-30 0 -55 -11.5t-44 -29t-31.5 -39t-18.5 -42.5t-7.5 -37.5t-1.5 -49.5v-267h-21v312q0 20 -0.5 43.5l-1 47t-1 44.5t-1.5 36h19l4 -103h2q25 52 64 82.5t96 30.5q42 0 72.5 -15.5t49.5 -43.5t28 -68t9 -89v-277z" />
    <glyph glyph-name="ograve" unicode="&#xf2;" horiz-adv-x="483" 
d="M452 246q0 -68 -19 -116.5t-49.5 -80t-69 -46t-76.5 -14.5q-44 0 -82 17t-65.5 49.5t-43.5 78.5t-16 104q0 61 17 108.5t46 80t67.5 49.5t82.5 17q46 0 84.5 -18t66 -50t42.5 -78t15 -101zM430 246q0 50 -13 92t-37.5 73t-59 48t-76.5 17q-41 0 -76 -16.5t-60.5 -47
t-40 -75t-14.5 -99.5q0 -53 14.5 -96t39.5 -73t59.5 -46.5t75.5 -16.5q34 0 67.5 14.5t60.5 44t43.5 74.5t16.5 107zM198 686l93 -136h-16l-113 136h36z" />
    <glyph glyph-name="ugrave" unicode="&#xf9;" horiz-adv-x="494" 
d="M76 483h21v-276q0 -57 11 -95t30 -61.5t44 -33.5t54 -10q30 0 55 11.5t43.5 29t31 39t18.5 42.5t7.5 37.5t1.5 49.5v267h21v-312q0 -20 0.5 -44t1 -47t1 -44t1.5 -36h-19l-4 103h-2q-25 -52 -63.5 -82.5t-95.5 -30.5q-42 0 -72 15.5t-49 43.5t-28 68t-9 89v277zM194 686
l93 -136h-16l-113 136h36z" />
    <glyph glyph-name="ucircumflex" unicode="&#xfb;" horiz-adv-x="494" 
d="M76 483h21v-276q0 -57 11 -95t30 -61.5t44 -33.5t54 -10q30 0 55 11.5t43.5 29t31 39t18.5 42.5t7.5 37.5t1.5 49.5v267h21v-312q0 -20 0.5 -44t1 -47t1 -44t1.5 -36h-19l-4 103h-2q-25 -52 -63.5 -82.5t-95.5 -30.5q-42 0 -72 15.5t-49 43.5t-28 68t-9 89v277zM263 681
l92 -131h-20l-85 112h-2l-84 -112h-19l89 131h29z" />
    <glyph glyph-name="cent" unicode="&#xa2;" horiz-adv-x="444" 
d="M368 117q-11 -8 -36 -17.5t-58 -9.5v-104h-18v104q-47 3 -82.5 22.5t-58.5 51t-34.5 73.5t-11.5 89q0 51 13.5 94.5t38.5 76t59.5 52t76.5 23.5v100h18v-99q33 0 58.5 -8t36.5 -16l-8 -17q-11 8 -34.5 15.5t-51.5 7.5q-41 0 -75 -17t-58.5 -47.5t-38 -72.5t-13.5 -92
q0 -51 13 -91t36 -68.5t56 -43.5t72 -15q32 0 57.5 8.5t37.5 17.5z" />
    <glyph glyph-name="acute" unicode="&#xb4;" 
d="M252 686l-113 -136h-16l93 136h36z" />
    <glyph glyph-name="AE" unicode="&#xc6;" horiz-adv-x="705" 
d="M639 341h-245l47 -322h233v-19h-249q-12 80 -21.5 145.5t-17.5 120.5h-242l-124 -266h-21l315 674h334v-19h-299l43 -295h247v-19zM153 285h230l-54 373h-2z" />
    <glyph glyph-name="Oslash" unicode="&#xd8;" horiz-adv-x="613" 
d="M498 595q37 -45 57 -109t20 -142q0 -87 -21.5 -153.5t-59 -111t-87 -67.5t-105.5 -23q-52 0 -96.5 20t-78.5 58l-65 -93l-14 10l67 96q-36 45 -56.5 109t-20.5 142q0 80 21 145.5t57.5 112t86.5 71.5t108 25q53 0 97 -20t78 -56l63 90l15 -10zM552 343q0 71 -17 130.5
t-49 103.5l-348 -493q32 -37 74 -57t91 -20q52 0 97.5 22.5t79.5 65.5t53 105.5t19 142.5zM61 331q0 -71 17 -130.5t49 -102.5l347 494q-31 36 -72 55.5t-91 19.5q-54 0 -100 -24.5t-79.5 -69t-52 -106t-18.5 -136.5z" />
    <glyph glyph-name="plusminus" unicode="&#xb1;" horiz-adv-x="555" 
d="M510 18v-18h-465v18h465zM288 567v-213h222v-18h-222v-221h-20v221h-222v18h222v213h20z" />
    <glyph glyph-name="yen" unicode="&#xa5;" horiz-adv-x="444" 
d="M373 194h-146v-194h-22v194h-146v15h146v105h-146v15h140l-184 321h24l120 -212q15 -26 29 -51.5t28 -51.5h2q14 26 29 51.5t30 51.5l127 212h24l-195 -321h140v-15h-146v-105h146v-15z" />
    <glyph glyph-name="ordfeminine" unicode="&#xaa;" horiz-adv-x="308" 
d="M66 564q17 13 42 20t46 7q32 0 52 -11t31.5 -29.5t16 -42t4.5 -48.5v-119q0 -19 2 -39t4 -36h-18l-4 51h-2q-15 -23 -41.5 -40.5t-64.5 -17.5q-44 0 -71 24.5t-27 60.5q0 51 53.5 80t150.5 29v11q0 19 -3 39t-12.5 36.5t-27 26.5t-45.5 10q-19 0 -42 -5.5t-39 -19.5z
M240 438q-88 1 -137 -22.5t-49 -71.5q0 -32 22.5 -51t59.5 -19q22 0 40.5 8t32.5 20t22 26.5t9 27.5v82z" />
    <glyph glyph-name="ordmasculine" unicode="&#xba;" horiz-adv-x="310" 
d="M156 591q60 0 96.5 -44.5t36.5 -117.5q0 -44 -12 -76t-31.5 -52.5t-44 -30t-49.5 -9.5q-28 0 -52 11.5t-41.5 32.5t-27.5 51t-10 68q0 40 10.5 71t29 52.5t43 32.5t52.5 11zM156 576q-52 0 -84.5 -40t-32.5 -112q0 -70 31.5 -109t81.5 -39q22 0 43.5 9t38.5 27.5t27 47.5
t10 69q0 66 -30.5 106.5t-84.5 40.5z" />
    <glyph glyph-name="ae" unicode="&#xe6;" horiz-adv-x="697" 
d="M323 260h-32q-115 0 -175 -37t-60 -109q0 -50 32 -78.5t80 -28.5q29 0 57 12.5t49.5 36.5t35 60.5t13.5 84.5v59zM635 276q1 5 1 7.5v7.5q0 40 -9 74t-27 59t-44.5 39t-61.5 14q-38 0 -66.5 -15t-47 -40.5t-28 -59t-9.5 -69.5v-17h292zM657 289q0 -10 -0.5 -16t-1.5 -13
h-312v-41q0 -59 15 -100t38.5 -66t53 -36t58.5 -11q41 0 72.5 10.5t48.5 20.5l5 -17q-20 -11 -53 -21t-73 -10q-28 0 -56 8.5t-51.5 26.5t-41 45t-24.5 64h-2q-18 -72 -64.5 -107.5t-102.5 -35.5q-60 0 -96 33t-36 90q0 80 66 121.5t192 41.5h31v23q0 51 -10.5 85
t-28.5 54.5t-41.5 29.5t-48.5 9q-32 0 -63.5 -11.5t-55.5 -31.5l-7 17h1q26 20 58 31.5t67 11.5q53 0 91.5 -29.5t49.5 -100.5h2q16 70 60.5 100t99.5 30q40 0 70 -16.5t50 -44t30 -65t10 -79.5z" />
    <glyph glyph-name="oslash" unicode="&#xf8;" horiz-adv-x="483" 
d="M382 431q29 -33 44.5 -80t15.5 -105q0 -68 -18 -116.5t-47.5 -80t-66 -46t-72.5 -14.5q-73 0 -126 51l-46 -66l-13 11l47 68q-27 32 -43 78.5t-16 106.5q0 61 16 108.5t44 80t64.5 49.5t78.5 17q38 0 69.5 -13.5t56.5 -37.5l45 66l14 -9zM420 246q0 51 -13 94.5t-37 74.5
l-247 -358q48 -51 119 -51q32 0 63.5 14.5t57 44t41.5 74.5t16 107zM359 427q-22 23 -51 36t-64 13q-39 0 -72 -16.5t-57 -47t-38 -75t-14 -99.5q0 -53 13 -95.5t36 -72.5z" />
    <glyph glyph-name="questiondown" unicode="&#xbf;" horiz-adv-x="335" 
d="M57 -74q0 51 26 97t59 88q30 37 43 67t13 71v21t-2 21h21q2 -12 2.5 -22t0.5 -21q0 -44 -14.5 -76.5t-44.5 -69.5q-32 -40 -56.5 -84t-24.5 -91q0 -48 28 -83t85 -35q25 0 50 8.5t43 24.5l10 -14q-20 -17 -48.5 -27t-57.5 -10q-33 0 -58 11t-41.5 29.5t-25 43t-8.5 51.5z
M181 450q0 25 24 25q11 0 17.5 -7t6.5 -18t-6.5 -18.5t-17.5 -7.5t-17.5 7.5t-6.5 18.5z" />
    <glyph glyph-name="exclamdown" unicode="&#xa1;" horiz-adv-x="174" 
d="M73 -195l7 485h15l7 -485h-29zM63 450q0 25 24 25q11 0 17.5 -7t6.5 -18t-6.5 -18.5t-17.5 -7.5t-17.5 7.5t-6.5 18.5z" />
    <glyph glyph-name="florin" unicode="&#x192;" horiz-adv-x="444" 
d="M405 633q-12 5 -25 7.5t-27 2.5q-33 0 -53 -19.5t-30.5 -48t-14.5 -59.5t-7 -55l-9 -73h121v-15h-122l-26 -228q-5 -48 -11.5 -89.5t-20.5 -72t-38 -48.5t-64 -18q-21 0 -36.5 4.5t-28.5 12.5l6 16q11 -7 26 -11.5t32 -4.5q30 0 49 12.5t31 34.5t18 52t10 65l32 275h-99
v15h101l3 25q5 45 11 89t18.5 79t36.5 57t65 22q18 0 31.5 -3t25.5 -8z" />
    <glyph glyph-name="Agrave" unicode="&#xc0;" horiz-adv-x="551" 
d="M292 674l229 -674h-23l-81 239h-281l-81 -239h-22l229 674h30zM411 257q-19 56 -38 111t-37 112q-14 44 -29 87t-29 87h-2q-15 -43 -29 -87t-29 -87q-19 -56 -38 -111.5t-38 -111.5h269zM209 825l99 -115h-17l-123 115h41z" />
    <glyph glyph-name="Atilde" unicode="&#xc3;" horiz-adv-x="551" 
d="M292 674l229 -674h-23l-81 239h-281l-81 -239h-22l229 674h30zM411 257q-19 56 -38 111t-37 112q-14 44 -29 87t-29 87h-2q-15 -43 -29 -87t-29 -87q-19 -56 -38 -111.5t-38 -111.5h269zM173 718q-1 36 13 57.5t40 21.5q18 0 32.5 -9t27 -20t24.5 -20t25 -9q14 0 22 11.5
t10 49.5h16q-2 -46 -14.5 -62.5t-33.5 -16.5q-17 0 -30.5 9t-25.5 20t-24.5 20t-28.5 9q-18 0 -28 -16t-9 -45h-16z" />
    <glyph glyph-name="OE" unicode="&#x152;" horiz-adv-x="807" 
d="M757 656h-267v-294h251v-19h-251v-324h282v-19h-294q-9 0 -26.5 -1.5t-39.5 -4t-44 -4t-40 -1.5q-66 0 -119.5 24.5t-91.5 69.5t-58.5 108t-20.5 141q0 81 21 146.5t59.5 111.5t93 70.5t122.5 24.5q17 0 37.5 -1.5t41 -3.5t38.5 -4t29 -2h277v-18zM469 655q-33 4 -66.5 8
t-68.5 4q-62 0 -112.5 -23.5t-86 -67t-55 -105t-19.5 -138.5q0 -74 19 -134.5t54 -103t84.5 -65.5t111.5 -23q35 0 69 3.5t70 8.5v636z" />
    <glyph glyph-name="oe" unicode="&#x153;" horiz-adv-x="795" 
d="M755 293v-21.5t-2 -19.5h-328q0 -66 15 -112.5t39.5 -76.5t56 -43.5t65.5 -13.5q43 0 75 10.5t49 20.5l5 -17q-20 -11 -53.5 -21t-75.5 -10q-65 0 -114.5 40t-70.5 121h-2q-22 -81 -71 -121t-106 -40q-41 0 -77 17t-62.5 49.5t-41.5 78.5t-15 104q0 61 16 108.5t43.5 80
t64.5 49.5t78 17q58 0 104.5 -39.5t66.5 -117.5h2q21 78 66.5 117.5t103.5 39.5q51 0 84 -20.5t52 -51t26 -65.5t7 -63zM405 245q0 51 -12 94t-33 73.5t-51 48t-66 17.5q-39 0 -72 -17t-57 -48t-37.5 -75.5t-13.5 -99.5q0 -53 13.5 -96t36.5 -73t55 -46.5t70 -16.5
q30 0 60 14.5t53.5 43.5t38.5 74t15 107zM734 268q1 6 1 13.5v15.5q0 25 -6.5 56.5t-23.5 58.5t-46 45.5t-74 18.5q-34 0 -62.5 -15t-49.5 -42.5t-33.5 -66t-14.5 -84.5h309z" />
    <glyph glyph-name="ydieresis" unicode="&#xff;" horiz-adv-x="405" 
d="M393 483l-124 -347q-21 -60 -38.5 -106.5t-34.5 -82.5t-34.5 -63t-38.5 -47q-31 -29 -55.5 -41.5t-38.5 -15.5l-7 18q67 22 107 76t68 126q2 8 2.5 12t-2.5 12l-184 459h24l134 -337q11 -27 21 -54.5t20 -54.5h1l156 446h24zM134 584q-10 0 -16 7t-6 16q0 10 6.5 16.5
t15.5 6.5q22 0 22 -23q0 -9 -6 -16t-16 -7zM287 584q-10 0 -16 7t-6 16q0 10 6.5 16.5t15.5 6.5q22 0 22 -23q0 -9 -6 -16t-16 -7z" />
    <glyph glyph-name="Ydieresis" unicode="&#x178;" horiz-adv-x="466" 
d="M458 674l-214 -369v-305h-21v305l-210 369h25l107 -189q23 -41 44.5 -81t43.5 -80h2q20 41 43.5 80t46.5 81l108 189h25zM158 730q-10 0 -16 6.5t-6 16.5t6.5 16t15.5 6q22 0 22 -22q0 -10 -6 -16.5t-16 -6.5zM312 730q-10 0 -16 6.5t-6 16.5t6.5 16t15.5 6q22 0 22 -22
q0 -10 -6 -16.5t-16 -6.5z" />
    <glyph glyph-name="fraction" unicode="&#x2044;" horiz-adv-x="128" 
d="M-135 -11l379 672h19l-379 -672h-19z" />
    <glyph glyph-name="Euro" unicode="&#x20ac;" horiz-adv-x="444" 
d="M405 627q-13 7 -32.5 12t-45.5 5q-47 0 -84 -19.5t-64 -53.5t-44.5 -80.5t-24.5 -99.5h240l-5 -15h-237q-3 -30 -3 -62v-15.5t1 -15.5h220l-5 -15h-214q5 -63 23 -111.5t46 -82t64.5 -51t78.5 -17.5q28 0 50 5t36 13l6 -15q-15 -8 -38.5 -14t-55.5 -6q-45 0 -84.5 18
t-70.5 53.5t-51.5 87.5t-25.5 120h-63l5 15h57q-1 7 -1 14.5v15.5q0 31 3 63h-64l5 15h61q7 57 26.5 106.5t49.5 86t71 57t92 20.5q29 0 50 -5.5t35 -12.5z" />
    <glyph glyph-name="daggerdbl" unicode="&#x2021;" horiz-adv-x="444" 
d="M400 170l-170 6l6 -226h-28l6 226l-170 -6v25l170 -6v251l-170 -6v25l170 -6l-6 221h28l-6 -221l170 6v-25l-170 6v-251l170 6v-25z" />
    <glyph glyph-name="perthousand" unicode="&#x2030;" horiz-adv-x="1076" 
d="M177 661q57 0 91.5 -49.5t34.5 -144.5q0 -52 -10.5 -90.5t-28 -64t-41 -38t-49.5 -12.5q-25 0 -48 12t-40.5 36.5t-28 61t-10.5 86.5q0 49 10.5 87t28.5 64t41.5 39t49.5 13zM177 646q-46 0 -78 -48.5t-32 -139.5q0 -90 31.5 -135.5t75.5 -45.5q46 0 77.5 47.5
t31.5 141.5q0 87 -28.5 133.5t-77.5 46.5zM588 391q57 0 91.5 -49.5t34.5 -143.5q0 -52 -10.5 -90.5t-28.5 -64t-41.5 -38t-49.5 -12.5q-24 0 -47 12t-40.5 36.5t-28 61.5t-10.5 86t10.5 87t28.5 63.5t41.5 38.5t49.5 13zM588 376q-46 0 -78 -48t-32 -139q0 -90 31.5 -135.5
t74.5 -45.5q47 0 78.5 47.5t31.5 141.5q0 86 -28.5 132.5t-77.5 46.5zM181 -11l379 672h19l-379 -672h-19zM903 391q57 0 91.5 -49.5t34.5 -143.5q0 -52 -10.5 -90.5t-28.5 -64t-41.5 -38t-49.5 -12.5q-24 0 -47 12t-40.5 36.5t-28 61.5t-10.5 86t10.5 87t28.5 63.5
t41.5 38.5t49.5 13zM903 376q-46 0 -78 -48t-32 -139q0 -90 31.5 -135.5t74.5 -45.5q47 0 78.5 47.5t31.5 141.5q0 86 -28.5 132.5t-77.5 46.5z" />
    <glyph glyph-name="Acircumflex" unicode="&#xc2;" horiz-adv-x="551" 
d="M292 674l229 -674h-23l-81 239h-281l-81 -239h-22l229 674h30zM411 257q-19 56 -38 111t-37 112q-14 44 -29 87t-29 87h-2q-15 -43 -29 -87t-29 -87q-19 -56 -38 -111.5t-38 -111.5h269zM292 821l92 -111h-20l-86 92h-2l-85 -92h-20l91 111h30z" />
    <glyph glyph-name="Ecircumflex" unicode="&#xca;" horiz-adv-x="427" 
d="M362 346h-257v-327h287v-19h-308v674h293v-19h-272v-290h257v-19zM254 821l92 -111h-20l-86 92h-2l-85 -92h-20l91 111h30z" />
    <glyph glyph-name="Edieresis" unicode="&#xcb;" horiz-adv-x="427" 
d="M362 346h-257v-327h287v-19h-308v674h293v-19h-272v-290h257v-19zM163 730q-10 0 -16 6.5t-6 16.5t6.5 16t15.5 6q22 0 22 -22q0 -10 -6 -16.5t-16 -6.5zM317 730q-10 0 -16 6.5t-6 16.5t6.5 16t15.5 6q22 0 22 -22q0 -10 -6 -16.5t-16 -6.5z" />
    <glyph glyph-name="Egrave" unicode="&#xc8;" horiz-adv-x="427" 
d="M362 346h-257v-327h287v-19h-308v674h293v-19h-272v-290h257v-19zM188 825l99 -115h-17l-123 115h41z" />
    <glyph glyph-name="Icircumflex" unicode="&#xce;" horiz-adv-x="195" 
d="M108 674v-674h-21v674h21zM112 821l92 -111h-20l-86 92h-2l-85 -92h-20l91 111h30z" />
    <glyph glyph-name="Idieresis" unicode="&#xcf;" horiz-adv-x="195" 
d="M108 674v-674h-21v674h21zM21 730q-10 0 -16 6.5t-6 16.5t6.5 16t15.5 6q22 0 22 -22q0 -10 -6 -16.5t-16 -6.5zM175 730q-10 0 -16 6.5t-6 16.5t6.5 16t15.5 6q22 0 22 -22q0 -10 -6 -16.5t-16 -6.5z" />
    <glyph glyph-name="Igrave" unicode="&#xcc;" horiz-adv-x="195" 
d="M108 674v-674h-21v674h21zM23 825l99 -115h-17l-123 115h41z" />
    <glyph glyph-name="Ograve" unicode="&#xd2;" horiz-adv-x="613" 
d="M587 344q0 -87 -23 -153.5t-62 -111t-90.5 -67.5t-109.5 -23q-59 0 -109.5 24.5t-87.5 69.5t-58 108t-21 140q0 80 22 145.5t60.5 112t90.5 71.5t112 25q62 0 113 -25t87 -70t56 -108t20 -138zM564 343q0 70 -18 129t-51.5 102.5t-80 68t-103.5 24.5t-105 -24.5t-83 -69
t-54.5 -106t-19.5 -136.5q0 -71 19 -130.5t52.5 -102.5t80 -67t102.5 -24q55 0 102.5 22.5t82.5 65.5t55.5 105.5t20.5 142.5zM268 825l99 -115h-17l-123 115h41z" />
    <glyph glyph-name="Ucircumflex" unicode="&#xdb;" horiz-adv-x="591" 
d="M310 821l92 -111h-20l-86 92h-2l-85 -92h-20l91 111h30zM105 674v-403q0 -71 14.5 -121t39.5 -81.5t58.5 -46t71.5 -14.5q41 0 77 15t62.5 47.5t42 83t15.5 121.5v399h21v-399q0 -76 -17 -130t-47 -88.5t-69.5 -51t-84.5 -16.5q-42 0 -79.5 15.5t-65 49t-44 87
t-16.5 129.5v404h21z" />
    <glyph glyph-name="Ugrave" unicode="&#xd9;" horiz-adv-x="591" 
d="M105 674v-403q0 -71 14.5 -121t39.5 -81.5t58.5 -46t71.5 -14.5q41 0 77 15t62.5 47.5t42 83t15.5 121.5v399h21v-399q0 -76 -17 -130t-47 -88.5t-69.5 -51t-84.5 -16.5q-42 0 -79.5 15.5t-65 49t-44 87t-16.5 129.5v404h21zM238 825l99 -115h-17l-123 115h41z" />
    <glyph glyph-name="dotlessi" unicode="&#x131;" horiz-adv-x="181" 
d="M101 0h-21v483h21v-483z" />
    <glyph glyph-name="circumflex" unicode="&#x2c6;" 
d="M163 681l92 -131h-20l-85 112h-2l-84 -112h-19l89 131h29z" />
    <glyph glyph-name="tilde" unicode="&#x2dc;" 
d="M45 568q-1 36 13 57.5t40 21.5q18 0 32.5 -9t27 -20t24.5 -20t25 -9q14 0 22 11.5t10 49.5h16q-2 -46 -14.5 -62.5t-33.5 -16.5q-17 0 -30.5 9t-25.5 20t-24.5 20t-28.5 9q-18 0 -28 -16t-9 -45h-16z" />
    <glyph glyph-name="breve" unicode="&#x2d8;" 
d="M67 667q1 -38 20 -66.5t63 -28.5q38 0 60 25t23 70h17q-1 -54 -28 -84t-72 -30q-26 0 -45 9.5t-31 25.5t-18 36.5t-6 42.5h17z" />
    <glyph glyph-name="dotaccent" unicode="&#x2d9;" 
d="M150 584q-10 0 -16.5 7t-6.5 16t6.5 16t16.5 7q9 0 15.5 -7t6.5 -16t-6 -16t-16 -7z" />
    <glyph glyph-name="ring" unicode="&#x2da;" 
d="M151 535q-38 0 -63 22.5t-25 58.5q0 38 23.5 61t65.5 23q36 0 60.5 -22.5t24.5 -60.5q0 -37 -25.5 -59.5t-60.5 -22.5zM151 551q29 0 48 18t19 48q0 31 -18.5 49t-47.5 18q-32 0 -51 -18.5t-19 -49.5q0 -29 19.5 -47t49.5 -18z" />
    <glyph glyph-name="cedilla" unicode="&#xb8;" 
d="M163 2l-39 -66q29 -2 51.5 -18t22.5 -47q0 -17 -6.5 -29t-17 -19.5t-23.5 -11t-26 -3.5q-18 0 -33.5 5t-25.5 13l6 16q20 -17 53 -17q19 0 36.5 10t17.5 36q0 15 -7 25t-18 16t-25 9t-29 3l45 78h18z" />
    <glyph glyph-name="hungarumlaut" unicode="&#x2dd;" 
d="M189 686l-107 -136h-13l82 136h38zM307 686l-107 -136h-13l82 136h38z" />
    <glyph glyph-name="ogonek" unicode="&#x2db;" 
d="M180 5l-20 -22.5t-24 -30.5t-20.5 -36t-8.5 -39q0 -26 14 -40.5t33 -14.5q21 0 41 13l4 -15q-11 -8 -23 -11.5t-23 -3.5q-26 0 -46 17.5t-20 54.5q0 21 8.5 40t20.5 35.5t25 30t22 22.5h17z" />
    <glyph glyph-name="afii10017" unicode="&#x410;" horiz-adv-x="551" 
d="M292 674l229 -674h-23l-81 239h-281l-81 -239h-22l229 674h30zM411 257q-19 56 -38 111t-37 112q-14 44 -29 87t-29 87h-2q-15 -43 -29 -87t-29 -87q-19 -56 -38 -111.5t-38 -111.5h269z" />
    <glyph glyph-name="afii10018" unicode="&#x411;" horiz-adv-x="482" 
d="M389 674v-18h-284v-261q18 3 43 4.5t45 1.5q54 0 99.5 -10.5t78.5 -34t52 -60.5t19 -90q0 -59 -21.5 -99t-57 -65.5t-82 -36.5t-95.5 -11q-31 0 -55 2t-47 6v672h305zM105 18q19 -2 38.5 -4t45.5 -2q45 0 86.5 10.5t74 33.5t51.5 60t19 90q0 48 -17.5 82t-48 55t-72 30.5
t-90.5 9.5q-22 0 -46 -2t-41 -4v-359z" />
    <glyph glyph-name="afii10019" unicode="&#x412;" horiz-adv-x="480" 
d="M84 665q23 5 53 9.5t73 4.5q44 0 81 -8t64 -26t42 -48.5t15 -75.5q0 -63 -43.5 -105t-112.5 -56v-2q36 -6 68.5 -17.5t57.5 -31.5t39.5 -49.5t14.5 -71.5q0 -53 -22 -90t-59 -60t-85 -33.5t-100 -10.5q-51 0 -86 8v663zM105 366h77q45 0 83 10.5t65.5 30.5t43.5 49t16 65
q0 39 -13 66t-36.5 43.5t-57 23.5t-73.5 7q-33 0 -61 -3.5t-44 -7.5v-284zM105 18q14 -2 31 -4t37 -2q47 0 90.5 9.5t76.5 30.5t53 54.5t20 81.5q0 46 -19 77t-52 49.5t-77 26.5t-93 8h-67v-331z" />
    <glyph glyph-name="afii10020" unicode="&#x413;" horiz-adv-x="381" 
d="M373 674v-19h-268v-655h-21v674h289z" />
    <glyph glyph-name="afii10021" unicode="&#x414;" horiz-adv-x="574" 
d="M477 674v-656l62 -1l-3 -175h-19v158h-476v-158h-18l-3 175l54 1q20 39 36.5 78t27.5 82q9 33 15 68.5t9.5 75.5t5 85.5t1.5 98.5v168h308zM190 454q0 -73 -4.5 -131t-15.5 -108.5t-29 -98t-44 -98.5h359v638h-266v-202z" />
    <glyph glyph-name="afii10022" unicode="&#x415;" horiz-adv-x="427" 
d="M362 346h-257v-327h287v-19h-308v674h293v-19h-272v-290h257v-19z" />
    <glyph glyph-name="afii10024" unicode="&#x416;" horiz-adv-x="724" 
d="M309 340q-56 0 -89 -11t-54 -32t-34 -51.5t-28 -70.5q-17 -48 -33 -95.5t-33 -79.5h-24q20 36 37 84.5t32 92.5q13 40 27.5 73t36 56t53.5 36.5t80 15.5l-244 316h26l241 -315h48v315h21v-315h48l241 315h27l-244 -316q48 -2 80 -15.5t53.5 -36.5t35.5 -56t28 -73
q15 -44 32 -92.5t37 -84.5h-25q-17 32 -33 79.5t-33 95.5q-15 40 -28 70.5t-34 51.5t-54.5 32t-88.5 11h-42v-340h-21v340h-42z" />
    <glyph glyph-name="afii10025" unicode="&#x417;" horiz-adv-x="429" 
d="M53 640q29 21 64.5 33t80.5 12q73 0 119.5 -38t46.5 -111q0 -32 -12.5 -60.5t-33.5 -52t-49 -41t-60 -26.5q36 -4 68 -18t56 -37t38 -54t14 -69q0 -49 -17 -84.5t-45.5 -59t-65.5 -34.5t-76 -11q-38 0 -75 10t-70 30l7 17q29 -20 65.5 -29.5t72.5 -9.5t69 10.5t58 31.5
t40 53t15 76q0 38 -15.5 69t-43 52.5t-65 33.5t-80.5 12h-24v18h24q35 0 68 15t58.5 39t41 54.5t15.5 61.5q0 66 -41.5 100t-107.5 34q-41 0 -74 -12t-59 -30z" />
    <glyph glyph-name="afii10026" unicode="&#x418;" horiz-adv-x="606" 
d="M105 674v-295q0 -91 -0.5 -177t-2.5 -176h2q16 27 37 62.5t44.5 75t48 80.5t48.5 79l217 351h23v-674h-21v298q0 175 3 349h-3q-15 -29 -36.5 -65.5t-46.5 -77t-51 -82.5t-49 -80l-209 -342h-25v674h21z" />
    <glyph glyph-name="afii10027" unicode="&#x419;" horiz-adv-x="606" 
d="M105 674v-295q0 -91 -0.5 -177t-2.5 -176h2q16 27 37 62.5t44.5 75t48 80.5t48.5 79l217 351h23v-674h-21v298q0 175 3 349h-3q-15 -29 -36.5 -65.5t-46.5 -77t-51 -82.5t-49 -80l-209 -342h-25v674h21zM218 818q1 -38 21 -61.5t68 -23.5q41 0 64.5 20t24.5 65h16
q-1 -53 -29 -78t-76 -25q-56 0 -80 29.5t-25 73.5h16z" />
    <glyph glyph-name="afii10028" unicode="&#x41a;" horiz-adv-x="476" 
d="M105 674v-315h48l261 315h27l-264 -316q48 -2 83 -15.5t60.5 -36.5t42.5 -56t31 -73q15 -44 32 -92.5t37 -84.5h-25q-17 32 -33 79.5t-33 95.5q-15 40 -31 70.5t-40.5 51.5t-61.5 32t-92 11h-42v-340h-21v674h21z" />
    <glyph glyph-name="afii10029" unicode="&#x41b;" horiz-adv-x="540" 
d="M456 674v-674h-21v655h-284v-258q0 -90 -3.5 -161.5t-17.5 -123t-42 -82t-77 -37.5l-4 19q39 5 63 30t37.5 69t18 107t4.5 144v312h326z" />
    <glyph glyph-name="afii10030" unicode="&#x41c;" horiz-adv-x="744" 
d="M147 674l119 -341q26 -74 49.5 -149.5t49.5 -155.5h2q27 75 54.5 150.5t56.5 153.5l125 342h34l43 -674h-22l-22 327q-5 81 -9 163t-9 162h-2q-29 -77 -56.5 -155t-56.5 -157l-125 -337h-25l-111 330q-27 80 -54.5 159t-55.5 160h-2q-6 -88 -11 -176.5t-11 -180.5
l-21 -295h-22l47 674h35z" />
    <glyph glyph-name="afii10031" unicode="&#x41d;" horiz-adv-x="595" 
d="M105 674v-309h385v309h21v-674h-21v346h-385v-346h-21v674h21z" />
    <glyph glyph-name="afii10032" unicode="&#x41e;" horiz-adv-x="613" 
d="M587 344q0 -87 -23 -153.5t-62 -111t-90.5 -67.5t-109.5 -23q-59 0 -109.5 24.5t-87.5 69.5t-58 108t-21 140q0 80 22 145.5t60.5 112t90.5 71.5t112 25q62 0 113 -25t87 -70t56 -108t20 -138zM564 343q0 70 -18 129t-51.5 102.5t-80 68t-103.5 24.5t-105 -24.5t-83 -69
t-54.5 -106t-19.5 -136.5q0 -71 19 -130.5t52.5 -102.5t80 -67t102.5 -24q55 0 102.5 22.5t82.5 65.5t55.5 105.5t20.5 142.5z" />
    <glyph glyph-name="afii10033" unicode="&#x41f;" horiz-adv-x="582" 
d="M498 674v-674h-21v655h-372v-655h-21v674h414z" />
    <glyph glyph-name="afii10034" unicode="&#x420;" horiz-adv-x="472" 
d="M84 665q21 4 53 9t78 5q48 0 87 -10t67 -32t43.5 -57.5t15.5 -87.5q0 -45 -15.5 -82.5t-45 -64t-72.5 -41t-97 -14.5q-24 0 -47.5 1.5t-45.5 5.5v-297h-21v665zM105 315q22 -4 45.5 -5.5t46.5 -1.5q103 0 156.5 50.5t53.5 132.5q0 47 -14 79.5t-39 52.5t-60.5 29t-78.5 9
q-39 0 -66 -4t-44 -7v-335z" />
    <glyph glyph-name="afii10035" unicode="&#x421;" horiz-adv-x="507" 
d="M492 17q-24 -8 -64 -17.5t-97 -9.5q-69 0 -126.5 22t-99 65t-64.5 106.5t-23 147.5q0 79 22.5 144t65 111.5t104.5 72t141 25.5q51 0 85 -9.5t56 -19.5l-6 -18q-21 9 -54 19t-81 10q-74 0 -131.5 -24t-97 -68t-60.5 -106t-21 -137q0 -79 21 -139t59.5 -101t92.5 -62
t119 -21q50 0 90 9t64 17z" />
    <glyph glyph-name="afii10036" unicode="&#x422;" horiz-adv-x="419" 
d="M424 655h-205v-655h-21v655h-203v19h429v-19z" />
    <glyph glyph-name="afii10037" unicode="&#x423;" horiz-adv-x="458" 
d="M33 674l154 -320q16 -33 31.5 -66t30.5 -67h2q14 32 26 63.5t28 69.5l126 320h25l-136 -338q-28 -69 -55 -131.5t-56.5 -110t-62.5 -76t-72 -28.5q-23 0 -35 4l4 18q7 -2 13 -2.5t17 -0.5q27 0 49.5 15.5t42 40.5t36.5 57t33 66q3 8 2.5 13t-6.5 17l-222 456h25z" />
    <glyph glyph-name="afii10038" unicode="&#x424;" horiz-adv-x="652" 
d="M335 700v-58q59 -2 109.5 -20t88 -55.5t58.5 -94.5t21 -135q0 -80 -21.5 -136.5t-59 -93t-88 -54t-108.5 -18.5v-61h-20v61q-57 1 -107 18t-87.5 53t-59 92t-21.5 136q0 82 23 139.5t61 94.5t88 54.5t103 19.5v58h20zM315 625q-49 -1 -94.5 -17.5t-80.5 -51.5t-56 -90
t-21 -132q0 -75 19.5 -127.5t53.5 -86.5t80 -50.5t99 -17.5v573zM335 52q54 1 100.5 17.5t80.5 51t53.5 88t19.5 128.5t-19 129t-53 89t-80.5 52t-101.5 18v-573z" />
    <glyph glyph-name="afii10039" unicode="&#x425;" horiz-adv-x="507" 
d="M68 674l97 -164q22 -36 43 -72t44 -75h2q23 35 44.5 72.5t44.5 74.5l100 164h26l-201 -327l205 -347h-26l-110 186q-22 37 -42.5 72t-40.5 70h-2q-20 -35 -40.5 -70t-42.5 -72l-109 -186h-26l205 346l-197 328h26z" />
    <glyph glyph-name="afii10040" unicode="&#x426;" horiz-adv-x="594" 
d="M105 674v-655h372v655h21v-656l61 -1l-4 -175h-17l-1 158h-453v674h21z" />
    <glyph glyph-name="afii10041" unicode="&#x427;" horiz-adv-x="538" 
d="M97 674v-218q0 -52 15.5 -85t39.5 -51.5t53.5 -25.5t58.5 -7q43 0 88.5 16.5t80.5 44.5v326h21v-674h-21v329q-37 -26 -81.5 -43.5t-92.5 -17.5q-30 0 -62.5 7t-59 27.5t-44 56.5t-17.5 95v220h21z" />
    <glyph glyph-name="afii10042" unicode="&#x428;" horiz-adv-x="785" 
d="M105 674v-655h276v655h21v-655h278v655h21v-674h-617v674h21z" />
    <glyph glyph-name="afii10043" unicode="&#x429;" horiz-adv-x="797" 
d="M105 674v-655h276v655h21v-655h278v655h21v-656l61 -1l-4 -175h-17l-1 158h-656v674h21z" />
    <glyph glyph-name="afii10044" unicode="&#x42a;" horiz-adv-x="569" 
d="M0 656v18h192v-279q18 3 43 4.5t45 1.5q54 0 99.5 -10.5t78.5 -34t52 -60.5t19 -90q0 -59 -21.5 -99t-57 -65.5t-82 -36.5t-95.5 -11q-31 0 -55 2t-47 6v654h-171zM192 18q19 -2 38.5 -4t45.5 -2q45 0 86.5 10.5t74 33.5t51.5 60t19 90q0 48 -17.5 82t-48 55t-72 30.5
t-90.5 9.5q-22 0 -46 -2t-41 -4v-359z" />
    <glyph glyph-name="afii10045" unicode="&#x42b;" horiz-adv-x="625" 
d="M105 674v-279q18 3 43 4.5t45 1.5q54 0 99.5 -10.5t78.5 -34t52 -60.5t19 -90q0 -59 -21.5 -99t-57 -65.5t-82 -36.5t-95.5 -11q-31 0 -55 2t-47 6v672h21zM105 18q19 -2 38.5 -4t45.5 -2q45 0 86.5 10.5t74 33.5t51.5 60t19 90q0 48 -17.5 82t-48 55t-72 30.5t-90.5 9.5
q-22 0 -46 -2t-41 -4v-359zM541 674v-674h-21v674h21z" />
    <glyph glyph-name="afii10046" unicode="&#x42c;" horiz-adv-x="482" 
d="M105 674v-279q18 3 43 4.5t45 1.5q54 0 99.5 -10.5t78.5 -34t52 -60.5t19 -90q0 -59 -21.5 -99t-57 -65.5t-82 -36.5t-95.5 -11q-31 0 -55 2t-47 6v672h21zM105 18q19 -2 38.5 -4t45.5 -2q45 0 86.5 10.5t74 33.5t51.5 60t19 90q0 48 -17.5 82t-48 55t-72 30.5t-90.5 9.5
q-22 0 -46 -2t-41 -4v-359z" />
    <glyph glyph-name="afii10047" unicode="&#x42d;" horiz-adv-x="505" 
d="M48 651q29 16 67 24.5t75 8.5q70 0 122 -26.5t86.5 -73.5t51.5 -110.5t17 -136.5q0 -82 -22.5 -146.5t-61 -109t-90.5 -68t-111 -23.5q-39 0 -78 7t-68 22l6 17q27 -15 64 -21.5t73 -6.5q56 0 104.5 22.5t84 64.5t56 103t20.5 138h-311v18h311q-2 66 -18.5 123t-48.5 99
t-79 66t-109 24q-35 0 -72 -8t-64 -23l-5 16v0z" />
    <glyph glyph-name="afii10048" unicode="&#x42e;" horiz-adv-x="797" 
d="M105 674v-309h155q1 74 21.5 133t54.5 100.5t79.5 64t97.5 22.5q57 0 102.5 -24.5t77.5 -69.5t49 -108t17 -139q0 -89 -20.5 -155.5t-55 -111t-80 -66.5t-96.5 -22q-53 0 -98 21t-78 65t-51.5 111t-19.5 160h-155v-346h-21v674h21zM513 667q-50 0 -92 -22t-72.5 -63.5
t-48 -101.5t-17.5 -135q0 -85 16.5 -148.5t46 -105.5t70.5 -63t91 -21q48 0 90 21.5t72.5 64t48.5 105t18 145.5q0 71 -15 130.5t-44 102.5t-70.5 67t-93.5 24z" />
    <glyph glyph-name="afii10049" unicode="&#x42f;" horiz-adv-x="476" 
d="M27 0q7 13 18 58t28 115q15 64 46 107t85 54v2q-74 15 -114.5 57.5t-40.5 106.5q0 49 17.5 83t47 55.5t69 31t83.5 9.5q32 0 66.5 -3.5t59.5 -11.5v-664h-21v328h-87q-38 0 -68 -7t-53 -25t-40 -49t-29 -79q-17 -66 -27 -110t-17 -58h-23zM70 499q0 -38 17 -66.5t45 -48
t62.5 -29.5t70.5 -10h106v306q-21 5 -49 7.5t-56 2.5q-40 0 -75.5 -8.5t-62.5 -27.5t-42.5 -50t-15.5 -76z" />
    <glyph glyph-name="afii10050" unicode="&#x490;" horiz-adv-x="402" 
d="M364 674l13 119h17l-11 -138h-278v-655h-21v674h280z" />
    <glyph glyph-name="afii10055" unicode="&#x406;" horiz-adv-x="195" 
d="M108 674v-674h-21v674h21z" />
    <glyph glyph-name="afii10051" unicode="&#x402;" horiz-adv-x="591" 
d="M441 674v-19h-240v-284q34 21 73.5 38t88.5 17q46 0 80.5 -19.5t57.5 -53.5t34.5 -79t11.5 -96q0 -57 -12.5 -109t-37 -93.5t-60.5 -70.5t-84 -41l-4 17q44 11 77 38t54.5 66.5t32.5 88.5t11 103q0 47 -10 89t-30.5 73.5t-51.5 49.5t-73 18q-48 0 -88.5 -17.5
t-69.5 -38.5v-351h-21v655h-181v19h442z" />
    <glyph glyph-name="afii10099" unicode="&#x452;" horiz-adv-x="499" 
d="M340 585h-226v-183h1q27 49 61.5 70t88.5 21t90 -26.5t57 -68t30 -93t9 -101.5q0 -57 -9 -114.5t-30.5 -105.5t-57.5 -82t-91 -43l-4 17q49 8 82 39.5t52.5 77t27.5 100.5t8 110q0 49 -8 97.5t-27.5 87.5t-51 63.5t-79.5 24.5q-45 0 -82 -22.5t-57 -80.5
q-7 -21 -8.5 -43.5t-1.5 -63.5v-266h-21v585h-75v16h75v108h21v-108h226v-16z" />
    <glyph glyph-name="afii10052" unicode="&#x403;" horiz-adv-x="381" 
d="M343 825l-122 -115h-18l99 115h41zM373 674v-19h-268v-655h-21v674h289z" />
    <glyph glyph-name="afii10100" unicode="&#x453;" horiz-adv-x="318" 
d="M308 483v-18h-209v-465h-21v483h230zM296 686l-113 -136h-16l93 136h36z" />
    <glyph glyph-name="afii10103" unicode="&#x456;" horiz-adv-x="181" 
d="M112 622q0 -9 -6 -15t-15 -6t-15.5 6t-6.5 15t6.5 15t15.5 6t15 -6t6 -15zM101 0h-21v483h21v-483z" />
    <glyph glyph-name="afii10098" unicode="&#x491;" horiz-adv-x="329" 
d="M99 465v-465h-21v483h218l9 104h16l-8 -122h-214z" />
    <glyph glyph-name="afii10057" unicode="&#x408;" horiz-adv-x="309" 
d="M234 674v-457q0 -66 -11 -110t-29.5 -70t-44 -37t-54.5 -11q-24 0 -47 4.5t-38 10.5l5 17q15 -5 35.5 -9.5t43.5 -4.5q25 0 47 10t38 34.5t25 65t9 101.5v456h21z" />
    <glyph glyph-name="afii10053" unicode="&#x404;" horiz-adv-x="513" 
d="M468 638q-15 8 -48 18t-77 10q-63 0 -114 -24.5t-87.5 -67t-57.5 -99.5t-23 -121h346v-18h-346q0 -78 21 -139t57.5 -103t85 -64t103.5 -22q21 0 42.5 2.5t41 7t35.5 10t26 11.5l4 -17q-10 -6 -26 -11.5t-36 -10t-43 -7.5t-46 -3q-59 0 -111.5 23.5t-91.5 67.5t-62 108.5
t-23 146.5q0 72 21.5 135.5t61 110.5t95.5 74.5t126 27.5q48 0 83 -10.5t49 -18.5z" />
    <glyph glyph-name="afii10101" unicode="&#x454;" horiz-adv-x="393" 
d="M354 450q-14 8 -41 17t-59 9q-45 0 -80 -16.5t-59.5 -45.5t-37.5 -69.5t-14 -89.5h248v-18h-248q1 -60 15 -103t39.5 -71.5t60 -42t75.5 -13.5q32 0 61 9t44 17l5 -16q-15 -8 -45 -17.5t-67 -9.5q-46 0 -84.5 15.5t-66.5 47.5t-43.5 79.5t-15.5 112.5q0 55 14.5 100.5
t42 78.5t67.5 51t90 18q33 0 62 -9t43 -19z" />
    <glyph glyph-name="afii10056" unicode="&#x407;" horiz-adv-x="195" 
d="M108 674v-674h-21v674h21zM21 730q-10 0 -16 6.5t-6 16.5t6.5 16t15.5 6q22 0 22 -22q0 -10 -6 -16.5t-16 -6.5zM175 730q-10 0 -16 6.5t-6 16.5t6.5 16t15.5 6q22 0 22 -22q0 -10 -6 -16.5t-16 -6.5z" />
    <glyph glyph-name="afii10104" unicode="&#x457;" horiz-adv-x="181" 
d="M101 0h-21v483h21v-483zM14 584q-10 0 -16 7t-6 16q0 10 6.5 16.5t15.5 6.5q22 0 22 -23q0 -9 -6 -16t-16 -7zM167 584q-10 0 -16 7t-6 16q0 10 6.5 16.5t15.5 6.5q22 0 22 -23q0 -9 -6 -16t-16 -7z" />
    <glyph glyph-name="afii10058" unicode="&#x409;" horiz-adv-x="814" 
d="M437 18q19 -2 38.5 -4t45.5 -2q45 0 86.5 10.5t74 33.5t51.5 60t19 90q0 48 -17.5 82t-48 55t-72 30.5t-90.5 9.5q-22 0 -46 -2t-41 -4v-359zM437 395q18 3 43 4.5t45 1.5q54 0 99.5 -10.5t78.5 -34t52 -60.5t19 -90q0 -59 -21.5 -99t-57 -65.5t-82 -36.5t-95.5 -11
q-31 0 -55 2t-47 6v653h-265v-258q0 -90 -3.5 -161.5t-17.5 -123t-42 -82t-77 -37.5l-4 19q39 5 63 30t37.5 69t18 107t4.5 144v312h307v-279z" />
    <glyph glyph-name="afii10106" unicode="&#x459;" horiz-adv-x="710" 
d="M372 17q17 -2 36.5 -3.5t40.5 -1.5q32 0 67 6t64 22.5t48 44.5t19 72q0 36 -15.5 60t-42.5 39t-64 21.5t-80 6.5q-19 0 -38 -2t-35 -4v-261zM372 295q14 2 34.5 4t40.5 2q47 0 87.5 -7.5t70.5 -24.5t47 -44.5t17 -67.5q0 -49 -21.5 -80.5t-54 -49.5t-72 -25t-75.5 -7
q-23 0 -49 2t-46 5v463h-226v-146q0 -75 -3.5 -134t-15 -100.5t-33.5 -65t-60 -28.5l-3 17q55 9 74.5 72.5t19.5 174.5v228h268v-188z" />
    <glyph glyph-name="afii10059" unicode="&#x40a;" horiz-adv-x="828" 
d="M105 674v-296h327v296h21v-289q18 3 43.5 4.5t46.5 1.5q53 0 98 -10.5t77.5 -33t51 -58t18.5 -85.5q0 -59 -21 -99t-56 -64.5t-81 -35.5t-96 -11q-31 0 -55 2t-47 6v357h-327v-359h-21v674h21zM453 18q19 -2 38.5 -4t45.5 -2q45 0 86 10t73 32.5t51 59.5t19 90
q0 46 -17 78t-47 52.5t-71.5 29.5t-89.5 9q-23 0 -47 -2t-41 -4v-349z" />
    <glyph glyph-name="afii10107" unicode="&#x45a;" horiz-adv-x="716" 
d="M99 483v-198h265v198h21v-188q14 2 34.5 4t40.5 2q45 0 84 -7.5t68 -24.5t46 -44.5t17 -67.5q0 -49 -20.5 -80.5t-52.5 -49.5t-70 -25t-74 -7q-23 0 -48.5 2t-45.5 5v266h-265v-268h-21v483h21zM385 16q17 -2 36.5 -3.5t40.5 -1.5q30 0 64 6.5t62 23t46.5 44.5t18.5 72
q0 35 -15 59.5t-41.5 39.5t-62 21.5t-76.5 6.5q-19 0 -38 -2t-35 -4v-262z" />
    <glyph glyph-name="afii10105" unicode="&#x458;" horiz-adv-x="190" 
d="M121 622q0 -9 -6 -15t-15 -6t-15.5 6t-6.5 15t6.5 15t15.5 6t15 -6t6 -15zM110 39q0 -42 -2.5 -74t-7.5 -55t-12.5 -39t-17.5 -28q-17 -20 -44.5 -34.5t-57.5 -16.5l-3 18q29 3 52 15t37 30q8 10 14.5 24.5t11 36.5t7 53t2.5 75v439h21v-444z" />
    <glyph glyph-name="afii10054" unicode="&#x405;" horiz-adv-x="425" 
d="M341 636q-14 11 -42 20.5t-63 9.5q-36 0 -65.5 -11t-50.5 -31t-32.5 -47t-11.5 -60q0 -32 12 -56t32.5 -42.5t47 -33t55.5 -28.5q30 -14 57.5 -31t49 -38.5t34 -49t12.5 -63.5q0 -38 -12.5 -71.5t-37.5 -59t-62.5 -40t-86.5 -14.5q-38 0 -75 11.5t-60 28.5l7 20
q20 -18 57 -29.5t72 -11.5q43 0 76 13t55.5 35.5t33.5 52.5t11 64q0 33 -12 58t-32 45t-46.5 35t-55.5 29q-30 14 -57.5 29.5t-48.5 35.5t-34 46.5t-13 62.5q0 38 13 69t37 53.5t57 34.5t74 12q38 0 67.5 -9.5t45.5 -20.5z" />
    <glyph glyph-name="afii10060" unicode="&#x40b;" horiz-adv-x="609" 
d="M433 674v-19h-232v-283q16 9 35 19.5t40.5 19t44.5 14.5t48 6q46 0 77 -14t49.5 -40t26 -63.5t7.5 -85.5v-228h-21v224q0 43 -6 78t-22.5 59.5t-45 37.5t-72.5 13q-22 0 -44.5 -5.5t-43.5 -14.5t-39.5 -19.5t-33.5 -19.5v-353h-21v655h-181v19h434z" />
    <glyph glyph-name="afii10108" unicode="&#x45b;" horiz-adv-x="509" 
d="M114 601h192v-16h-192v-203h2q25 52 63 81.5t95 29.5q42 0 72.5 -15.5t49.5 -43.5t28 -68t9 -89v-277h-21v276q0 57 -11 95t-30.5 61.5t-45 33.5t-53.5 10q-30 0 -55 -11.5t-44 -29t-31.5 -39t-18.5 -42.5t-7.5 -37.5t-1.5 -49.5v-267h-21v585h-75v16h75v108h21v-108z
" />
    <glyph glyph-name="afii10061" unicode="&#x40c;" horiz-adv-x="476" 
d="M105 674v-315h48l261 315h27l-264 -316q48 -2 83 -15.5t60.5 -36.5t42.5 -56t31 -73q15 -44 32 -92.5t37 -84.5h-25q-17 32 -33 79.5t-33 95.5q-15 40 -31 70.5t-40.5 51.5t-61.5 32t-92 11h-42v-340h-21v674h21zM353 825l-122 -115h-18l99 115h41z" />
    <glyph glyph-name="afii10109" unicode="&#x45c;" horiz-adv-x="417" 
d="M99 483v-229h43l218 229h28l-222 -230q37 -1 65 -10t49 -25t36.5 -39.5t28.5 -53.5q19 -43 31 -71.5t26 -53.5h-23q-16 29 -27.5 55t-27.5 64q-26 60 -65 89t-108 29h-52v-237h-21v483h21zM335 686l-113 -136h-16l93 136h36z" />
    <glyph glyph-name="afii10102" unicode="&#x455;" horiz-adv-x="331" 
d="M290 124q0 -60 -39 -97t-107 -37q-29 0 -55.5 7.5t-46.5 22.5l8 16q17 -14 43 -21.5t51 -7.5q58 0 91.5 32.5t33.5 83.5q0 24 -6 41t-18.5 31t-31.5 26t-45 24q-53 24 -83 53t-30 77q0 57 35 87.5t95 30.5q28 0 50 -6.5t37 -17.5l-7 -16q-13 10 -33 16.5t-49 6.5
q-22 0 -41.5 -5.5t-34 -17.5t-23 -31t-8.5 -45q0 -43 27 -67.5t75 -47.5q28 -14 49 -26.5t35 -28.5t21 -36t7 -47z" />
    <glyph glyph-name="afii10062" unicode="&#x40e;" horiz-adv-x="458" 
d="M33 674l154 -320q16 -33 31.5 -66t30.5 -67h2q14 32 26 63.5t28 69.5l126 320h25l-136 -338q-28 -69 -55 -131.5t-56.5 -110t-62.5 -76t-72 -28.5q-23 0 -35 4l4 18q7 -2 13 -2.5t17 -0.5q27 0 49.5 15.5t42 40.5t36.5 57t33 66q3 8 2.5 13t-6.5 17l-222 456h25zM147 818
q1 -38 21 -61.5t68 -23.5q41 0 64.5 20t24.5 65h16q-1 -53 -29 -78t-76 -25q-56 0 -80 29.5t-25 73.5h16z" />
    <glyph glyph-name="afii10110" unicode="&#x45e;" horiz-adv-x="405" 
d="M393 483l-124 -347q-21 -60 -38.5 -106.5t-34.5 -82.5t-34.5 -63t-38.5 -47q-31 -29 -55.5 -41.5t-38.5 -15.5l-7 18q67 22 107 76t68 126q2 8 2.5 12t-2.5 12l-184 459h24l134 -337q11 -27 21 -54.5t20 -54.5h1l156 446h24zM127 667q1 -38 20 -66.5t63 -28.5q38 0 60 25
t23 70h17q-1 -54 -28 -84t-72 -30q-26 0 -45 9.5t-31 25.5t-18 36.5t-6 42.5h17z" />
    <glyph glyph-name="afii10145" unicode="&#x40f;" horiz-adv-x="580" 
d="M105 674v-655h370v655h21v-674h-194l-3 -169h-18l-2 169h-195v674h21z" />
    <glyph glyph-name="afii10193" unicode="&#x45f;" horiz-adv-x="480" 
d="M99 483v-465h282v465h21v-483h-152l-2 -152h-16l-2 152h-152v483h21z" />
    <glyph glyph-name="afii10023" unicode="&#x401;" horiz-adv-x="427" 
d="M362 346h-257v-327h287v-19h-308v674h293v-19h-272v-290h257v-19zM163 730q-10 0 -16 6.5t-6 16.5t6.5 16t15.5 6q22 0 22 -22q0 -10 -6 -16.5t-16 -6.5zM317 730q-10 0 -16 6.5t-6 16.5t6.5 16t15.5 6q22 0 22 -22q0 -10 -6 -16.5t-16 -6.5z" />
    <glyph glyph-name="afii10071" unicode="&#x451;" horiz-adv-x="451" 
d="M390 20q-20 -9 -54 -19.5t-88 -10.5q-101 0 -156.5 67t-55.5 193q0 48 14 92t40.5 77.5t64 53.5t84.5 20q54 0 88.5 -20.5t54 -51t27 -65.5t7.5 -63v-22t-2 -20h-356q0 -54 11.5 -98.5t34.5 -77t59 -50.5t86 -18t83 9.5t54 19.5zM395 268q1 6 1 14v17q0 25 -7 56t-25 58
t-48.5 45t-77.5 18q-39 0 -71 -16t-55 -44t-36.5 -66t-16.5 -82h336zM169 584q-10 0 -16 7t-6 16q0 10 6.5 16.5t15.5 6.5q22 0 22 -23q0 -9 -6 -16t-16 -7zM322 584q-10 0 -16 7t-6 16q0 10 6.5 16.5t15.5 6.5q22 0 22 -23q0 -9 -6 -16t-16 -7z" />
    <glyph glyph-name="afii10097" unicode="&#x44f;" horiz-adv-x="433" 
d="M355 0h-21v226h-85q-42 0 -64.5 -8t-39.5 -22q-16 -13 -27.5 -31t-21 -38.5t-18 -43t-18.5 -45.5q-5 -10 -9.5 -19.5t-10.5 -18.5h-24q8 11 15 24.5t13 28.5q9 21 17.5 43t19 43t23 39.5t29.5 31.5q23 19 53 23v1q-28 5 -53 15t-44 25.5t-30 37t-11 49.5q0 39 18 64
t46.5 39t64 19.5t69.5 5.5q30 0 57 -3t52 -8v-478zM334 464q-22 4 -43.5 6t-47.5 2q-29 0 -60 -4.5t-56 -17t-41 -34.5t-16 -56q0 -28 14.5 -50t40 -37t59.5 -23t73 -8h77v222z" />
    <glyph glyph-name="afii10065" unicode="&#x430;" horiz-adv-x="417" 
d="M331 0q-2 17 -3 39t-1 45h-3q-23 -38 -61 -66.5t-95 -28.5q-32 0 -57.5 10t-43.5 27.5t-28 40.5t-10 50q0 40 20 71t58.5 52.5t93 33t123.5 11.5v13q0 31 -5 63t-19.5 57.5t-39.5 41.5t-65 16q-29 0 -61.5 -9.5t-55.5 -27.5l-7 17q23 17 58.5 27t66.5 10q46 0 74.5 -17
t45 -45t22.5 -63.5t6 -71.5v-127q0 -20 0.5 -46.5t1.5 -51.5t2 -44.5t3 -26.5h-20zM324 268q-62 0 -112.5 -9.5t-86 -28.5t-55 -46.5t-19.5 -64.5q0 -27 9.5 -48t25.5 -35.5t38 -22t46 -7.5q42 0 75.5 20.5t59.5 57.5q13 18 16 39.5t3 53.5v91z" />
    <glyph glyph-name="afii10066" unicode="&#x431;" horiz-adv-x="458" 
d="M380 695q-22 -9 -55.5 -16t-69.5 -18q-44 -14 -78 -37t-58 -58.5t-38.5 -85.5t-19.5 -116h3q10 28 28 50.5t40.5 37.5t48 23t52.5 8q39 0 72.5 -15.5t58.5 -45.5t39 -74.5t14 -102.5q0 -120 -48.5 -188t-139.5 -68q-55 0 -91 28.5t-57.5 73.5t-30.5 100.5t-9 109.5
q0 85 13 148.5t38.5 109t64.5 74.5t91 45q35 11 70 17.5t61 17.5zM395 244q0 106 -45 164t-119 58q-29 0 -59 -12t-54.5 -35.5t-40 -58.5t-15.5 -82q0 -37 7.5 -84t26.5 -89t51 -70.5t82 -28.5q82 0 124 65t42 173z" />
    <glyph glyph-name="afii10067" unicode="&#x432;" horiz-adv-x="459" 
d="M97 478q22 5 55.5 7.5t62.5 2.5q26 0 57.5 -3t58.5 -14t45.5 -34t18.5 -62q0 -20 -7.5 -39t-22.5 -34.5t-37 -26.5t-51 -15v-2q67 -11 104 -41t37 -82q0 -48 -22.5 -76t-55.5 -42.5t-71 -18.5t-69 -4q-27 0 -57.5 2t-45.5 4v478zM118 265h50q101 0 153.5 24t52.5 84
q0 34 -16 54t-40 30t-52 12.5t-52 2.5q-23 0 -49.5 -2t-46.5 -6v-199zM118 15q14 -2 37.5 -3.5t46.5 -1.5q28 0 61.5 4t63 16.5t49.5 37.5t20 67q0 53 -48.5 83.5t-148.5 30.5h-81v-234z" />
    <glyph glyph-name="afii10068" unicode="&#x433;" horiz-adv-x="318" 
d="M308 483v-18h-209v-465h-21v483h230z" />
    <glyph glyph-name="afii10069" unicode="&#x434;" horiz-adv-x="470" 
d="M382 483v-466l52 -1l-3 -165h-17v149h-384l-1 -149h-16l-3 165l39 1q24 37 39 76.5t23.5 81t11 85t2.5 89.5v134h257zM146 357q0 -48 -2 -92.5t-9.5 -86.5t-22 -82t-39.5 -79h288v448h-215v-108z" />
    <glyph glyph-name="afii10070" unicode="&#x435;" horiz-adv-x="451" 
d="M390 20q-20 -9 -54 -19.5t-88 -10.5q-101 0 -156.5 67t-55.5 193q0 48 14 92t40.5 77.5t64 53.5t84.5 20q54 0 88.5 -20.5t54 -51t27 -65.5t7.5 -63v-22t-2 -20h-356q0 -54 11.5 -98.5t34.5 -77t59 -50.5t86 -18t83 9.5t54 19.5zM395 268q1 6 1 14v17q0 25 -7 56t-25 58
t-48.5 45t-77.5 18q-39 0 -71 -16t-55 -44t-36.5 -66t-16.5 -82h336z" />
    <glyph glyph-name="afii10072" unicode="&#x436;" horiz-adv-x="608" 
d="M55 483l193 -229h45v229h21v-229h44l194 229h27l-198 -230q33 -1 57 -10t41.5 -25t31 -38.5t25.5 -51.5q18 -46 30.5 -74.5t26.5 -53.5h-23q-16 29 -27.5 56t-26.5 65q-23 60 -56 88.5t-94 28.5h-52v-238h-21v238h-53q-31 0 -53.5 -7t-40 -21.5t-30.5 -36.5t-25 -52
q-16 -38 -27.5 -65t-27.5 -56h-21q14 25 26 53.5t31 74.5q12 29 25 51.5t31 38.5t42 25t57 10l-198 230h26z" />
    <glyph glyph-name="afii10073" unicode="&#x437;" horiz-adv-x="371" 
d="M119 263h23q23 0 47.5 8t45 22.5t34 35.5t13.5 48t-10 46t-25.5 31t-35.5 17t-40 5q-26 0 -57 -8t-55 -27l-6 14q26 20 58.5 29t64.5 9q22 0 44.5 -6t41 -19.5t30.5 -35.5t12 -54q0 -23 -9 -42.5t-24.5 -35t-35.5 -26.5t-42 -17q24 -5 47.5 -14t43 -24.5t31.5 -37.5
t12 -52q0 -38 -15 -64.5t-39 -43t-55 -24t-63 -7.5q-31 0 -65.5 8t-57.5 25l7 16q22 -17 54.5 -24.5t60.5 -7.5q29 0 56.5 7t48.5 21.5t33.5 38t12.5 56.5q0 29 -13 50.5t-35.5 36t-52 22t-61.5 7.5h-24v17z" />
    <glyph glyph-name="afii10074" unicode="&#x438;" horiz-adv-x="501" 
d="M99 483v-204v-256h1q40 63 79 124.5t81 126.5l134 209h29v-483h-21v204v257h-2q-74 -118 -146.5 -231t-147.5 -230h-28v483h21z" />
    <glyph glyph-name="afii10075" unicode="&#x439;" horiz-adv-x="501" 
d="M99 483v-204v-256h1q40 63 79 124.5t81 126.5l134 209h29v-483h-21v204v257h-2q-74 -118 -146.5 -231t-147.5 -230h-28v483h21zM174 667q1 -38 20 -66.5t63 -28.5q38 0 60 25t23 70h17q-1 -54 -28 -84t-72 -30q-26 0 -45 9.5t-31 25.5t-18 36.5t-6 42.5h17z" />
    <glyph glyph-name="afii10076" unicode="&#x43a;" horiz-adv-x="417" 
d="M99 483v-229h43l218 229h28l-222 -230q37 -1 65 -10t49 -25t36.5 -39.5t28.5 -53.5q19 -43 31 -71.5t26 -53.5h-23q-16 29 -27.5 55t-27.5 64q-26 60 -65 89t-108 29h-52v-237h-21v483h21z" />
    <glyph glyph-name="afii10077" unicode="&#x43b;" horiz-adv-x="449" 
d="M371 483v-483h-21v465h-225v-146q0 -75 -3.5 -134t-15 -100.5t-33.5 -65t-60 -28.5l-3 17q55 9 74.5 72.5t19.5 174.5v228h267z" />
    <glyph glyph-name="afii10078" unicode="&#x43c;" horiz-adv-x="601" 
d="M58 0l37 483h33l94 -253l38 -102t37 -102h2q42 113 86.5 227.5t89.5 229.5h34l34 -483h-20l-19 265q-4 49 -7.5 98.5t-6.5 99.5h-3q-42 -109 -87.5 -226.5t-90.5 -233.5h-24l-90 245q-20 54 -40 107.5t-40 107.5h-2q-5 -58 -9 -115t-9 -115l-17 -233h-20z" />
    <glyph glyph-name="afii10079" unicode="&#x43d;" horiz-adv-x="488" 
d="M99 483v-222h290v222h21v-484h-21v244h-290v-244h-21v484h21z" />
    <glyph glyph-name="afii10080" unicode="&#x43e;" horiz-adv-x="483" 
d="M452 246q0 -68 -19 -116.5t-49.5 -80t-69 -46t-76.5 -14.5q-44 0 -82 17t-65.5 49.5t-43.5 78.5t-16 104q0 61 17 108.5t46 80t67.5 49.5t82.5 17q46 0 84.5 -18t66 -50t42.5 -78t15 -101zM430 246q0 50 -13 92t-37.5 73t-59 48t-76.5 17q-41 0 -76 -16.5t-60.5 -47
t-40 -75t-14.5 -99.5q0 -53 14.5 -96t39.5 -73t59.5 -46.5t75.5 -16.5q34 0 67.5 14.5t60.5 44t43.5 74.5t16.5 107z" />
    <glyph glyph-name="afii10081" unicode="&#x43f;" horiz-adv-x="484" 
d="M406 483v-483h-21v465h-286v-465h-21v483h328z" />
    <glyph glyph-name="afii10082" unicode="&#x440;" horiz-adv-x="507" 
d="M466 248q0 -62 -15 -110.5t-42.5 -81.5t-65.5 -50t-83 -17q-22 0 -45 4.5t-44 15t-38.5 27.5t-29.5 41h-2v-275h-21v542q0 41 -1 76.5t-3 62.5h19l4 -100h2q11 22 28 42t39 35t47.5 24t53.5 9q43 0 79 -17.5t62.5 -49.5t41 -77.5t14.5 -100.5zM444 248q0 51 -12.5 93
t-36 72t-56.5 46.5t-73 16.5q-37 0 -67.5 -16t-52 -39.5t-33.5 -51t-12 -50.5v-167q0 -33 12.5 -60t34 -46t49.5 -29.5t59 -10.5q85 0 136.5 63t51.5 179z" />
    <glyph glyph-name="afii10083" unicode="&#x441;" horiz-adv-x="384" 
d="M381 451q-14 8 -39 16.5t-63 8.5q-49 0 -88.5 -17.5t-68 -49.5t-44 -76t-15.5 -96q0 -53 15 -95.5t42 -72.5t65 -46t84 -16q38 0 68 9.5t46 18.5l5 -17q-16 -8 -46.5 -18t-74.5 -10q-51 0 -92.5 17t-71.5 49t-46 77.5t-16 102.5t17 104.5t48.5 81t75.5 52.5t97 19
q42 0 68 -8t42 -17z" />
    <glyph glyph-name="afii10084" unicode="&#x442;" horiz-adv-x="333" 
d="M326 483v-17h-149v-466h-21v466h-149v17h319z" />
    <glyph glyph-name="afii10085" unicode="&#x443;" horiz-adv-x="405" 
d="M393 483l-124 -347q-21 -60 -38.5 -106.5t-34.5 -82.5t-34.5 -63t-38.5 -47q-31 -29 -55.5 -41.5t-38.5 -15.5l-7 18q67 22 107 76t68 126q2 8 2.5 12t-2.5 12l-184 459h24l134 -337q11 -27 21 -54.5t20 -54.5h1l156 446h24z" />
    <glyph glyph-name="afii10086" unicode="&#x444;" horiz-adv-x="567" 
d="M294 709v-219q111 -3 171.5 -69.5t60.5 -177.5q0 -118 -62 -183t-170 -68v-190h-20v190q-112 3 -172.5 68.5t-60.5 177.5q0 59 16.5 105t46.5 78.5t73 49.5t97 19v219h20zM274 474q-100 -3 -155.5 -65t-55.5 -171q0 -51 14 -92.5t41 -71.5t66 -47t90 -18v465zM294 9
q99 2 154.5 64.5t55.5 169.5q0 51 -14 93t-40.5 72t-65.5 47t-90 19v-465z" />
    <glyph glyph-name="afii10087" unicode="&#x445;" horiz-adv-x="388" 
d="M374 0h-25l-89 131q-17 26 -33 50.5t-33 49.5q-17 -22 -35 -49t-35 -51l-90 -131h-25l171 246l-161 237h25l86 -127q16 -23 31.5 -46.5t31.5 -48.5q16 21 33.5 47t32.5 48l86 127h25l-163 -237z" />
    <glyph glyph-name="afii10088" unicode="&#x446;" horiz-adv-x="489" 
d="M99 483v-465h283v465h21v-465l52 -1l-3 -166h-16l-1 149h-357v483h21z" />
    <glyph glyph-name="afii10089" unicode="&#x447;" horiz-adv-x="444" 
d="M81 483v-137q0 -40 7.5 -67t24 -43.5t41.5 -24t60 -7.5q31 0 68 11t63 32v236h21v-483h-21v229q-27 -20 -65 -31t-69 -11q-38 0 -66.5 7.5t-47 26t-28 49t-9.5 75.5v138h21z" />
    <glyph glyph-name="afii10090" unicode="&#x448;" horiz-adv-x="675" 
d="M99 483v-465h228v465h21v-465h228v465h21v-483h-519v483h21z" />
    <glyph glyph-name="afii10091" unicode="&#x449;" horiz-adv-x="683" 
d="M99 483v-465h228v465h21v-465h228v465h21v-465l52 -1l-3 -166h-17v149h-551v483h21z" />
    <glyph glyph-name="afii10092" unicode="&#x44a;" horiz-adv-x="501" 
d="M163 17q17 -2 36.5 -3.5t40.5 -1.5q32 0 67 6t64 22.5t48 44.5t19 72q0 36 -15.5 60t-42.5 39t-64 21.5t-80 6.5q-19 0 -38 -2t-35 -4v-261zM163 295q14 2 34.5 4t40.5 2q47 0 87.5 -7.5t70.5 -24.5t47 -44.5t17 -67.5q0 -49 -21.5 -80.5t-54 -49.5t-72 -25t-75.5 -7
q-23 0 -49 2t-46 5v464h-142v17h163v-188z" />
    <glyph glyph-name="afii10093" unicode="&#x44b;" horiz-adv-x="555" 
d="M99 483v-188q14 2 34.5 4t40.5 2q45 0 82.5 -7.5t65.5 -24.5t43.5 -44.5t15.5 -67.5q0 -49 -19.5 -80.5t-50 -49.5t-67.5 -25t-71 -7q-23 0 -49 2t-46 5v481h21zM99 17q17 -2 36.5 -3.5t39.5 -1.5q31 0 63.5 6.5t59.5 22.5t44 44t17 72q0 69 -51.5 98t-135.5 29
q-18 0 -38 -2t-35 -4v-261zM477 483v-483h-21v483h21z" />
    <glyph glyph-name="afii10094" unicode="&#x44c;" horiz-adv-x="437" 
d="M99 483v-188q14 2 34.5 4t40.5 2q47 0 87.5 -7.5t70.5 -24.5t47 -44.5t17 -67.5q0 -49 -21.5 -80.5t-54 -49.5t-72 -25t-75.5 -7q-23 0 -49 2t-46 5v481h21zM99 17q17 -2 36.5 -3.5t40.5 -1.5q32 0 67 6t64 22.5t48 44.5t19 72q0 36 -15.5 60t-42.5 39t-64 21.5t-80 6.5
q-19 0 -38 -2t-35 -4v-261z" />
    <glyph glyph-name="afii10095" unicode="&#x44d;" horiz-adv-x="389" 
d="M38 465q21 11 54 19.5t70 8.5q45 0 79.5 -17.5t58 -50t36 -78t12.5 -101.5q0 -62 -14.5 -109.5t-40 -80t-60.5 -49t-77 -16.5t-74 8t-52 19l5 17q17 -10 49 -18.5t72 -8.5q73 0 120.5 57.5t49.5 172.5h-243v18h243q-1 49 -12 90t-31.5 69.5t-51 44.5t-70.5 16
q-36 0 -67.5 -8t-49.5 -19l-6 16v0z" />
    <glyph glyph-name="afii10096" unicode="&#x44e;" horiz-adv-x="637" 
d="M99 483v-229h135q1 56 16 100.5t40 75t58 47t69 16.5q40 0 73 -17.5t56.5 -50t36.5 -78t13 -101.5q0 -59 -14 -106.5t-39 -81t-58 -51.5t-72 -18q-37 0 -69 16t-56.5 47t-38.5 77.5t-15 107.5h-135v-237h-21v483h21zM417 476q-33 0 -62.5 -16t-51.5 -46t-34.5 -73
t-12.5 -96q0 -58 12 -102.5t33 -75t49.5 -46t62.5 -15.5q35 0 64.5 17.5t51 49t33.5 75.5t12 98q0 51 -11.5 93.5t-32 72.5t-49.5 47t-64 17z" />
    <glyph glyph-name="currency" unicode="&#xa4;" horiz-adv-x="444" 
d="M103 473q21 27 50.5 42.5t67.5 15.5t67.5 -16t49.5 -42l75 76l14 -14l-78 -77q17 -26 25 -58t8 -66q0 -42 -9 -74.5t-24 -56.5l78 -77l-14 -14l-75 75q-23 -29 -54.5 -43t-63.5 -14q-30 0 -61 14.5t-55 43.5l-75 -76l-13 14l77 77q-15 24 -24.5 55.5t-9.5 71.5
q0 74 34 128l-77 77l13 14zM221 515q-33 0 -59.5 -14.5t-45 -40t-28 -59t-9.5 -71.5q0 -48 13.5 -83t34 -57.5t45.5 -33t48 -10.5q25 0 50.5 10.5t46 33t33 58.5t12.5 86q0 34 -9 67t-26.5 58t-44 40.5t-61.5 15.5z" />
    <glyph glyph-name="dieresistonos" unicode="&#x385;" 
d="M47 598q0 9 6 15t14 6t14 -6t6 -15q0 -8 -6 -14t-14 -6t-14 6t-6 14zM212 598q0 9 6 15t14 6t14 -6t6 -15q0 -8 -6 -14t-14 -6t-14 6t-6 14zM185 669l-46 -127h-17l34 127h29z" />
    <glyph glyph-name="tonos" unicode="&#x384;" 
d="M188 684l-62 -142h-15l46 142h31z" />
    <glyph glyph-name="Gamma" unicode="&#x393;" horiz-adv-x="381" 
d="M373 674v-19h-268v-655h-21v674h289z" />
    <glyph glyph-name="Theta" unicode="&#x398;" horiz-adv-x="613" 
d="M439 363v-19h-265v19h265zM587 344q0 -87 -23 -153.5t-62 -111t-90.5 -67.5t-109.5 -23q-59 0 -109.5 24.5t-87.5 69.5t-58 108t-21 140q0 80 22 145.5t60.5 112t90.5 71.5t112 25q62 0 113 -25t87 -70t56 -108t20 -138zM564 343q0 70 -18 129t-51.5 102.5t-80 68
t-103.5 24.5t-105 -24.5t-83 -69t-54.5 -106t-19.5 -136.5q0 -71 19 -130.5t52.5 -102.5t80 -67t102.5 -24q55 0 102.5 22.5t82.5 65.5t55.5 105.5t20.5 142.5z" />
    <glyph glyph-name="Lambda" unicode="&#x39b;" horiz-adv-x="554" 
d="M295 674l229 -674h-25q-56 165 -110.5 327t-109.5 327h-2q-57 -165 -110.5 -326.5t-110.5 -327.5h-23l229 674h33z" />
    <glyph glyph-name="Xi" unicode="&#x39e;" horiz-adv-x="461" 
d="M416 674v-19h-370v19h370zM383 365v-19h-305v19h305zM426 19v-19h-391v19h391z" />
    <glyph glyph-name="Pi" unicode="&#x3a0;" horiz-adv-x="582" 
d="M498 674v-674h-21v655h-372v-655h-21v674h414z" />
    <glyph glyph-name="Sigma" unicode="&#x3a3;" horiz-adv-x="490" 
d="M432 674v-19h-360v-1l224 -319l-236 -315v-1h404v-19h-433v14l240 321l-226 323v16h387z" />
    <glyph glyph-name="Iotadieresis" unicode="&#x3aa;" horiz-adv-x="195" 
d="M108 674v-674h-21v674h21zM21 730q-10 0 -16 6.5t-6 16.5t6.5 16t15.5 6q22 0 22 -22q0 -10 -6 -16.5t-16 -6.5zM175 730q-10 0 -16 6.5t-6 16.5t6.5 16t15.5 6q22 0 22 -22q0 -10 -6 -16.5t-16 -6.5z" />
    <glyph glyph-name="Alpha" unicode="&#x391;" horiz-adv-x="551" 
d="M292 674l229 -674h-23l-81 239h-281l-81 -239h-22l229 674h30zM411 257q-19 56 -38 111t-37 112q-14 44 -29 87t-29 87h-2q-15 -43 -29 -87t-29 -87q-19 -56 -38 -111.5t-38 -111.5h269z" />
    <glyph glyph-name="Beta" unicode="&#x392;" horiz-adv-x="480" 
d="M84 665q23 5 53 9.5t73 4.5q44 0 81 -8t64 -26t42 -48.5t15 -75.5q0 -63 -43.5 -105t-112.5 -56v-2q36 -6 68.5 -17.5t57.5 -31.5t39.5 -49.5t14.5 -71.5q0 -53 -22 -90t-59 -60t-85 -33.5t-100 -10.5q-51 0 -86 8v663zM105 366h77q45 0 83 10.5t65.5 30.5t43.5 49t16 65
q0 39 -13 66t-36.5 43.5t-57 23.5t-73.5 7q-33 0 -61 -3.5t-44 -7.5v-284zM105 18q14 -2 31 -4t37 -2q47 0 90.5 9.5t76.5 30.5t53 54.5t20 81.5q0 46 -19 77t-52 49.5t-77 26.5t-93 8h-67v-331z" />
    <glyph glyph-name="Epsilon" unicode="&#x395;" horiz-adv-x="427" 
d="M362 346h-257v-327h287v-19h-308v674h293v-19h-272v-290h257v-19z" />
    <glyph glyph-name="Zeta" unicode="&#x396;" horiz-adv-x="491" 
d="M452 674v-13l-386 -641v-1h391v-19h-421v13l386 641v1h-354v19h384z" />
    <glyph glyph-name="Eta" unicode="&#x397;" horiz-adv-x="595" 
d="M105 674v-309h385v309h21v-674h-21v346h-385v-346h-21v674h21z" />
    <glyph glyph-name="Iota" unicode="&#x399;" horiz-adv-x="195" 
d="M108 674v-674h-21v674h21z" />
    <glyph glyph-name="Kappa" unicode="&#x39a;" horiz-adv-x="483" 
d="M105 674v-350h2q17 20 34 38.5t34 38.5l247 273h28l-259 -285l282 -389h-27l-270 374l-71 -77v-297h-21v674h21z" />
    <glyph glyph-name="Mu" unicode="&#x39c;" horiz-adv-x="744" 
d="M147 674l119 -341q26 -74 49.5 -149.5t49.5 -155.5h2q27 75 54.5 150.5t56.5 153.5l125 342h34l43 -674h-22l-22 327q-5 81 -9 163t-9 162h-2q-29 -77 -56.5 -155t-56.5 -157l-125 -337h-25l-111 330q-27 80 -54.5 159t-55.5 160h-2q-6 -88 -11 -176.5t-11 -180.5
l-21 -295h-22l47 674h35z" />
    <glyph glyph-name="Phi" unicode="&#x3a6;" horiz-adv-x="652" 
d="M335 700v-58q59 -2 109.5 -20t88 -55.5t58.5 -94.5t21 -135q0 -80 -21.5 -136.5t-59 -93t-88 -54t-108.5 -18.5v-61h-20v61q-57 1 -107 18t-87.5 53t-59 92t-21.5 136q0 82 23 139.5t61 94.5t88 54.5t103 19.5v58h20zM315 625q-49 -1 -94.5 -17.5t-80.5 -51.5t-56 -90
t-21 -132q0 -75 19.5 -127.5t53.5 -86.5t80 -50.5t99 -17.5v573zM335 52q54 1 100.5 17.5t80.5 51t53.5 88t19.5 128.5t-19 129t-53 89t-80.5 52t-101.5 18v-573z" />
    <glyph glyph-name="Upsilondieresis" unicode="&#x3ab;" horiz-adv-x="499" 
d="M17 680q42 -11 80.5 -41.5t70.5 -77.5t54.5 -108t31.5 -132h2q9 54 28 108t50 102t72.5 87t95.5 62l4 -19q-45 -22 -80 -54t-62 -70t-46 -82t-32 -90q-10 -36 -16.5 -72.5t-6.5 -71.5v-221h-21v221q0 34 -3.5 70.5t-12.5 73.5q-12 49 -31 96.5t-46 87.5t-61.5 69.5
t-75.5 42.5zM178 730q-10 0 -16 6.5t-6 16.5t6.5 16t15.5 6q22 0 22 -22q0 -10 -6 -16.5t-16 -6.5zM332 730q-10 0 -16 6.5t-6 16.5t6.5 16t15.5 6q22 0 22 -22q0 -10 -6 -16.5t-16 -6.5z" />
    <glyph glyph-name="Psi" unicode="&#x3a8;" horiz-adv-x="618" 
d="M71 674v-216q0 -55 18.5 -94t50 -64.5t72.5 -37.5t86 -13v425h21v-425q50 1 92 16.5t72 45t47 71.5t17 98v194h21v-195q0 -58 -18 -103.5t-51 -77t-79 -49t-101 -18.5v-231h-21v231q-48 1 -93 14t-79.5 40t-55 69.5t-20.5 101.5v218h21z" />
    <glyph glyph-name="alphatonos" unicode="&#x3ac;" horiz-adv-x="506" 
d="M426 483q-2 -14 -4 -48t-3.5 -78.5t-3 -95t-1.5 -98.5q0 -54 2.5 -85t8 -47t13.5 -20t20 -4l-3 -16q-5 -2 -8 -2h-6q-10 0 -19 6.5t-15 23.5t-9 47.5t-2 78.5h-1q-10 -32 -25 -60t-36.5 -49t-48.5 -33t-61 -12q-44 0 -78.5 20t-57.5 53t-35 76t-12 90q0 56 14 104
t39.5 83.5t61 55.5t78.5 20q34 0 61 -12.5t47.5 -34t34 -49.5t21.5 -59h1q1 22 2 45t2 43t2 35t2 22h19zM236 476q-38 0 -69.5 -18.5t-54.5 -51.5t-36 -78t-13 -98q0 -43 11 -83t32 -71t51.5 -49.5t70.5 -18.5q42 0 73 21.5t52 56.5t31 78t10 87q0 39 -9 79t-28.5 72.5
t-49.5 53t-71 20.5zM308 684l-62 -142h-15l46 142h31z" />
    <glyph glyph-name="Nu" unicode="&#x39d;" horiz-adv-x="605" 
d="M109 674l221 -360q44 -71 85.5 -140t83.5 -138h2q-1 80 -1 158v159v321h21v-674h-23l-219 355q-45 72 -87 143t-86 143h-2q1 -80 1 -159v-161v-321h-21v674h25z" />
    <glyph glyph-name="Omicron" unicode="&#x39f;" horiz-adv-x="613" 
d="M587 344q0 -87 -23 -153.5t-62 -111t-90.5 -67.5t-109.5 -23q-59 0 -109.5 24.5t-87.5 69.5t-58 108t-21 140q0 80 22 145.5t60.5 112t90.5 71.5t112 25q62 0 113 -25t87 -70t56 -108t20 -138zM564 343q0 70 -18 129t-51.5 102.5t-80 68t-103.5 24.5t-105 -24.5t-83 -69
t-54.5 -106t-19.5 -136.5q0 -71 19 -130.5t52.5 -102.5t80 -67t102.5 -24q55 0 102.5 22.5t82.5 65.5t55.5 105.5t20.5 142.5z" />
    <glyph glyph-name="Rho" unicode="&#x3a1;" horiz-adv-x="472" 
d="M84 665q21 4 53 9t78 5q48 0 87 -10t67 -32t43.5 -57.5t15.5 -87.5q0 -45 -15.5 -82.5t-45 -64t-72.5 -41t-97 -14.5q-24 0 -47.5 1.5t-45.5 5.5v-297h-21v665zM105 315q22 -4 45.5 -5.5t46.5 -1.5q103 0 156.5 50.5t53.5 132.5q0 47 -14 79.5t-39 52.5t-60.5 29t-78.5 9
q-39 0 -66 -4t-44 -7v-335z" />
    <glyph glyph-name="Tau" unicode="&#x3a4;" horiz-adv-x="419" 
d="M424 655h-205v-655h-21v655h-203v19h429v-19z" />
    <glyph glyph-name="Upsilon" unicode="&#x3a5;" horiz-adv-x="499" 
d="M17 680q42 -11 80.5 -41.5t70.5 -77.5t54.5 -108t31.5 -132h2q9 54 28 108t50 102t72.5 87t95.5 62l4 -19q-45 -22 -80 -54t-62 -70t-46 -82t-32 -90q-10 -36 -16.5 -72.5t-6.5 -71.5v-221h-21v221q0 34 -3.5 70.5t-12.5 73.5q-12 49 -31 96.5t-46 87.5t-61.5 69.5
t-75.5 42.5z" />
    <glyph glyph-name="Chi" unicode="&#x3a7;" horiz-adv-x="507" 
d="M68 674l97 -164q22 -36 43 -72t44 -75h2q23 35 44.5 72.5t44.5 74.5l100 164h26l-201 -327l205 -347h-26l-110 186q-22 37 -42.5 72t-40.5 70h-2q-20 -35 -40.5 -70t-42.5 -72l-109 -186h-26l205 346l-197 328h26z" />
    <glyph glyph-name="Alphatonos" unicode="&#x386;" horiz-adv-x="551" 
d="M135 674l-37 -152h-15l21 152h31zM292 674l229 -674h-23l-81 239h-281l-81 -239h-22l229 674h30zM411 257q-19 56 -38 111t-37 112q-14 44 -29 87t-29 87h-2q-15 -43 -29 -87t-29 -87q-19 -56 -38 -111.5t-38 -111.5h269z" />
    <glyph glyph-name="Epsilontonos" unicode="&#x388;" horiz-adv-x="443" 
d="M52 674l-37 -152h-15l21 152h31zM377 346h-257v-327h287v-19h-308v674h293v-19h-272v-290h257v-19z" />
    <glyph glyph-name="afii00208" unicode="&#x2015;" horiz-adv-x="750" 
d="M720 266v-17h-690v17h690z" />
    <glyph glyph-name="Etatonos" unicode="&#x389;" horiz-adv-x="611" 
d="M52 674l-37 -152h-15l21 152h31zM121 674v-309h385v309h21v-674h-21v346h-385v-346h-21v674h21z" />
    <glyph glyph-name="Iotatonos" unicode="&#x38a;" horiz-adv-x="208" 
d="M52 674l-37 -152h-15l21 152h31zM121 674v-674h-21v674h21z" />
    <glyph glyph-name="Omicrontonos" unicode="&#x38c;" horiz-adv-x="623" 
d="M62 674l-37 -152h-15l21 152h31zM597 344q0 -87 -23 -153.5t-62 -111t-90.5 -67.5t-109.5 -23q-59 0 -109.5 24.5t-87.5 69.5t-58 108t-21 140q0 80 22 145.5t60.5 112t90.5 71.5t112 25q62 0 113 -25t87 -70t56 -108t20 -138zM574 343q0 70 -18 129t-51.5 102.5t-80 68
t-103.5 24.5t-105 -24.5t-83 -69t-54.5 -106t-19.5 -136.5q0 -71 19 -130.5t52.5 -102.5t80 -67t102.5 -24q55 0 102.5 22.5t82.5 65.5t55.5 105.5t20.5 142.5z" />
    <glyph glyph-name="Upsilontonos" unicode="&#x38e;" horiz-adv-x="585" 
d="M62 674l-37 -152h-15l21 152h31zM103 680q42 -11 80.5 -41.5t70.5 -77.5t54.5 -108t31.5 -132h2q9 54 28 108t50 102t72.5 87t95.5 62l4 -19q-45 -22 -80 -54t-62 -70t-46 -82t-32 -90q-10 -36 -16.5 -72.5t-6.5 -71.5v-221h-21v221q0 34 -3.5 70.5t-12.5 73.5
q-12 49 -31 96.5t-46 87.5t-61.5 69.5t-75.5 42.5z" />
    <glyph glyph-name="epsilontonos" unicode="&#x3ad;" horiz-adv-x="381" 
d="M280 251h-44q-44 0 -76.5 -10t-53.5 -26.5t-31.5 -39.5t-10.5 -48q0 -33 13.5 -56t34.5 -37.5t48 -21t54 -6.5q40 0 78 12t59 29l5 -16q-23 -19 -61.5 -30.5t-82.5 -11.5q-30 0 -60.5 7t-54.5 23.5t-39.5 42.5t-15.5 64q0 53 36 88.5t94 43.5v2q-53 12 -79 44t-26 69
q0 25 10 46.5t30 38t49.5 26t68.5 9.5q38 0 67.5 -9t47.5 -23l-7 -16q-19 15 -47 23t-60 8q-67 0 -102.5 -29.5t-35.5 -74.5q0 -21 9.5 -40t28 -33.5t46.5 -23t65 -8.5h43v-16zM278 684l-62 -142h-15l46 142h31z" />
    <glyph glyph-name="etatonos" unicode="&#x3ae;" horiz-adv-x="501" 
d="M83 357q0 34 -3 68t-12 58h21q3 -8 5.5 -21t4.5 -27t3 -27t1 -21h2q47 106 153 106q45 0 76.5 -15.5t51 -43.5t28.5 -68t9 -89v-295q0 -21 0.5 -46t1.5 -50t3 -47t5 -37h-20q-3 15 -5 36.5t-3.5 46t-2 49.5t-0.5 47v295q0 57 -11.5 95t-31 61.5t-46 33.5t-55.5 10
q-50 0 -87 -27.5t-57 -85.5q-3 -11 -5 -20t-3 -20t-1.5 -27t-0.5 -40v-256h-21v357zM319 684l-62 -142h-15l46 142h31z" />
    <glyph glyph-name="iotatonos" unicode="&#x3af;" horiz-adv-x="185" 
d="M101 104q0 -32 2 -51.5t6 -29.5t11 -13t17 -3l-2 -16q-5 -2 -8.5 -2h-7.5q-9 0 -16.5 4.5t-12.5 17.5t-7.5 35t-2.5 57v380h21v-379zM153 684l-62 -142h-15l46 142h31z" />
    <glyph glyph-name="omicrontonos" unicode="&#x3cc;" horiz-adv-x="483" 
d="M303 684l-62 -142h-15l46 142h31zM452 246q0 -68 -19 -116.5t-49.5 -80t-69 -46t-76.5 -14.5q-44 0 -82 17t-65.5 49.5t-43.5 78.5t-16 104q0 61 17 108.5t46 80t67.5 49.5t82.5 17q46 0 84.5 -18t66 -50t42.5 -78t15 -101zM430 246q0 50 -13 92t-37.5 73t-59 48
t-76.5 17q-41 0 -76 -16.5t-60.5 -47t-40 -75t-14.5 -99.5q0 -53 14.5 -96t39.5 -73t59.5 -46.5t75.5 -16.5q34 0 67.5 14.5t60.5 44t43.5 74.5t16.5 107z" />
    <glyph glyph-name="Omegatonos" unicode="&#x38f;" horiz-adv-x="652" 
d="M62 674l-37 -152h-15l21 152h31zM197 18v1q-28 23 -54.5 56t-47 74.5t-33 90t-12.5 102.5q0 78 21 141t57.5 108t86.5 69.5t108 24.5q61 0 110 -25t83.5 -69.5t53.5 -106t19 -134.5q0 -57 -12.5 -107t-32.5 -92t-47 -75.5t-55 -56.5v-1h161v-18h-185v16q28 23 55 56.5
t47.5 75.5t33 92t12.5 105q0 69 -17 128t-48.5 102t-76.5 67.5t-101 24.5q-55 0 -101 -23.5t-79 -67t-51.5 -104t-18.5 -134.5q0 -52 13 -100.5t34 -90t47.5 -75.5t53.5 -56v-16h-185v18h161z" />
    <glyph glyph-name="upsilontonos" unicode="&#x3cd;" horiz-adv-x="462" 
d="M84 483q7 -18 8.5 -53.5t1.5 -97.5v-113q0 -111 36.5 -161.5t101.5 -50.5q46 0 76.5 24.5t48.5 64t25.5 90t7.5 102.5q0 56 -9.5 106.5t-26.5 88.5h21q20 -43 28 -92t8 -102t-8 -106.5t-28 -96.5t-55 -70t-89 -27q-76 0 -117 56t-41 176v111q0 61 -2 96t-8 55h21z
M303 684l-62 -142h-15l46 142h31z" />
    <glyph glyph-name="alpha" unicode="&#x3b1;" horiz-adv-x="506" 
d="M426 483q-2 -14 -4 -48t-3.5 -78.5t-3 -95t-1.5 -98.5q0 -54 2.5 -85t8 -47t13.5 -20t20 -4l-3 -16q-5 -2 -8 -2h-6q-10 0 -19 6.5t-15 23.5t-9 47.5t-2 78.5h-1q-10 -32 -25 -60t-36.5 -49t-48.5 -33t-61 -12q-44 0 -78.5 20t-57.5 53t-35 76t-12 90q0 56 14 104
t39.5 83.5t61 55.5t78.5 20q34 0 61 -12.5t47.5 -34t34 -49.5t21.5 -59h1q1 22 2 45t2 43t2 35t2 22h19zM236 476q-38 0 -69.5 -18.5t-54.5 -51.5t-36 -78t-13 -98q0 -43 11 -83t32 -71t51.5 -49.5t70.5 -18.5q42 0 73 21.5t52 56.5t31 78t10 87q0 39 -9 79t-28.5 72.5
t-49.5 53t-71 20.5z" />
    <glyph glyph-name="beta" unicode="&#x3b2;" horiz-adv-x="503" 
d="M94 -198q-8 24 -11 69t-3 99v468q0 66 10 118t31.5 88.5t54 56t77.5 19.5q32 0 60 -12t48.5 -33t32 -49.5t11.5 -62.5q0 -35 -11 -63.5t-28.5 -50.5t-39.5 -36.5t-43 -21.5v-3q33 -5 65 -20t57.5 -40.5t41 -61t15.5 -80.5q0 -48 -15.5 -85t-40.5 -62t-57 -37.5t-65 -12.5
q-60 0 -105 15.5t-77 44.5h-1q0 -57 0.5 -97.5t2 -69t4 -47.5t7.5 -33h-20h-1zM201 395q38 0 71.5 11t58 32.5t39 52.5t14.5 71q0 30 -10 56t-27.5 44.5t-42 29.5t-52.5 11q-79 0 -115 -70t-36 -194v-367q31 -31 76 -48.5t105 -17.5q30 0 58.5 12t50.5 34.5t35.5 56
t13.5 76.5q0 50 -19 86.5t-51.5 60.5t-76 35.5t-92.5 11.5v16z" />
    <glyph glyph-name="psi" unicode="&#x3c8;" horiz-adv-x="585" 
d="M310 608v-602q55 1 94 25.5t63.5 65t35.5 91.5t11 104q0 67 -11.5 118t-25.5 73h21q14 -24 25 -73.5t11 -116.5q0 -55 -12 -108.5t-38.5 -96.5t-69 -70.5t-104.5 -28.5v-187h-20v187q-44 1 -83.5 14t-69.5 41.5t-48 75t-18 116.5v136q0 32 -1.5 62.5t-6.5 48.5h20
q6 -17 7 -45t1 -63v-131q0 -46 9 -87.5t32 -74t61 -53t97 -23.5v602h20z" />
    <glyph glyph-name="delta" unicode="&#x3b4;" horiz-adv-x="480" 
d="M394 662q-17 15 -49 28t-72 13q-28 0 -49 -7.5t-35 -19.5t-21 -27t-7 -29q0 -19 8 -35.5t24.5 -34t41.5 -38t60 -47.5q30 -23 56.5 -48.5t46 -55t30.5 -63t11 -72.5q0 -54 -16 -97.5t-43 -74.5t-63 -48t-77 -17q-39 0 -75 15.5t-63.5 46t-44 76t-16.5 105.5
q0 46 15.5 85.5t42 71.5t61.5 57t74 43q-15 12 -31.5 25.5t-30.5 29.5t-23 34.5t-9 41.5q0 16 8 34t24.5 32.5t41.5 24t59 9.5q43 0 76 -13.5t51 -30.5zM248 478q-37 -18 -70.5 -42t-59 -54.5t-40.5 -67.5t-15 -82q0 -56 14.5 -98t39 -70.5t57 -43t67.5 -14.5q36 0 68 15
t56 43.5t38 68t14 89.5q0 45 -14.5 81t-38 67t-54 57.5t-62.5 50.5z" />
    <glyph glyph-name="epsilon" unicode="&#x3b5;" horiz-adv-x="381" 
d="M280 251h-44q-44 0 -76.5 -10t-53.5 -26.5t-31.5 -39.5t-10.5 -48q0 -33 13.5 -56t34.5 -37.5t48 -21t54 -6.5q40 0 78 12t59 29l5 -16q-23 -19 -61.5 -30.5t-82.5 -11.5q-30 0 -60.5 7t-54.5 23.5t-39.5 42.5t-15.5 64q0 53 36 88.5t94 43.5v2q-53 12 -79 44t-26 69
q0 25 10 46.5t30 38t49.5 26t68.5 9.5q38 0 67.5 -9t47.5 -23l-7 -16q-19 15 -47 23t-60 8q-67 0 -102.5 -29.5t-35.5 -74.5q0 -21 9.5 -40t28 -33.5t46.5 -23t65 -8.5h43v-16z" />
    <glyph glyph-name="phi" unicode="&#x3c6;" horiz-adv-x="575" 
d="M200 480q-21 -11 -45 -31t-44.5 -49t-34 -68t-13.5 -88q0 -58 18 -102t48 -73t69 -44.5t81 -16.5v332q0 84 24.5 119t65.5 35q30 0 59.5 -16.5t53 -47t38 -75t14.5 -100.5q0 -63 -19.5 -111t-52.5 -81.5t-75.5 -51.5t-87.5 -20v-189h-20v189q-44 1 -86.5 16.5t-76.5 46.5
t-54.5 78.5t-20.5 111.5q0 52 15.5 93.5t38 72.5t49 52t48.5 32zM299 8q42 2 81 19t68 48.5t46.5 76.5t17.5 103q0 52 -12.5 93t-33 69.5t-46 44t-51.5 15.5q-32 0 -51 -30t-19 -104v-335z" />
    <glyph glyph-name="gamma" unicode="&#x3b3;" horiz-adv-x="398" 
d="M176 -198q1 55 1.5 109.5t-8.5 113.5q-9 61 -27 121.5t-41.5 118.5t-52 113t-58.5 105h24q28 -44 55 -97t50.5 -110t40.5 -116.5t26 -116.5h2q30 49 58.5 102t50 106t35 104t13.5 96v17t-1 15h20q2 -6 2 -14.5v-17.5q0 -47 -14 -100t-37.5 -108t-53.5 -109.5t-61 -103.5
q-5 -8 -6.5 -13.5t-0.5 -12.5q5 -50 5 -99.5t-2 -102.5h-20z" />
    <glyph glyph-name="eta" unicode="&#x3b7;" horiz-adv-x="501" 
d="M83 357q0 34 -3 68t-12 58h21q3 -8 5.5 -21t4.5 -27t3 -27t1 -21h2q47 106 153 106q45 0 76.5 -15.5t51 -43.5t28.5 -68t9 -89v-295q0 -21 0.5 -46t1.5 -50t3 -47t5 -37h-20q-3 15 -5 36.5t-3.5 46t-2 49.5t-0.5 47v295q0 57 -11.5 95t-31 61.5t-46 33.5t-55.5 10
q-50 0 -87 -27.5t-57 -85.5q-3 -11 -5 -20t-3 -20t-1.5 -27t-0.5 -40v-256h-21v357z" />
    <glyph glyph-name="iota" unicode="&#x3b9;" horiz-adv-x="185" 
d="M101 104q0 -32 2 -51.5t6 -29.5t11 -13t17 -3l-2 -16q-5 -2 -8.5 -2h-7.5q-9 0 -16.5 4.5t-12.5 17.5t-7.5 35t-2.5 57v380h21v-379z" />
    <glyph glyph-name="xi" unicode="&#x3be;" horiz-adv-x="367" 
d="M339 683q-25 20 -79 20q-37 0 -65.5 -12t-48 -32.5t-29.5 -47t-10 -54.5q0 -68 49 -105t141 -37v-17h-28q-47 0 -85 -16t-65 -42.5t-41.5 -61.5t-14.5 -72q0 -65 26 -104.5t67 -61.5t91 -30t99 -10q7 0 8 -4t1 -11q0 -34 -13.5 -67.5t-33.5 -51.5l-15 5q9 7 16.5 20
t13 28t8.5 31.5t3 32.5q-50 1 -101.5 9.5t-94.5 32.5t-70 67.5t-27 112.5q0 36 11.5 68.5t33.5 59.5t52.5 46.5t69.5 28.5v1q-34 9 -57.5 24t-38 34.5t-21 42t-6.5 47.5q0 32 11.5 61.5t33.5 52t55 36t75 13.5q29 0 50 -6t35 -15z" />
    <glyph glyph-name="kappa" unicode="&#x3ba;" horiz-adv-x="435" 
d="M83 0v380q0 15 -0.5 30.5t-2 29.5t-3.5 25.5t-5 17.5h21q6 -14 8.5 -42.5t2.5 -57.5v-125h27q65 58 125 113.5t122 111.5h26v-2q-61 -56 -123 -112t-127 -113v-1q33 -5 65.5 -28.5t65 -58.5t66 -79t69.5 -89h-26q-41 51 -74.5 95t-65.5 76.5t-64 51t-68 18.5h-18v-241
h-21z" />
    <glyph glyph-name="lambda" unicode="&#x3bb;" horiz-adv-x="415" 
d="M70 720q27 0 45 -14.5t33.5 -44t31 -74t38.5 -105.5l177 -482h-24l-104 288q-14 39 -29 78t-29 81q-15 -36 -31.5 -78.5t-30.5 -80.5l-110 -288h-24l175 450q9 23 2 41q-19 52 -32.5 92t-26.5 66.5t-28.5 40t-37.5 13.5q-4 0 -12 -1t-12 -3l3 17z" />
    <glyph glyph-name="nu" unicode="&#x3bd;" horiz-adv-x="423" 
d="M40 483l98 -279q15 -42 31 -89t31 -88q30 51 60 104.5t54.5 107.5t40 106.5t15.5 101.5q0 19 -3 36h21q3 -15 3 -35q0 -50 -16.5 -105t-43 -112.5t-59.5 -116t-66 -114.5h-17l-173 483h24z" />
    <glyph glyph-name="omicron" unicode="&#x3bf;" horiz-adv-x="483" 
d="M452 246q0 -68 -19 -116.5t-49.5 -80t-69 -46t-76.5 -14.5q-44 0 -82 17t-65.5 49.5t-43.5 78.5t-16 104q0 61 17 108.5t46 80t67.5 49.5t82.5 17q46 0 84.5 -18t66 -50t42.5 -78t15 -101zM430 246q0 50 -13 92t-37.5 73t-59 48t-76.5 17q-41 0 -76 -16.5t-60.5 -47
t-40 -75t-14.5 -99.5q0 -53 14.5 -96t39.5 -73t59.5 -46.5t75.5 -16.5q34 0 67.5 14.5t60.5 44t43.5 74.5t16.5 107z" />
    <glyph glyph-name="pi" unicode="&#x3c0;" horiz-adv-x="499" 
d="M387 465v-314q0 -67 5 -103t11 -48h-21q-7 13 -11.5 48t-4.5 102v315h-214q-2 -55 -7.5 -120t-15 -129t-21.5 -121t-25 -95h-21q13 39 25 96t21.5 121t15 129t7.5 119q-42 -2 -67 -7.5t-39 -13.5l-4 15q17 11 46 17.5t86 6.5h310l-3 -18h-73z" />
    <glyph glyph-name="omegatonos" unicode="&#x3ce;" horiz-adv-x="633" 
d="M325 177q0 -48 10.5 -80.5t26.5 -52.5t36 -29t38 -9q25 0 48.5 14t42 44t30 76t11.5 110q0 83 -25 142.5t-59 88.5v2h24q32 -29 57 -88t25 -145q0 -69 -13 -118t-34.5 -81t-48.5 -47t-55 -15q-41 0 -76.5 28.5t-46.5 92.5h-2q-11 -64 -45.5 -92.5t-76.5 -28.5
q-26 0 -52.5 13t-48 43t-35 78.5t-13.5 118.5q0 41 7 78t19 68t27 55t31 40h23v-2q-15 -16 -30.5 -40t-27.5 -55t-19.5 -67.5t-7.5 -76.5q0 -65 12 -110t31.5 -73t42.5 -40.5t46 -12.5q19 0 38.5 8.5t35 28.5t25 53t9.5 81v175h20v-175zM375 684l-62 -142h-15l46 142h31z
" />
    <glyph glyph-name="rho" unicode="&#x3c1;" horiz-adv-x="502" 
d="M86 -198q-8 23 -9.5 69.5t-1.5 104.5v246q0 76 16.5 127.5t44.5 83.5t64 46t75 14q43 0 77.5 -17.5t58.5 -49t37 -77t13 -100.5q0 -65 -16.5 -114t-44 -81.5t-63.5 -48.5t-75 -16q-50 0 -95.5 24t-69.5 71h-1v-107q0 -55 2 -103t10 -72h-22zM96 157q0 -35 15.5 -63
t39.5 -47.5t52.5 -30t55.5 -10.5q37 0 69.5 15.5t57 46t39 76t14.5 105.5q0 51 -11.5 93t-33 71.5t-52 46t-68.5 16.5q-35 0 -67 -13t-56.5 -42.5t-39.5 -77.5t-15 -118v-68z" />
    <glyph glyph-name="sigma" unicode="&#x3c3;" horiz-adv-x="490" 
d="M240 477q-45 0 -78.5 -20.5t-55.5 -54t-32.5 -76t-10.5 -86.5q0 -50 13.5 -92.5t37 -74t55.5 -49.5t70 -18q37 0 69 18t56 49.5t37.5 75.5t13.5 97q0 38 -10 79t-31 74.5t-54.5 55.5t-79.5 22zM471 476l-163 2v-1q33 -14 57.5 -39.5t40.5 -57t23.5 -66.5t7.5 -68
q0 -58 -16 -105.5t-43 -81t-63 -52t-76 -18.5q-42 0 -78 19t-63 52.5t-42 79.5t-15 100q0 48 12.5 94t38 81.5t63 57t87.5 21.5h116h113v-18z" />
    <glyph glyph-name="tau" unicode="&#x3c4;" horiz-adv-x="337" 
d="M176 116q0 -65 12.5 -87.5t37.5 -22.5q11 0 23 3l-2 -14q-7 -4 -13.5 -5t-14.5 -1q-15 0 -27 5t-20.5 19.5t-12.5 41t-4 68.5v343h-41q-51 0 -78 -7t-38 -14l-5 14q11 8 39.5 16t84.5 8h220l-3 -17h-158v-350z" />
    <glyph glyph-name="theta" unicode="&#x3b8;" horiz-adv-x="468" 
d="M238 720q48 0 83.5 -25.5t59.5 -72.5t35.5 -113.5t11.5 -148.5q0 -86 -12 -155t-36 -117t-60 -73.5t-84 -25.5q-90 0 -143 91.5t-53 279.5q0 78 13 144t38.5 114t62.5 75t84 27zM406 375q-1 74 -11.5 134.5t-31.5 103.5t-52.5 66.5t-73.5 23.5q-41 0 -73 -24.5
t-54.5 -68.5t-34.5 -104t-13 -131h344zM62 358q0 -89 13 -155t36 -110t55 -65.5t70 -21.5q43 0 75 24.5t53 70t31.5 110.5t10.5 147h-344z" />
    <glyph glyph-name="omega" unicode="&#x3c9;" horiz-adv-x="633" 
d="M325 177q0 -48 10.5 -80.5t26.5 -52.5t36 -29t38 -9q25 0 48.5 14t42 44t30 76t11.5 110q0 83 -25 142.5t-59 88.5v2h24q32 -29 57 -88t25 -145q0 -69 -13 -118t-34.5 -81t-48.5 -47t-55 -15q-41 0 -76.5 28.5t-46.5 92.5h-2q-11 -64 -45.5 -92.5t-76.5 -28.5
q-26 0 -52.5 13t-48 43t-35 78.5t-13.5 118.5q0 41 7 78t19 68t27 55t31 40h23v-2q-15 -16 -30.5 -40t-27.5 -55t-19.5 -67.5t-7.5 -76.5q0 -65 12 -110t31.5 -73t42.5 -40.5t46 -12.5q19 0 38.5 8.5t35 28.5t25 53t9.5 81v175h20v-175z" />
    <glyph glyph-name="sigma1" unicode="&#x3c2;" horiz-adv-x="353" 
d="M329 463q-15 8 -33.5 12.5t-44.5 4.5q-42 0 -76.5 -20t-59 -53t-38.5 -76t-14 -89q0 -68 22 -111t58.5 -70t84 -41t98.5 -22q7 -1 8.5 -3.5t1.5 -10.5q0 -34 -14 -68t-34 -52l-15 5q9 7 17 20t13.5 28.5t8.5 32.5t3 32q-50 7 -99 21t-88 42.5t-63 75t-24 120.5
q0 50 15 96t43 81.5t67 57t86 21.5q28 0 48 -5t36 -12z" />
    <glyph glyph-name="chi" unicode="&#x3c7;" horiz-adv-x="405" 
d="M50 483l153 -307q20 34 39.5 73t39.5 77l79 157h23l-169 -325l178 -356l-22 -5l-168 341q-17 -32 -36 -70t-36 -73l-98 -198l-21 5l180 356l-165 325h23z" />
    <glyph glyph-name="upsilon" unicode="&#x3c5;" horiz-adv-x="462" 
d="M84 483q7 -18 8.5 -53.5t1.5 -97.5v-113q0 -111 36.5 -161.5t101.5 -50.5q46 0 76.5 24.5t48.5 64t25.5 90t7.5 102.5q0 56 -9.5 106.5t-26.5 88.5h21q20 -43 28 -92t8 -102t-8 -106.5t-28 -96.5t-55 -70t-89 -27q-76 0 -117 56t-41 176v111q0 61 -2 96t-8 55h21z" />
    <glyph glyph-name="zeta" unicode="&#x3b6;" horiz-adv-x="352" 
d="M108 713q18 -3 44.5 -3.5t49.5 -0.5h145l3 -16q-59 -35 -111 -85.5t-91 -109.5t-62 -123.5t-23 -126.5q0 -68 20 -110.5t55 -68.5t82.5 -39t103.5 -22q11 -1 11 -13q0 -16 -4 -33.5t-10 -34t-13.5 -30.5t-15.5 -23l-16 5q14 18 26 49.5t13 62.5q-56 9 -106 23.5
t-87.5 42.5t-59 73t-21.5 116q0 61 21.5 124t58.5 122.5t87.5 110.5t109.5 88v1h-122q-24 0 -48.5 0.5t-41.5 5.5z" />
    <glyph glyph-name="iotadieresis" unicode="&#x3ca;" horiz-adv-x="185" 
d="M101 104q0 -32 2 -51.5t6 -29.5t11 -13t17 -3l-2 -16q-5 -2 -8.5 -2h-7.5q-9 0 -16.5 4.5t-12.5 17.5t-7.5 35t-2.5 57v380h21v-379zM15 584q-10 0 -16 7t-6 16q0 10 6.5 16.5t15.5 6.5q22 0 22 -23q0 -9 -6 -16t-16 -7zM168 584q-10 0 -16 7t-6 16q0 10 6.5 16.5
t15.5 6.5q22 0 22 -23q0 -9 -6 -16t-16 -7z" />
    <glyph glyph-name="upsilondieresis" unicode="&#x3cb;" horiz-adv-x="462" 
d="M84 483q7 -18 8.5 -53.5t1.5 -97.5v-113q0 -111 36.5 -161.5t101.5 -50.5q46 0 76.5 24.5t48.5 64t25.5 90t7.5 102.5q0 56 -9.5 106.5t-26.5 88.5h21q20 -43 28 -92t8 -102t-8 -106.5t-28 -96.5t-55 -70t-89 -27q-76 0 -117 56t-41 176v111q0 61 -2 96t-8 55h21z
M155 584q-10 0 -16 7t-6 16q0 10 6.5 16.5t15.5 6.5q22 0 22 -23q0 -9 -6 -16t-16 -7zM308 584q-10 0 -16 7t-6 16q0 10 6.5 16.5t15.5 6.5q22 0 22 -23q0 -9 -6 -16t-16 -7z" />
    <glyph glyph-name="iotadieresistonos" unicode="&#x390;" horiz-adv-x="185" 
d="M101 104q0 -32 2 -51.5t6 -29.5t11 -13t17 -3l-2 -16q-5 -2 -8.5 -2h-7.5q-9 0 -16.5 4.5t-12.5 17.5t-7.5 35t-2.5 57v380h21v-379zM-6 608q0 9 6 15t14 6t14 -6t6 -15q0 -8 -6 -14t-14 -6t-14 6t-6 14zM159 608q0 9 6 15t14 6t14 -6t6 -15q0 -8 -6 -14t-14 -6t-14 6
t-6 14zM132 679l-46 -127h-17l34 127h29z" />
    <glyph glyph-name="upsilondieresistonos" unicode="&#x3b0;" horiz-adv-x="462" 
d="M84 483q7 -18 8.5 -53.5t1.5 -97.5v-113q0 -111 36.5 -161.5t101.5 -50.5q46 0 76.5 24.5t48.5 64t25.5 90t7.5 102.5q0 56 -9.5 106.5t-26.5 88.5h21q20 -43 28 -92t8 -102t-8 -106.5t-28 -96.5t-55 -70t-89 -27q-76 0 -117 56t-41 176v111q0 61 -2 96t-8 55h21z
M137 608q0 9 6 15t14 6t14 -6t6 -15q0 -8 -6 -14t-14 -6t-14 6t-6 14zM302 608q0 9 6 15t14 6t14 -6t6 -15q0 -8 -6 -14t-14 -6t-14 6t-6 14zM275 679l-46 -127h-17l34 127h29z" />
    <glyph glyph-name="Gbreve" unicode="&#x11e;" horiz-adv-x="576" 
d="M516 30q-23 -11 -68 -24t-103 -13q-72 0 -128.5 24t-96.5 68t-61 107t-21 141q0 74 22.5 138t65 110.5t103 73t135.5 26.5q45 0 79.5 -10t50.5 -19l-6 -18q-17 10 -50 19.5t-74 9.5q-70 0 -126 -25t-95.5 -69t-60.5 -104t-21 -131q0 -75 19.5 -134.5t56.5 -101.5
t90 -64.5t119 -22.5q49 0 88.5 11t61.5 21v256h-142v17h162v-286zM241 818q1 -38 21 -61.5t68 -23.5q41 0 64.5 20t24.5 65h16q-1 -53 -29 -78t-76 -25q-56 0 -80 29.5t-25 73.5h16z" />
    <glyph glyph-name="gbreve" unicode="&#x11f;" horiz-adv-x="500" 
d="M429 483q-2 -27 -3 -62.5t-1 -76.5v-274q0 -63 -11.5 -114.5t-36.5 -88t-65 -56t-97 -19.5q-37 0 -74.5 10t-61.5 30l10 15q22 -18 57 -28t69 -10q50 0 85.5 17.5t58.5 50.5t34 80.5t11 106.5v26h-2q-29 -48 -75 -68.5t-94 -20.5q-41 0 -77 16.5t-62.5 48t-42 78
t-15.5 106.5q0 55 15.5 100t42.5 77t64 49t80 17q27 0 52.5 -8.5t47.5 -23t39 -34t27 -41.5h2l4 97h19zM404 322q0 23 -12.5 50t-34.5 50t-52 38.5t-64 15.5q-41 0 -74.5 -16t-57.5 -46t-37.5 -71.5t-13.5 -92.5q0 -56 14 -99t38 -72.5t56.5 -45t70.5 -15.5q32 0 62 10.5
t53.5 29.5t37.5 46.5t14 60.5v157zM167 667q1 -38 20 -66.5t63 -28.5q38 0 60 25t23 70h17q-1 -54 -28 -84t-72 -30q-26 0 -45 9.5t-31 25.5t-18 36.5t-6 42.5h17z" />
    <glyph glyph-name="Scedilla" unicode="&#x15e;" horiz-adv-x="425" 
d="M341 636q-14 11 -42 20.5t-63 9.5q-36 0 -65.5 -11t-50.5 -31t-32.5 -47t-11.5 -60q0 -32 12 -56t32.5 -42.5t47 -33t55.5 -28.5q30 -14 57.5 -31t49 -38.5t34 -49t12.5 -63.5q0 -33 -9.5 -62.5t-28 -53t-46 -40.5t-63.5 -24l-35 -59q29 -2 51.5 -18t22.5 -47
q0 -17 -6.5 -29t-17 -19.5t-23.5 -11t-26 -3.5q-18 0 -33.5 5t-25.5 13l6 16q20 -17 53 -17q19 0 36.5 10t17.5 36q0 15 -7 25t-18 16t-25 9t-29 3l39 68q-8 -1 -16 -1.5t-16 -0.5q-38 0 -75 11.5t-60 28.5l7 20q20 -18 57 -29.5t72 -11.5q43 0 76 13t55.5 35.5t33.5 52.5
t11 64q0 33 -12 58t-32 45t-46.5 35t-55.5 29q-30 14 -57.5 29.5t-48.5 35.5t-34 46.5t-13 62.5q0 38 13 69t37 53.5t57 34.5t74 12q38 0 67.5 -9.5t45.5 -20.5z" />
    <glyph glyph-name="scedilla" unicode="&#x15f;" horiz-adv-x="331" 
d="M290 124q0 -52 -29.5 -87t-82.5 -44l-34 -57q29 -2 51.5 -18t22.5 -47q0 -17 -6.5 -29t-17 -19.5t-23.5 -11t-26 -3.5q-18 0 -33.5 5t-25.5 13l6 16q20 -17 53 -17q19 0 36.5 10t17.5 36q0 15 -7 25t-18 16t-25 9t-29 3l39 67q-5 -1 -15 -1q-29 0 -55.5 7.5t-46.5 22.5
l8 16q17 -14 43 -21.5t51 -7.5q58 0 91.5 32.5t33.5 83.5q0 24 -6 41t-18.5 31t-31.5 26t-45 24q-53 24 -83 53t-30 77q0 57 35 87.5t95 30.5q28 0 50 -6.5t37 -17.5l-7 -16q-13 10 -33 16.5t-49 6.5q-22 0 -41.5 -5.5t-34 -17.5t-23 -31t-8.5 -45q0 -43 27 -67.5t75 -47.5
q28 -14 49 -26.5t35 -28.5t21 -36t7 -47z" />
    <glyph glyph-name="Abreve" unicode="&#x102;" horiz-adv-x="551" 
d="M292 674l229 -674h-23l-81 239h-281l-81 -239h-22l229 674h30zM411 257q-19 56 -38 111t-37 112q-14 44 -29 87t-29 87h-2q-15 -43 -29 -87t-29 -87q-19 -56 -38 -111.5t-38 -111.5h269zM188 818q1 -38 21 -61.5t68 -23.5q41 0 64.5 20t24.5 65h16q-1 -53 -29 -78
t-76 -25q-56 0 -80 29.5t-25 73.5h16z" />
    <glyph glyph-name="abreve" unicode="&#x103;" horiz-adv-x="417" 
d="M331 0q-2 17 -3 39t-1 45h-3q-23 -38 -61 -66.5t-95 -28.5q-32 0 -57.5 10t-43.5 27.5t-28 40.5t-10 50q0 40 20 71t58.5 52.5t93 33t123.5 11.5v13q0 31 -5 63t-19.5 57.5t-39.5 41.5t-65 16q-29 0 -61.5 -9.5t-55.5 -27.5l-7 17q23 17 58.5 27t66.5 10q46 0 74.5 -17
t45 -45t22.5 -63.5t6 -71.5v-127q0 -20 0.5 -46.5t1.5 -51.5t2 -44.5t3 -26.5h-20zM324 268q-62 0 -112.5 -9.5t-86 -28.5t-55 -46.5t-19.5 -64.5q0 -27 9.5 -48t25.5 -35.5t38 -22t46 -7.5q42 0 75.5 20.5t59.5 57.5q13 18 16 39.5t3 53.5v91zM123 667q1 -38 20 -66.5
t63 -28.5q38 0 60 25t23 70h17q-1 -54 -28 -84t-72 -30q-26 0 -45 9.5t-31 25.5t-18 36.5t-6 42.5h17z" />
    <glyph glyph-name="Itilde" unicode="&#x128;" horiz-adv-x="195" 
d="M108 674v-674h-21v674h21zM-7 718q-1 36 13 57.5t40 21.5q18 0 32.5 -9t27 -20t24.5 -20t25 -9q14 0 22 11.5t10 49.5h16q-2 -46 -14.5 -62.5t-33.5 -16.5q-17 0 -30.5 9t-25.5 20t-24.5 20t-28.5 9q-18 0 -28 -16t-9 -45h-16z" />
    <glyph glyph-name="itilde" unicode="&#x129;" horiz-adv-x="181" 
d="M101 0h-21v483h21v-483zM-14 568q-1 36 13 57.5t40 21.5q18 0 32.5 -9t27 -20t24.5 -20t25 -9q14 0 22 11.5t10 49.5h16q-2 -46 -14.5 -62.5t-33.5 -16.5q-17 0 -30.5 9t-25.5 20t-24.5 20t-28.5 9q-18 0 -28 -16t-9 -45h-16z" />
    <glyph glyph-name="Utilde" unicode="&#x168;" horiz-adv-x="591" 
d="M191 718q-1 36 13 57.5t40 21.5q18 0 32.5 -9t27 -20t24.5 -20t25 -9q14 0 22 11.5t10 49.5h16q-2 -46 -14.5 -62.5t-33.5 -16.5q-17 0 -30.5 9t-25.5 20t-24.5 20t-28.5 9q-18 0 -28 -16t-9 -45h-16zM105 674v-403q0 -71 14.5 -121t39.5 -81.5t58.5 -46t71.5 -14.5
q41 0 77 15t62.5 47.5t42 83t15.5 121.5v399h21v-399q0 -76 -17 -130t-47 -88.5t-69.5 -51t-84.5 -16.5q-42 0 -79.5 15.5t-65 49t-44 87t-16.5 129.5v404h21z" />
    <glyph glyph-name="utilde" unicode="&#x169;" horiz-adv-x="494" 
d="M147 568q-1 36 13 57.5t40 21.5q18 0 32.5 -9t27 -20t24.5 -20t25 -9q14 0 22 11.5t10 49.5h16q-2 -46 -14.5 -62.5t-33.5 -16.5q-17 0 -30.5 9t-25.5 20t-24.5 20t-28.5 9q-18 0 -28 -16t-9 -45h-16zM76 483h21v-276q0 -57 11 -95t30 -61.5t44 -33.5t54 -10
q30 0 55 11.5t43.5 29t31 39t18.5 42.5t7.5 37.5t1.5 49.5v267h21v-312q0 -20 0.5 -44t1 -47t1 -44t1.5 -36h-19l-4 103h-2q-25 -52 -63.5 -82.5t-95.5 -30.5q-42 0 -72 15.5t-49 43.5t-28 68t-9 89v277z" />
    <glyph glyph-name="Ohorn" unicode="&#x1a0;" horiz-adv-x="613" 
d="M476 619q47 -45 73 -115.5t26 -159.5q0 -87 -21.5 -153.5t-59 -111t-87 -67.5t-105.5 -23q-57 0 -105.5 24.5t-83.5 69.5t-55 108t-20 140q0 80 21 145.5t57.5 112t86.5 71.5t108 25q35 0 66.5 -9t59.5 -26q34 -16 64 -16q20 0 32.5 5t19.5 13t9.5 16.5t2.5 16.5
q0 13 -5 28.5t-14 29.5l18 4q8 -14 14.5 -30.5t6.5 -31.5q0 -38 -30.5 -56t-78.5 -8v-2zM552 343q0 70 -17 129t-48.5 102.5t-76 68t-99.5 24.5q-54 0 -100 -24.5t-79.5 -69t-52 -106t-18.5 -136.5q0 -71 18 -130.5t50 -102.5t76.5 -67t97.5 -24q52 0 97.5 22.5t79.5 65.5
t53 105.5t19 142.5z" />
    <glyph glyph-name="ohorn" unicode="&#x1a1;" horiz-adv-x="483" 
d="M442 246q0 -68 -18 -116.5t-47.5 -80t-66 -46t-72.5 -14.5q-42 0 -78 17t-62.5 49.5t-41.5 78.5t-15 104q0 61 16 108.5t44 80t64.5 49.5t78.5 17q22 0 41.5 -4.5t33.5 -11.5q11 -5 25.5 -12t32.5 -7q20 0 32.5 5t19.5 13t9.5 16.5t2.5 16.5q0 13 -5 28.5t-14 29.5l18 4
q8 -14 14.5 -30.5t6.5 -31.5q0 -33 -22 -50.5t-69 -14.5v-2q34 -33 53 -83t19 -113zM420 246q0 50 -12.5 92t-35.5 73t-55.5 48t-72.5 17q-39 0 -72 -16.5t-57 -47t-38 -75t-14 -99.5q0 -53 13.5 -96t37.5 -73t57 -46.5t71 -16.5q32 0 63.5 14.5t57 44t41.5 74.5t16 107z
" />
    <glyph glyph-name="Uhorn" unicode="&#x1af;" horiz-adv-x="591" 
d="M507 275q0 -76 -17 -130t-47 -88.5t-69.5 -51t-84.5 -16.5q-42 0 -79.5 15.5t-65 49t-44 87t-16.5 129.5v404h21v-403q0 -71 14.5 -121t39.5 -81.5t58.5 -46t71.5 -14.5q41 0 77 15t62.5 47.5t42 83t15.5 121.5v399h23q23 0 37 5t21.5 13t9.5 16.5t2 16.5q0 13 -5 28.5
t-14 29.5l18 4q8 -14 14.5 -30.5t6.5 -31.5q0 -33 -21 -50t-71 -17v-383z" />
    <glyph glyph-name="uhorn" unicode="&#x1b0;" horiz-adv-x="494" 
d="M76 483h21v-276q0 -57 11 -95t30 -61.5t44 -33.5t54 -10q30 0 55 11.5t43.5 29t31 39t18.5 42.5t7.5 37.5t1.5 49.5v267h23q23 0 37 5t21.5 13t9.5 16.5t2 16.5q0 13 -5 28.5t-14 29.5l18 4q8 -14 14.5 -30.5t6.5 -31.5q0 -33 -21 -50t-71 -17v-296q0 -20 0.5 -44t1 -47
t1 -44t1.5 -36h-19l-4 103h-2q-25 -52 -63.5 -82.5t-95.5 -30.5q-42 0 -72 15.5t-49 43.5t-28 68t-9 89v277z" />
    <glyph glyph-name="uni03BC" unicode="&#x3bc;" horiz-adv-x="500" 
d="M101 483v-355q0 -23 11.5 -45t31 -38.5t44 -26.5t50.5 -10q33 0 62 13t50 31.5t33 38t12 32.5v360h21v-377q0 -34 1.5 -54t6 -30t12 -12.5t18.5 -2.5l-3 -16q-8 -2 -11 -2q-11 0 -19 3.5t-13.5 13.5t-8.5 28.5t-3 48.5h-1q-10 -16 -25 -32t-35 -29.5t-44.5 -22
t-53.5 -8.5q-45 0 -83.5 23.5t-52.5 58.5v-94q0 -55 2.5 -103t10.5 -72l-20 -4q-8 23 -11 71t-3 107v505h21z" />
    <glyph glyph-name="Ygrave" unicode="&#x1ef2;" horiz-adv-x="466" 
d="M171 825l99 -115h-17l-123 115h41zM458 674l-214 -369v-305h-21v305l-210 369h25l107 -189q23 -41 44.5 -81t43.5 -80h2q20 41 43.5 80t46.5 81l108 189h25z" />
    <glyph glyph-name="ygrave" unicode="&#x1ef3;" horiz-adv-x="405" 
d="M393 483l-124 -347q-21 -60 -38.5 -106.5t-34.5 -82.5t-34.5 -63t-38.5 -47q-31 -29 -55.5 -41.5t-38.5 -15.5l-7 18q67 22 107 76t68 126q2 8 2.5 12t-2.5 12l-184 459h24l134 -337q11 -27 21 -54.5t20 -54.5h1l156 446h24zM139 686l93 -136h-16l-113 136h36z" />
    <glyph glyph-name="dong" unicode="&#x20ab;" horiz-adv-x="444" 
d="M217 562v15h201v-15h-201zM387 78v-16h-323v16h323zM345 162l-3 67h-2q-18 -42 -52 -58t-68 -16q-68 0 -108.5 47.5t-40.5 135.5q0 39 11 71t30.5 54.5t47 35t60.5 12.5q41 0 73 -18.5t46 -43.5h2v213h19v-402q0 -28 0.5 -53t2.5 -45h-18zM341 402q0 14 -8 30t-23.5 30
t-37.5 23t-50 9q-60 0 -95.5 -43t-35.5 -113q0 -79 35.5 -122.5t96.5 -43.5q23 0 44.5 9t38 24t26 35.5t9.5 43.5v118z" />
    <glyph glyph-name="uni2215" unicode="&#x2215;" horiz-adv-x="398" 
d="M0 -11l379 672h19l-379 -672h-19z" />
    <glyph glyph-name="uni2219" unicode="&#x2219;" horiz-adv-x="173" 
d="M86 230q-18 0 -29 13t-11 32t11.5 32t29.5 13t29 -13t11 -32q0 -20 -11.5 -32.5t-29.5 -12.5z" />
    <glyph glyph-name="afii61664" unicode="&#x200c;" horiz-adv-x="0" 
 />
    <glyph glyph-name="afii301" unicode="&#x200d;" horiz-adv-x="0" 
 />
    <glyph glyph-name="uni216C" unicode="&#x216c;" horiz-adv-x="403" 
d="M105 674v-655h280v-19h-301v674h21z" />
    <glyph glyph-name="uni216D" unicode="&#x216d;" horiz-adv-x="507" 
d="M492 17q-24 -8 -64 -17.5t-97 -9.5q-69 0 -126.5 22t-99 65t-64.5 106.5t-23 147.5q0 79 22.5 144t65 111.5t104.5 72t141 25.5q51 0 85 -9.5t56 -19.5l-6 -18q-21 9 -54 19t-81 10q-74 0 -131.5 -24t-97 -68t-60.5 -106t-21 -137q0 -79 21 -139t59.5 -101t92.5 -62
t119 -21q50 0 90 9t64 17z" />
    <glyph glyph-name="uni216E" unicode="&#x216e;" horiz-adv-x="601" 
d="M75 664q35 6 76 10.5t82 4.5q75 0 137 -19.5t107 -59.5t69.5 -101t24.5 -145q0 -178 -95.5 -269t-267.5 -91q-35 0 -69 1.5t-64 6.5v662zM96 17q24 -3 54.5 -4t59.5 -1q162 0 250 86t88 255q0 78 -22.5 136t-64 96.5t-99.5 57t-129 18.5q-37 0 -72 -3.5t-65 -8.5v-632z
" />
    <glyph glyph-name="uni216F" unicode="&#x216f;" horiz-adv-x="744" 
d="M147 674l119 -341q26 -74 49.5 -149.5t49.5 -155.5h2q27 75 54.5 150.5t56.5 153.5l125 342h34l43 -674h-22l-22 327q-5 81 -9 163t-9 162h-2q-29 -77 -56.5 -155t-56.5 -157l-125 -337h-25l-111 330q-27 80 -54.5 159t-55.5 160h-2q-6 -88 -11 -176.5t-11 -180.5
l-21 -295h-22l47 674h35z" />
    <glyph glyph-name="uni217C" unicode="&#x217c;" horiz-adv-x="181" 
d="M101 0h-21v709h21v-709z" />
    <glyph glyph-name="uni217D" unicode="&#x217d;" horiz-adv-x="384" 
d="M381 451q-14 8 -39 16.5t-63 8.5q-49 0 -88.5 -17.5t-68 -49.5t-44 -76t-15.5 -96q0 -53 15 -95.5t42 -72.5t65 -46t84 -16q38 0 68 9.5t46 18.5l5 -17q-16 -8 -46.5 -18t-74.5 -10q-51 0 -92.5 17t-71.5 49t-46 77.5t-16 102.5t17 104.5t48.5 81t75.5 52.5t97 19
q42 0 68 -8t42 -17z" />
    <glyph glyph-name="uni217E" unicode="&#x217e;" horiz-adv-x="501" 
d="M411 0l-4 94h-2q-13 -29 -32 -49t-41.5 -32.5t-46.5 -18t-46 -5.5q-45 0 -82 17t-64 50t-42 81.5t-15 110.5q0 55 15.5 100.5t42.5 77.5t64 49.5t80 17.5q57 0 100 -26t65 -62h2v304h21v-570q0 -41 1 -76.5t3 -62.5h-19zM405 342q0 20 -11.5 43.5t-33 43.5t-52 33.5
t-67.5 13.5q-41 0 -74.5 -16.5t-57.5 -46.5t-37.5 -72t-13.5 -93q0 -116 50.5 -179t134.5 -63q32 0 61 12.5t51.5 34t36 51t13.5 63.5v175z" />
    <glyph glyph-name="Ibreve" unicode="&#x12c;" horiz-adv-x="195" 
d="M108 674v-674h-21v674h21zM9 818q1 -38 21 -61.5t68 -23.5q41 0 64.5 20t24.5 65h16q-1 -53 -29 -78t-76 -25q-56 0 -80 29.5t-25 73.5h16z" />
    <glyph glyph-name="ibreve" unicode="&#x12d;" horiz-adv-x="181" 
d="M101 0h-21v483h21v-483zM8 667q1 -38 20 -66.5t63 -28.5q38 0 60 25t23 70h17q-1 -54 -28 -84t-72 -30q-26 0 -45 9.5t-31 25.5t-18 36.5t-6 42.5h17z" />
    <glyph glyph-name="IJ" unicode="&#x132;" horiz-adv-x="504" 
d="M108 674v-674h-21v674h21zM429 674v-457q0 -66 -11 -110t-29.5 -70t-44 -37t-54.5 -11q-24 0 -47 4.5t-38 10.5l5 17q15 -5 35.5 -9.5t43.5 -4.5q25 0 47 10t38 34.5t25 65t9 101.5v456h21z" />
    <glyph glyph-name="ij" unicode="&#x133;" horiz-adv-x="371" 
d="M112 622q0 -9 -6 -15t-15 -6t-15.5 6t-6.5 15t6.5 15t15.5 6t15 -6t6 -15zM101 0h-21v483h21v-483zM302 622q0 -9 -6 -15t-15 -6t-15.5 6t-6.5 15t6.5 15t15.5 6t15 -6t6 -15zM291 39q0 -42 -2.5 -74t-7.5 -55t-12.5 -39t-17.5 -28q-17 -20 -44.5 -34.5t-57.5 -16.5
l-3 18q29 3 52 15t37 30q8 10 14.5 24.5t11 36.5t7 53t2.5 75v439h21v-444z" />
    <glyph glyph-name="Jcircumflex" unicode="&#x134;" horiz-adv-x="309" 
d="M234 674v-457q0 -66 -11 -110t-29.5 -70t-44 -37t-54.5 -11q-24 0 -47 4.5t-38 10.5l5 17q15 -5 35.5 -9.5t43.5 -4.5q25 0 47 10t38 34.5t25 65t9 101.5v456h21zM239 821l92 -111h-20l-86 92h-2l-85 -92h-20l91 111h30z" />
    <glyph glyph-name="napostrophe" unicode="&#x149;" horiz-adv-x="496" 
d="M420 0h-21v276q0 57 -11 95t-30.5 61.5t-45 33.5t-53.5 10q-30 0 -55 -11.5t-44 -29t-31.5 -39t-18.5 -42.5t-7.5 -37.5t-1.5 -49.5v-267h-21v312q0 20 -0.5 43.5l-1 47t-1 44.5t-1.5 36h19l4 -103h2q25 52 64 82.5t96 30.5q42 0 72.5 -15.5t49.5 -43.5t28 -68t9 -89
v-277zM85 639q0 -36 -17.5 -63t-36.5 -41l-11 8q17 14 31.5 37t14.5 59q0 25 -10.5 41.5t-23.5 27.5l17 4q14 -12 25 -30.5t11 -42.5z" />
    <glyph glyph-name="Gcaron" unicode="&#x1e6;" horiz-adv-x="576" 
d="M516 30q-23 -11 -68 -24t-103 -13q-72 0 -128.5 24t-96.5 68t-61 107t-21 141q0 74 22.5 138t65 110.5t103 73t135.5 26.5q45 0 79.5 -10t50.5 -19l-6 -18q-17 10 -50 19.5t-74 9.5q-70 0 -126 -25t-95.5 -69t-60.5 -104t-21 -131q0 -75 19.5 -134.5t56.5 -101.5
t90 -64.5t119 -22.5q49 0 88.5 11t61.5 21v256h-142v17h162v-286zM331 710l-93 111h20l86 -92h2l85 92h20l-91 -111h-29z" />
    <glyph glyph-name="gcaron" unicode="&#x1e7;" horiz-adv-x="500" 
d="M454 483q-2 -27 -3 -62.5t-1 -76.5v-274q0 -63 -11.5 -114.5t-36.5 -88t-65 -56t-97 -19.5q-37 0 -74.5 10t-61.5 30l10 15q22 -18 57 -28t69 -10q50 0 85.5 17.5t58.5 50.5t34 80.5t11 106.5v26h-2q-29 -48 -75 -68.5t-94 -20.5q-41 0 -77 16.5t-62.5 48t-42 78
t-15.5 106.5q0 55 15.5 100t42.5 77t64 49t80 17q27 0 52.5 -8.5t47.5 -23t39 -34t27 -41.5h2l4 97h19zM429 322q0 23 -12.5 50t-34.5 50t-52 38.5t-64 15.5q-41 0 -74.5 -16t-57.5 -46t-37.5 -71.5t-13.5 -92.5q0 -56 14 -99t38 -72.5t56.5 -45t70.5 -15.5q32 0 62 10.5
t53.5 29.5t37.5 46.5t14 60.5v157zM257 550l-92 131h20l85 -112h2l84 112h19l-89 -131h-29z" />
    <glyph glyph-name="Aringacute" unicode="&#x1fa;" horiz-adv-x="551" 
d="M393 963l-131 -88h-21l100 88h52zM292 674l229 -674h-23l-81 239h-281l-81 -239h-22l229 674h30zM411 257q-19 56 -38 111t-37 112q-14 44 -29 87t-29 87h-2q-15 -43 -29 -87t-29 -87q-19 -56 -38 -111.5t-38 -111.5h269zM279 853q36 0 61 -21.5t25 -57.5t-26 -57.5
t-61 -21.5q-38 0 -63.5 21.5t-25.5 56.5q0 36 25 58t65 22zM279 837q-32 0 -51.5 -17t-19.5 -47q0 -29 20.5 -45.5t49.5 -16.5t48.5 16.5t19.5 46.5t-19 46.5t-48 16.5z" />
    <glyph glyph-name="aringacute" unicode="&#x1fb;" horiz-adv-x="417" 
d="M307 816l-110 -96h-19l92 96h37zM331 0q-2 17 -3 39t-1 45h-3q-23 -38 -61 -66.5t-95 -28.5q-32 0 -57.5 10t-43.5 27.5t-28 40.5t-10 50q0 40 20 71t58.5 52.5t93 33t123.5 11.5v13q0 31 -5 63t-19.5 57.5t-39.5 41.5t-65 16q-29 0 -61.5 -9.5t-55.5 -27.5l-7 17
q23 17 58.5 27t66.5 10q46 0 74.5 -17t45 -45t22.5 -63.5t6 -71.5v-127q0 -20 0.5 -46.5t1.5 -51.5t2 -44.5t3 -26.5h-20zM324 268q-62 0 -112.5 -9.5t-86 -28.5t-55 -46.5t-19.5 -64.5q0 -27 9.5 -48t25.5 -35.5t38 -22t46 -7.5q42 0 75.5 20.5t59.5 57.5q13 18 16 39.5
t3 53.5v91zM206 525q-38 0 -63 22.5t-25 58.5q0 38 23.5 61t65.5 23q36 0 60.5 -22.5t24.5 -60.5q0 -37 -25.5 -59.5t-60.5 -22.5zM206 541q29 0 48 18t19 48q0 31 -18.5 49t-47.5 18q-32 0 -51 -18.5t-19 -49.5q0 -29 19.5 -47t49.5 -18z" />
    <glyph glyph-name="AEacute" unicode="&#x1fc;" horiz-adv-x="705" 
d="M639 341h-245l47 -322h233v-19h-249q-12 80 -21.5 145.5t-17.5 120.5h-242l-124 -266h-21l315 674h334v-19h-299l43 -295h247v-19zM153 285h230l-54 373h-2zM503 825l-122 -115h-18l99 115h41z" />
    <glyph glyph-name="aeacute" unicode="&#x1fd;" horiz-adv-x="697" 
d="M323 260h-32q-115 0 -175 -37t-60 -109q0 -50 32 -78.5t80 -28.5q29 0 57 12.5t49.5 36.5t35 60.5t13.5 84.5v59zM635 276q1 5 1 7.5v7.5q0 40 -9 74t-27 59t-44.5 39t-61.5 14q-38 0 -66.5 -15t-47 -40.5t-28 -59t-9.5 -69.5v-17h292zM657 289q0 -10 -0.5 -16t-1.5 -13
h-312v-41q0 -59 15 -100t38.5 -66t53 -36t58.5 -11q41 0 72.5 10.5t48.5 20.5l5 -17q-20 -11 -53 -21t-73 -10q-28 0 -56 8.5t-51.5 26.5t-41 45t-24.5 64h-2q-18 -72 -64.5 -107.5t-102.5 -35.5q-60 0 -96 33t-36 90q0 80 66 121.5t192 41.5h31v23q0 51 -10.5 85
t-28.5 54.5t-41.5 29.5t-48.5 9q-32 0 -63.5 -11.5t-55.5 -31.5l-7 17h1q26 20 58 31.5t67 11.5q53 0 91.5 -29.5t49.5 -100.5h2q16 70 60.5 100t99.5 30q40 0 70 -16.5t50 -44t30 -65t10 -79.5zM452 686l-113 -136h-16l93 136h36z" />
    <glyph glyph-name="Oslashacute" unicode="&#x1fe;" horiz-adv-x="613" 
d="M498 595q37 -45 57 -109t20 -142q0 -87 -21.5 -153.5t-59 -111t-87 -67.5t-105.5 -23q-52 0 -96.5 20t-78.5 58l-65 -93l-14 10l67 96q-36 45 -56.5 109t-20.5 142q0 80 21 145.5t57.5 112t86.5 71.5t108 25q53 0 97 -20t78 -56l63 90l15 -10zM552 343q0 71 -17 130.5
t-49 103.5l-348 -493q32 -37 74 -57t91 -20q52 0 97.5 22.5t79.5 65.5t53 105.5t19 142.5zM61 331q0 -71 17 -130.5t49 -102.5l347 494q-31 36 -72 55.5t-91 19.5q-54 0 -100 -24.5t-79.5 -69t-52 -106t-18.5 -136.5zM433 825l-122 -115h-18l99 115h41z" />
    <glyph glyph-name="oslashacute" unicode="&#x1ff;" horiz-adv-x="483" 
d="M382 431q29 -33 44.5 -80t15.5 -105q0 -68 -18 -116.5t-47.5 -80t-66 -46t-72.5 -14.5q-73 0 -126 51l-46 -66l-13 11l47 68q-27 32 -43 78.5t-16 106.5q0 61 16 108.5t44 80t64.5 49.5t78.5 17q38 0 69.5 -13.5t56.5 -37.5l45 66l14 -9zM420 246q0 51 -13 94.5t-37 74.5
l-247 -358q48 -51 119 -51q32 0 63.5 14.5t57 44t41.5 74.5t16 107zM359 427q-22 23 -51 36t-64 13q-39 0 -72 -16.5t-57 -47t-38 -75t-14 -99.5q0 -53 13 -95.5t36 -72.5zM354 686l-113 -136h-16l93 136h36z" />
    <glyph glyph-name="afii57929" unicode="&#x2bc;" horiz-adv-x="149" 
d="M126 691q-8 -31 -17 -63t-18 -60.5t-18 -52.5t-18 -40l-15 -4q15 42 30 100t23 111z" />
    <glyph glyph-name="uni02EE" unicode="&#x2ee;" horiz-adv-x="269" 
d="M126 691q-8 -31 -17 -63t-18 -60.5t-18 -52.5t-18 -40l-15 -4q15 42 30 100t23 111zM246 691q-8 -31 -17 -63t-18 -60.5t-18 -52.5t-18 -40l-15 -4q15 42 30 100t23 111z" />
    <glyph glyph-name="Wgrave" unicode="&#x1e80;" horiz-adv-x="771" 
d="M763 674l-190 -674h-21l-91 363q-18 72 -35 139.5t-34 137.5h-2q-19 -69 -39 -138t-40 -139l-105 -363h-21l-170 674h23l86 -350q18 -73 36.5 -145.5t35.5 -144.5h2q18 68 37.5 137t39.5 139l107 364h21l92 -364q17 -69 33.5 -138t33.5 -138h2q20 72 40 144.5t40 146.5
l96 349h23zM321 825l99 -115h-17l-123 115h41z" />
    <glyph glyph-name="wgrave" unicode="&#x1e81;" horiz-adv-x="671" 
d="M271 686l93 -136h-16l-113 136h36zM652 483l-152 -483h-26l-78 258q-15 51 -29 101.5t-29 101.5h-2q-9 -24 -18 -52.5t-18.5 -57.5t-18.5 -57.5t-17 -53.5l-79 -240h-26l-137 483h23l80 -288q12 -45 23.5 -87t23.5 -86h2q17 52 33 104.5t33 104.5l84 252h26l77 -252
q16 -53 30 -104.5t30 -104.5h2q15 52 30.5 102t32.5 107l77 252h23z" />
    <glyph glyph-name="Wacute" unicode="&#x1e82;" horiz-adv-x="771" 
d="M763 674l-190 -674h-21l-91 363q-18 72 -35 139.5t-34 137.5h-2q-19 -69 -39 -138t-40 -139l-105 -363h-21l-170 674h23l86 -350q18 -73 36.5 -145.5t35.5 -144.5h2q18 68 37.5 137t39.5 139l107 364h21l92 -364q17 -69 33.5 -138t33.5 -138h2q20 72 40 144.5t40 146.5
l96 349h23zM504 825l-122 -115h-18l99 115h41z" />
    <glyph glyph-name="wacute" unicode="&#x1e83;" horiz-adv-x="671" 
d="M652 483l-152 -483h-26l-78 258q-15 51 -29 101.5t-29 101.5h-2q-9 -24 -18 -52.5t-18.5 -57.5t-18.5 -57.5t-17 -53.5l-79 -240h-26l-137 483h23l80 -288q12 -45 23.5 -87t23.5 -86h2q17 52 33 104.5t33 104.5l84 252h26l77 -252q16 -53 30 -104.5t30 -104.5h2
q15 52 30.5 102t32.5 107l77 252h23zM436 686l-113 -136h-16l93 136h36z" />
    <glyph glyph-name="Wdieresis" unicode="&#x1e84;" horiz-adv-x="771" 
d="M763 674l-190 -674h-21l-91 363q-18 72 -35 139.5t-34 137.5h-2q-19 -69 -39 -138t-40 -139l-105 -363h-21l-170 674h23l86 -350q18 -73 36.5 -145.5t35.5 -144.5h2q18 68 37.5 137t39.5 139l107 364h21l92 -364q17 -69 33.5 -138t33.5 -138h2q20 72 40 144.5t40 146.5
l96 349h23zM314 730q-10 0 -16 6.5t-6 16.5t6.5 16t15.5 6q22 0 22 -22q0 -10 -6 -16.5t-16 -6.5zM468 730q-10 0 -16 6.5t-6 16.5t6.5 16t15.5 6q22 0 22 -22q0 -10 -6 -16.5t-16 -6.5z" />
    <glyph glyph-name="wdieresis" unicode="&#x1e85;" horiz-adv-x="671" 
d="M259 584q-10 0 -16 7t-6 16q0 10 6.5 16.5t15.5 6.5q22 0 22 -23q0 -9 -6 -16t-16 -7zM412 584q-10 0 -16 7t-6 16q0 10 6.5 16.5t15.5 6.5q22 0 22 -23q0 -9 -6 -16t-16 -7zM652 483l-152 -483h-26l-78 258q-15 51 -29 101.5t-29 101.5h-2q-9 -24 -18 -52.5t-18.5 -57.5
t-18.5 -57.5t-17 -53.5l-79 -240h-26l-137 483h23l80 -288q12 -45 23.5 -87t23.5 -86h2q17 52 33 104.5t33 104.5l84 252h26l77 -252q16 -53 30 -104.5t30 -104.5h2q15 52 30.5 102t32.5 107l77 252h23z" />
    <glyph glyph-name="Ecircumflexmacron" horiz-adv-x="427" 
d="M362 346h-257v-327h287v-19h-308v674h293v-19h-272v-290h257v-19zM254 821l92 -111h-20l-86 92h-2l-85 -92h-20l91 111h30zM342 872v-18h-205v18h205z" />
    <glyph glyph-name="ecircumflexmacron" horiz-adv-x="451" 
d="M260 681l92 -131h-20l-85 112h-2l-84 -112h-19l89 131h29zM390 20q-20 -9 -54 -19.5t-88 -10.5q-101 0 -156.5 67t-55.5 193q0 48 14 92t40.5 77.5t64 53.5t84.5 20q54 0 88.5 -20.5t54 -51t27 -65.5t7.5 -63v-22t-2 -20h-356q0 -54 11.5 -98.5t34.5 -77t59 -50.5t86 -18
t83 9.5t54 19.5zM395 268q1 6 1 14v17q0 25 -7 56t-25 58t-48.5 45t-77.5 18q-39 0 -71 -16t-55 -44t-36.5 -66t-16.5 -82h336zM339 741v-17h-185v17h185z" />
    <glyph glyph-name="Ecircumflexcaron" horiz-adv-x="427" 
d="M253 801l93 -91h-20l-86 72h-2l-85 -72h-20l92 91h28zM226 827l-93 91h20l86 -72h2l85 72h20l-92 -91h-28zM362 346h-257v-327h287v-19h-308v674h293v-19h-272v-290h257v-19z" />
    <glyph glyph-name="ecircumflexcaron" horiz-adv-x="451" 
d="M261 651l91 -111h-20l-85 92h-2l-84 -92h-19l89 111h30zM231 683l-91 111h20l85 -92h2l84 92h19l-89 -111h-30zM390 20q-20 -9 -54 -19.5t-88 -10.5q-101 0 -156.5 67t-55.5 193q0 48 14 92t40.5 77.5t64 53.5t84.5 20q54 0 88.5 -20.5t54 -51t27 -65.5t7.5 -63v-22
t-2 -20h-356q0 -54 11.5 -98.5t34.5 -77t59 -50.5t86 -18t83 9.5t54 19.5zM395 268q1 6 1 14v17q0 25 -7 56t-25 58t-48.5 45t-77.5 18q-39 0 -71 -16t-55 -44t-36.5 -66t-16.5 -82h336z" />
    <glyph glyph-name="Ebreve" unicode="&#x114;" horiz-adv-x="427" 
d="M362 346h-257v-327h287v-19h-308v674h293v-19h-272v-290h257v-19zM149 818q1 -38 21 -61.5t68 -23.5q41 0 64.5 20t24.5 65h16q-1 -53 -29 -78t-76 -25q-56 0 -80 29.5t-25 73.5h16z" />
    <glyph glyph-name="ebreve" unicode="&#x115;" horiz-adv-x="451" 
d="M156 667q1 -38 20 -66.5t63 -28.5q38 0 60 25t23 70h17q-1 -54 -28 -84t-72 -30q-26 0 -45 9.5t-31 25.5t-18 36.5t-6 42.5h17zM390 20q-20 -9 -54 -19.5t-88 -10.5q-101 0 -156.5 67t-55.5 193q0 48 14 92t40.5 77.5t64 53.5t84.5 20q54 0 88.5 -20.5t54 -51t27 -65.5
t7.5 -63v-22t-2 -20h-356q0 -54 11.5 -98.5t34.5 -77t59 -50.5t86 -18t83 9.5t54 19.5zM395 268q1 6 1 14v17q0 25 -7 56t-25 58t-48.5 45t-77.5 18q-39 0 -71 -16t-55 -44t-36.5 -66t-16.5 -82h336z" />
    <glyph glyph-name="Obreve" unicode="&#x14e;" horiz-adv-x="613" 
d="M230 818q1 -38 21 -61.5t68 -23.5q41 0 64.5 20t24.5 65h16q-1 -53 -29 -78t-76 -25q-56 0 -80 29.5t-25 73.5h16zM587 344q0 -87 -23 -153.5t-62 -111t-90.5 -67.5t-109.5 -23q-59 0 -109.5 24.5t-87.5 69.5t-58 108t-21 140q0 80 22 145.5t60.5 112t90.5 71.5t112 25
q62 0 113 -25t87 -70t56 -108t20 -138zM564 343q0 70 -18 129t-51.5 102.5t-80 68t-103.5 24.5t-105 -24.5t-83 -69t-54.5 -106t-19.5 -136.5q0 -71 19 -130.5t52.5 -102.5t80 -67t102.5 -24q55 0 102.5 22.5t82.5 65.5t55.5 105.5t20.5 142.5z" />
    <glyph glyph-name="obreve" unicode="&#x14f;" horiz-adv-x="483" 
d="M163 667q1 -38 20 -66.5t63 -28.5q38 0 60 25t23 70h17q-1 -54 -28 -84t-72 -30q-26 0 -45 9.5t-31 25.5t-18 36.5t-6 42.5h17zM452 246q0 -68 -19 -116.5t-49.5 -80t-69 -46t-76.5 -14.5q-44 0 -82 17t-65.5 49.5t-43.5 78.5t-16 104q0 61 17 108.5t46 80t67.5 49.5
t82.5 17q46 0 84.5 -18t66 -50t42.5 -78t15 -101zM430 246q0 50 -13 92t-37.5 73t-59 48t-76.5 17q-41 0 -76 -16.5t-60.5 -47t-40 -75t-14.5 -99.5q0 -53 14.5 -96t39.5 -73t59.5 -46.5t75.5 -16.5q34 0 67.5 14.5t60.5 44t43.5 74.5t16.5 107z" />
    <glyph glyph-name="Ubreve" unicode="&#x16c;" horiz-adv-x="591" 
d="M207 818q1 -38 21 -61.5t68 -23.5q41 0 64.5 20t24.5 65h16q-1 -53 -29 -78t-76 -25q-56 0 -80 29.5t-25 73.5h16zM105 674v-403q0 -71 14.5 -121t39.5 -81.5t58.5 -46t71.5 -14.5q41 0 77 15t62.5 47.5t42 83t15.5 121.5v399h21v-399q0 -76 -17 -130t-47 -88.5
t-69.5 -51t-84.5 -16.5q-42 0 -79.5 15.5t-65 49t-44 87t-16.5 129.5v404h21z" />
    <glyph glyph-name="ubreve" unicode="&#x16d;" horiz-adv-x="494" 
d="M164 667q1 -38 20 -66.5t63 -28.5q38 0 60 25t23 70h17q-1 -54 -28 -84t-72 -30q-26 0 -45 9.5t-31 25.5t-18 36.5t-6 42.5h17zM76 483h21v-276q0 -57 11 -95t30 -61.5t44 -33.5t54 -10q30 0 55 11.5t43.5 29t31 39t18.5 42.5t7.5 37.5t1.5 49.5v267h21v-312
q0 -20 0.5 -44t1 -47t1 -44t1.5 -36h-19l-4 103h-2q-25 -52 -63.5 -82.5t-95.5 -30.5q-42 0 -72 15.5t-49 43.5t-28 68t-9 89v277z" />
    <glyph glyph-name="anoteleia" unicode="&#x387;" horiz-adv-x="137" 
d="M93 283q0 -25 -24 -25q-11 0 -17.5 7t-6.5 18t6.5 18.5t17.5 7.5t17.5 -7.5t6.5 -18.5z" />
    <glyph glyph-name="idotaboveacute" horiz-adv-x="181" 
d="M101 0h-21v483h21v-483zM91 564q-10 0 -16.5 7t-6.5 16t6.5 16t16.5 7q9 0 15.5 -7t6.5 -16t-6 -16t-16 -7zM182 776l-113 -136h-16l93 136h36z" />
    <glyph glyph-name="xdotbelow" horiz-adv-x="388" 
d="M374 0h-25l-89 131q-17 26 -33 50.5t-33 49.5q-17 -22 -35 -49t-35 -51l-90 -131h-25l171 246l-161 237h25l86 -127q16 -23 31.5 -46.5t31.5 -48.5q16 21 33.5 47t32.5 48l86 127h25l-163 -237zM195 -127q-10 0 -16.5 7t-6.5 16t6.5 16t16.5 7q9 0 15.5 -7t6.5 -16
t-6 -16t-16 -7z" />
    <glyph glyph-name="Mgrave" horiz-adv-x="744" 
d="M147 674l119 -341q26 -74 49.5 -149.5t49.5 -155.5h2q27 75 54.5 150.5t56.5 153.5l125 342h34l43 -674h-22l-22 327q-5 81 -9 163t-9 162h-2q-29 -77 -56.5 -155t-56.5 -157l-125 -337h-25l-111 330q-27 80 -54.5 159t-55.5 160h-2q-6 -88 -11 -176.5t-11 -180.5
l-21 -295h-22l47 674h35zM318 825l99 -115h-17l-123 115h41z" />
    <glyph glyph-name="mgrave" horiz-adv-x="773" 
d="M697 0h-21v313q0 35 -9 65t-25.5 51.5t-41.5 34t-56 12.5q-28 0 -51 -11t-40 -29t-29 -39.5t-18 -42.5q-5 -15 -6 -34.5t-1 -52.5v-267h-21v323q0 26 -9 53.5t-25.5 49.5t-40 36t-53.5 14t-53 -11t-40.5 -29t-29 -39.5t-17.5 -42.5q-3 -10 -5 -18.5t-2.5 -18.5t-1 -22
t-0.5 -28v-267h-21v312q0 20 -0.5 43.5l-1 47t-1 44.5t-1.5 36h19l4 -103h2q25 52 59.5 82.5t91.5 30.5q51 0 88.5 -33.5t51.5 -87.5h2q23 59 61 90t95 31q31 0 58 -12t46.5 -33.5t31 -53t11.5 -70.5v-324zM349 686l93 -136h-16l-113 136h36z" />
    <glyph glyph-name="Rbreve" horiz-adv-x="476" 
d="M426 0q-7 14 -17 58t-27 110q-12 46 -26.5 76t-35 47t-49 23.5t-68.5 6.5h-98v-321h-21v664q60 15 131 15q103 0 156 -44t53 -127q0 -63 -37 -109.5t-106 -66.5v-2q51 -11 78 -49.5t44 -107.5q17 -70 28 -115t18 -58h-23zM403 507q0 77 -48.5 115.5t-138.5 38.5
q-31 0 -59 -2.5t-52 -8.5v-312h94q99 0 150.5 47t53.5 122zM151 818q1 -38 21 -61.5t68 -23.5q41 0 64.5 20t24.5 65h16q-1 -53 -29 -78t-76 -25q-56 0 -80 29.5t-25 73.5h16z" />
    <glyph glyph-name="rbreve" horiz-adv-x="264" 
d="M95 483l4 -113h2q9 25 22.5 47.5t31 39.5t37 26.5t39.5 9.5q6 0 10.5 -0.5t9.5 -1.5v-20q-5 1 -10.5 1.5t-10.5 0.5q-33 0 -66 -30t-52 -89q-7 -21 -9 -42t-2 -50v-262h-21v345q0 36 -1.5 70.5t-2.5 67.5h19zM77 667q1 -38 20 -66.5t63 -28.5q38 0 60 25t23 70h17
q-1 -54 -28 -84t-72 -30q-26 0 -45 9.5t-31 25.5t-18 36.5t-6 42.5h17z" />
    <glyph glyph-name="Uhornbreve" horiz-adv-x="591" 
d="M207 818q1 -38 21 -61.5t68 -23.5q41 0 64.5 20t24.5 65h16q-1 -53 -29 -78t-76 -25q-56 0 -80 29.5t-25 73.5h16zM507 275q0 -76 -17 -130t-47 -88.5t-69.5 -51t-84.5 -16.5q-42 0 -79.5 15.5t-65 49t-44 87t-16.5 129.5v404h21v-403q0 -71 14.5 -121t39.5 -81.5
t58.5 -46t71.5 -14.5q41 0 77 15t62.5 47.5t42 83t15.5 121.5v399h23q23 0 37 5t21.5 13t9.5 16.5t2 16.5q0 13 -5 28.5t-14 29.5l18 4q8 -14 14.5 -30.5t6.5 -31.5q0 -33 -21 -50t-71 -17v-383z" />
    <glyph glyph-name="uhornbreve" horiz-adv-x="494" 
d="M76 483h21v-276q0 -57 11 -95t30 -61.5t44 -33.5t54 -10q30 0 55 11.5t43.5 29t31 39t18.5 42.5t7.5 37.5t1.5 49.5v267h23q23 0 37 5t21.5 13t9.5 16.5t2 16.5q0 13 -5 28.5t-14 29.5l18 4q8 -14 14.5 -30.5t6.5 -31.5q0 -33 -21 -50t-71 -17v-296q0 -20 0.5 -44t1 -47
t1 -44t1.5 -36h-19l-4 103h-2q-25 -52 -63.5 -82.5t-95.5 -30.5q-42 0 -72 15.5t-49 43.5t-28 68t-9 89v277zM164 667q1 -38 20 -66.5t63 -28.5q38 0 60 25t23 70h17q-1 -54 -28 -84t-72 -30q-26 0 -45 9.5t-31 25.5t-18 36.5t-6 42.5h17z" />
    <glyph glyph-name="kgreenlandic" unicode="&#x138;" horiz-adv-x="398" 
d="M101 208h2q24 27 47.5 53t46.5 53l150 169h28l-181 -201l212 -282h-27l-199 269l-79 -86v-183h-21v483h21v-275z" />
    <glyph glyph-name="Hbar" unicode="&#x126;" horiz-adv-x="595" 
d="M105 674v-108h385v108h21v-108h68v-17h-68v-549h-21v346h-385v-346h-21v549h-68v17h68v108h21zM490 365v184h-385v-184h385z" />
    <glyph glyph-name="hbar" unicode="&#x127;" horiz-adv-x="496" 
d="M101 593h177v-16h-177v-195h2q25 52 63 81.5t95 29.5q42 0 72.5 -15.5t49.5 -43.5t28 -68t9 -89v-277h-21v276q0 57 -11 95t-30.5 61.5t-45 33.5t-53.5 10q-30 0 -55 -11.5t-44 -29t-31.5 -39t-18.5 -42.5t-7.5 -37.5t-1.5 -49.5v-267h-21v577h-69v16h69v116h21v-116z
" />
    <glyph glyph-name="Ldot" unicode="&#x13f;" horiz-adv-x="403" 
d="M105 674v-655h280v-19h-301v674h21zM301 341q-10 0 -16.5 7t-6.5 16t6.5 16t16.5 7q9 0 15.5 -7t6.5 -16t-6.5 -16t-15.5 -7z" />
    <glyph glyph-name="ldot" unicode="&#x140;" horiz-adv-x="191" 
d="M101 0h-21v709h21v-709zM188 362q-10 0 -16.5 7t-6.5 16t6.5 16t16.5 7q9 0 15.5 -7t6.5 -16t-6 -16t-16 -7z" />
    <glyph glyph-name="Eng" unicode="&#x14a;" horiz-adv-x="605" 
d="M465 -145q13 17 22.5 49t11.5 94l-220 357q-45 72 -87 143t-86 143h-2q1 -80 1 -159v-161v-321h-21v674h25l221 -360q44 -71 85.5 -140.5t83.5 -138.5h2q-1 80 -1 158.5v159.5v321h21v-635q0 -42 -2.5 -74t-7.5 -55t-12.5 -39t-17.5 -28q-17 -20 -44.5 -34.5t-57.5 -16.5
l-3 18q29 3 52 15t37 30z" />
    <glyph glyph-name="eng" unicode="&#x14b;" horiz-adv-x="496" 
d="M80 0v312q0 20 -0.5 43.5l-1 47t-1 44.5t-1.5 36h19l4 -103h2q25 52 64 82.5t96 30.5q42 0 72.5 -15.5t49.5 -43.5t28 -68t9 -89v-238q0 -42 -2.5 -74t-7.5 -55t-12.5 -39t-17.5 -28q-17 -20 -44.5 -34.5t-57.5 -16.5l-3 18q29 3 52 15t37 30q8 10 14.5 24.5t11 36.5
t7 53t2.5 75v232q0 57 -11 95t-30.5 61.5t-45 33.5t-53.5 10q-30 0 -55 -11.5t-44 -29t-31.5 -39t-18.5 -42.5t-7.5 -37.5t-1.5 -49.5v-267h-21z" />
    <glyph glyph-name="Tbar" unicode="&#x166;" horiz-adv-x="419" 
d="M424 655h-205v-279h131v-17h-131v-359h-21v359h-127v17h127v279h-203v19h429v-19z" />
    <glyph glyph-name="tbar" unicode="&#x167;" horiz-adv-x="256" 
d="M110 286v-129q0 -36 3 -63.5t11 -46.5t21.5 -29t35.5 -10q14 0 23.5 3.5t17.5 8.5l2 -18q-8 -5 -20 -8.5t-26 -3.5q-53 0 -71 44t-18 123v129h-55v16h55v165h-70v16h70v97l21 7v-104h119v-16h-119v-165h94v-16h-94z" />
    <glyph glyph-name="longs" unicode="&#x17f;" horiz-adv-x="218" 
d="M78 0v467h-62v16h62v24q0 103 29 158t95 55q33 0 56 -12l-5 -18q-11 5 -23 8.5t-28 3.5q-56 0 -79.5 -49.5t-23.5 -145.5v-507h-21z" />
    <glyph glyph-name="uni01DD" unicode="&#x1dd;" horiz-adv-x="451" 
d="M66 463q18 9 52 19.5t85 10.5q97 0 152 -67t55 -193q0 -48 -14 -92t-40 -77.5t-62.5 -53.5t-81.5 -20q-52 0 -85 20.5t-52.5 51t-27 65t-7.5 63.5v22t2 20h346q0 54 -11.5 98.5t-34.5 77t-58 50.5t-82 18q-46 0 -79 -9.5t-53 -19.5zM61 215q-1 -6 -1 -14v-17
q0 -26 7.5 -56.5t24.5 -57.5t46.5 -45t74.5 -18q37 0 68 16t53.5 44t36 66t16.5 82h-326z" />
    <glyph glyph-name="uni018E" unicode="&#x18e;" horiz-adv-x="427" 
d="M65 365h257v290h-272v19h293v-674h-308v19h287v327h-257v19z" />
    <glyph glyph-name="uni0237" unicode="&#x237;" horiz-adv-x="190" 
d="M110 39q0 -42 -2.5 -74t-7.5 -55t-12.5 -39t-17.5 -28q-17 -20 -44.5 -34.5t-57.5 -16.5l-3 18q29 3 52 15t37 30q8 10 14.5 24.5t11 36.5t7 53t2.5 75v439h21v-444z" />
    <glyph glyph-name="uni02C9" unicode="&#x2c9;" 
d="M243 611v-17h-185v17h185z" />
    <glyph glyph-name="uni02C8" unicode="&#x2c8;" 
d="M159 556h-18v121h18v-121z" />
    <glyph glyph-name="uni02CA" unicode="&#x2ca;" 
d="M252 686l-113 -136h-16l93 136h36z" />
    <glyph glyph-name="uni02CB" unicode="&#x2cb;" 
d="M89 686l93 -136h-16l-113 136h36z" />
    <glyph glyph-name="uni02CC" unicode="&#x2cc;" 
d="M159 -181h-18v121h18v-121z" />
    <glyph glyph-name="uni02CD" unicode="&#x2cd;" 
d="M243 -125v-17h-185v17h185z" />
    <glyph glyph-name="uni02CE" unicode="&#x2ce;" 
d="M89 -50l93 -136h-16l-113 136h36z" />
    <glyph glyph-name="uni02CF" unicode="&#x2cf;" 
d="M252 -50l-113 -136h-16l93 136h36z" />
    <glyph glyph-name="uni02BE" unicode="&#x2be;" 
d="M194 617q0 -37 -25.5 -59.5t-61.5 -22.5v16q29 0 48.5 18t19.5 48q0 31 -19 49t-49 18v16q38 0 62.5 -22.5t24.5 -60.5z" />
    <glyph glyph-name="uni02BF" unicode="&#x2bf;" 
d="M193 535q-38 0 -62.5 22.5t-24.5 58.5q0 38 23.5 61t63.5 23v-16q-31 0 -49.5 -18.5t-18.5 -49.5q0 -29 19.5 -47t48.5 -18v-16v0z" />
    <glyph glyph-name="uni02B9" unicode="&#x2b9;" horiz-adv-x="166" 
d="M116 691l-52 -224h-14l33 224h33z" />
    <glyph glyph-name="uni02BA" unicode="&#x2ba;" horiz-adv-x="290" 
d="M116 691l-52 -224h-14l33 224h33zM240 691l-52 -224h-14l33 224h33z" />
    <glyph glyph-name="uni030D" unicode="&#x30d;" horiz-adv-x="0" 
d="M-261 556h-18v121h18v-121z" />
    <glyph glyph-name="uni030E" unicode="&#x30e;" horiz-adv-x="0" 
d="M-301 556h-18v121h18v-121zM-211 556h-18v121h18v-121z" />
    <glyph glyph-name="uni030F" unicode="&#x30f;" horiz-adv-x="0" 
d="M-391 686l93 -136h-16l-113 136h36zM-282 686l93 -136h-16l-113 136h36z" />
    <glyph glyph-name="uni0311" unicode="&#x311;" horiz-adv-x="0" 
d="M-186.988 552.966q-1 37.998 -19.999 66.4961q-18.999 28.499 -62.9961 28.499q-37.998 0 -59.9961 -24.999q-21.999 -24.998 -22.999 -69.9961h-16.999q1 53.9971 27.998 83.9951q26.999 29.998 71.9961 29.998q25.998 0 44.9971 -9.49902t30.998 -25.499
q11.999 -15.998 17.999 -36.4971t6 -42.498h-16.999z" />
    <glyph glyph-name="uni0312" unicode="&#x312;" horiz-adv-x="0" 
d="M-326.98 613.963q0 21.998 9.5 37.9971q9.49902 15.999 24.498 26.999q14.999 10.999 34.498 16.499q19.499 5.49902 39.498 6.49902l4.99902 -12.999q-17.999 -2 -34.9971 -7q-16.999 -4.99902 -29.999 -13.999q-12.999 -8.99902 -20.998 -21.998q-8 -13 -8 -31.998
q0 -20.999 11.999 -37.498q12 -16.499 25.999 -26.498l-19.999 -4q-14.999 11.999 -25.998 28.998q-11 16.999 -11 38.998z" />
    <glyph glyph-name="uni0313" unicode="&#x313;" horiz-adv-x="0" 
d="M-214 634q0 -22 -9.5 -38t-24.5 -27t-34.5 -16.5t-39.5 -6.5l-5 13q18 2 35 7t30 14t21 22t8 32q0 21 -12 37.5t-26 26.5l20 4q15 -12 26 -29t11 -39z" />
    <glyph glyph-name="uni0314" unicode="&#x314;" horiz-adv-x="137" 
d="M-237 486q-18 32 -36 87.5t-35 118.5l34 -10q8 -53 22.5 -106t29.5 -95z" />
    <glyph glyph-name="uni0316" unicode="&#x316;" horiz-adv-x="0" 
d="M-259 -50l93 -136h-16l-113 136h36z" />
    <glyph glyph-name="uni0317" unicode="&#x317;" horiz-adv-x="0" 
d="M-166 -50l-113 -136h-16l93 136h36z" />
    <glyph glyph-name="uni031B" unicode="&#x31b;" horiz-adv-x="0" 
d="M-330 483h28q19 0 30.5 5t17.5 13t8 16.5t2 16.5q0 13 -5 28.5t-14 29.5l18 4q8 -14 14.5 -30.5t6.5 -31.5q0 -23 -15 -44t-55 -23h-36v16z" />
    <glyph glyph-name="uni031C" unicode="&#x31c;" horiz-adv-x="0" 
d="M-227 -201q-38 0 -62.5 22.5t-24.5 58.5q0 38 23.5 61t63.5 23v-16q-31 0 -49.5 -18.5t-18.5 -49.5q0 -29 19.5 -47t48.5 -18v-16v0z" />
    <glyph glyph-name="uni0324" unicode="&#x324;" horiz-adv-x="0" 
d="M-347 -152q-10 0 -16 7t-6 16q0 10 6.5 16.5t15.5 6.5q22 0 22 -23q0 -9 -6 -16t-16 -7zM-194 -152q-10 0 -16 7t-6 16q0 10 6.5 16.5t15.5 6.5q22 0 22 -23q0 -9 -6 -16t-16 -7z" />
    <glyph glyph-name="uni0325" unicode="&#x325;" horiz-adv-x="0" 
d="M-269 -201q-38 0 -63 22.5t-25 58.5q0 38 23.5 61t65.5 23q36 0 60.5 -22.5t24.5 -60.5q0 -37 -25.5 -59.5t-60.5 -22.5zM-269 -185q29 0 48 18t19 48q0 31 -18.5 49t-47.5 18q-32 0 -51 -18.5t-19 -49.5q0 -29 19.5 -47t49.5 -18z" />
    <glyph glyph-name="uni0326" unicode="&#x326;" horiz-adv-x="0" 
d="M-214 -96q0 -22 -9.5 -38t-24.5 -27t-34.5 -16.5t-39.5 -6.5l-5 13q18 2 35 7t30 14t21 22t8 32q0 21 -12 37.5t-26 26.5l20 4q15 -12 26 -29t11 -39z" />
    <glyph glyph-name="uni0329" unicode="&#x329;" horiz-adv-x="0" 
d="M-261 -181h-18v121h18v-121z" />
    <glyph glyph-name="uni032C" unicode="&#x32c;" horiz-adv-x="0" 
d="M-283 -186l-92 131h20l85 -112h2l84 112h19l-89 -131h-29z" />
    <glyph glyph-name="uni032D" unicode="&#x32d;" horiz-adv-x="0" 
d="M-257 -55l92 -131h-20l-85 112h-2l-84 -112h-19l89 131h29z" />
    <glyph glyph-name="uni032E" unicode="&#x32e;" horiz-adv-x="0" 
d="M-353 -69q1 -38 20 -66.5t63 -28.5q38 0 60 25t23 70h17q-1 -54 -28 -84t-72 -30q-26 0 -45 9.5t-31 25.5t-18 36.5t-6 42.5h17z" />
    <glyph glyph-name="uni032F" unicode="&#x32f;" horiz-adv-x="0" 
d="M-186.988 -182.989q-1 37.998 -19.999 66.4961q-18.999 28.499 -62.9961 28.499q-37.998 0 -59.9961 -24.999q-21.999 -24.998 -22.999 -69.9961h-16.999q1 53.9971 27.998 83.9951q26.999 29.998 71.9961 29.998q25.998 0 44.9971 -9.49902t30.998 -25.499
q11.999 -15.998 17.999 -36.4971t6 -42.498h-16.999z" />
    <glyph glyph-name="uni0330" unicode="&#x330;" horiz-adv-x="0" 
d="M-375 -158q-1 36 13 57.5t40 21.5q18 0 32.5 -9t27 -20t24.5 -20t25 -9q14 0 22 11.5t10 49.5h16q-2 -46 -14.5 -62.5t-33.5 -16.5q-17 0 -30.5 9t-25.5 20t-24.5 20t-28.5 9q-18 0 -28 -16t-9 -45h-16z" />
    <glyph glyph-name="uni0331" unicode="&#x331;" horiz-adv-x="0" 
d="M-177 -125v-17h-185v17h185z" />
    <glyph glyph-name="uni0334" unicode="&#x334;" horiz-adv-x="0" 
d="M-375 208q-1 36 13 57.5t40 21.5q18 0 32.5 -9t27 -20t24.5 -20t25 -9q14 0 22 11.5t10 49.5h16q-2 -46 -14.5 -62.5t-33.5 -16.5q-17 0 -30.5 9t-25.5 20t-24.5 20t-28.5 9q-18 0 -28 -16t-9 -45h-16z" />
    <glyph glyph-name="uni0335" unicode="&#x335;" horiz-adv-x="0" 
d="M-154 264v-22h-219v22h219z" />
    <glyph glyph-name="uni0338" unicode="&#x338;" horiz-adv-x="0" 
d="M-434 -41l311 726h32l-313 -726h-30z" />
    <glyph glyph-name="uni0339" unicode="&#x339;" horiz-adv-x="0" 
d="M-226 -119q0 -37 -25.5 -59.5t-61.5 -22.5v16q29 0 48.5 18t19.5 48q0 31 -19 49t-49 18v16q38 0 62.5 -22.5t24.5 -60.5z" />
    <glyph glyph-name="uni0343" unicode="&#x343;" horiz-adv-x="0" 
d="M-174 691q-8 -31 -17 -63t-18 -60.5t-18 -52.5t-18 -40l-15 -4q15 42 30 100t23 111z" />
    <glyph glyph-name="uni0344" unicode="&#x344;" horiz-adv-x="0" 
d="M-303 598q0 9 6 15t14 6t14 -6t6 -15q0 -8 -6 -14t-14 -6t-14 6t-6 14zM-138 598q0 9 6 15t14 6t14 -6t6 -15q0 -8 -6 -14t-14 -6t-14 6t-6 14zM-165 669l-46 -127h-17l34 127h29z" />
    <glyph glyph-name="uni0351" unicode="&#x351;" horiz-adv-x="0" 
d="M-227 535q-38 0 -62.5 22.5t-24.5 58.5q0 38 23.5 61t63.5 23v-16q-31 0 -49.5 -18.5t-18.5 -49.5q0 -29 19.5 -47t48.5 -18v-16v0z" />
    <glyph glyph-name="uni0357" unicode="&#x357;" horiz-adv-x="0" 
d="M-226 617q0 -37 -25.5 -59.5t-61.5 -22.5v16q29 0 48.5 18t19.5 48q0 31 -19 49t-49 18v16q38 0 62.5 -22.5t24.5 -60.5z" />
    <glyph glyph-name="uni0394" unicode="&#x394;" horiz-adv-x="585" 
d="M309 674q60 -164 121 -327t125 -337v-10h-522v11q61 167 122.5 332t123.5 331h30zM528 19l-169 456q-17 45 -33.5 90t-32.5 89q-16 -40 -33.5 -87.5t-33.5 -91.5l-168 -456h470z" />
    <glyph glyph-name="uni03A9" unicode="&#x3a9;" horiz-adv-x="665" 
d="M210 18v1q-28 23 -54.5 56t-47 74.5t-33 90t-12.5 102.5q0 78 21 141t57.5 108t86.5 69.5t108 24.5q61 0 110 -25t83.5 -69.5t53.5 -106t19 -134.5q0 -57 -12.5 -107t-32.5 -92t-47 -75.5t-55 -56.5v-1h161v-18h-185v16q28 23 55 56.5t47.5 75.5t33 92t12.5 105
q0 69 -17 128t-48.5 102t-76.5 67.5t-101 24.5q-55 0 -101 -23.5t-79 -67t-51.5 -104t-18.5 -134.5q0 -52 13 -100.5t34 -90t47.5 -75.5t53.5 -56v-16h-185v18h161z" />
    <glyph glyph-name="uni2010" unicode="&#x2010;" horiz-adv-x="251" 
d="M221 285v-19h-191v19h191z" />
    <glyph glyph-name="minus" unicode="&#x2212;" horiz-adv-x="555" 
d="M510 279v-18h-465v18h465z" />
    <glyph glyph-name="minute" unicode="&#x2032;" horiz-adv-x="166" 
d="M116 691l-52 -224h-14l33 224h33z" />
    <glyph glyph-name="second" unicode="&#x2033;" horiz-adv-x="290" 
d="M116 691l-52 -224h-14l33 224h33zM240 691l-52 -224h-14l33 224h33z" />
    <glyph glyph-name="uni2034" unicode="&#x2034;" horiz-adv-x="414" 
d="M116 691l-52 -224h-14l33 224h33zM240 691l-52 -224h-14l33 224h33zM364 691l-52 -224h-14l33 224h33z" />
    <glyph glyph-name="uni204B" unicode="&#x204b;" horiz-adv-x="441" 
d="M176 -50v704h-71v-704h-20v720q8 2 27.5 4t42.5 2q73 0 121.5 -17.5t77.5 -46t41 -66t12 -76.5q0 -55 -18.5 -93.5t-48.5 -63t-67.5 -36t-76.5 -11.5v-316h-20z" />
    <glyph glyph-name="uni203D" unicode="&#x203d;" horiz-adv-x="335" 
d="M166 19q0 -25 -24 -25q-11 0 -17.5 7t-6.5 18t6.5 18.5t17.5 7.5t17.5 -7.5t6.5 -18.5zM290 551q0 -51 -26 -97t-59 -88q-30 -37 -43 -67t-13 -71v-21t2 -21h-21q-2 12 -2.5 22t-0.5 21q0 14 1 26.5t4 23.5l-5 386q-39 -6 -66 -30l-10 14q20 17 48.5 27t57.5 10
q33 0 58 -11t41.5 -29.5t25 -43t8.5 -51.5zM267 550q0 24 -7 45t-21 37t-34.5 26t-48.5 10l-5 -342q7 12 15.5 24t19.5 25q32 40 56.5 84t24.5 91z" />
    <glyph glyph-name="uni2027" unicode="&#x2027;" horiz-adv-x="173" 
d="M94 370q-14 0 -23.5 10.5t-9.5 27.5q0 16 10 26.5t24 10.5q15 0 24 -10.5t9 -26.5q0 -17 -9.5 -27.5t-24.5 -10.5z" />
    <glyph glyph-name="Cacute.polish" horiz-adv-x="507" 
d="M492 17q-24 -8 -64 -17.5t-97 -9.5q-69 0 -126.5 22t-99 65t-64.5 106.5t-23 147.5q0 79 22.5 144t65 111.5t104.5 72t141 25.5q51 0 85 -9.5t56 -19.5l-6 -18q-21 9 -54 19t-81 10q-74 0 -131.5 -24t-97 -68t-60.5 -106t-21 -137q0 -79 21 -139t59.5 -101t92.5 -62
t119 -21q50 0 90 9t64 17zM443 825l-122 -115h-18l99 115h41z" />
    <glyph glyph-name="cacute.polish" horiz-adv-x="384" 
d="M381 451q-14 8 -39 16.5t-63 8.5q-49 0 -88.5 -17.5t-68 -49.5t-44 -76t-15.5 -96q0 -53 15 -95.5t42 -72.5t65 -46t84 -16q38 0 68 9.5t46 18.5l5 -17q-16 -8 -46.5 -18t-74.5 -10q-51 0 -92.5 17t-71.5 49t-46 77.5t-16 102.5t17 104.5t48.5 81t75.5 52.5t97 19
q42 0 68 -8t42 -17zM352 686l-113 -136h-16l93 136h36z" />
    <glyph glyph-name="Nacute.polish" horiz-adv-x="605" 
d="M109 674l221 -360q44 -71 85.5 -140t83.5 -138h2q-1 80 -1 158v159v321h21v-674h-23l-219 355q-45 72 -87 143t-86 143h-2q1 -80 1 -159v-161v-321h-21v674h25zM418 825l-122 -115h-18l99 115h41z" />
    <glyph glyph-name="nacute.polish" horiz-adv-x="496" 
d="M420 0h-21v276q0 57 -11 95t-30.5 61.5t-45 33.5t-53.5 10q-30 0 -55 -11.5t-44 -29t-31.5 -39t-18.5 -42.5t-7.5 -37.5t-1.5 -49.5v-267h-21v312q0 20 -0.5 43.5l-1 47t-1 44.5t-1.5 36h19l4 -103h2q25 52 64 82.5t96 30.5q42 0 72.5 -15.5t49.5 -43.5t28 -68t9 -89
v-277zM347 686l-113 -136h-16l93 136h36z" />
    <glyph glyph-name="Oacute.polish" horiz-adv-x="613" 
d="M587 344q0 -87 -23 -153.5t-62 -111t-90.5 -67.5t-109.5 -23q-59 0 -109.5 24.5t-87.5 69.5t-58 108t-21 140q0 80 22 145.5t60.5 112t90.5 71.5t112 25q62 0 113 -25t87 -70t56 -108t20 -138zM564 343q0 70 -18 129t-51.5 102.5t-80 68t-103.5 24.5t-105 -24.5t-83 -69
t-54.5 -106t-19.5 -136.5q0 -71 19 -130.5t52.5 -102.5t80 -67t102.5 -24q55 0 102.5 22.5t82.5 65.5t55.5 105.5t20.5 142.5zM433 825l-122 -115h-18l99 115h41z" />
    <glyph glyph-name="oacute.polish" horiz-adv-x="483" 
d="M452 246q0 -68 -19 -116.5t-49.5 -80t-69 -46t-76.5 -14.5q-44 0 -82 17t-65.5 49.5t-43.5 78.5t-16 104q0 61 17 108.5t46 80t67.5 49.5t82.5 17q46 0 84.5 -18t66 -50t42.5 -78t15 -101zM430 246q0 50 -13 92t-37.5 73t-59 48t-76.5 17q-41 0 -76 -16.5t-60.5 -47
t-40 -75t-14.5 -99.5q0 -53 14.5 -96t39.5 -73t59.5 -46.5t75.5 -16.5q34 0 67.5 14.5t60.5 44t43.5 74.5t16.5 107zM354 686l-113 -136h-16l93 136h36z" />
    <glyph glyph-name="Sacute.polish" horiz-adv-x="425" 
d="M341 636q-14 11 -42 20.5t-63 9.5q-36 0 -65.5 -11t-50.5 -31t-32.5 -47t-11.5 -60q0 -32 12 -56t32.5 -42.5t47 -33t55.5 -28.5q30 -14 57.5 -31t49 -38.5t34 -49t12.5 -63.5q0 -38 -12.5 -71.5t-37.5 -59t-62.5 -40t-86.5 -14.5q-38 0 -75 11.5t-60 28.5l7 20
q20 -18 57 -29.5t72 -11.5q43 0 76 13t55.5 35.5t33.5 52.5t11 64q0 33 -12 58t-32 45t-46.5 35t-55.5 29q-30 14 -57.5 29.5t-48.5 35.5t-34 46.5t-13 62.5q0 38 13 69t37 53.5t57 34.5t74 12q38 0 67.5 -9.5t45.5 -20.5zM323 825l-122 -115h-18l99 115h41z" />
    <glyph glyph-name="sacute.polish" horiz-adv-x="331" 
d="M290 124q0 -60 -39 -97t-107 -37q-29 0 -55.5 7.5t-46.5 22.5l8 16q17 -14 43 -21.5t51 -7.5q58 0 91.5 32.5t33.5 83.5q0 24 -6 41t-18.5 31t-31.5 26t-45 24q-53 24 -83 53t-30 77q0 57 35 87.5t95 30.5q28 0 50 -6.5t37 -17.5l-7 -16q-13 10 -33 16.5t-49 6.5
q-22 0 -41.5 -5.5t-34 -17.5t-23 -31t-8.5 -45q0 -43 27 -67.5t75 -47.5q28 -14 49 -26.5t35 -28.5t21 -36t7 -47zM267 686l-113 -136h-16l93 136h36z" />
    <glyph glyph-name="Zacute.polish" horiz-adv-x="491" 
d="M452 674v-13l-386 -641v-1h391v-19h-421v13l386 641v1h-354v19h384zM373 825l-122 -115h-18l99 115h41z" />
    <glyph glyph-name="zacute.polish" horiz-adv-x="342" 
d="M329 0h-314v11q72 114 141.5 226.5t141.5 226.5v2h-263v17h291v-12q-72 -114 -141.5 -226.5t-140.5 -225.5v-2h285v-17zM282 686l-113 -136h-16l93 136h36z" />
    <glyph glyph-name="jcircumflex" unicode="&#x135;" horiz-adv-x="190" 
d="M110 39q0 -42 -2.5 -74t-7.5 -55t-12.5 -39t-17.5 -28q-17 -20 -44.5 -34.5t-57.5 -16.5l-3 18q29 3 52 15t37 30q8 10 14.5 24.5t11 36.5t7 53t2.5 75v439h21v-444zM113 681l92 -131h-20l-85 112h-2l-84 -112h-19l89 131h29z" />
    <glyph glyph-name="uni021A" unicode="&#x21a;" horiz-adv-x="419" 
d="M424 655h-205v-655h-21v655h-203v19h429v-19zM255 -96q0 -22 -9.5 -38t-24.5 -27t-34.5 -16.5t-39.5 -6.5l-5 13q18 2 35 7t30 14t21 22t8 32q0 21 -12 37.5t-26 26.5l20 4q15 -12 26 -29t11 -39z" />
    <glyph glyph-name="uni021B" unicode="&#x21b;" horiz-adv-x="256" 
d="M110 587v-104h119v-16h-119v-310q0 -36 3 -63.5t11 -46.5t21.5 -29t35.5 -10q14 0 23.5 3.5t17.5 8.5l2 -18q-8 -5 -20 -8.5t-26 -3.5q-53 0 -71 44t-18 123v310h-70v16h70v97zM191 -96q0 -22 -9.5 -38t-24.5 -27t-34.5 -16.5t-39.5 -6.5l-5 13q18 2 35 7t30 14t21 22
t8 32q0 21 -12 37.5t-26 26.5l20 4q15 -12 26 -29t11 -39z" />
    <glyph glyph-name="Ccircumflex" unicode="&#x108;" horiz-adv-x="507" 
d="M492 17q-24 -8 -64 -17.5t-97 -9.5q-69 0 -126.5 22t-99 65t-64.5 106.5t-23 147.5q0 79 22.5 144t65 111.5t104.5 72t141 25.5q51 0 85 -9.5t56 -19.5l-6 -18q-21 9 -54 19t-81 10q-74 0 -131.5 -24t-97 -68t-60.5 -106t-21 -137q0 -79 21 -139t59.5 -101t92.5 -62
t119 -21q50 0 90 9t64 17zM344 821l92 -111h-20l-86 92h-2l-85 -92h-20l91 111h30z" />
    <glyph glyph-name="ccircumflex" unicode="&#x109;" horiz-adv-x="384" 
d="M381 451q-14 8 -39 16.5t-63 8.5q-49 0 -88.5 -17.5t-68 -49.5t-44 -76t-15.5 -96q0 -53 15 -95.5t42 -72.5t65 -46t84 -16q38 0 68 9.5t46 18.5l5 -17q-16 -8 -46.5 -18t-74.5 -10q-51 0 -92.5 17t-71.5 49t-46 77.5t-16 102.5t17 104.5t48.5 81t75.5 52.5t97 19
q42 0 68 -8t42 -17zM253 681l92 -131h-20l-85 112h-2l-84 -112h-19l89 131h29z" />
    <glyph glyph-name="Cdotaccent" unicode="&#x10a;" horiz-adv-x="507" 
d="M492 17q-24 -8 -64 -17.5t-97 -9.5q-69 0 -126.5 22t-99 65t-64.5 106.5t-23 147.5q0 79 22.5 144t65 111.5t104.5 72t141 25.5q51 0 85 -9.5t56 -19.5l-6 -18q-21 9 -54 19t-81 10q-74 0 -131.5 -24t-97 -68t-60.5 -106t-21 -137q0 -79 21 -139t59.5 -101t92.5 -62
t119 -21q50 0 90 9t64 17zM326 730q-10 0 -16.5 7t-6.5 16t6.5 16t16.5 7q9 0 15.5 -7t6.5 -16t-6.5 -16t-15.5 -7z" />
    <glyph glyph-name="cdotaccent" unicode="&#x10b;" horiz-adv-x="384" 
d="M381 451q-14 8 -39 16.5t-63 8.5q-49 0 -88.5 -17.5t-68 -49.5t-44 -76t-15.5 -96q0 -53 15 -95.5t42 -72.5t65 -46t84 -16q38 0 68 9.5t46 18.5l5 -17q-16 -8 -46.5 -18t-74.5 -10q-51 0 -92.5 17t-71.5 49t-46 77.5t-16 102.5t17 104.5t48.5 81t75.5 52.5t97 19
q42 0 68 -8t42 -17zM250 584q-10 0 -16.5 7t-6.5 16t6.5 16t16.5 7q9 0 15.5 -7t6.5 -16t-6 -16t-16 -7z" />
    <glyph glyph-name="Gcircumflex" unicode="&#x11c;" horiz-adv-x="576" 
d="M516 30q-23 -11 -68 -24t-103 -13q-72 0 -128.5 24t-96.5 68t-61 107t-21 141q0 74 22.5 138t65 110.5t103 73t135.5 26.5q45 0 79.5 -10t50.5 -19l-6 -18q-17 10 -50 19.5t-74 9.5q-70 0 -126 -25t-95.5 -69t-60.5 -104t-21 -131q0 -75 19.5 -134.5t56.5 -101.5
t90 -64.5t119 -22.5q49 0 88.5 11t61.5 21v256h-142v17h162v-286zM344 821l92 -111h-20l-86 92h-2l-85 -92h-20l91 111h30z" />
    <glyph glyph-name="gcircumflex" unicode="&#x11d;" horiz-adv-x="500" 
d="M429 483q-2 -27 -3 -62.5t-1 -76.5v-274q0 -63 -11.5 -114.5t-36.5 -88t-65 -56t-97 -19.5q-37 0 -74.5 10t-61.5 30l10 15q22 -18 57 -28t69 -10q50 0 85.5 17.5t58.5 50.5t34 80.5t11 106.5v26h-2q-29 -48 -75 -68.5t-94 -20.5q-41 0 -77 16.5t-62.5 48t-42 78
t-15.5 106.5q0 55 15.5 100t42.5 77t64 49t80 17q27 0 52.5 -8.5t47.5 -23t39 -34t27 -41.5h2l4 97h19zM404 322q0 23 -12.5 50t-34.5 50t-52 38.5t-64 15.5q-41 0 -74.5 -16t-57.5 -46t-37.5 -71.5t-13.5 -92.5q0 -56 14 -99t38 -72.5t56.5 -45t70.5 -15.5q32 0 62 10.5
t53.5 29.5t37.5 46.5t14 60.5v157zM263 681l92 -131h-20l-85 112h-2l-84 -112h-19l89 131h29z" />
    <glyph glyph-name="Gdotaccent" unicode="&#x120;" horiz-adv-x="576" 
d="M516 30q-23 -11 -68 -24t-103 -13q-72 0 -128.5 24t-96.5 68t-61 107t-21 141q0 74 22.5 138t65 110.5t103 73t135.5 26.5q45 0 79.5 -10t50.5 -19l-6 -18q-17 10 -50 19.5t-74 9.5q-70 0 -126 -25t-95.5 -69t-60.5 -104t-21 -131q0 -75 19.5 -134.5t56.5 -101.5
t90 -64.5t119 -22.5q49 0 88.5 11t61.5 21v256h-142v17h162v-286zM341 730q-10 0 -16.5 7t-6.5 16t6.5 16t16.5 7q9 0 15.5 -7t6.5 -16t-6.5 -16t-15.5 -7z" />
    <glyph glyph-name="gdotaccent" unicode="&#x121;" horiz-adv-x="500" 
d="M429 483q-2 -27 -3 -62.5t-1 -76.5v-274q0 -63 -11.5 -114.5t-36.5 -88t-65 -56t-97 -19.5q-37 0 -74.5 10t-61.5 30l10 15q22 -18 57 -28t69 -10q50 0 85.5 17.5t58.5 50.5t34 80.5t11 106.5v26h-2q-29 -48 -75 -68.5t-94 -20.5q-41 0 -77 16.5t-62.5 48t-42 78
t-15.5 106.5q0 55 15.5 100t42.5 77t64 49t80 17q27 0 52.5 -8.5t47.5 -23t39 -34t27 -41.5h2l4 97h19zM404 322q0 23 -12.5 50t-34.5 50t-52 38.5t-64 15.5q-41 0 -74.5 -16t-57.5 -46t-37.5 -71.5t-13.5 -92.5q0 -56 14 -99t38 -72.5t56.5 -45t70.5 -15.5q32 0 62 10.5
t53.5 29.5t37.5 46.5t14 60.5v157zM250 584q-10 0 -16.5 7t-6.5 16t6.5 16t16.5 7q9 0 15.5 -7t6.5 -16t-6 -16t-16 -7z" />
    <glyph glyph-name="Hcircumflex" unicode="&#x124;" horiz-adv-x="595" 
d="M312 821l92 -111h-20l-86 92h-2l-85 -92h-20l91 111h30zM105 674v-309h385v309h21v-674h-21v346h-385v-346h-21v674h21z" />
    <glyph glyph-name="hcircumflex" unicode="&#x125;" horiz-adv-x="496" 
d="M256 851l91 -111h-20l-85 92h-2l-84 -92h-19l89 111h30zM101 382h2q25 52 63 81.5t95 29.5q42 0 72.5 -15.5t49.5 -43.5t28 -68t9 -89v-277h-21v276q0 57 -11 95t-30.5 61.5t-45 33.5t-53.5 10q-30 0 -55 -11.5t-44 -29t-31.5 -39t-18.5 -42.5t-7.5 -37.5t-1.5 -49.5
v-267h-21v709h21v-327z" />
    <glyph glyph-name="Scircumflex" unicode="&#x15c;" horiz-adv-x="425" 
d="M341 636q-14 11 -42 20.5t-63 9.5q-36 0 -65.5 -11t-50.5 -31t-32.5 -47t-11.5 -60q0 -32 12 -56t32.5 -42.5t47 -33t55.5 -28.5q30 -14 57.5 -31t49 -38.5t34 -49t12.5 -63.5q0 -38 -12.5 -71.5t-37.5 -59t-62.5 -40t-86.5 -14.5q-38 0 -75 11.5t-60 28.5l7 20
q20 -18 57 -29.5t72 -11.5q43 0 76 13t55.5 35.5t33.5 52.5t11 64q0 33 -12 58t-32 45t-46.5 35t-55.5 29q-30 14 -57.5 29.5t-48.5 35.5t-34 46.5t-13 62.5q0 38 13 69t37 53.5t57 34.5t74 12q38 0 67.5 -9.5t45.5 -20.5zM234 821l92 -111h-20l-86 92h-2l-85 -92h-20
l91 111h30z" />
    <glyph glyph-name="scircumflex" unicode="&#x15d;" horiz-adv-x="331" 
d="M290 124q0 -60 -39 -97t-107 -37q-29 0 -55.5 7.5t-46.5 22.5l8 16q17 -14 43 -21.5t51 -7.5q58 0 91.5 32.5t33.5 83.5q0 24 -6 41t-18.5 31t-31.5 26t-45 24q-53 24 -83 53t-30 77q0 57 35 87.5t95 30.5q28 0 50 -6.5t37 -17.5l-7 -16q-13 10 -33 16.5t-49 6.5
q-22 0 -41.5 -5.5t-34 -17.5t-23 -31t-8.5 -45q0 -43 27 -67.5t75 -47.5q28 -14 49 -26.5t35 -28.5t21 -36t7 -47zM188 681l92 -131h-20l-85 112h-2l-84 -112h-19l89 131h29z" />
    <glyph glyph-name="Wcircumflex" unicode="&#x174;" horiz-adv-x="771" 
d="M763 674l-190 -674h-21l-91 363q-18 72 -35 139.5t-34 137.5h-2q-19 -69 -39 -138t-40 -139l-105 -363h-21l-170 674h23l86 -350q18 -73 36.5 -145.5t35.5 -144.5h2q18 68 37.5 137t39.5 139l107 364h21l92 -364q17 -69 33.5 -138t33.5 -138h2q20 72 40 144.5t40 146.5
l96 349h23zM406 821l92 -111h-20l-86 92h-2l-85 -92h-20l91 111h30z" />
    <glyph glyph-name="wcircumflex" unicode="&#x175;" horiz-adv-x="671" 
d="M349 681l92 -131h-20l-85 112h-2l-84 -112h-19l89 131h29zM652 483l-152 -483h-26l-78 258q-15 51 -29 101.5t-29 101.5h-2q-9 -24 -18 -52.5t-18.5 -57.5t-18.5 -57.5t-17 -53.5l-79 -240h-26l-137 483h23l80 -288q12 -45 23.5 -87t23.5 -86h2q17 52 33 104.5t33 104.5
l84 252h26l77 -252q16 -53 30 -104.5t30 -104.5h2q15 52 30.5 102t32.5 107l77 252h23z" />
    <glyph glyph-name="Ycircumflex" unicode="&#x176;" horiz-adv-x="466" 
d="M458 674l-214 -369v-305h-21v305l-210 369h25l107 -189q23 -41 44.5 -81t43.5 -80h2q20 41 43.5 80t46.5 81l108 189h25zM249 821l92 -111h-20l-86 92h-2l-85 -92h-20l91 111h30z" />
    <glyph glyph-name="ycircumflex" unicode="&#x177;" horiz-adv-x="405" 
d="M218 681l92 -131h-20l-85 112h-2l-84 -112h-19l89 131h29zM393 483l-124 -347q-21 -60 -38.5 -106.5t-34.5 -82.5t-34.5 -63t-38.5 -47q-31 -29 -55.5 -41.5t-38.5 -15.5l-7 18q67 22 107 76t68 126q2 8 2.5 12t-2.5 12l-184 459h24l134 -337q11 -27 21 -54.5t20 -54.5h1
l156 446h24z" />
    <glyph glyph-name="uni1E10" unicode="&#x1e10;" horiz-adv-x="601" 
d="M75 664q35 6 76 10.5t82 4.5q75 0 137 -19.5t107 -59.5t69.5 -101t24.5 -145q0 -178 -95.5 -269t-267.5 -91q-35 0 -69 1.5t-64 6.5v662zM96 17q24 -3 54.5 -4t59.5 -1q162 0 250 86t88 255q0 78 -22.5 136t-64 96.5t-99.5 57t-129 18.5q-37 0 -72 -3.5t-65 -8.5v-632z
M326 -96q0 -22 -9.5 -38t-24.5 -27t-34.5 -16.5t-39.5 -6.5l-5 13q18 2 35 7t30 14t21 22t8 32q0 21 -12 37.5t-26 26.5l20 4q15 -12 26 -29t11 -39z" />
    </font>
</defs>
</svg>
