<?xml version="1.0" encoding="utf-8"?>
<!-- Generator: Adobe Illustrator 24.3.0, SVG Export Plug-In . SVG Version: 6.00 Build 0)  -->
<svg version="1.1" id="Capa_1" xmlns="http://www.w3.org/2000/svg" xmlns:xlink="http://www.w3.org/1999/xlink" x="0px" y="0px"
	 viewBox="0 0 23 23" style="enable-background:new 0 0 23 23;" xml:space="preserve">
<style type="text/css">
	.st0{fill:#00B1EB;}
</style>
<path id="folder-check" class="st0" d="M17.5,6.5h-5l-3-3h-4c-2,0-3,1-3,3v10c0,2,1,3,3,3h12c2,0,3-1,3-3v-7
	C20.5,7.5,19.5,6.5,17.5,6.5z M14.5,11.9l-3.3,3.3c-0.1,0.1-0.3,0.2-0.5,0.2c-0.2,0-0.4-0.1-0.5-0.2l-1.7-1.7
	c-0.3-0.3-0.3-0.8,0-1.1c0.3-0.3,0.8-0.3,1.1,0l1.1,1.1l2.8-2.8c0.3-0.3,0.8-0.3,1.1,0C14.8,11.1,14.8,11.6,14.5,11.9z"/>
</svg>
