<?xml version="1.0" encoding="utf-8"?>
<!-- Generator: Adobe Illustrator 24.3.0, SVG Export Plug-In . SVG Version: 6.00 Build 0)  -->
<svg version="1.1" id="Capa_1" xmlns="http://www.w3.org/2000/svg" xmlns:xlink="http://www.w3.org/1999/xlink" x="0px" y="0px"
	 viewBox="0 0 23 23" style="enable-background:new 0 0 23 23;" xml:space="preserve">
<style type="text/css">
	.st0{fill:#2FBCDD;}
</style>
<path class="st0" d="M13.9,13.2c0,0.3-0.2,0.6-0.6,0.6h-1.8c-0.3,0-0.6-0.2-0.6-0.6c0-0.3,0.2-0.6,0.6-0.6h0.6c-0.5-0.6-1.2-1-2-1
	c-1.4,0-2.6,1.2-2.6,2.6c0,1.4,1.2,2.6,2.6,2.6c1,0,1.9-0.6,2.3-1.4c0.2-0.3,0.5-0.4,0.8-0.2c0.3,0.2,0.4,0.5,0.2,0.8
	c-0.6,1.3-1.9,2.1-3.5,2.1c-2.1,0-3.9-1.7-3.9-3.9c0-2.1,1.7-3.9,3.9-3.9c1,0,1.9,0.4,2.6,1v0.1c0-0.3,0.2-0.6,0.6-0.6
	c0.4,0,0.6,0.2,0.6,0.6C13.9,11.3,13.9,13.2,13.9,13.2z M13.8,5.5V3.2l4.5,4.5H16C14.4,7.8,13.8,7.1,13.8,5.5z M16,9.2
	c-2.4,0-3.8-1.3-3.8-3.8v-3H7c-2,0-3,1-3,3v12c0,2,1,3,3,3h9c2,0,3-1,3-3V9.2H16z"/>
</svg>
