<?xml version="1.0" encoding="utf-8"?>
<!-- Generator: Adobe Illustrator 24.3.0, SVG Export Plug-In . SVG Version: 6.00 Build 0)  -->
<svg version="1.1" id="Capa_1" xmlns="http://www.w3.org/2000/svg" xmlns:xlink="http://www.w3.org/1999/xlink" x="0px" y="0px"
	 viewBox="0 0 23 23" style="enable-background:new 0 0 23 23;" xml:space="preserve">
<style type="text/css">
	.st0{fill:#29ABE2;}
</style>
<path id="rotate-right-square" class="st0" d="M17.1,2.5H5.9c-2.2,0-3.4,1.1-3.4,3.4v11.2c0,2.2,1.1,3.4,3.4,3.4h11.2
	c2.2,0,3.4-1.1,3.4-3.4V5.9C20.5,3.6,19.4,2.5,17.1,2.5z M16.2,10.2c0,0.4-0.3,0.8-0.8,0.8h-2.2c-0.4,0-0.8-0.3-0.8-0.8
	c0-0.4,0.3-0.8,0.8-0.8H14c-0.6-0.7-1.5-1.2-2.5-1.2c-1.8,0-3.2,1.5-3.2,3.2c0,1.8,1.5,3.2,3.2,3.2c1.2,0,2.4-0.7,2.9-1.8
	c0.2-0.4,0.6-0.5,1-0.3s0.5,0.6,0.3,1c-0.8,1.6-2.4,2.6-4.3,2.6c-2.6,0-4.8-2.1-4.8-4.8c0-2.6,2.1-4.8,4.8-4.8
	c1.2,0,2.4,0.5,3.2,1.3v0.1c0-0.4,0.3-0.8,0.8-0.8s0.8,0.3,0.8,0.8C16.2,7.9,16.2,10.2,16.2,10.2z"/>
</svg>
