<?xml version="1.0" encoding="utf-8"?>
<!-- Generator: Adobe Illustrator 21.0.0, SVG Export Plug-In . SVG Version: 6.00 Build 0)  -->
<svg version="1.1" id="Capa_1" xmlns="http://www.w3.org/2000/svg" xmlns:xlink="http://www.w3.org/1999/xlink" x="0px" y="0px"
	 viewBox="0 0 35 35" style="enable-background:new 0 0 35 35;" xml:space="preserve">
<style type="text/css">
	.st0{fill:none;stroke:#FFFFFF;stroke-linecap:round;stroke-linejoin:round;stroke-miterlimit:10;}
</style>
<g>
	<path class="st0" d="M14.6,7.5l11.1,11.1c2.3,2.3,2.6,5.8,0.7,7.7l0,0c-1.9,1.9-5.4,1.6-7.7-0.7L9,15.9"/>
	<path class="st0" d="M17.5,13.2l5.8,5.8c1.6,1.6,1.9,3.7,0.8,4.9l0,0c-1.1,1.1-3.3,0.8-4.9-0.8l-8.6-8.6"/>
	<path class="st0" d="M18.3,25.1l-9.4-9.4C7,13.8,6.8,11.1,8.3,9.6l0,0c1.5-1.5,4.3-1.3,6.1,0.6l8.7,8.7"/>
</g>
</svg>
