<?xml version="1.0" encoding="utf-8"?>
<!-- Generator: Adobe Illustrator 24.3.0, SVG Export Plug-In . SVG Version: 6.00 Build 0)  -->
<svg version="1.1" id="Capa_1" xmlns="http://www.w3.org/2000/svg" xmlns:xlink="http://www.w3.org/1999/xlink" x="0px" y="0px"
	 viewBox="0 0 14 23" style="enable-background:new 0 0 14 23;" xml:space="preserve">
<style type="text/css">
	.st0{fill:#86D193;}
</style>
<path id="octagon-check_1_" class="st0" d="M12.1,8.9L9.6,6.4C9.5,6.2,9.2,6.2,9,6.2H5c-0.2,0-0.5,0.1-0.6,0.3L1.9,8.9
	C1.7,9,1.7,9.3,1.7,9.5v4c0,0.2,0.1,0.5,0.3,0.6l2.4,2.4c0.2,0.2,0.4,0.3,0.6,0.3h4c0.2,0,0.5-0.1,0.6-0.3l2.4-2.4
	c0.2-0.2,0.3-0.4,0.3-0.6v-4C12.3,9.3,12.3,9,12.1,8.9z M9.1,10.6L6.7,13c-0.1,0.1-0.2,0.1-0.3,0.1s-0.2,0-0.3-0.1l-1.2-1.2
	c-0.2-0.2-0.2-0.5,0-0.6c0.2-0.2,0.5-0.2,0.6,0l0.9,0.9L8.5,10c0.2-0.2,0.5-0.2,0.6,0C9.3,10.2,9.3,10.5,9.1,10.6z"/>
</svg>
