<?xml version="1.0" encoding="utf-8"?>
<!-- Generator: Adobe Illustrator 24.3.0, SVG Export Plug-In . SVG Version: 6.00 Build 0)  -->
<svg version="1.1" id="Capa_1" xmlns="http://www.w3.org/2000/svg" xmlns:xlink="http://www.w3.org/1999/xlink" x="0px" y="0px"
	 viewBox="0 0 14 23" style="enable-background:new 0 0 14 23;" xml:space="preserve">
<style type="text/css">
	.st0{fill:#E04444;}
</style>
<path id="triangle-exclamation_1_" class="st0" d="M11.8,13.8L8.5,7.6c-0.6-1.2-2.4-1.2-3,0l-3.3,6.2c-0.6,1.1,0.2,2.4,1.5,2.4h6.7
	C11.6,16.2,12.4,14.9,11.8,13.8z M6.5,9.8c0-0.3,0.2-0.5,0.5-0.5c0.3,0,0.5,0.2,0.5,0.5v2.5c0,0.3-0.2,0.5-0.5,0.5
	c-0.3,0-0.5-0.2-0.5-0.5V9.8z M7,14.8c-0.3,0-0.6-0.3-0.6-0.6c0-0.3,0.3-0.6,0.6-0.6h0c0.3,0,0.6,0.3,0.6,0.6
	C7.6,14.5,7.4,14.8,7,14.8z"/>
</svg>
