<?xml version="1.0" encoding="utf-8"?>
<!-- Generator: Adobe Illustrator 21.0.0, SVG Export Plug-In . SVG Version: 6.00 Build 0)  -->
<svg version="1.1" id="Capa_1" xmlns="http://www.w3.org/2000/svg" xmlns:xlink="http://www.w3.org/1999/xlink" x="0px" y="0px"
	 viewBox="0 0 75 40" style="enable-background:new 0 0 75 40;" xml:space="preserve">
<style type="text/css">
	.st0{fill:#757575;}
</style>
<rect class="st0" width="75" height="40"/>
<g>
	<path d="M5,23.6v-7.2h5.8c0.6,0,1,0,1.4,0.1s0.7,0.2,0.9,0.3c0.2,0.1,0.4,0.3,0.5,0.6c0.1,0.2,0.1,0.5,0.1,0.9
		c0,0.5-0.1,0.9-0.3,1.1s-0.4,0.4-0.7,0.5l0,0c0.4,0.1,0.7,0.2,0.9,0.5s0.3,0.6,0.3,1.2c0,0.4-0.1,0.7-0.2,1
		c-0.1,0.3-0.3,0.5-0.5,0.6c-0.2,0.2-0.5,0.3-0.8,0.3c-0.3,0.1-0.7,0.1-1.1,0.1C11.3,23.6,5,23.6,5,23.6z M10.9,19.2
		c0.2,0,0.4,0,0.5-0.1c0.1-0.1,0.2-0.3,0.2-0.5c0-0.3-0.1-0.5-0.2-0.5C11.3,18,11.1,18,10.9,18H7.1v1.3L10.9,19.2L10.9,19.2z
		 M11,22.1c0.3,0,0.5-0.1,0.7-0.2c0.1-0.1,0.2-0.3,0.2-0.6c0-0.3-0.1-0.4-0.2-0.5c-0.1-0.1-0.3-0.2-0.7-0.2H7.1V22H11V22.1z"/>
	<path d="M25.3,23.6H23l-0.7-1.3h-4.5l-0.6,1.3h-2.3l3.9-7.2h2.6L25.3,23.6z M21.5,20.8L20,17.9l0,0l-1.5,2.9H21.5z"/>
	<path d="M28.5,20.8v2.8h-2.1v-7.2h2.1v2.7V20.8z M31.8,16.4h2.3l-3.2,3.5l3.2,3.6h-2.3l-3.3-3.6L31.8,16.4z M36.2,16.4h2.3
		l-3.2,3.5l3.2,3.6h-2.3l-3.3-3.6L36.2,16.4z"/>
	<path d="M48.7,23.6h-2.1v-2.8h-4.7v2.8h-2.1v-7.2h2.1V19h4.7v-2.6h2.1V23.6z"/>
	<path d="M54.8,23.7c-0.7,0-1.3,0-1.8,0s-0.9-0.1-1.3-0.2c-0.3-0.1-0.6-0.2-0.8-0.4s-0.4-0.4-0.5-0.6c-0.1-0.3-0.2-0.6-0.2-1
		s-0.1-0.8-0.1-1.4v-0.2c0-0.5,0-1,0.1-1.4c0-0.4,0.1-0.7,0.2-1c0.1-0.3,0.3-0.5,0.5-0.6c0.2-0.2,0.5-0.3,0.8-0.4s0.8-0.1,1.3-0.2
		c0.5,0,1.1,0,1.8,0h0.3c0.7,0,1.3,0,1.8,0s0.9,0.1,1.3,0.2c0.3,0.1,0.6,0.2,0.8,0.4c0.2,0.2,0.4,0.4,0.5,0.6c0.1,0.3,0.2,0.6,0.2,1
		s0.1,0.8,0.1,1.4v0.2c0,0.5,0,1-0.1,1.4c0,0.4-0.1,0.7-0.2,1c-0.1,0.3-0.3,0.5-0.5,0.6c-0.2,0.2-0.5,0.3-0.8,0.4
		c-0.3,0.1-0.8,0.1-1.3,0.2c-0.5,0-1.1,0-1.8,0C55.1,23.7,54.8,23.7,54.8,23.7z M55,22c0.6,0,1.1,0,1.5-0.1c0.4,0,0.6-0.1,0.8-0.2
		c0.2-0.1,0.3-0.3,0.3-0.6c0-0.3,0.1-0.6,0.1-1.1v-0.1c0-0.5,0-0.8-0.1-1.1c0-0.3-0.1-0.5-0.3-0.6S56.9,18,56.5,18s-0.9,0-1.5,0
		h-0.2c-0.6,0-1.1,0-1.5,0.1c-0.3,0-0.6,0.1-0.8,0.2c-0.2,0.1-0.3,0.3-0.3,0.6c0,0.3-0.1,0.6-0.1,1.1v0.1c0,0.4,0,0.8,0.1,1.1
		c0,0.3,0.1,0.5,0.3,0.6c0.2,0.1,0.4,0.2,0.8,0.2c0.3,0,0.8,0.1,1.5,0.1H55V22z"/>
	<path d="M65.5,23.7c-0.9,0-1.6,0-2.2-0.1c-0.6-0.1-1-0.2-1.3-0.4c-0.3-0.2-0.5-0.5-0.7-0.8c-0.1-0.3-0.2-0.8-0.2-1.3v-4.6h2.1v3.9
		c0,0.4,0,0.7,0.1,0.9c0,0.2,0.1,0.4,0.3,0.5S64,22,64.3,22s0.7,0.1,1.2,0.1h0.2c0.5,0,0.9,0,1.2-0.1c0.3,0,0.5-0.1,0.7-0.2
		c0.2-0.1,0.2-0.3,0.3-0.5c0-0.2,0.1-0.5,0.1-0.9v-3.9h2V21c0,0.5-0.1,1-0.2,1.3c-0.1,0.3-0.3,0.6-0.7,0.8c-0.3,0.2-0.8,0.3-1.3,0.4
		c-0.6,0.1-1.3,0.1-2.2,0.1h-0.1V23.7z"/>
</g>
</svg>
