<?xml version="1.0" encoding="utf-8"?>
<!-- Generator: Adobe Illustrator 21.0.0, SVG Export Plug-In . SVG Version: 6.00 Build 0)  -->
<svg version="1.1" id="Capa_1" xmlns="http://www.w3.org/2000/svg" xmlns:xlink="http://www.w3.org/1999/xlink" x="0px" y="0px"
	 viewBox="0 0 100 50" style="enable-background:new 0 0 100 50;" xml:space="preserve">
<style type="text/css">
	.st0{fill:#FFFFFF;}
	.st1{fill:none;stroke:#71234D;stroke-linecap:round;stroke-linejoin:round;stroke-miterlimit:10;}
	.st2{fill:#509152;}
	.st3{fill:none;stroke:#FFFFFF;stroke-linecap:round;stroke-linejoin:round;stroke-miterlimit:10;}
</style>
<path class="st0" d="M73.1,44.8H24.9C13.9,44.8,5.1,36,5.1,25l0,0C5.1,14,14,5.2,24.9,5.2h48.2C84,5.2,92.9,14,92.9,25l0,0
	C92.9,36,84,44.8,73.1,44.8z"/>
<g>
	<ellipse class="st1" cx="34.3" cy="14.1" rx="14.4" ry="2.5"/>
	<path class="st1" d="M48.7,25c0,1.4-6.5,2.5-14.4,2.5S19.9,26.4,19.9,25"/>
	<path class="st1" d="M48.7,35.9c0,1.4-6.5,2.5-14.4,2.5s-14.4-1.1-14.4-2.5"/>
	<line class="st1" x1="19.9" y1="35.9" x2="19.9" y2="30.9"/>
	<line class="st1" x1="19.9" y1="25" x2="19.9" y2="20"/>
	<line class="st1" x1="48.7" y1="35.9" x2="48.7" y2="30.9"/>
	<line class="st1" x1="48.7" y1="25" x2="48.7" y2="20"/>
	<line class="st1" x1="45.7" y1="21.6" x2="46.4" y2="21.3"/>
	<line class="st1" x1="45.7" y1="31.8" x2="46.4" y2="31.6"/>
</g>
<circle class="st2" cx="69.8" cy="25" r="10.9"/>
<g>
	<line class="st3" x1="64.4" y1="25.4" x2="67.5" y2="28.5"/>
	<line class="st3" x1="75.1" y1="21.3" x2="67.8" y2="28.7"/>
</g>
</svg>
