<?xml version="1.0" encoding="utf-8"?>
<!-- Generator: Adobe Illustrator 21.0.0, SVG Export Plug-In . SVG Version: 6.00 Build 0)  -->
<svg version="1.1" id="Capa_1" xmlns="http://www.w3.org/2000/svg" xmlns:xlink="http://www.w3.org/1999/xlink" x="0px" y="0px"
	 viewBox="0 0 75 40" style="enable-background:new 0 0 75 40;" xml:space="preserve">
<g>
	<path d="M18,21.9c0-2.6-0.7-4.1-2-4.5c-1.2-0.4-2.7-0.6-4.5-0.6S8.2,16.9,7,17.3c-0.2,0.1-0.3,0.1-0.5,0.2v-4.6H5v9.2l0,0
		c0,2.5,0.7,3.9,2,4.4c1.2,0.4,2.7,0.6,4.5,0.6s3.3-0.2,4.5-0.6C17.3,26.1,18,24.6,18,21.9L18,21.9L18,21.9z M16.4,22.2
		c0,0.9-0.2,1.6-0.4,2.2c-0.2,0.6-0.8,1-1.8,1.2c-0.3,0.1-0.5,0.1-0.8,0.1s-0.6,0-0.8,0s-0.4,0-0.6,0h-0.5H11c-0.2,0-0.4,0-0.6,0
		c-0.3,0-0.6,0-0.8,0c-0.3,0-0.6-0.1-0.8-0.1c-1-0.2-1.5-0.6-1.8-1.2c-0.2-0.6-0.4-1.4-0.4-2.2v-0.3v-0.3c0-0.9,0.2-1.6,0.4-2.2
		c0.2-0.6,0.8-1,1.8-1.2c0.3-0.1,0.5-0.1,0.8-0.1s0.6,0,0.8,0s0.4,0,0.6,0h0.5H12c0.2,0,0.4,0,0.6,0c0.3,0,0.6,0,0.8,0
		c0.3,0,0.6,0.1,0.8,0.1c1,0.2,1.5,0.6,1.8,1.2c0.2,0.6,0.4,1.4,0.4,2.2v0.3V22.2z"/>
	<rect x="36.7" y="12.9" width="1.5" height="14.1"/>
	<path d="M33.6,21.9c0-2.6-0.7-4.1-2-4.5c-1.2-0.4-2.7-0.6-4.5-0.6s-3.3,0.2-4.5,0.6c-1.3,0.4-2,1.9-2,4.5l0,0l0,0
		c0,2.6,0.7,4.1,2,4.5c1.2,0.4,2.7,0.6,4.5,0.6s3.3-0.2,4.5-0.6c1.1-0.3,1.7-1.4,1.9-3.1H32c-0.1,0.3-0.1,0.7-0.2,0.9
		c-0.2,0.6-0.8,1-1.8,1.2c-0.3,0.1-0.5,0.1-0.8,0.1s-0.6,0-0.8,0c-0.2,0-0.4,0-0.6,0h-0.5h-0.5c-0.2,0-0.4,0-0.6,0
		c-0.3,0-0.6,0-0.8,0c-0.3,0-0.6-0.1-0.8-0.1c-1-0.2-1.5-0.6-1.8-1.2c-0.2-0.6-0.4-1.4-0.4-2.2l0,0h9.9h0.6h0.9
		C33.6,22.1,33.6,22,33.6,21.9L33.6,21.9L33.6,21.9z M24.3,18.2c0.3-0.1,0.5-0.1,0.8-0.1s0.6,0,0.8,0c0.2,0,0.4,0,0.6,0H27h0.5
		c0.2,0,0.4,0,0.6,0c0.3,0,0.6,0,0.8,0c0.3,0,0.6,0.1,0.8,0.1c1,0.2,1.5,0.6,1.8,1.2c0.2,0.4,0.3,0.9,0.3,1.5H22
		c0.1-0.5,0.2-1,0.3-1.5C22.8,18.8,23.4,18.4,24.3,18.2z"/>
	<path d="M54.4,21.9c0-2.6-0.7-4.1-2-4.5c-1.2-0.4-2.7-0.6-4.5-0.6s-3.3,0.2-4.5,0.6c-1.3,0.4-2,1.9-2,4.5l0,0l0,0
		c0,2.6,0.7,4.1,2,4.5c1.2,0.4,2.7,0.6,4.5,0.6s3.3-0.2,4.5-0.6c1.1-0.3,1.7-1.4,1.9-3.1h-1.6c-0.1,0.3-0.1,0.7-0.2,0.9
		c-0.2,0.6-0.8,1-1.8,1.2c-0.3,0.1-0.5,0.1-0.8,0.1s-0.6,0-0.8,0s-0.4,0-0.6,0H48h-0.5c-0.2,0-0.4,0-0.6,0c-0.3,0-0.6,0-0.8,0
		c-0.3,0-0.6-0.1-0.8-0.1c-1-0.2-1.5-0.6-1.8-1.2c-0.4-0.4-0.5-1.2-0.5-2l0,0h9.9h0.6h0.9C54.4,22.1,54.4,22,54.4,21.9L54.4,21.9
		L54.4,21.9z M45.1,18.2c0.3-0.1,0.5-0.1,0.8-0.1s0.6,0,0.8,0s0.4,0,0.6,0h0.5h0.5c0.2,0,0.4,0,0.6,0c0.3,0,0.6,0,0.8,0
		c0.3,0,0.6,0.1,0.8,0.1c1,0.2,1.5,0.6,1.8,1.2c0.2,0.4,0.3,0.9,0.3,1.5H43c0.1-0.5,0.2-1,0.3-1.5C43.6,18.8,44.1,18.4,45.1,18.2z"
		/>
	<path d="M70,21.9c0-2.6-0.7-4.1-2-4.5c-1.2-0.4-2.7-0.6-4.5-0.6S60.2,17,59,17.4c-1.3,0.4-2,1.9-2,4.5l0,0l0,0v5.2h1.5v-5.2v-0.3
		c0-0.9,0.2-1.6,0.4-2.2s0.8-1,1.8-1.2c0.3-0.1,0.5-0.1,0.8-0.1s0.6,0,0.8,0s0.4,0,0.6,0h0.5h0.5c0.2,0,0.4,0,0.6,0
		c0.3,0,0.6,0,0.8,0c0.3,0,0.6,0.1,0.8,0.1c1,0.2,1.5,0.6,1.8,1.2c0.2,0.6,0.4,1.4,0.4,2.2v0.3v5.2H70V21.9L70,21.9L70,21.9z"/>
	<path d="M68.9,13.1c-0.5,0-0.9,0.4-0.9,0.9s0.4,0.9,0.9,0.9s0.9-0.4,0.9-0.9S69.4,13.1,68.9,13.1 M68.9,15.1
		c-0.6,0-1.1-0.5-1.1-1.1s0.5-1.1,1.1-1.1S70,13.4,70,14S69.5,15.1,68.9,15.1"/>
	<path d="M68.6,14h0.3c0.1,0,0.1,0,0.2,0c0,0,0.1,0,0.1-0.1v-0.1c0,0,0-0.1-0.1-0.1c0,0-0.1,0-0.2,0h-0.3V14z M68.5,14.6v-1.1H69
		c0.1,0,0.2,0,0.2,0l0.1,0.1c0,0,0,0.1,0,0.2c0,0.1,0,0.1-0.1,0.2c0,0.1-0.1,0.1-0.2,0.1c0,0,0.1,0,0.1,0.1l0.1,0.1l0.2,0.3h-0.2
		l-0.1-0.2c0-0.1-0.1-0.1-0.1-0.1s0-0.1-0.1-0.1c0,0,0,0-0.1,0c0,0,0,0-0.1,0h-0.2v0.5l0,0C68.5,14.7,68.5,14.6,68.5,14.6z"/>
</g>
</svg>
