<?xml version="1.0" encoding="utf-8"?>
<!-- Generator: Adobe Illustrator 24.3.0, SVG Export Plug-In . SVG Version: 6.00 Build 0)  -->
<svg version="1.1" id="Capa_1" xmlns="http://www.w3.org/2000/svg" xmlns:xlink="http://www.w3.org/1999/xlink" x="0px" y="0px"
	 viewBox="0 0 23 23" style="enable-background:new 0 0 23 23;" xml:space="preserve">
<style type="text/css">
	.st0{fill:none;stroke:#FFFFFF;stroke-linecap:round;stroke-linejoin:round;stroke-miterlimit:10;}
	.st1{fill:#2857A3;}
</style>
<g>
	<path class="st0" d="M13.7,9.5c0-1.1-1-1.9-2.2-1.9S9.3,8.4,9.3,9.5s0.9,1.6,2.2,1.9"/>
	<path class="st0" d="M9.3,13.4c0,1.1,1,1.9,2.2,1.9s2.2-0.9,2.2-1.9s-0.9-1.6-2.2-2"/>
	<line class="st0" x1="11.5" y1="6.3" x2="11.5" y2="16.7"/>
</g>
<g>
	<g>
		<line class="st0" x1="5" y1="13.1" x2="5" y2="9.7"/>
		<line class="st0" x1="6.7" y1="11.4" x2="3.3" y2="11.4"/>
	</g>
	<line class="st0" x1="19.7" y1="11.4" x2="16.3" y2="11.4"/>
</g>
<path id="briefcase-money" class="st1" d="M17.5,5.6h-1.2V4.1c0-1-0.8-1.8-1.8-1.8h-6c-1,0-1.8,0.8-1.8,1.8v1.5H5.5c-2,0-3,1-3,3v9
	c0,2,1,3,3,3h12c2,0,3-1,3-3v-9C20.5,6.6,19.5,5.6,17.5,5.6z M5.5,14.1c-0.6,0-1-0.4-1-1c0-0.6,0.4-1,1-1s1,0.4,1,1
	C6.5,13.7,6.1,14.1,5.5,14.1z M11.5,16.1c-1.7,0-3-1.3-3-3s1.3-3,3-3c1.7,0,3,1.3,3,3S13.2,16.1,11.5,16.1z M8.2,5.6V4.1
	c0-0.1,0.1-0.2,0.2-0.2h6c0.1,0,0.2,0.1,0.2,0.2v1.5H8.2z M17.5,14.1c-0.6,0-1-0.4-1-1c0-0.6,0.4-1,1-1s1,0.4,1,1
	C18.5,13.7,18.1,14.1,17.5,14.1z"/>
</svg>
