<?xml version="1.0" encoding="utf-8"?>
<!-- Generator: Adobe Illustrator 24.0.2, SVG Export Plug-In . SVG Version: 6.00 Build 0)  -->
<svg version="1.1" id="Capa_1" xmlns="http://www.w3.org/2000/svg" xmlns:xlink="http://www.w3.org/1999/xlink" x="0px" y="0px"
	 viewBox="0 0 23 23" style="enable-background:new 0 0 23 23;" xml:space="preserve">
<style type="text/css">
	.st0{fill:#46B298;}
	.st1{fill:none;stroke:#FFFFFF;stroke-linecap:round;stroke-linejoin:round;stroke-miterlimit:10;}
</style>
<path class="st0" d="M4.3,0h14.5C21.1,0,23,1.9,23,4.3v14.5c0,2.3-1.9,4.3-4.3,4.3H4.3C1.9,23,0,21.1,0,18.7V4.3C0,1.9,1.9,0,4.3,0z
	"/>
<g>
	<line class="st1" x1="17.2" y1="8.4" x2="10.5" y2="15.1"/>
	<line class="st1" x1="7.9" y1="12.5" x2="14.6" y2="5.8"/>
	<polyline class="st1" points="7.9,12.5 6.1,16.9 6.1,16.9 10.5,15.1 	"/>
	<path class="st1" d="M17.2,8.4c0.7-0.7,0.7-1.8,0-2.5c-0.7-0.7-1.8-0.7-2.5,0"/>
</g>
</svg>
