<?xml version="1.0" encoding="utf-8"?>
<!-- Generator: Adobe Illustrator 24.3.0, SVG Export Plug-In . SVG Version: 6.00 Build 0)  -->
<svg version="1.1" id="Capa_1" xmlns="http://www.w3.org/2000/svg" xmlns:xlink="http://www.w3.org/1999/xlink" x="0px" y="0px"
	 viewBox="0 0 23 23" style="enable-background:new 0 0 23 23;" xml:space="preserve">
<style type="text/css">
	.st0{fill:#CE3838;}
</style>
<path id="trash_1_" class="st0" d="M20.2,5.5c0,0.4-0.3,0.8-0.8,0.8h-16c-0.4,0-0.8-0.3-0.8-0.8c0-0.4,0.3-0.8,0.8-0.8h4.2
	C7.8,4.6,7.9,4.4,8,4.1l0.2-0.6c0.2-0.6,0.8-1,1.4-1h3.8c0.6,0,1.2,0.4,1.4,1L15,4.1c0.1,0.2,0.1,0.4,0.2,0.6h4.2
	C19.9,4.8,20.2,5.1,20.2,5.5z M18.1,7.2c0.2,0,0.3,0.1,0.3,0.3l-0.7,10.1c-0.1,1.6-0.9,2.8-3,2.8H8.3c-2.1,0-2.9-1.2-3-2.8L4.6,7.6
	c0-0.2,0.1-0.3,0.3-0.3H18.1z M10.2,10.5c0-0.4-0.3-0.8-0.8-0.8c-0.4,0-0.8,0.3-0.8,0.8v5c0,0.4,0.3,0.8,0.8,0.8
	c0.4,0,0.8-0.3,0.8-0.8V10.5z M14.2,10.5c0-0.4-0.3-0.8-0.8-0.8c-0.4,0-0.8,0.3-0.8,0.8v5c0,0.4,0.3,0.8,0.8,0.8
	c0.4,0,0.8-0.3,0.8-0.8V10.5z"/>
</svg>
