<?xml version="1.0" encoding="utf-8"?>
<!-- Generator: Adobe Illustrator 24.3.0, SVG Export Plug-In . SVG Version: 6.00 Build 0)  -->
<svg version="1.1" id="Capa_1" xmlns="http://www.w3.org/2000/svg" xmlns:xlink="http://www.w3.org/1999/xlink" x="0px" y="0px"
	 viewBox="0 0 23 23" style="enable-background:new 0 0 23 23;" xml:space="preserve">
<style type="text/css">
	.st0{fill:#367A37;}
</style>
<path id="file-download" class="st0" d="M13.8,5.5V3.2l4.5,4.5H16C14.4,7.8,13.8,7.1,13.8,5.5z M19,9.2v8.2c0,2-1,3-3,3H7
	c-2,0-3-1-3-3v-12c0-2,1-3,3-3h5.2v3c0,2.4,1.3,3.8,3.8,3.8H19z M12.5,14c-0.3-0.3-0.8-0.3-1.1,0l-0.7,0.7v-3.2
	c0-0.4-0.3-0.8-0.8-0.8S9.1,11,9.1,11.5v3.2L8.5,14c-0.3-0.3-0.8-0.3-1.1,0c-0.3,0.3-0.3,0.8,0,1.1l2,2c0.1,0.1,0.2,0.1,0.2,0.2
	c0.1,0,0.2,0.1,0.3,0.1s0.2,0,0.3-0.1c0.1,0,0.2-0.1,0.2-0.2l2-2C12.8,14.7,12.8,14.3,12.5,14z"/>
</svg>
