<?xml version="1.0" encoding="utf-8"?>
<!-- Generator: Adobe Illustrator 21.0.0, SVG Export Plug-In . SVG Version: 6.00 Build 0)  -->
<svg version="1.1" id="Capa_1" xmlns="http://www.w3.org/2000/svg" xmlns:xlink="http://www.w3.org/1999/xlink" x="0px" y="0px"
	 viewBox="0 0 141.7 141.7" style="enable-background:new 0 0 141.7 141.7;" xml:space="preserve">
<style type="text/css">
	.st0{fill:#F2F2F2;}
	
		.st1{fill-rule:evenodd;clip-rule:evenodd;fill:none;stroke:#4E4D4D;stroke-width:2;stroke-linecap:round;stroke-linejoin:round;stroke-miterlimit:10;}
	.st2{fill:none;stroke:#4E4D4D;stroke-width:2;stroke-linecap:round;stroke-linejoin:round;stroke-miterlimit:10;}
</style>
<circle class="st0" cx="70.9" cy="70.9" r="65"/>
<g>
	<g>
		<path class="st1" d="M116.1,114.2c-1.5-18.3-9.6-17.6-21.1-24v0c2.9,0.1,6.8-2.5,8.6-4.4c-6.6,0-10-4.4-11-10.3
			c-1.1-6.2-1.5-12.6-1.8-17c-0.8,1.2-1.9,1.9-3,1.8c-1.8,7.1-8,13.3-8,13.3c-0.1,2.1,1.4,5.9,1.9,7.6c-1,1.2-1.6,2.5-2.5,3.4
			C74,89.2,64.5,89,59.9,81.1c1-2.1,2.2-5.4,1.9-7.6c0,0-6.3-5.2-7.8-13.3c-1.1,0-2.2-0.8-3-2.1c0,4.4-0.3,10.9-1.2,17
			c-0.8,5.9-4,10.6-11,10.6l0,0l0,0c1.5,1.7,5.6,4.1,7.9,4.4c-11,7.3-19.3,5.4-21.1,24"/>
		<path class="st1" d="M60.2,40.4c-2.3,8.9-9.2,12.8-9.5,8.5c-5.6-33.1,44.6-33.5,40.4,0.3c0,0.3-0.3,1.5-0.7,2.2
			c-0.3-0.3-0.6-0.3-1-0.3c-0.8-0.7-1.2-1.4-1.8-1.9c-1.5-1.4-2.9-0.4-5.6,0.4C73,52.2,62.4,49,60.2,40.4L60.2,40.4z"/>
	</g>
	<line class="st2" x1="58.8" y1="81.2" x2="46.7" y2="90.2"/>
	<line class="st2" x1="82.9" y1="81.2" x2="95" y2="90.2"/>
</g>
</svg>
