<?xml version="1.0" encoding="utf-8"?>
<!-- Generator: Adobe Illustrator 24.3.0, SVG Export Plug-In . SVG Version: 6.00 Build 0)  -->
<svg version="1.1" id="Capa_1" xmlns="http://www.w3.org/2000/svg" xmlns:xlink="http://www.w3.org/1999/xlink" x="0px" y="0px"
	 viewBox="0 0 64.8 46.8" style="enable-background:new 0 0 64.8 46.8;" xml:space="preserve">
<style type="text/css">
	.st0{fill-rule:evenodd;clip-rule:evenodd;fill:#444444;}
	.st1{fill:#444444;}
</style>
<g>
	<g>
		<g>
			<ellipse class="st0" cx="41.3" cy="22" rx="1.8" ry="1.9"/>
			<ellipse class="st0" cx="45.9" cy="20.7" rx="1.8" ry="1.9"/>
			<ellipse class="st0" cx="47.8" cy="25.9" rx="1.8" ry="1.9"/>
			<ellipse class="st0" cx="43" cy="27.6" rx="1.8" ry="1.9"/>
			<ellipse class="st0" cx="36.9" cy="22.9" rx="1.4" ry="2"/>
			<path class="st0" d="M39.5,27.8c-0.6-0.9-1.6-1.2-2.3-0.8c-0.6,0.5-0.6,1.6,0,2.4c0.6,0.9,1.6,1.2,2.3,0.8
				C40.1,29.8,40.1,28.7,39.5,27.8z"/>
			<path class="st0" d="M49.1,17.7c-0.5,0.3-0.6,1-0.3,1.7s1,1,1.5,0.7s0.6-1,0.3-1.7C50.2,17.8,49.6,17.5,49.1,17.7z"/>
			<path class="st0" d="M40.6,18.6c0.5-0.1,0.9-0.8,0.8-1.5c-0.1-0.7-0.6-1.3-1.1-1.2c-0.5,0.1-0.9,0.8-0.8,1.5
				C39.6,18.2,40.1,18.7,40.6,18.6z"/>
			<path class="st0" d="M44.5,17.3c0.4-0.2,0.5-0.9,0.1-1.5s-1-0.9-1.5-0.7c-0.4,0.2-0.5,0.9-0.1,1.5C43.4,17.2,44.1,17.5,44.5,17.3
				z"/>
			<path class="st0" d="M46.5,16c0.5,0.4,0.9,0.4,1,0.1c0.1-0.3-0.3-0.9-0.8-1.3c-0.5-0.4-0.9-0.4-1-0.1C45.6,15.1,46,15.6,46.5,16z
				"/>
			<path class="st0" d="M51.7,18.1c0.3,0.4,0.6,0.5,0.5,0.1c0-0.3-0.4-0.9-0.7-1.3s-0.6-0.5-0.5-0.1S51.4,17.7,51.7,18.1z"/>
			<path class="st0" d="M48.5,15.1c0.5,0.3,0.8,0.4,0.8,0.2s-0.4-0.5-0.9-0.8s-0.8-0.4-0.8-0.2C47.6,14.4,48,14.8,48.5,15.1z"/>
			<path class="st0" d="M37.1,19.1c0.4,0.1,0.9-0.4,1.2-1.1s0.2-1.5-0.2-1.6s-0.9,0.4-1.2,1.1S36.7,18.9,37.1,19.1z"/>
			<path class="st0" d="M35.1,18.7c0.2,0.1,0.5-0.3,0.8-0.8s0.4-1,0.2-1.1s-0.5,0.3-0.8,0.8S34.9,18.6,35.1,18.7z"/>
			<path class="st0" d="M52.2,25.4c0.5-0.1,0.8-0.9,0.6-1.8s-0.7-1.5-1.2-1.4S50.8,23.1,51,24C51.1,24.9,51.7,25.5,52.2,25.4z"/>
			<path class="st0" d="M54.2,22c-0.2-0.5-0.5-0.9-0.6-0.9c-0.2,0.1-0.2,0.5,0,1.1c0.2,0.5,0.5,0.9,0.6,0.9
				C54.4,23.1,54.4,22.6,54.2,22z"/>
			<ellipse class="st0" cx="34.1" cy="23.2" rx="0.6" ry="1.9"/>
			<path class="st0" d="M34.7,27.3c-0.2,0.1,0.1,0.9,0.7,1.7c0.5,0.9,1.1,1.4,1.3,1.3s-0.1-0.9-0.7-1.7
				C35.4,27.7,34.9,27.1,34.7,27.3z"/>
			<ellipse class="st0" cx="45" cy="31.8" rx="1.5" ry="1"/>
			<path class="st0" d="M48.7,29.3c-0.8,0.3-1.2,1-1,1.5s1,0.7,1.7,0.4c0.8-0.3,1.2-1,1-1.5C50.2,29.2,49.4,29,48.7,29.3z"/>
			<path class="st0" d="M53.1,26.8c-0.2-0.1-0.7,0.2-1,0.8c-0.3,0.5-0.4,1-0.2,1.1s0.7-0.2,1-0.8C53.2,27.4,53.3,26.9,53.1,26.8z"/>
			<path class="st0" d="M40.9,31.8c-0.7-0.3-1.4-0.3-1.6,0c-0.1,0.3,0.3,0.8,1,1.2c0.7,0.3,1.4,0.3,1.6,0
				C42.1,32.6,41.7,32.1,40.9,31.8z"/>
		</g>
		<path class="st1" d="M27.6,23.6l9.7-9.9h-7.1L25,19.1c-0.4-3-3-5.4-6-5.4h-7.5l0,0H9v19.8h5l0,0h6.3c2.7,0,5-1.8,5.8-4.3l4.3,4.3
			h7.1L27.6,23.6z M20.2,28.5h-6.3v-1.4v-0.9v-5.1v-0.6v-1.7h5c0.6,0,1.1,0.5,1.1,1.1S19.5,21,18.9,21h-3.1v5.1h4.4
			c0.6,0,1.1,0.5,1.1,1.1C21.3,28,20.8,28.5,20.2,28.5z"/>
	</g>
</g>
</svg>
