<?xml version="1.0" encoding="utf-8"?>
<!-- Generator: Adobe Illustrator 24.3.0, SVG Export Plug-In . SVG Version: 6.00 Build 0)  -->
<svg version="1.1" id="Capa_1" xmlns="http://www.w3.org/2000/svg" xmlns:xlink="http://www.w3.org/1999/xlink" x="0px" y="0px"
	 viewBox="0 0 64.8 46.8" style="enable-background:new 0 0 64.8 46.8;" xml:space="preserve">
<path d="M5.5,29.1H4.9c-0.1,0-0.6,0-0.7,0c-0.5,0-0.6,0-0.9,0.1v-0.2c1.4-0.5,1.4-2,1.4-3.3v-5.4c0-1,0-2.4-1.4-2.8v-0.2l2.3,0.1
	V29.1z M6.4,17.5c0.3,0,0.7,0,1.2-0.1c0.8-0.1,0.9-0.1,1.3-0.1v0.2c-1.2,0.3-1.6,1.2-1.6,2.4v5.3c0,0.9,0.1,2,0.2,2.6
	c0.1,0.6,0.5,0.5,0.8,0.5h2.3c1,0,2.4,0,3.4-1.9h0.2c-0.1,0.5-0.2,0.8-0.4,1.3c-0.3,0.9-0.4,1-0.5,1.5c-0.3,0-0.6-0.1-1-0.1l-0.9,0
	H6.4V17.5z M18,27c0,0.2,0,1.3,0.8,2c-1.2-0.2-1.7-1.2-1.7-2c0-1.3,1-1.7,1.6-1.9C18.3,25.7,18,26.3,18,27z M22.1,23.6
	c0-1-0.3-1.7-1.5-1.7c-0.1,0-1.6,0-2.6,1.1l-0.3-0.2c0.7-1.2,2.2-1.6,3.1-1.6c2,0,2,1.7,2,2.2v5.7c-0.4,0-0.6,0-0.8,0.1v-0.5l0,0
	c-0.5,0.6-1.1,0.6-1.3,0.6c-0.9,0-2.1-0.9-2.1-2.2c0-1.2,0.9-2.4,2.6-2.4c0.3,0,0.5,0,0.7,0.1V23.6z M22.1,25.3c-0.2,0-0.4,0-0.6,0
	c-1.5,0-1.9,1.2-1.9,1.8c0,0.8,0.6,1.5,1.4,1.5c0.5,0,0.9-0.3,1-0.4V25.3z M23.7,23.4c0-0.8,0-1.4-0.8-2c1.6,0.3,1.6,1.4,1.6,2.5
	v3.4c0,0.9,0,1.5,1.3,1.7v0.2c-0.2,0-1.1-0.1-1.1-0.1c-0.6,0-0.6,0-1-0.1V23.4z M29.6,21.3v5.5c0,1.3,0.2,2.1,1,2.5h-0.3
	c-0.9-0.5-1.5-1.1-1.5-2.9v-5.1H29.6z M31.1,21.3v5.4c0,0.6,0,2,1.4,2c0.4,0,0.5-0.1,0.7-0.2v0.2c-0.3,0.2-0.7,0.5-1.2,0.5
	c-1.8,0-1.7-2-1.7-2.7v-5.3H31.1z M36.4,27c0,0.2,0,1.3,0.8,2c-1.2-0.2-1.7-1.2-1.7-2c0-1.3,1-1.7,1.6-1.9
	C36.6,25.7,36.4,26.3,36.4,27z M40.5,23.6c0-1-0.3-1.7-1.5-1.7c-0.1,0-1.6,0-2.6,1.1l-0.3-0.2c0.7-1.2,2.2-1.6,3.1-1.6
	c2,0,2,1.7,2,2.2v5.7c-0.4,0-0.6,0-0.8,0.1v-0.5l0,0c-0.5,0.6-1.1,0.6-1.3,0.6c-0.9,0-2.1-0.9-2.1-2.2c0-1.2,0.9-2.4,2.6-2.4
	c0.3,0,0.5,0,0.7,0.1V23.6z M40.5,25.3c-0.2,0-0.4,0-0.6,0c-1.5,0-1.9,1.2-1.9,1.8c0,0.8,0.6,1.5,1.4,1.5c0.5,0,0.9-0.3,1-0.4V25.3z
	 M42,23.4c0-0.8,0-1.4-0.8-2c1.6,0.3,1.6,1.4,1.6,2.5v3.4c0,0.9,0,1.5,1.3,1.7v0.2c-0.2,0-1.1-0.1-1.1-0.1c-0.6,0-0.6,0-1-0.1V23.4z
	 M47.1,26.5c0,1.9,0.2,2.2,0.7,2.8c-0.9-0.3-1.5-0.8-1.5-2.8v-7.6c0-1,0-2.1-1.2-2.3v-0.2c0.3,0,0.4,0,1,0.1c0.5,0,0.7,0,1,0V26.5z
	 M50.7,29c-0.3,0.2-0.6,0.4-1.2,0.4c-1.8,0-1.7-2-1.7-2.9v-10c0.3,0,0.5,0,0.9,0c0,0.5-0.1,1.6-0.1,2.5v7c0,1.8,0,2.8,1.4,2.8
	c0.3,0,0.5-0.1,0.6-0.1L50.7,29z M53.8,34.2l2.4-5.1l-3.3-5.8c-1-1.7-1.8-1.9-2.2-1.9v-0.2l1.8,0.1l4.6,7.8L56,31.4
	c-0.1,0.3-0.3,0.8-0.3,1.2c0,0.6,0.5,0.9,1.3,0.8v0.2L53.8,34.2z M53.3,21.3c1,0,1.1,0,2.2-0.1v0.2c-0.3,0.1-0.7,0.3-0.7,0.8
	c0,0.2,0,0.3,0.3,0.8l2.2,3.8l1.4-3c0,0,0.1-0.1,0.1-0.2c0.2-0.3,0.4-0.7,0.4-1.2c0-0.5-0.4-0.8-1-0.9v-0.2c0.2,0,0.3,0,0.9,0.1
	c0.3,0,0.6,0,0.9,0c0.2,0,0.8,0,1.6-0.1v0.2c-1.2,0.6-1.6,1.5-2,2.3l-2.2,4.6L53.3,21.3z M31.5,15.7c-0.8-0.9-1.5-3.2-1.5-3.2
	c0,0-0.7,2.2-1.5,3.2c-0.4,0.4-1,0.8-1.1,0.9c1.6-0.3,2.6,2.9,2.6,2.9s1.2-3.2,2.6-2.9C32.5,16.5,31.9,16.1,31.5,15.7z"/>
</svg>
