<?xml version="1.0" encoding="utf-8"?>
<!-- Generator: Adobe Illustrator 21.0.0, SVG Export Plug-In . SVG Version: 6.00 Build 0)  -->
<svg version="1.1" id="Capa_1" xmlns="http://www.w3.org/2000/svg" xmlns:xlink="http://www.w3.org/1999/xlink" x="0px" y="0px"
	 viewBox="0 0 23 23" style="enable-background:new 0 0 23 23;" xml:space="preserve">
<style type="text/css">
	.st0{fill:#265D9E;}
	.st1{fill:none;stroke:#FFFFFF;stroke-linecap:round;stroke-linejoin:round;stroke-miterlimit:10;}
</style>
<rect class="st0" width="23" height="23"/>
<polyline class="st1" points="15.1,15.4 15.1,18.4 7.9,18.4 7.9,15.4 "/>
<polyline class="st1" points="7.9,7.6 7.9,4.6 15.1,4.6 15.1,7.6 "/>
<line class="st1" x1="7.9" y1="15.4" x2="15.1" y2="7.9"/>
<line class="st1" x1="15.1" y1="15.4" x2="7.9" y2="7.8"/>
<line class="st1" x1="11.5" y1="11.6" x2="11.5" y2="15.1"/>
<line class="st1" x1="7.9" y1="18.4" x2="11.5" y2="15.1"/>
<line class="st1" x1="15.1" y1="16.9" x2="11.5" y2="15.1"/>
<line class="st1" x1="9.7" y1="9.3" x2="11.9" y2="10.7"/>
<line class="st1" x1="8.8" y1="8.8" x2="12.4" y2="10"/>
<line class="st1" x1="9.3" y1="18.4" x2="12.1" y2="15.6"/>
<line class="st1" x1="15.1" y1="18.4" x2="11.5" y2="16"/>
<line class="st1" x1="10.7" y1="18.4" x2="12.4" y2="16.9"/>
<line class="st1" x1="12.1" y1="18" x2="14.3" y2="17"/>
<line class="st1" x1="14.8" y1="17.9" x2="12.8" y2="16.2"/>
<line class="st1" x1="13.5" y1="18.4" x2="11.5" y2="16.9"/>
</svg>
