<?xml version="1.0" encoding="utf-8"?>
<!-- Generator: Adobe Illustrator 27.1.0, SVG Export Plug-In . SVG Version: 6.00 Build 0)  -->
<!DOCTYPE svg PUBLIC "-//W3C//DTD SVG 1.1//EN" "http://www.w3.org/Graphics/SVG/1.1/DTD/svg11.dtd" [
	<!ENTITY ns_extend "http://ns.adobe.com/Extensibility/1.0/">
	<!ENTITY ns_ai "http://ns.adobe.com/AdobeIllustrator/10.0/">
	<!ENTITY ns_graphs "http://ns.adobe.com/Graphs/1.0/">
	<!ENTITY ns_vars "http://ns.adobe.com/Variables/1.0/">
	<!ENTITY ns_imrep "http://ns.adobe.com/ImageReplacement/1.0/">
	<!ENTITY ns_sfw "http://ns.adobe.com/SaveForWeb/1.0/">
	<!ENTITY ns_custom "http://ns.adobe.com/GenericCustomNamespace/1.0/">
	<!ENTITY ns_adobe_xpath "http://ns.adobe.com/XPath/1.0/">
]>
<svg version="1.1" id="Capa_1" xmlns:x="&ns_extend;" xmlns:i="&ns_ai;" xmlns:graph="&ns_graphs;"
	 xmlns="http://www.w3.org/2000/svg" xmlns:xlink="http://www.w3.org/1999/xlink" x="0px" y="0px" width="23px" height="23px"
	 viewBox="0 0 23 23" style="enable-background:new 0 0 23 23;" xml:space="preserve">
<style type="text/css">
	.st0{fill:#265D9E;}
</style>
<metadata>
	<sfw  xmlns="&ns_sfw;">
		<slices></slices>
		<sliceSourceBounds  bottomLeftOrigin="true" height="18" width="19" x="2" y="2.6"></sliceSourceBounds>
	</sfw>
</metadata>
<path class="st0" d="M18.9,9.3V4.4c-0.3-1.4-1.2-2-2.9-2h-3.8H7c-0.2,0-0.4,0-0.6,0c-0.1,0-0.1,0-0.2,0c-0.1,0-0.2,0-0.3,0.1
	c-0.1,0-0.2,0.1-0.3,0.1c-0.1,0-0.1,0.1-0.2,0.1c-0.1,0-0.2,0.1-0.3,0.1C5,2.9,5,3,5,3C4.5,3.3,4.2,3.8,4.1,4.4c0,0,0,0,0,0
	C4,4.7,4,5,4,5.4v1v1.3v1.8c-1.3,0.3-2,1.3-2,3v2.7c0,0.8,0.7,1.6,1.6,1.6h0.5v1.6c0.3,1.4,1.2,2,2.9,2h9c1.6,0,2.6-0.7,2.9-2v-1.6
	h0.5c0.8,0,1.6-0.7,1.6-1.6v-2.8C21,10.7,20.3,9.7,18.9,9.3z M6,5.2c0-0.6,0.5-1,1-1H16c0.6,0,1,0.5,1,1v4.1H6V5.2z M17.2,17.8
	c0,0.6-0.5,1-1,1H7.1c-0.6,0-1-0.5-1-1v-1.1h11.2V17.8z M16.8,13.5c-0.6,0-1.1-0.4-1.1-1.1c0-0.6,0.4-1.1,1.1-1.1
	c0.6,0,1.1,0.4,1.1,1.1C17.8,13.1,17.4,13.5,16.8,13.5z"/>
</svg>
