<?xml version="1.0" encoding="utf-8"?>
<!-- Generator: Adobe Illustrator 24.3.0, SVG Export Plug-In . SVG Version: 6.00 Build 0)  -->
<svg version="1.1" id="Capa_1" xmlns="http://www.w3.org/2000/svg" xmlns:xlink="http://www.w3.org/1999/xlink" x="0px" y="0px"
	 viewBox="0 0 23 23" style="enable-background:new 0 0 23 23;" xml:space="preserve">
<style type="text/css">
	.st0{fill:#265D9E;}
</style>
<path id="print" class="st0" d="M17.5,6.5h-0.2v-2c0-0.2-0.1-0.4-0.2-0.5l-2-2c-0.1-0.1-0.3-0.2-0.5-0.2h-7c-1,0-1.8,0.8-1.8,1.8v3
	H5.5c-2,0-3,1-3,3V15c0,0.8,0.7,1.5,1.5,1.5h1.8v3c0,1,0.8,1.8,1.8,1.8h8c1,0,1.8-0.8,1.8-1.8v-3H19c0.8,0,1.5-0.7,1.5-1.5V9.5
	C20.5,7.5,19.5,6.5,17.5,6.5z M7.2,3.5c0-0.1,0.1-0.2,0.2-0.2h6.7l1.6,1.6v1.7H7.2V3.5z M15.8,19.5c0,0.1-0.1,0.2-0.2,0.2h-8
	c-0.1,0-0.2-0.1-0.2-0.2v-3v-1.2h8.5v1.2V19.5z M16.5,11.5c-0.6,0-1-0.4-1-1s0.4-1,1-1s1,0.4,1,1S17.1,11.5,16.5,11.5z"/>
</svg>
