<?xml version="1.0" encoding="utf-8"?>
<!-- Generator: Adobe Illustrator 24.3.0, SVG Export Plug-In . SVG Version: 6.00 Build 0)  -->
<svg version="1.1" id="Capa_1" xmlns="http://www.w3.org/2000/svg" xmlns:xlink="http://www.w3.org/1999/xlink" x="0px" y="0px"
	 viewBox="0 0 23 23" style="enable-background:new 0 0 23 23;" xml:space="preserve">
<style type="text/css">
	.st0{fill:#E03B3B;}
</style>
<path id="folder-lock" class="st0" d="M12.2,11v1.1h-1.5V11c0-0.4,0.3-0.8,0.8-0.8S12.2,10.6,12.2,11z M20.5,9.5v7c0,2-1,3-3,3h-12
	c-2,0-3-1-3-3v-10c0-2,1-3,3-3h4l3,3h5C19.5,6.5,20.5,7.5,20.5,9.5z M14.5,13.4c0-0.7-0.3-1.1-0.8-1.3V11c0-1.2-1-2.2-2.2-2.2
	s-2.2,1-2.2,2.2v1.2c-0.5,0.2-0.8,0.6-0.8,1.3v2.1c0,0.9,0.4,1.3,1.4,1.3h3.3c0.9,0,1.4-0.4,1.4-1.3V13.4z"/>
</svg>
