<?xml version="1.0" encoding="utf-8"?>
<!-- Generator: Adobe Illustrator 24.3.0, SVG Export Plug-In . SVG Version: 6.00 Build 0)  -->
<svg version="1.1" id="Capa_1" xmlns="http://www.w3.org/2000/svg" xmlns:xlink="http://www.w3.org/1999/xlink" x="0px" y="0px"
	 viewBox="0 0 23 23" style="enable-background:new 0 0 23 23;" xml:space="preserve">
<style type="text/css">
	.st0{fill:#FFFFFF;}
</style>
<path id="file-lock" class="st0" d="M12.2,12v1.1h-1.5V12c0-0.4,0.3-0.8,0.8-0.8S12.2,11.6,12.2,12z M16,7.8h2.2l-4.5-4.5v2.2
	C13.8,7.1,14.4,7.8,16,7.8z M19,9.2v8.2c0,2-1,3-3,3H7c-2,0-3-1-3-3v-12c0-2,1-3,3-3h5.2v3c0,2.4,1.3,3.8,3.8,3.8H19z M14.5,14.4
	c0-0.7-0.3-1.1-0.8-1.3V12c0-1.2-1-2.2-2.2-2.2s-2.2,1-2.2,2.2v1.2c-0.5,0.2-0.8,0.6-0.8,1.3v2.1c0,0.9,0.4,1.4,1.4,1.4h3.3
	c0.9,0,1.4-0.4,1.4-1.4V14.4z"/>
</svg>
