<?xml version="1.0" encoding="utf-8"?>
<!-- Generator: Adobe Illustrator 24.3.0, SVG Export Plug-In . SVG Version: 6.00 Build 0)  -->
<svg version="1.1" id="Capa_1" xmlns="http://www.w3.org/2000/svg" xmlns:xlink="http://www.w3.org/1999/xlink" x="0px" y="0px"
	 viewBox="0 0 23 23" style="enable-background:new 0 0 23 23;" xml:space="preserve">
<style type="text/css">
	.st0{fill:#FFFFFF;}
</style>
<g id="file-copy">
	<g id="file-copy_3_">
		<path class="st0" d="M15.5,18.8c-0.1,1.5-0.9,2.2-2.4,2.2H5.9c-1.6,0-2.4-0.8-2.4-2.4V8.4c0-1.5,0.7-2.3,2.2-2.4C5.8,6,6,6,6,6.3
			c0,0.3,0,8.3,0,8.3c0,2.4,1.5,3.9,3.9,3.9c0,0,5,0,5.3,0C15.5,18.5,15.5,18.8,15.5,18.8z M17,7.8c-2.1,0-3.2-1.2-3.2-3.2V2H9.9
			C8.3,2,7.5,2.8,7.5,4.4v10.2c0,1.6,0.8,2.4,2.4,2.4h7.2c1.6,0,2.4-0.8,2.4-2.4V7.8H17z M15.2,2.8v1.8c0,1.3,0.5,1.8,1.8,1.8h1.8
			L15.2,2.8z"/>
	</g>
</g>
</svg>
