<?xml version="1.0" encoding="utf-8"?>
<!-- Generator: Adobe Illustrator 24.3.0, SVG Export Plug-In . SVG Version: 6.00 Build 0)  -->
<svg version="1.1" id="Capa_1" xmlns="http://www.w3.org/2000/svg" xmlns:xlink="http://www.w3.org/1999/xlink" x="0px" y="0px"
	 viewBox="0 0 23 23" style="enable-background:new 0 0 23 23;" xml:space="preserve">
<style type="text/css">
	.st0{fill:#FFFFFF;}
</style>
<path id="file-times" class="st0" d="M13.8,5.5V3.2l4.5,4.5H16C14.4,7.8,13.8,7.1,13.8,5.5z M19,9.2v8.2c0,2-1,3-3,3H7c-2,0-3-1-3-3
	v-12c0-2,1-3,3-3h5.2v3c0,2.4,1.3,3.8,3.8,3.8H19z M12.6,13.5L14,12c0.3-0.3,0.3-0.8,0-1.1c-0.3-0.3-0.8-0.3-1.1,0l-1.5,1.5L10,11
	c-0.3-0.3-0.8-0.3-1.1,0c-0.3,0.3-0.3,0.8,0,1.1l1.5,1.5L9,15c-0.3,0.3-0.3,0.8,0,1.1c0.1,0.1,0.3,0.2,0.5,0.2S9.9,16.2,10,16
	l1.5-1.5L13,16c0.1,0.1,0.3,0.2,0.5,0.2s0.4-0.1,0.5-0.2c0.3-0.3,0.3-0.8,0-1.1L12.6,13.5z"/>
</svg>
