<?xml version="1.0" encoding="utf-8"?>
<!-- Generator: Adobe Illustrator 21.0.0, SVG Export Plug-In . SVG Version: 6.00 Build 0)  -->
<svg version="1.1" id="Capa_1" xmlns="http://www.w3.org/2000/svg" xmlns:xlink="http://www.w3.org/1999/xlink" x="0px" y="0px"
	 viewBox="0 0 75 40" style="enable-background:new 0 0 75 40;" xml:space="preserve">
<style type="text/css">
	.st0{fill:#757575;}
</style>
<rect class="st0" width="75" height="40"/>
<g>
	<path d="M5.1,24.9C5,24.7,5,24.4,5,24.2v-8.4c0-0.5,0.2-1,0.6-1.4s0.8-0.6,1.4-0.6c0.5,0,1,0.2,1.3,0.6c0.4,0.4,0.5,0.8,0.5,1.4
		v8.4c0,0.2,0,0.5-0.1,0.7s-0.2,0.5-0.4,0.6c-0.1,0.1-0.3,0.3-0.5,0.3C7.6,26,7.4,26,7.2,26.1H7.1H7c-0.1,0-0.1,0-0.2,0
		s-0.1,0-0.2,0c-0.2,0-0.3-0.1-0.5-0.2s-0.3-0.2-0.4-0.3C5.4,25.3,5.2,25.1,5.1,24.9z"/>
	<path d="M13.3,13.9c1.7,0,3,0.9,4,2.8c0.9-1.9,2.2-2.8,3.9-2.8c2.1,0.3,3.2,1.6,3.2,3.9c0,2.8-2.4,5.5-7.3,8.2
		c-4.7-2.5-7.1-5.4-7.1-8.6C10.1,15.2,11.2,14,13.3,13.9z"/>
	<path d="M26,25.4c-0.4-0.4-0.6-0.9-0.6-1.5v-8.1c0-0.3,0-0.5,0.1-0.7s0.2-0.4,0.4-0.6c0.1-0.1,0.3-0.3,0.5-0.4
		c0.2-0.1,0.4-0.2,0.6-0.2h0.1h0.1c0.1,0,0.1,0,0.2,0s0.1,0,0.2,0c0.2,0,0.3,0.1,0.5,0.2c0.2,0.1,0.3,0.2,0.4,0.3
		c0.2,0.2,0.3,0.4,0.4,0.6c0.1,0.2,0.2,0.5,0.2,0.7v6.8h2.8c0.5,0,0.8,0.2,1.2,0.5c0.3,0.3,0.5,0.7,0.5,1.2l0,0
		c0,0.4-0.2,0.8-0.5,1.1c-0.3,0.3-0.7,0.5-1.2,0.5h-4.7C26.9,26,26.4,25.8,26,25.4z"/>
	<path d="M35.7,26c-0.4-0.2-0.6-0.4-0.8-0.7c-0.2-0.3-0.3-0.6-0.3-1c0-0.1,0-0.2,0-0.3c0-0.1,0-0.2,0-0.3c0-0.1,0-0.1,0-0.2
		s0-0.1,0.1-0.2l2.9-7.3c0.3-0.7,0.7-1.2,1.2-1.6c0.5-0.4,1.1-0.5,1.7-0.5c0.7,0,1.2,0.2,1.7,0.5c0.5,0.4,0.9,0.9,1.2,1.6l2.9,7.3
		c0,0.1,0,0.1,0.1,0.2c0,0.1,0,0.1,0,0.2s0,0.2,0,0.3c0,0.1,0,0.2,0,0.3c0,0.4-0.1,0.7-0.3,1s-0.5,0.5-0.8,0.7c-0.1,0-0.1,0-0.2,0.1
		c-0.1,0-0.1,0-0.2,0c-0.1,0-0.1,0-0.2,0c-0.1,0-0.1,0-0.2,0c-0.4,0-0.7-0.1-1.1-0.3c-0.3-0.2-0.6-0.6-0.7-1l-0.2-0.5h-4.1l-0.2,0.5
		c-0.1,0.4-0.4,0.8-0.7,1s-0.7,0.3-1.1,0.3c-0.1,0-0.1,0-0.2,0c-0.1,0-0.1,0-0.2,0c-0.1,0-0.1,0-0.2,0C35.8,26,35.7,26,35.7,26
		L35.7,26z M41,20.9l-0.9-3.2l-0.9,3.2H41z"/>
	<path d="M49.2,26.1c-0.5,0-1-0.2-1.3-0.6c-0.4-0.4-0.6-0.8-0.6-1.4V16c0-0.6,0.2-1.1,0.5-1.5s0.8-0.5,1.4-0.5h3.7
		c1.2,0,2.1,0.3,2.8,0.8s1.2,1.2,1.4,2.2c0,0.1,0,0.2,0,0.3c0,0.1,0,0.2,0,0.3c0,0.1,0,0.2,0,0.3c0,0.1,0,0.2,0,0.3
		c0,0.5-0.1,1-0.3,1.5c-0.2,0.4-0.5,0.8-0.8,1.1l-0.1,0.1L55.7,21l-0.2,0.2l1.4,1.9c0.1,0.1,0.2,0.2,0.2,0.4
		c0.1,0.1,0.1,0.3,0.1,0.4s0,0.1,0,0.2s0,0.1,0,0.2v0.1v0.1c0,0.2-0.1,0.5-0.2,0.7c-0.1,0.2-0.3,0.4-0.5,0.6
		c-0.1,0.1-0.2,0.1-0.3,0.2c-0.2,0-0.3,0-0.4,0c-0.1,0-0.2,0-0.2,0c-0.1,0-0.2,0-0.2,0c-0.1,0-0.1,0-0.2,0c-0.1,0-0.1,0-0.2,0
		c-0.2-0.1-0.5-0.2-0.7-0.3c-0.2-0.2-0.4-0.4-0.6-0.7l-2.5-3.7v2.8c0,0.5-0.2,1-0.6,1.4C50.2,25.9,49.8,26.1,49.2,26.1L49.2,26.1z
		 M52.7,18.8c0.2,0,0.4-0.1,0.5-0.2s0.2-0.3,0.2-0.5V18c0-0.2-0.1-0.3-0.2-0.5c-0.1-0.1-0.3-0.2-0.4-0.2h-1.7v1.4h1.6V18.8z"/>
	<path d="M59.3,26c-0.4-0.2-0.6-0.4-0.8-0.7c-0.2-0.3-0.3-0.6-0.3-1c0-0.1,0-0.2,0-0.3c0-0.1,0-0.2,0-0.3c0-0.1,0-0.1,0-0.2
		s0-0.1,0.1-0.2l2.9-7.3c0.3-0.7,0.7-1.2,1.2-1.6c0.5-0.4,1.1-0.5,1.7-0.5c0.7,0,1.2,0.2,1.7,0.5c0.5,0.4,0.9,0.9,1.2,1.6l2.9,7.3
		c0,0.1,0,0.1,0.1,0.2c0,0.1,0,0.1,0,0.2s0,0.2,0,0.3c0,0.1,0,0.2,0,0.3c0,0.4-0.1,0.7-0.3,1c-0.2,0.3-0.5,0.5-0.8,0.7
		c-0.1,0-0.1,0-0.2,0.1c-0.1,0-0.1,0-0.2,0s-0.1,0-0.2,0s-0.1,0-0.2,0c-0.4,0-0.7-0.1-1.1-0.3c-0.3-0.2-0.6-0.6-0.7-1l-0.2-0.5H62
		l-0.2,0.5c-0.1,0.4-0.4,0.8-0.7,1s-0.7,0.3-1.1,0.3c-0.1,0-0.1,0-0.2,0c-0.1,0-0.1,0-0.2,0c-0.1,0-0.1,0-0.2,0
		C59.4,26,59.3,26,59.3,26L59.3,26z M64.6,20.9l-0.9-3.2l-0.9,3.2H64.6z"/>
</g>
</svg>
