<?xml version="1.0" encoding="utf-8"?>
<!-- Generator: Adobe Illustrator 24.3.0, SVG Export Plug-In . SVG Version: 6.00 Build 0)  -->
<svg version="1.1" id="Capa_1" xmlns="http://www.w3.org/2000/svg" xmlns:xlink="http://www.w3.org/1999/xlink" x="0px" y="0px"
	 viewBox="0 0 23 23" style="enable-background:new 0 0 23 23;" xml:space="preserve">
<style type="text/css">
	.st0{fill:#48AE4D;}
</style>
<path id="file-plus" class="st0" d="M13.8,5.5V3.2l4.5,4.5H16C14.4,7.8,13.8,7.1,13.8,5.5z M19,9.2v8.2c0,2-1,3-3,3H7c-2,0-3-1-3-3
	v-12c0-2,1-3,3-3h5.2v3c0,2.4,1.3,3.8,3.8,3.8H19z M14.8,13.5c0-0.4-0.3-0.8-0.8-0.8h-1.8V11c0-0.4-0.3-0.8-0.8-0.8
	s-0.8,0.3-0.8,0.8v1.8H9c-0.4,0-0.8,0.3-0.8,0.8c0,0.4,0.3,0.8,0.8,0.8h1.8V16c0,0.4,0.3,0.8,0.8,0.8s0.8-0.3,0.8-0.8v-1.8H14
	C14.4,14.2,14.8,13.9,14.8,13.5z"/>
</svg>
