<?xml version="1.0" encoding="utf-8"?>
<!-- Generator: Adobe Illustrator 21.0.0, SVG Export Plug-In . SVG Version: 6.00 Build 0)  -->
<svg version="1.1" id="Capa_1" xmlns="http://www.w3.org/2000/svg" xmlns:xlink="http://www.w3.org/1999/xlink" x="0px" y="0px"
	 viewBox="0 0 141.7 141.7" style="enable-background:new 0 0 141.7 141.7;" xml:space="preserve">
<style type="text/css">
	.st0{fill:#F2F2F2;}
	
		.st1{fill-rule:evenodd;clip-rule:evenodd;fill:none;stroke:#4E4D4D;stroke-width:2;stroke-linecap:round;stroke-linejoin:round;stroke-miterlimit:10;}
	.st2{fill:none;stroke:#4E4D4D;stroke-width:2;stroke-linecap:round;stroke-linejoin:round;stroke-miterlimit:10;}
</style>
<circle class="st0" cx="70.9" cy="70.9" r="65"/>
<g>
	<g>
		<path class="st1" d="M90.9,58.5c-0.8,1.2-1.9,1.9-3,1.8c-1.8,7.1-8,13.3-8,13.3c-0.1,2.1,1.4,5.9,1.9,7.6c-1,1.2-1.6,2.5-2.5,3.4
			C74,89.2,64.6,88.9,60,81.1c1-2.1,2.2-5.4,1.9-7.6c0,0-6.3-5.2-7.8-13.3c-1.1,0-2.2-0.8-3-2.1"/>
		<path class="st1" d="M116.2,114.2c-1.5-18.3-9.6-17.6-21.1-24v0"/>
		<path class="st1" d="M46.8,90.2c-11,7.3-19.3,5.4-21.1,24"/>
		<path class="st1" d="M60.3,40.3c-2.3,8.9-9.2,12.8-9.5,8.5c-5.6-33.1,44.6-33.5,40.3,0.3c0,0.3-0.3,1.5-0.7,2.2
			C90.2,51,90,51,89.5,51c-0.8-0.7-1.2-1.4-1.8-1.9c-1.5-1.4-2.9-0.4-5.6,0.4C73.1,52.1,62.5,49,60.3,40.3L60.3,40.3z"/>
	</g>
	<line class="st2" x1="58.9" y1="81.1" x2="46.8" y2="90.2"/>
	<line class="st2" x1="83" y1="81.1" x2="95.1" y2="90.2"/>
</g>
</svg>
