<?xml version="1.0" encoding="utf-8"?>
<!-- Generator: Adobe Illustrator 27.1.0, SVG Export Plug-In . SVG Version: 6.00 Build 0)  -->
<!DOCTYPE svg PUBLIC "-//W3C//DTD SVG 1.1//EN" "http://www.w3.org/Graphics/SVG/1.1/DTD/svg11.dtd" [
	<!ENTITY ns_extend "http://ns.adobe.com/Extensibility/1.0/">
	<!ENTITY ns_ai "http://ns.adobe.com/AdobeIllustrator/10.0/">
	<!ENTITY ns_graphs "http://ns.adobe.com/Graphs/1.0/">
	<!ENTITY ns_vars "http://ns.adobe.com/Variables/1.0/">
	<!ENTITY ns_imrep "http://ns.adobe.com/ImageReplacement/1.0/">
	<!ENTITY ns_sfw "http://ns.adobe.com/SaveForWeb/1.0/">
	<!ENTITY ns_custom "http://ns.adobe.com/GenericCustomNamespace/1.0/">
	<!ENTITY ns_adobe_xpath "http://ns.adobe.com/XPath/1.0/">
]>
<svg version="1.1" id="Capa_1" xmlns:x="&ns_extend;" xmlns:i="&ns_ai;" xmlns:graph="&ns_graphs;"
	 xmlns="http://www.w3.org/2000/svg" xmlns:xlink="http://www.w3.org/1999/xlink" x="0px" y="0px" width="23px" height="23px"
	 viewBox="0 0 23 23" style="enable-background:new 0 0 23 23;" xml:space="preserve">
<style type="text/css">
	.st0{fill:#B75546;}
</style>
<metadata>
	<sfw  xmlns="&ns_sfw;">
		<slices></slices>
		<sliceSourceBounds  bottomLeftOrigin="true" height="18" width="15" x="4" y="2.6"></sliceSourceBounds>
	</sfw>
</metadata>
<g>
	<path class="st0" d="M13.8,5.5V3.2l4.5,4.5H16C14.4,7.8,13.8,7.1,13.8,5.5z"/>
	<path class="st0" d="M16,9.2c-2.5,0-3.8-1.4-3.8-3.8v-3H7c-2,0-3,1-3,3v12c0,2,1,3,3,3h9c2,0,3-1,3-3V9.2H16z M14.8,13.8
		c0,0.3-0.2,0.6-0.6,0.6H8.8c-0.3,0-0.6-0.2-0.6-0.6v-0.3c0-0.3,0.2-0.6,0.6-0.6h5.5c0.3,0,0.6,0.2,0.6,0.6V13.8z"/>
</g>
</svg>
