<?xml version="1.0" encoding="utf-8"?>
<!-- Generator: Adobe Illustrator 24.3.0, SVG Export Plug-In . SVG Version: 6.00 Build 0)  -->
<svg version="1.1" id="Capa_1" xmlns="http://www.w3.org/2000/svg" xmlns:xlink="http://www.w3.org/1999/xlink" x="0px" y="0px"
	 viewBox="0 0 23 23" style="enable-background:new 0 0 23 23;" xml:space="preserve">
<style type="text/css">
	.st0{fill:#65B4EA;}
</style>
<path id="file-edit" class="st0" d="M13.8,5.5V3.2l4.5,4.5H16C14.4,7.8,13.8,7.1,13.8,5.5z M19,9.2v8.2c0,2-1,3-3,3H7c-2,0-3-1-3-3
	v-12c0-2,1-3,3-3h5.2v3c0,2.4,1.3,3.8,3.8,3.8H19z M13.7,14l-2.2-2.2l-4,4V18h2.2L13.7,14z M15.2,11.2l-1-1c-0.4-0.4-0.9-0.4-1.3,0
	L12.1,11l2.2,2.2l0.8-0.8C15.6,12.2,15.6,11.6,15.2,11.2z"/>
</svg>
