<?xml version="1.0" encoding="utf-8"?>
<!-- Generator: Adobe Illustrator 24.3.0, SVG Export Plug-In . SVG Version: 6.00 Build 0)  -->
<svg version="1.1" id="Capa_1" xmlns="http://www.w3.org/2000/svg" xmlns:xlink="http://www.w3.org/1999/xlink" x="0px" y="0px"
	 viewBox="0 0 23 23" style="enable-background:new 0 0 23 23;" xml:space="preserve">
<style type="text/css">
	.st0{fill:#49AA8A;}
</style>
<path id="percent-tag" class="st0" d="M16.6,2.5H6.4c-2,0-3,1-3,3v9c0,2,1,3,3,3h1.3c0.4,0,0.9,0.2,1.2,0.6l1.3,1.8
	c0.6,0.8,1.8,0.8,2.4,0L14,18c0.3-0.4,0.7-0.6,1.2-0.6h1.3c2,0,3-1,3-3v-9C19.6,3.5,18.6,2.5,16.6,2.5z M13.2,13.3
	c-0.4,0.4-0.7,0.6-1.2,0.6v0.2c0,0.4-0.4,0.7-0.7,0.7c-0.4,0-0.7-0.4-0.7-0.7v-0.2c-0.9-0.2-1.6-0.9-1.8-2c0-0.4,0.2-0.7,0.6-0.7
	c0.4,0,0.7,0.2,0.7,0.6c0,0.5,0.5,0.8,0.8,0.8h0.6c0.2,0,0.5-0.1,0.6-0.2c0.2-0.2,0.4-0.5,0.4-0.7c0-0.4-0.2-0.7-0.7-0.8l-1.3-0.4
	c-0.5-0.1-0.9-0.4-1.2-0.8C9,9.3,8.9,8.8,8.9,8.4c0-1.1,0.8-2,1.8-2.2V5.9c0-0.4,0.4-0.7,0.7-0.7S12,5.6,12,5.9v0.2
	c0.9,0.1,1.8,0.9,1.9,2c0,0.4-0.2,0.7-0.6,0.7c-0.5,0.1-0.8-0.2-0.8-0.6c0-0.5-0.5-0.8-0.8-0.8h-0.6c-0.5,0-0.8,0.4-0.8,0.8
	c0,0.2,0.1,0.4,0.2,0.5c0.1,0.1,0.2,0.2,0.5,0.4l1.3,0.4c1.1,0.2,1.6,1.2,1.6,2.1C13.9,12.2,13.7,12.8,13.2,13.3z"/>
</svg>
