<?xml version="1.0" encoding="utf-8"?>
<!-- Generator: Adobe Illustrator 24.3.0, SVG Export Plug-In . SVG Version: 6.00 Build 0)  -->
<svg version="1.1" id="Capa_1" xmlns="http://www.w3.org/2000/svg" xmlns:xlink="http://www.w3.org/1999/xlink" x="0px" y="0px"
	 viewBox="0 0 23 23" style="enable-background:new 0 0 23 23;" xml:space="preserve">
<style type="text/css">
	.st0{fill:#4961AD;}
</style>
<path id="percent-tag" class="st0" d="M16.6,2.5H6.4c-2,0-3,1-3,3v9c0,2,1,3,3,3h1.3c0.4,0,0.9,0.2,1.2,0.6l1.3,1.8
	c0.6,0.8,1.8,0.8,2.4,0L14,18c0.3-0.4,0.7-0.6,1.2-0.6h1.3c2,0,3-1,3-3v-9C19.6,3.5,18.6,2.5,16.6,2.5z M8.8,6C9.4,6,10,6.6,10,7.3
	S9.4,8.5,8.8,8.5c-0.7,0-1.2-0.6-1.2-1.2S8.1,6,8.8,6z M14.2,14c-0.7,0-1.2-0.6-1.2-1.2s0.6-1.2,1.2-1.2c0.7,0,1.2,0.6,1.2,1.2
	S14.9,14,14.2,14z M15.2,7.1l-6.6,6.6c-0.1,0.1-0.2,0.2-0.4,0.2s-0.3,0-0.4-0.2c-0.2-0.2-0.2-0.7,0-0.9l6.6-6.6
	C14.6,6,15,6,15.3,6.2C15.4,6.5,15.4,6.9,15.2,7.1z"/>
</svg>
