<?xml version="1.0" encoding="utf-8"?>
<!-- Generator: Adobe Illustrator 24.3.0, SVG Export Plug-In . SVG Version: 6.00 Build 0)  -->
<svg version="1.1" id="Capa_1" xmlns="http://www.w3.org/2000/svg" xmlns:xlink="http://www.w3.org/1999/xlink" x="0px" y="0px"
	 viewBox="0 0 18 18" style="enable-background:new 0 0 18 18;" xml:space="preserve">
<style type="text/css">
	.st0{fill:#828282;}
</style>
<path class="st0" d="M9.6,11.8c-0.3,0.3-0.6,0.5-1,0.5v0.2c0,0.3-0.3,0.6-0.6,0.6c-0.3,0-0.6-0.3-0.6-0.6v-0.2
	c-0.8-0.2-1.4-0.8-1.5-1.7c0-0.3,0.2-0.6,0.5-0.6c0.3,0,0.6,0.2,0.6,0.5c0,0.4,0.4,0.7,0.7,0.7h0.5c0.2,0,0.4-0.1,0.5-0.2
	C8.9,10.8,9,10.6,9,10.4c0-0.3-0.2-0.6-0.6-0.7L7.3,9.4c-0.4-0.1-0.8-0.3-1-0.7C6,8.4,5.9,8,5.9,7.6c0-0.9,0.7-1.7,1.5-1.9V5.5
	c0-0.3,0.3-0.6,0.6-0.6c0.3,0,0.6,0.3,0.6,0.6v0.2c0.8,0.1,1.5,0.8,1.6,1.7C10.2,7.7,10,8,9.7,8C9.3,8.1,9,7.8,9,7.5
	c0-0.4-0.4-0.7-0.7-0.7H7.8c-0.4,0-0.7,0.3-0.7,0.7c0,0.2,0.1,0.3,0.2,0.4c0.1,0.1,0.2,0.2,0.4,0.3l1.1,0.3c0.9,0.2,1.4,1,1.4,1.8
	C10.2,10.9,10,11.4,9.6,11.8z M2,4.9v8.3c0,1.6,0.8,2.4,2.4,2.4h7.3c1.6,0,2.4-0.8,2.4-2.4V12c0-0.4,0.2-0.7,0.5-1l1.5-1.1
	c0.6-0.5,0.6-1.5,0-1.9l-1.5-1.1c-0.3-0.2-0.5-0.6-0.5-1V4.9c0-1.6-0.8-2.4-2.4-2.4H4.4C2.8,2.4,2,3.3,2,4.9z"/>
</svg>
