<?xml version="1.0" encoding="utf-8"?>
<!-- Generator: Adobe Illustrator 24.3.0, SVG Export Plug-In . SVG Version: 6.00 Build 0)  -->
<svg version="1.1" id="Capa_1" xmlns="http://www.w3.org/2000/svg" xmlns:xlink="http://www.w3.org/1999/xlink" x="0px" y="0px"
	 viewBox="0 0 18 18" style="enable-background:new 0 0 18 18;" xml:space="preserve">
<style type="text/css">
	.st0{fill:#828282;}
</style>
<path class="st0" d="M7.3,5.7L7.3,5.7c0.5,0,0.9,0.4,0.9,0.9c0,0.5-0.4,0.9-0.9,0.9c-0.5,0-0.9-0.4-0.9-0.9C6.4,6.2,6.8,5.7,7.3,5.7
	z M7.8,11.8C7.6,12,7.4,12,7.3,12c-0.2,0-0.4-0.1-0.5-0.2c-0.3-0.3-0.3-0.7,0-1l4.7-4.7c0.3-0.3,0.7-0.3,1,0c0.3,0.3,0.3,0.7,0,1
	L7.8,11.8z M11.9,12.3c-0.5,0-0.9-0.4-0.9-0.9c0-0.5,0.4-0.9,0.9-0.9h0c0.5,0,0.9,0.4,0.9,0.9C12.9,11.8,12.5,12.3,11.9,12.3z
	 M15.9,13.1V4.9c0-1.6-0.8-2.4-2.4-2.4H6.2c-1.6,0-2.4,0.8-2.4,2.4V6c0,0.4-0.2,0.7-0.5,1L1.8,8c-0.6,0.5-0.6,1.5,0,1.9l1.5,1.1
	c0.3,0.2,0.5,0.6,0.5,1v1.1c0,1.6,0.8,2.4,2.4,2.4h7.3C15.1,15.6,15.9,14.7,15.9,13.1z"/>
</svg>
