<?xml version="1.0" encoding="utf-8"?>
<!-- Generator: Adobe Illustrator 27.1.0, SVG Export Plug-In . SVG Version: 6.00 Build 0)  -->
<!DOCTYPE svg PUBLIC "-//W3C//DTD SVG 1.1//EN" "http://www.w3.org/Graphics/SVG/1.1/DTD/svg11.dtd" [
	<!ENTITY ns_extend "http://ns.adobe.com/Extensibility/1.0/">
	<!ENTITY ns_ai "http://ns.adobe.com/AdobeIllustrator/10.0/">
	<!ENTITY ns_graphs "http://ns.adobe.com/Graphs/1.0/">
	<!ENTITY ns_vars "http://ns.adobe.com/Variables/1.0/">
	<!ENTITY ns_imrep "http://ns.adobe.com/ImageReplacement/1.0/">
	<!ENTITY ns_sfw "http://ns.adobe.com/SaveForWeb/1.0/">
	<!ENTITY ns_custom "http://ns.adobe.com/GenericCustomNamespace/1.0/">
	<!ENTITY ns_adobe_xpath "http://ns.adobe.com/XPath/1.0/">
]>
<svg version="1.1" id="Capa_1" xmlns:x="&ns_extend;" xmlns:i="&ns_ai;" xmlns:graph="&ns_graphs;"
	 xmlns="http://www.w3.org/2000/svg" xmlns:xlink="http://www.w3.org/1999/xlink" x="0px" y="0px" width="23px" height="23px"
	 viewBox="0 0 23 23" style="enable-background:new 0 0 23 23;" xml:space="preserve">
<style type="text/css">
	.st0{fill:#4968AD;}
	.st1{fill:#FFFFFF;}
</style>
<metadata>
	<sfw  xmlns="&ns_sfw;">
		<slices></slices>
		<sliceSourceBounds  bottomLeftOrigin="true" height="18" width="15" x="4" y="2.6"></sliceSourceBounds>
	</sfw>
</metadata>
<path class="st0" d="M13.8,5.5V3.2l4.5,4.5H16C14.4,7.8,13.8,7.1,13.8,5.5z"/>
<path class="st0" d="M19,9.2v8.2c0,2-1,3-3,3H7c-2,0-3-1-3-3v-12c0-2,1-3,3-3h5.2v3c0,2.4,1.3,3.8,3.8,3.8H19z"/>
<path class="st1" d="M16.3,12.3H7.1c-0.4,0-0.7-0.3-0.7-0.7v0c0-0.4,0.3-0.7,0.7-0.7h9.2c0.4,0,0.7,0.3,0.7,0.7v0
	C17,12,16.7,12.3,16.3,12.3z"/>
<path class="st1" d="M14.6,15.1H7c-0.4,0-0.6-0.3-0.6-0.6v-0.1c0-0.4,0.3-0.6,0.6-0.6h7.6c0.4,0,0.6,0.3,0.6,0.6v0.1
	C15.2,14.9,14.9,15.1,14.6,15.1z"/>
<path class="st1" d="M15.8,17.9H7.1c-0.4,0-0.7-0.3-0.7-0.7v0c0-0.4,0.3-0.7,0.7-0.7h8.7c0.4,0,0.7,0.3,0.7,0.7v0
	C16.5,17.6,16.1,17.9,15.8,17.9z"/>
</svg>
