<?xml version="1.0" encoding="utf-8"?>
<!-- Generator: Adobe Illustrator 21.0.0, SVG Export Plug-In . SVG Version: 6.00 Build 0)  -->
<svg version="1.1" id="Capa_1" xmlns="http://www.w3.org/2000/svg" xmlns:xlink="http://www.w3.org/1999/xlink" x="0px" y="0px"
	 viewBox="0 0 75 40" style="enable-background:new 0 0 75 40;" xml:space="preserve">
<style type="text/css">
	.st0{fill:#757575;}
</style>
<rect class="st0" width="75" height="40"/>
<g>
	<g>
		<g>
			<path d="M15.3,23c0,1.3-0.6,2.3-1.8,3.1c-1,0.6-2.2,1-3.6,1s-2.9-0.3-4.5-1l-0.2,0.1H5v-2.8h0.4c0.2,1,0.8,1.8,1.7,2.4
				c0.8,0.5,1.8,0.8,2.8,0.8s1.8-0.2,2.5-0.6c0.8-0.5,1.2-1.2,1.2-2.1c0-1.4-1.2-2.4-3.6-3.2c-3.1-1-4.7-2.4-4.7-4
				c0-1.2,0.5-2.1,1.6-2.7c0.9-0.5,2-0.8,3.2-0.8c1.3,0,2.6,0.3,3.9,0.9l0.3-0.1h0.2v2.4h-0.4c-0.2-0.8-0.8-1.5-1.6-2
				c-0.8-0.4-1.6-0.7-2.6-0.7c-0.8,0-1.5,0.2-2,0.6c-0.6,0.4-0.9,1-0.9,1.8c0,1.3,1.3,2.3,4,3.2C13.9,19.9,15.3,21.2,15.3,23z"/>
			<path d="M20.7,26.3h1.5v0.4h-4.8v-0.4h1.5V13.7h-1.5v-0.4h4.7v0.4h-1.5L20.7,26.3L20.7,26.3z"/>
			<path d="M26.5,20.1c0,1.9,0.5,3.4,1.5,4.6c1.1,1.2,2.5,1.8,4.4,1.8c0.6,0,1.3-0.1,2-0.4c0.8-0.3,1.3-0.7,1.5-1.1v-4.2H34h-0.5
				v-0.4H39v0.4h-1.3v4.7c-1.6,1.1-3.6,1.6-5.8,1.6c-2.1,0-3.9-0.6-5.3-1.8c-1.5-1.3-2.2-3-2.2-5.1c0-2.2,0.8-3.9,2.3-5.2
				s3.3-1.9,5.5-1.9c0.8,0,1.7,0.1,2.6,0.3c1.2,0.2,2,0.5,2.5,0.9l0.3-0.1h0.2v2.7h-0.4c-0.5-1.1-1.1-1.9-2-2.4
				c-0.8-0.6-1.8-0.8-3-0.8c-1.9,0-3.4,0.6-4.4,1.9C27,16.6,26.5,18.1,26.5,20.1z"/>
			<path d="M44.4,20.5v5.8h1.5v0.4h-4.7v-0.4h1.5V13.7h-1.5v-0.4h2.4h3.6c1.6,0,2.8,0.1,3.9,0.5c1.5,0.6,2.2,1.6,2.2,2.9
				c0,1.9-1.3,3-3.8,3.5c0.9,0.3,1.6,0.7,2.2,1.3c0.4,0.4,0.8,1,1.3,1.8c0.5,0.9,1,1.5,1.3,1.8c0.8,0.9,1.7,1.4,2.6,1.4v0.1
				c-0.7,0.1-1.4,0.2-1.9,0.1s-1.1-0.2-1.6-0.4c-0.6-0.3-1.1-0.7-1.5-1.2s-0.8-1.2-1.3-2.1c-0.8-1.5-2-2.3-3.5-2.5L44.4,20.5z
				 M44.4,20H47c2.7,0,4-1.1,4-3.3c0-2.1-1.3-3.2-3.8-3.1h-2.8V20z"/>
			<path d="M66.1,13.7v-0.4H70v0.4h-1.3l-5,7.4v5.1h1.5v0.4h-4.7v-0.4H62v-4.9l-5.2-7.6h-1.3v-0.4h4.9v0.4h-1.7l4.6,6.5l4.5-6.5
				C67.8,13.7,66.1,13.7,66.1,13.7z"/>
		</g>
		<g>
			<g>
				<path d="M69.9,24.8c-0.1-0.2-0.2-0.3-0.3-0.5c-0.1-0.1-0.3-0.2-0.5-0.3c-0.2-0.1-0.4-0.1-0.6-0.1s-0.4,0-0.5,0.1
					c-0.2,0.1-0.3,0.2-0.4,0.3c-0.1,0.1-0.2,0.3-0.3,0.5c-0.1,0.2-0.1,0.4-0.1,0.5c0,0.2,0,0.4,0.1,0.5c0.1,0.2,0.2,0.3,0.3,0.5
					c0.1,0.1,0.3,0.2,0.5,0.3c0.2,0.1,0.4,0.1,0.5,0.1c0.2,0,0.4,0,0.5-0.1c0.2-0.1,0.3-0.2,0.5-0.3c0.1-0.1,0.2-0.3,0.3-0.4
					c0.1-0.2,0.1-0.4,0.1-0.5C70,25.1,70,24.9,69.9,24.8z M69.7,25.8c-0.1,0.1-0.1,0.3-0.3,0.4c-0.1,0.1-0.3,0.2-0.4,0.3
					c-0.2,0.1-0.3,0.1-0.5,0.1s-0.3,0-0.5-0.1s-0.3-0.2-0.4-0.3c-0.1-0.1-0.2-0.3-0.3-0.4c-0.1-0.1-0.1-0.3-0.1-0.5s0-0.3,0.1-0.5
					c0.1-0.1,0.2-0.3,0.3-0.4c0.1-0.1,0.2-0.2,0.4-0.3c0.1-0.1,0.3-0.1,0.5-0.1s0.3,0,0.5,0.1s0.3,0.2,0.4,0.3
					c0.1,0.1,0.2,0.2,0.3,0.4c0.1,0.1,0.1,0.3,0.1,0.5C69.8,25.5,69.8,25.7,69.7,25.8z"/>
				<path d="M69.2,25.2c0.1-0.1,0.1-0.2,0.1-0.3c0-0.1-0.1-0.2-0.2-0.3c-0.1-0.1-0.3-0.1-0.5-0.1H68V26h0.2v-0.7h0.4l0.3,0.7h0.3
					l-0.3-0.7C69,25.3,69.1,25.3,69.2,25.2z M68.6,25.2h-0.3v-0.5h0.3c0.2,0,0.3,0,0.3,0.1c0.1,0,0.1,0.1,0.1,0.2s0,0.2-0.1,0.2
					C68.9,25.2,68.7,25.2,68.6,25.2z"/>
			</g>
		</g>
	</g>
</g>
</svg>
