<?xml version="1.0" encoding="utf-8"?>
<!-- Generator: Adobe Illustrator 24.3.0, SVG Export Plug-In . SVG Version: 6.00 Build 0)  -->
<svg version="1.1" id="Capa_1" xmlns="http://www.w3.org/2000/svg" xmlns:xlink="http://www.w3.org/1999/xlink" x="0px" y="0px"
	 viewBox="0 0 17 17" style="enable-background:new 0 0 17 17;" xml:space="preserve">
<style type="text/css">
	.st0{fill:#28A3CE;}
</style>
<path id="file-import" class="st0" d="M10.7,7.4c-1.2,0-1.8-0.6-1.8-1.8V4.2H6.3c-1,0-1.4,0.5-1.4,1.4v5.8c0,1,0.5,1.4,1.4,1.4h4.3
	c1,0,1.4-0.5,1.4-1.4v-4H10.7z M9.2,10.3H7.7L8,10.7c0.1,0.1,0.1,0.4,0,0.5c-0.1,0.1-0.2,0.1-0.3,0.1s-0.2,0-0.3-0.1l-1-1
	c0,0-0.1-0.1-0.1-0.1c0-0.1,0-0.2,0-0.3c0,0,0-0.1,0.1-0.1l1-1c0.1-0.1,0.4-0.1,0.5,0c0.1,0.1,0.1,0.4,0,0.5L7.7,9.6h1.5
	c0.2,0,0.4,0.2,0.4,0.4C9.6,10.1,9.4,10.3,9.2,10.3z M9.6,5.6V4.5l2.2,2.2h-1.1C9.9,6.7,9.6,6.4,9.6,5.6z"/>
</svg>
