<?xml version="1.0" encoding="utf-8"?>
<!-- Generator: Adobe Illustrator 21.0.0, SVG Export Plug-In . SVG Version: 6.00 Build 0)  -->
<svg version="1.1" id="Capa_1" xmlns="http://www.w3.org/2000/svg" xmlns:xlink="http://www.w3.org/1999/xlink" x="0px" y="0px"
	 viewBox="0 0 17 17" style="enable-background:new 0 0 17 17;" xml:space="preserve">
<style type="text/css">
	.st0{fill:#686868;}
</style>
<path class="st0" d="M1.3,1.9v13.2h14.3V1.9H1.3z M11.6,7.5c-0.1,0.1-0.2,0.2-0.4,0.2c-0.1,0-0.3,0-0.3-0.1L9,5.6v7.1
	c0,0.3-0.2,0.5-0.5,0.5S8,13,8,12.7v-7L6.1,7.5c-0.2,0.2-0.5,0.2-0.7,0S5.2,7,5.4,6.8l2.7-2.7C8.2,4,8.3,4,8.4,4
	c0.2,0,0.3,0,0.4,0.1l2.8,2.7C11.8,7,11.8,7.3,11.6,7.5z"/>
</svg>
