<?xml version="1.0" encoding="utf-8"?>
<!-- Generator: Adobe Illustrator 24.3.0, SVG Export Plug-In . SVG Version: 6.00 Build 0)  -->
<svg version="1.1" id="Capa_1" xmlns="http://www.w3.org/2000/svg" xmlns:xlink="http://www.w3.org/1999/xlink" x="0px" y="0px"
	 viewBox="0 0 23 23" style="enable-background:new 0 0 23 23;" xml:space="preserve">
<style type="text/css">
	.st0{fill:#43594A;}
</style>
<path id="package-check" class="st0" d="M12.2,8.4V2.8c0-0.2,0.1-0.3,0.3-0.3h3.7c2.3,0,2.5,0.9,2.9,2.2l1.1,3.7
	c0.1,0.2-0.1,0.4-0.3,0.4h-7.3C12.4,8.8,12.2,8.6,12.2,8.4z M3.1,8.8h7.3c0.2,0,0.3-0.1,0.3-0.3V2.8c0-0.2-0.1-0.3-0.3-0.3H6.8
	c-2.3,0-2.5,0.9-2.9,2.2L2.8,8.4C2.8,8.6,2.9,8.8,3.1,8.8z M20.5,10.6v6.9c0,2-1,3-3,3h-12c-2,0-3-1-3-3v-6.9c0-0.2,0.1-0.3,0.3-0.3
	h17.4C20.4,10.2,20.5,10.4,20.5,10.6z M14.5,12.6c-0.3-0.3-0.8-0.3-1.1,0l-2.8,2.8l-1.1-1.1c-0.3-0.3-0.8-0.3-1.1,0
	c-0.3,0.3-0.3,0.8,0,1.1l1.7,1.7c0.1,0.1,0.3,0.2,0.5,0.2c0.2,0,0.4-0.1,0.5-0.2l3.3-3.3C14.8,13.4,14.8,12.9,14.5,12.6z"/>
</svg>
