<?xml version="1.0" encoding="utf-8"?>
<!-- Generator: Adobe Illustrator 24.3.0, SVG Export Plug-In . SVG Version: 6.00 Build 0)  -->
<svg version="1.1" id="Capa_1" xmlns="http://www.w3.org/2000/svg" xmlns:xlink="http://www.w3.org/1999/xlink" x="0px" y="0px"
	 viewBox="0 0 23 23" style="enable-background:new 0 0 23 23;" xml:space="preserve">
<style type="text/css">
	.st0{fill:#627268;}
</style>
<path id="package-dollar" class="st0" d="M20.2,10.2H2.8c-0.2,0-0.3,0.1-0.3,0.3v6.9c0,2,1,3,3,3h12c2,0,3-1,3-3v-6.9
	C20.5,10.4,20.4,10.2,20.2,10.2z M13.2,17.9c-0.3,0.3-0.6,0.5-0.9,0.5v0.1c0,0.4-0.3,0.8-0.8,0.8c-0.4,0-0.8-0.3-0.8-0.8v-0.1
	c-0.8-0.2-1.4-0.9-1.5-1.8c0-0.4,0.3-0.8,0.7-0.8c0.4,0,0.8,0.3,0.8,0.7c0,0.3,0.2,0.5,0.5,0.5h0.5c0.2,0,0.3-0.1,0.4-0.2
	c0.1-0.1,0.2-0.3,0.2-0.4c0-0.3-0.2-0.5-0.4-0.5l-1.1-0.3c-0.4-0.1-0.8-0.4-1.1-0.7c-0.3-0.3-0.4-0.8-0.4-1.3c0-0.9,0.6-1.7,1.5-2
	v-0.1c0-0.4,0.3-0.8,0.8-0.8c0.4,0,0.8,0.3,0.8,0.8v0.1c0.8,0.2,1.4,0.9,1.5,1.8c0,0.4-0.3,0.8-0.7,0.8c-0.4,0-0.8-0.3-0.8-0.7
	c0-0.3-0.2-0.5-0.5-0.5h-0.5c-0.3,0-0.5,0.3-0.5,0.6c0,0.1,0,0.3,0.1,0.4c0.1,0.1,0.2,0.2,0.3,0.2l1.1,0.3c0.9,0.2,1.5,1.1,1.5,2
	C13.8,17,13.5,17.5,13.2,17.9z M2.8,8.4l1.1-3.7c0.4-1.3,0.6-2.2,2.9-2.2h3.7c0.2,0,0.3,0.1,0.3,0.3v5.6c0,0.2-0.1,0.3-0.3,0.3H3.1
	C2.9,8.8,2.8,8.6,2.8,8.4z M12.2,8.4V2.8c0-0.2,0.1-0.3,0.3-0.3h3.7c2.3,0,2.5,0.9,2.9,2.2l1.1,3.7c0.1,0.2-0.1,0.4-0.3,0.4h-7.3
	C12.4,8.8,12.2,8.6,12.2,8.4z"/>
</svg>
