<?xml version="1.0" encoding="utf-8"?>
<!-- Generator: Adobe Illustrator 24.3.0, SVG Export Plug-In . SVG Version: 6.00 Build 0)  -->
<svg version="1.1" id="Capa_1" xmlns="http://www.w3.org/2000/svg" xmlns:xlink="http://www.w3.org/1999/xlink" x="0px" y="0px"
	 viewBox="0 0 23 23" style="enable-background:new 0 0 23 23;" xml:space="preserve">
<style type="text/css">
	.st0{fill:#FFFFFF;}
</style>
<path id="sack-dollar" class="st0" d="M16.1,4l-0.7,1.1c-0.1,0.1-0.2,0.2-0.3,0.2H7.9c-0.1,0-0.3-0.1-0.3-0.2L6.9,4
	C6.5,3.3,7,2.5,7.8,2.5h7.5C16,2.5,16.5,3.3,16.1,4z M19.5,14.5c0,2-1,6-8,6s-8-4-8-6c0-3.3,2.1-6,3.7-7.6c0.1-0.1,0.2-0.1,0.3-0.1
	h8c0.1,0,0.2,0,0.3,0.1C17.4,8.5,19.5,11.2,19.5,14.5z M14,15.1c0-1-0.7-1.9-1.7-2.2l-1.3-0.3c-0.2,0-0.3-0.1-0.4-0.3
	c-0.1-0.1-0.2-0.3-0.2-0.5c0-0.4,0.3-0.7,0.7-0.7h0.6c0.4,0,0.7,0.3,0.7,0.7c0,0.4,0.4,0.7,0.8,0.7c0.4,0,0.7-0.4,0.7-0.8
	c-0.1-1-0.8-1.7-1.7-1.9V9.5c0-0.4-0.3-0.8-0.8-0.8s-0.8,0.3-0.8,0.8v0.2C9.8,9.9,9,10.8,9,11.9c0,0.5,0.2,1,0.5,1.4
	c0.3,0.4,0.7,0.7,1.2,0.8l1.3,0.3c0.3,0.1,0.6,0.4,0.6,0.7c0,0.2-0.1,0.4-0.2,0.5c-0.1,0.1-0.3,0.2-0.5,0.2h-0.6
	c-0.4,0-0.7-0.3-0.7-0.7c0-0.4-0.4-0.7-0.8-0.7c-0.4,0-0.7,0.4-0.7,0.8c0.1,1,0.8,1.7,1.7,1.9v0.2c0,0.4,0.3,0.8,0.8,0.8
	s0.8-0.3,0.8-0.8v-0.2c0.4-0.1,0.8-0.3,1.1-0.6C13.8,16.3,14,15.7,14,15.1z"/>
</svg>
