<?xml version="1.0" encoding="utf-8"?>
<!-- Generator: Adobe Illustrator 21.0.0, SVG Export Plug-In . SVG Version: 6.00 Build 0)  -->
<svg version="1.1" id="Capa_1" xmlns="http://www.w3.org/2000/svg" xmlns:xlink="http://www.w3.org/1999/xlink" x="0px" y="0px"
	 viewBox="0 0 17 17" style="enable-background:new 0 0 17 17;" xml:space="preserve">
<style type="text/css">
	.st0{fill:#48AD69;}
</style>
<g>
	<circle class="st0" cx="9.9" cy="7" r="1.9"/>
	<path class="st0" d="M1.3,1.9v13.2h14.3V1.9H1.3z M9.9,9.9c-0.6,0-1.1-0.2-1.6-0.5l-3.3,3.3c-0.1,0.1-0.2,0.1-0.4,0.1
		s-0.3,0-0.4-0.1c-0.2-0.2-0.2-0.5,0-0.7l3.3-3.3C7.3,8.2,7.1,7.6,7.1,7c0-1.6,1.3-2.9,2.9-2.9c1.6,0,2.9,1.3,2.9,2.9
		S11.5,9.9,9.9,9.9z"/>
</g>
</svg>
